<?xml version="1.0" encoding="UTF-8" standalone="no"?>
<!DOCTYPE svg PUBLIC "-//W3C//DTD SVG 1.1//EN"
 "http://www.w3.org/Graphics/SVG/1.1/DTD/svg11.dtd">
<!-- Generated by graphviz version 2.42.4 (0)
 -->
<!-- Title: api_contracts Pages: 1 -->
<svg width="2832pt" height="769pt"
 viewBox="0.00 0.00 2832.00 768.86" xmlns="http://www.w3.org/2000/svg" xmlns:xlink="http://www.w3.org/1999/xlink">
<g id="graph0" class="graph" transform="scale(1 1) rotate(0) translate(4 764.86)">
<title>api_contracts</title>
<polygon fill="white" stroke="transparent" points="-4,4 -4,-764.86 2828,-764.86 2828,4 -4,4"/>
<g id="clust1" class="cluster">
<title>cluster_routes</title>
<polygon fill="white" stroke="#cbd5e1" points="416,-8 416,-669 1011,-669 1011,-8 416,-8"/>
<text text-anchor="middle" x="713.5" y="-653.8" font-family="Helvetica,sans-Serif" font-size="14.00">REST endpoints</text>
</g>
<g id="clust2" class="cluster">
<title>cluster_guards</title>
<polygon fill="white" stroke="#fcd34d" points="1989,-87 1989,-274 2816,-274 2816,-87 1989,-87"/>
<text text-anchor="middle" x="2402.5" y="-258.8" font-family="Helvetica,sans-Serif" font-size="14.00">Middleware / guards</text>
</g>
<g id="clust3" class="cluster">
<title>cluster_internal</title>
<polygon fill="white" stroke="#a7f3d0" points="1155,-405 1155,-682 2304,-682 2304,-405 1155,-405"/>
<text text-anchor="middle" x="1729.5" y="-666.8" font-family="Helvetica,sans-Serif" font-size="14.00">Internal module contracts</text>
</g>
<!-- client -->
<g id="node1" class="node">
<title>client</title>
<path fill="#f8f9fa" stroke="black" d="M143,-345C143,-345 12,-345 12,-345 6,-345 0,-339 0,-333 0,-333 0,-321 0,-321 0,-315 6,-309 12,-309 12,-309 143,-309 143,-309 149,-309 155,-315 155,-321 155,-321 155,-333 155,-333 155,-339 149,-345 143,-345"/>
<text text-anchor="middle" x="77.5" y="-323.3" font-family="Helvetica,sans-Serif" font-size="14.00">Browser / tests / CLI</text>
</g>
<!-- json -->
<g id="node2" class="node">
<title>json</title>
<path fill="#e8f0fe" stroke="black" d="M284,-346C284,-346 204,-346 204,-346 198,-346 192,-340 192,-334 192,-334 192,-320 192,-320 192,-314 198,-308 204,-308 204,-308 284,-308 284,-308 290,-308 296,-314 296,-320 296,-320 296,-334 296,-334 296,-340 290,-346 284,-346"/>
<text text-anchor="middle" x="244" y="-330.8" font-family="Helvetica,sans-Serif" font-size="14.00">express.json</text>
<text text-anchor="middle" x="244" y="-315.8" font-family="Helvetica,sans-Serif" font-size="14.00">limit=1mb</text>
</g>
<!-- client&#45;&gt;json -->
<g id="edge1" class="edge">
<title>client&#45;&gt;json</title>
<path fill="none" stroke="#555555" d="M155.45,-327C164.25,-327 173.13,-327 181.69,-327"/>
<polygon fill="#555555" stroke="#555555" points="181.93,-330.5 191.93,-327 181.93,-323.5 181.93,-330.5"/>
</g>
<!-- auth -->
<g id="node3" class="node">
<title>auth</title>
<path fill="#e8f0fe" stroke="black" d="M375,-346C375,-346 345,-346 345,-346 339,-346 333,-340 333,-334 333,-334 333,-320 333,-320 333,-314 339,-308 345,-308 345,-308 375,-308 375,-308 381,-308 387,-314 387,-320 387,-320 387,-334 387,-334 387,-340 381,-346 375,-346"/>
<text text-anchor="middle" x="360" y="-330.8" font-family="Helvetica,sans-Serif" font-size="14.00">Auth</text>
<text text-anchor="middle" x="360" y="-315.8" font-family="Helvetica,sans-Serif" font-size="14.00">none</text>
</g>
<!-- json&#45;&gt;auth -->
<g id="edge2" class="edge">
<title>json&#45;&gt;auth</title>
<path fill="none" stroke="#555555" d="M296.33,-327C305.22,-327 314.3,-327 322.69,-327"/>
<polygon fill="#555555" stroke="#555555" points="322.88,-330.5 332.88,-327 322.88,-323.5 322.88,-330.5"/>
</g>
<!-- health -->
<g id="node4" class="node">
<title>health</title>
<path fill="#f8f9fa" stroke="black" d="M864.5,-637.5C864.5,-637.5 562.5,-637.5 562.5,-637.5 556.5,-637.5 550.5,-631.5 550.5,-625.5 550.5,-625.5 550.5,-596.5 550.5,-596.5 550.5,-590.5 556.5,-584.5 562.5,-584.5 562.5,-584.5 864.5,-584.5 864.5,-584.5 870.5,-584.5 876.5,-590.5 876.5,-596.5 876.5,-596.5 876.5,-625.5 876.5,-625.5 876.5,-631.5 870.5,-637.5 864.5,-637.5"/>
<text text-anchor="middle" x="713.5" y="-622.3" font-family="Helvetica,sans-Serif" font-size="14.00">GET /api/health</text>
<text text-anchor="middle" x="713.5" y="-607.3" font-family="Helvetica,sans-Serif" font-size="14.00">req: none</text>
<text text-anchor="middle" x="713.5" y="-592.3" font-family="Helvetica,sans-Serif" font-size="14.00">res: running, launched, pid, uptime, runtime</text>
</g>
<!-- auth&#45;&gt;health -->
<g id="edge3" class="edge">
<title>auth&#45;&gt;health</title>
<path fill="none" stroke="#555555" d="M362.44,-346.34C366.82,-399.34 381.78,-545.04 416,-576 449.68,-606.47 495.04,-620.18 540.14,-625.04"/>
<polygon fill="#555555" stroke="#555555" points="540.08,-628.55 550.36,-625.99 540.73,-621.58 540.08,-628.55"/>
</g>
<!-- launch -->
<g id="node5" class="node">
<title>launch</title>
<path fill="#f8f9fa" stroke="black" d="M901,-353.5C901,-353.5 526,-353.5 526,-353.5 520,-353.5 514,-347.5 514,-341.5 514,-341.5 514,-312.5 514,-312.5 514,-306.5 520,-300.5 526,-300.5 526,-300.5 901,-300.5 901,-300.5 907,-300.5 913,-306.5 913,-312.5 913,-312.5 913,-341.5 913,-341.5 913,-347.5 907,-353.5 901,-353.5"/>
<text text-anchor="middle" x="713.5" y="-338.3" font-family="Helvetica,sans-Serif" font-size="14.00">POST /api/launch</text>
<text text-anchor="middle" x="713.5" y="-323.3" font-family="Helvetica,sans-Serif" font-size="14.00">req: project?</text>
<text text-anchor="middle" x="713.5" y="-308.3" font-family="Helvetica,sans-Serif" font-size="14.00">res: launched, project, projectName, sceneObjectCount</text>
</g>
<!-- auth&#45;&gt;launch -->
<g id="edge4" class="edge">
<title>auth&#45;&gt;launch</title>
<path fill="none" stroke="#555555" d="M387.13,-327C413.57,-327 457.12,-327 503.9,-327"/>
<polygon fill="#555555" stroke="#555555" points="503.92,-330.5 513.92,-327 503.92,-323.5 503.92,-330.5"/>
</g>
<!-- add_object -->
<g id="node6" class="node">
<title>add_object</title>
<path fill="#f8f9fa" stroke="black" d="M919.5,-566.5C919.5,-566.5 507.5,-566.5 507.5,-566.5 501.5,-566.5 495.5,-560.5 495.5,-554.5 495.5,-554.5 495.5,-525.5 495.5,-525.5 495.5,-519.5 501.5,-513.5 507.5,-513.5 507.5,-513.5 919.5,-513.5 919.5,-513.5 925.5,-513.5 931.5,-519.5 931.5,-525.5 931.5,-525.5 931.5,-554.5 931.5,-554.5 931.5,-560.5 925.5,-566.5 919.5,-566.5"/>
<text text-anchor="middle" x="713.5" y="-551.3" font-family="Helvetica,sans-Serif" font-size="14.00">POST /api/scene/add&#45;object</text>
<text text-anchor="middle" x="713.5" y="-536.3" font-family="Helvetica,sans-Serif" font-size="14.00">req: className, name?</text>
<text text-anchor="middle" x="713.5" y="-521.3" font-family="Helvetica,sans-Serif" font-size="14.00">res: added, objectName, className, count, evidenceArtifact</text>
</g>
<!-- auth&#45;&gt;add_object -->
<g id="edge5" class="edge">
<title>auth&#45;&gt;add_object</title>
<path fill="none" stroke="#555555" d="M360.63,-346.2C361.06,-383.33 367.78,-464.85 416,-505 436.31,-521.91 460.29,-533.47 485.67,-541.15"/>
<polygon fill="#555555" stroke="#555555" points="484.89,-544.56 495.47,-543.9 486.79,-537.82 484.89,-544.56"/>
</g>
<!-- edit_proc -->
<g id="node7" class="node">
<title>edit_proc</title>
<path fill="#f8f9fa" stroke="black" d="M938,-495.5C938,-495.5 489,-495.5 489,-495.5 483,-495.5 477,-489.5 477,-483.5 477,-483.5 477,-454.5 477,-454.5 477,-448.5 483,-442.5 489,-442.5 489,-442.5 938,-442.5 938,-442.5 944,-442.5 950,-448.5 950,-454.5 950,-454.5 950,-483.5 950,-483.5 950,-489.5 944,-495.5 938,-495.5"/>
<text text-anchor="middle" x="713.5" y="-480.3" font-family="Helvetica,sans-Serif" font-size="14.00">POST /api/code/edit&#45;procedure</text>
<text text-anchor="middle" x="713.5" y="-465.3" font-family="Helvetica,sans-Serif" font-size="14.00">req: procedureSelector?, editSpec?</text>
<text text-anchor="middle" x="713.5" y="-450.3" font-family="Helvetica,sans-Serif" font-size="14.00">res: proved, edited_project_artifact, action_proof, evidenceArtifact</text>
</g>
<!-- auth&#45;&gt;edit_proc -->
<g id="edge6" class="edge">
<title>auth&#45;&gt;edit_proc</title>
<path fill="none" stroke="#555555" d="M365.02,-346.1C371.3,-370.81 385.97,-413.16 416,-434 431.68,-444.89 448.99,-453.36 467.13,-459.9"/>
<polygon fill="#555555" stroke="#555555" points="466.09,-463.24 476.69,-463.14 468.34,-456.62 466.09,-463.24"/>
</g>
<!-- save_route -->
<g id="node8" class="node">
<title>save_route</title>
<path fill="#f8f9fa" stroke="black" d="M935.5,-424.5C935.5,-424.5 491.5,-424.5 491.5,-424.5 485.5,-424.5 479.5,-418.5 479.5,-412.5 479.5,-412.5 479.5,-383.5 479.5,-383.5 479.5,-377.5 485.5,-371.5 491.5,-371.5 491.5,-371.5 935.5,-371.5 935.5,-371.5 941.5,-371.5 947.5,-377.5 947.5,-383.5 947.5,-383.5 947.5,-412.5 947.5,-412.5 947.5,-418.5 941.5,-424.5 935.5,-424.5"/>
<text text-anchor="middle" x="713.5" y="-409.3" font-family="Helvetica,sans-Serif" font-size="14.00">POST /api/project/save</text>
<text text-anchor="middle" x="713.5" y="-394.3" font-family="Helvetica,sans-Serif" font-size="14.00">req: saveSelector?, targetPath?</text>
<text text-anchor="middle" x="713.5" y="-379.3" font-family="Helvetica,sans-Serif" font-size="14.00">res: saved, saved_project_artifact, save_artifact, evidenceArtifact</text>
</g>
<!-- auth&#45;&gt;save_route -->
<g id="edge7" class="edge">
<title>auth&#45;&gt;save_route</title>
<path fill="none" stroke="#555555" d="M384.89,-346.09C394.11,-352.5 405.06,-359.02 416,-363 433.14,-369.23 451.16,-374.4 469.51,-378.7"/>
<polygon fill="#555555" stroke="#555555" points="468.91,-382.15 479.43,-380.93 470.44,-375.32 468.91,-382.15"/>
</g>
<!-- run_world -->
<g id="node9" class="node">
<title>run_world</title>
<path fill="#f8f9fa" stroke="black" d="M937,-282.5C937,-282.5 490,-282.5 490,-282.5 484,-282.5 478,-276.5 478,-270.5 478,-270.5 478,-241.5 478,-241.5 478,-235.5 484,-229.5 490,-229.5 490,-229.5 937,-229.5 937,-229.5 943,-229.5 949,-235.5 949,-241.5 949,-241.5 949,-270.5 949,-270.5 949,-276.5 943,-282.5 937,-282.5"/>
<text text-anchor="middle" x="713.5" y="-267.3" font-family="Helvetica,sans-Serif" font-size="14.00">POST /api/world/run</text>
<text text-anchor="middle" x="713.5" y="-252.3" font-family="Helvetica,sans-Serif" font-size="14.00">req: {}</text>
<text text-anchor="middle" x="713.5" y="-237.3" font-family="Helvetica,sans-Serif" font-size="14.00">res: completed, execution_log, run_duration_ms, evidenceArtifact</text>
</g>
<!-- auth&#45;&gt;run_world -->
<g id="edge8" class="edge">
<title>auth&#45;&gt;run_world</title>
<path fill="none" stroke="#555555" d="M385.78,-307.92C394.84,-301.87 405.45,-295.78 416,-292 432.68,-286.03 450.19,-281.01 468.02,-276.79"/>
<polygon fill="#555555" stroke="#555555" points="468.97,-280.17 477.95,-274.53 467.42,-273.34 468.97,-280.17"/>
</g>
<!-- screenshot -->
<g id="node10" class="node">
<title>screenshot</title>
<path fill="#f8f9fa" stroke="black" d="M892,-211.5C892,-211.5 535,-211.5 535,-211.5 529,-211.5 523,-205.5 523,-199.5 523,-199.5 523,-170.5 523,-170.5 523,-164.5 529,-158.5 535,-158.5 535,-158.5 892,-158.5 892,-158.5 898,-158.5 904,-164.5 904,-170.5 904,-170.5 904,-199.5 904,-199.5 904,-205.5 898,-211.5 892,-211.5"/>
<text text-anchor="middle" x="713.5" y="-196.3" font-family="Helvetica,sans-Serif" font-size="14.00">GET /api/screenshot</text>
<text text-anchor="middle" x="713.5" y="-181.3" font-family="Helvetica,sans-Serif" font-size="14.00">req: none</text>
<text text-anchor="middle" x="713.5" y="-166.3" font-family="Helvetica,sans-Serif" font-size="14.00">res: captured path/objectCount or placeholder+error</text>
</g>
<!-- auth&#45;&gt;screenshot -->
<g id="edge9" class="edge">
<title>auth&#45;&gt;screenshot</title>
<path fill="none" stroke="#555555" d="M365.19,-307.67C371.6,-283.14 386.36,-241.56 416,-221 444.4,-201.3 478.12,-189.41 512.46,-182.61"/>
<polygon fill="#555555" stroke="#555555" points="513.44,-185.99 522.65,-180.75 512.18,-179.11 513.44,-185.99"/>
</g>
<!-- register -->
<g id="node11" class="node">
<title>register</title>
<path fill="#f8f9fa" stroke="black" d="M991,-140.5C991,-140.5 436,-140.5 436,-140.5 430,-140.5 424,-134.5 424,-128.5 424,-128.5 424,-99.5 424,-99.5 424,-93.5 430,-87.5 436,-87.5 436,-87.5 991,-87.5 991,-87.5 997,-87.5 1003,-93.5 1003,-99.5 1003,-99.5 1003,-128.5 1003,-128.5 1003,-134.5 997,-140.5 991,-140.5"/>
<text text-anchor="middle" x="713.5" y="-125.3" font-family="Helvetica,sans-Serif" font-size="14.00">POST /api/events/register</text>
<text text-anchor="middle" x="713.5" y="-110.3" font-family="Helvetica,sans-Serif" font-size="14.00">req: eventType + optional handler/key/target/useCapture/targetObjects/threshold</text>
<text text-anchor="middle" x="713.5" y="-95.3" font-family="Helvetica,sans-Serif" font-size="14.00">res: registrationId, eventType, handlerName, evidenceArtifact</text>
</g>
<!-- auth&#45;&gt;register -->
<g id="edge10" class="edge">
<title>auth&#45;&gt;register</title>
<path fill="none" stroke="#555555" d="M360.68,-307.92C361.19,-271.02 368.06,-189.99 416,-150 417.37,-148.86 418.75,-147.74 420.16,-146.65"/>
<polygon fill="#555555" stroke="#555555" points="422.36,-149.37 428.35,-140.64 418.22,-143.73 422.36,-149.37"/>
</g>
<!-- fire -->
<g id="node12" class="node">
<title>fire</title>
<path fill="#f8f9fa" stroke="black" d="M823,-69.5C823,-69.5 604,-69.5 604,-69.5 598,-69.5 592,-63.5 592,-57.5 592,-57.5 592,-28.5 592,-28.5 592,-22.5 598,-16.5 604,-16.5 604,-16.5 823,-16.5 823,-16.5 829,-16.5 835,-22.5 835,-28.5 835,-28.5 835,-57.5 835,-57.5 835,-63.5 829,-69.5 823,-69.5"/>
<text text-anchor="middle" x="713.5" y="-54.3" font-family="Helvetica,sans-Serif" font-size="14.00">POST /api/events/fire</text>
<text text-anchor="middle" x="713.5" y="-39.3" font-family="Helvetica,sans-Serif" font-size="14.00">req: eventType + payload?</text>
<text text-anchor="middle" x="713.5" y="-24.3" font-family="Helvetica,sans-Serif" font-size="14.00">res: triggered[], evidenceArtifact</text>
</g>
<!-- auth&#45;&gt;fire -->
<g id="edge11" class="edge">
<title>auth&#45;&gt;fire</title>
<path fill="none" stroke="#555555" d="M362.46,-307.74C366.88,-254.97 381.95,-109.89 416,-79 460.11,-38.99 524.32,-27.63 581.72,-27.27"/>
<polygon fill="#555555" stroke="#555555" points="581.96,-30.77 591.98,-27.32 582,-23.77 581.96,-30.77"/>
</g>
<!-- launch_guard -->
<g id="node14" class="node">
<title>launch_guard</title>
<path fill="#fef3c7" stroke="black" d="M2259,-243C2259,-243 2096,-243 2096,-243 2090,-243 2084,-237 2084,-231 2084,-231 2084,-217 2084,-217 2084,-211 2090,-205 2096,-205 2096,-205 2259,-205 2259,-205 2265,-205 2271,-211 2271,-217 2271,-217 2271,-231 2271,-231 2271,-237 2265,-243 2259,-243"/>
<text text-anchor="middle" x="2177.5" y="-227.8" font-family="Helvetica,sans-Serif" font-size="14.00">launch path suffix check</text>
<text text-anchor="middle" x="2177.5" y="-212.8" font-family="Helvetica,sans-Serif" font-size="14.00">400 if not .a3p</text>
</g>
<!-- launch&#45;&gt;launch_guard -->
<g id="edge12" class="edge">
<title>launch&#45;&gt;launch_guard</title>
<path fill="none" stroke="#555555" d="M913.02,-304.83C1056.11,-289.18 1229.97,-271 1265,-271 1265,-271 1265,-271 1812,-271 1900.82,-271 2000.82,-257.1 2073.58,-244.42"/>
<polygon fill="#555555" stroke="#555555" points="2074.42,-247.83 2083.66,-242.64 2073.2,-240.93 2074.42,-247.83"/>
</g>
<!-- fs -->
<g id="node25" class="node">
<title>fs</title>
<path fill="#fde68a" stroke="black" d="M1960,-486.48C1960,-489.11 1930.87,-491.25 1895,-491.25 1859.13,-491.25 1830,-489.11 1830,-486.48 1830,-486.48 1830,-443.52 1830,-443.52 1830,-440.89 1859.13,-438.75 1895,-438.75 1930.87,-438.75 1960,-440.89 1960,-443.52 1960,-443.52 1960,-486.48 1960,-486.48"/>
<path fill="none" stroke="black" d="M1960,-486.48C1960,-483.84 1930.87,-481.7 1895,-481.7 1859.13,-481.7 1830,-483.84 1830,-486.48"/>
<text text-anchor="middle" x="1895" y="-468.8" font-family="Helvetica,sans-Serif" font-size="14.00">filesystem</text>
<text text-anchor="middle" x="1895" y="-453.8" font-family="Helvetica,sans-Serif" font-size="14.00">.a3p / json / png</text>
</g>
<!-- launch&#45;&gt;fs -->
<g id="edge24" class="edge">
<title>launch&#45;&gt;fs</title>
<path fill="none" stroke="#555555" d="M913.04,-313.27C950.16,-320.33 985.31,-335.2 1011,-363 1028.96,-382.44 1006.08,-579.14 1021,-601 1057.69,-654.74 1091.32,-646.6 1155,-660 1294.94,-689.44 1668.48,-646.32 1793,-576 1825.61,-557.58 1853.45,-524.85 1871.58,-499.69"/>
<polygon fill="#555555" stroke="#555555" points="1874.47,-501.67 1877.36,-491.47 1868.74,-497.64 1874.47,-501.67"/>
<text text-anchor="middle" x="1420.5" y="-667.8" font-family="Helvetica,sans-Serif" font-size="14.00">read .a3p</text>
</g>
<!-- state -->
<g id="node13" class="node">
<title>state</title>
<path fill="#fef3c7" stroke="black" d="M2796,-242.5C2796,-242.5 2407,-242.5 2407,-242.5 2401,-242.5 2395,-236.5 2395,-230.5 2395,-230.5 2395,-201.5 2395,-201.5 2395,-195.5 2401,-189.5 2407,-189.5 2407,-189.5 2796,-189.5 2796,-189.5 2802,-189.5 2808,-195.5 2808,-201.5 2808,-201.5 2808,-230.5 2808,-230.5 2808,-236.5 2802,-242.5 2796,-242.5"/>
<text text-anchor="middle" x="2601.5" y="-227.3" font-family="Helvetica,sans-Serif" font-size="14.00">ServerState</text>
<text text-anchor="middle" x="2601.5" y="-212.3" font-family="Helvetica,sans-Serif" font-size="14.00">launched | projectPath | projectName</text>
<text text-anchor="middle" x="2601.5" y="-197.3" font-family="Helvetica,sans-Serif" font-size="14.00">sceneObjects | procedures | parsedProject | eventSystem</text>
</g>
<!-- add_object&#45;&gt;state -->
<g id="edge14" class="edge">
<title>add_object&#45;&gt;state</title>
<path fill="none" stroke="#555555" d="M931.78,-531.63C961.63,-539.74 989.39,-553.61 1011,-576 1029.12,-594.78 1004.39,-672.87 1021,-693 1092.21,-779.3 1153.11,-755 1265,-755 1265,-755 1265,-755 2178.5,-755 2258.99,-755 2293.05,-778.54 2358,-731 2522.69,-610.47 2579.48,-349.27 2595.28,-252.79"/>
<polygon fill="#555555" stroke="#555555" points="2598.78,-253.07 2596.89,-242.65 2591.86,-251.97 2598.78,-253.07"/>
</g>
<!-- edit_proc&#45;&gt;state -->
<g id="edge15" class="edge">
<title>edit_proc&#45;&gt;state</title>
<path fill="none" stroke="#555555" d="M950.36,-466.25C973.12,-474.71 994.01,-487.17 1011,-505 1032.21,-527.26 1002,-618.83 1021,-643 1091.04,-732.08 1151.68,-717 1265,-717 1265,-717 1265,-717 2178.5,-717 2259.46,-717 2292.71,-733.88 2358,-686 2508.99,-575.27 2573.31,-342.72 2593.22,-252.69"/>
<polygon fill="#555555" stroke="#555555" points="2596.69,-253.19 2595.38,-242.68 2589.85,-251.72 2596.69,-253.19"/>
</g>
<!-- tweedle_parser -->
<g id="node19" class="node">
<title>tweedle_parser</title>
<path fill="#ecfdf5" stroke="black" d="M1336.5,-650.5C1336.5,-650.5 1195.5,-650.5 1195.5,-650.5 1189.5,-650.5 1183.5,-644.5 1183.5,-638.5 1183.5,-638.5 1183.5,-609.5 1183.5,-609.5 1183.5,-603.5 1189.5,-597.5 1195.5,-597.5 1195.5,-597.5 1336.5,-597.5 1336.5,-597.5 1342.5,-597.5 1348.5,-603.5 1348.5,-609.5 1348.5,-609.5 1348.5,-638.5 1348.5,-638.5 1348.5,-644.5 1342.5,-650.5 1336.5,-650.5"/>
<text text-anchor="middle" x="1266" y="-635.3" font-family="Helvetica,sans-Serif" font-size="14.00">tweedle&#45;parser</text>
<text text-anchor="middle" x="1266" y="-620.3" font-family="Helvetica,sans-Serif" font-size="14.00">parse(source) &#45;&gt; AST</text>
<text text-anchor="middle" x="1266" y="-605.3" font-family="Helvetica,sans-Serif" font-size="14.00">actual: parseTweedle</text>
</g>
<!-- edit_proc&#45;&gt;tweedle_parser -->
<g id="edge28" class="edge">
<title>edit_proc&#45;&gt;tweedle_parser</title>
<path fill="none" stroke="#555555" stroke-dasharray="5,2" d="M950.31,-488.79C971.08,-493.18 991.57,-498.52 1011,-505 1081.08,-528.37 1087.54,-557.91 1155,-588 1161.1,-590.72 1167.48,-593.35 1173.95,-595.85"/>
<polygon fill="#555555" stroke="#555555" points="1172.89,-599.19 1183.48,-599.43 1175.35,-592.63 1172.89,-599.19"/>
<text text-anchor="middle" x="1083" y="-585.8" font-family="Helvetica,sans-Serif" font-size="14.00">adjacent IDE path</text>
</g>
<!-- evidence -->
<g id="node23" class="node">
<title>evidence</title>
<path fill="#ecfdf5" stroke="black" d="M1683,-507C1683,-507 1582,-507 1582,-507 1576,-507 1570,-501 1570,-495 1570,-495 1570,-481 1570,-481 1570,-475 1576,-469 1582,-469 1582,-469 1683,-469 1683,-469 1689,-469 1695,-475 1695,-481 1695,-481 1695,-495 1695,-495 1695,-501 1689,-507 1683,-507"/>
<text text-anchor="middle" x="1632.5" y="-491.8" font-family="Helvetica,sans-Serif" font-size="14.00">evidence&#45;writer</text>
<text text-anchor="middle" x="1632.5" y="-476.8" font-family="Helvetica,sans-Serif" font-size="14.00">proof JSON files</text>
</g>
<!-- edit_proc&#45;&gt;evidence -->
<g id="edge27" class="edge">
<title>edit_proc&#45;&gt;evidence</title>
<path fill="none" stroke="#555555" d="M950.25,-443.08C970.83,-440.24 991.3,-437.21 1011,-434 1168.59,-408.33 1213.69,-366.95 1369,-404 1410.18,-413.82 1417.84,-424.98 1454,-447 1462.43,-452.13 1462.91,-456.16 1472,-460 1499.45,-471.59 1531.51,-478.39 1559.66,-482.37"/>
<polygon fill="#555555" stroke="#555555" points="1559.46,-485.87 1569.83,-483.71 1560.38,-478.93 1559.46,-485.87"/>
</g>
<!-- save_route&#45;&gt;state -->
<g id="edge16" class="edge">
<title>save_route&#45;&gt;state</title>
<path fill="none" stroke="#555555" d="M941.98,-371.47C965.3,-368.66 988.63,-365.8 1011,-363 1192.72,-340.27 1236.37,-309 1419.5,-309 1419.5,-309 1419.5,-309 2178.5,-309 2298.23,-309 2432.69,-272.85 2516.98,-245.63"/>
<polygon fill="#555555" stroke="#555555" points="2518.08,-248.95 2526.5,-242.53 2515.91,-242.3 2518.08,-248.95"/>
</g>
<!-- save_route&#45;&gt;evidence -->
<g id="edge32" class="edge">
<title>save_route&#45;&gt;evidence</title>
<path fill="none" stroke="#555555" d="M947.71,-378.11C1072.99,-371.26 1229.86,-368.85 1369,-385 1407.55,-389.47 1425.41,-378.75 1454,-405 1472.94,-422.4 1452.56,-443.15 1472,-460 1495.86,-480.68 1529.48,-488.6 1559.71,-490.98"/>
<polygon fill="#555555" stroke="#555555" points="1559.62,-494.49 1569.81,-491.59 1560.04,-487.5 1559.62,-494.49"/>
</g>
<!-- project_io -->
<g id="node24" class="node">
<title>project_io</title>
<path fill="#ecfdf5" stroke="black" d="M1352.5,-579C1352.5,-579 1179.5,-579 1179.5,-579 1173.5,-579 1167.5,-573 1167.5,-567 1167.5,-567 1167.5,-553 1167.5,-553 1167.5,-547 1173.5,-541 1179.5,-541 1179.5,-541 1352.5,-541 1352.5,-541 1358.5,-541 1364.5,-547 1364.5,-553 1364.5,-553 1364.5,-567 1364.5,-567 1364.5,-573 1358.5,-579 1352.5,-579"/>
<text text-anchor="middle" x="1266" y="-563.8" font-family="Helvetica,sans-Serif" font-size="14.00">project&#45;io / project&#45;system</text>
<text text-anchor="middle" x="1266" y="-548.8" font-family="Helvetica,sans-Serif" font-size="14.00">readProject / writeProject</text>
</g>
<!-- save_route&#45;&gt;project_io -->
<g id="edge29" class="edge">
<title>save_route&#45;&gt;project_io</title>
<path fill="none" stroke="#555555" stroke-dasharray="5,2" d="M947.52,-420.1C969.13,-424.01 990.57,-428.6 1011,-434 1073.41,-450.49 1103.2,-440.81 1145,-490 1157.43,-504.62 1141.54,-518.33 1155,-532 1156.28,-533.3 1157.62,-534.55 1159,-535.74"/>
<polygon fill="#555555" stroke="#555555" points="1157.26,-538.81 1167.37,-541.97 1161.44,-533.19 1157.26,-538.81"/>
<text text-anchor="middle" x="1083" y="-493.8" font-family="Helvetica,sans-Serif" font-size="14.00">full archive path</text>
</g>
<!-- run_guard -->
<g id="node15" class="node">
<title>run_guard</title>
<path fill="#fef3c7" stroke="black" d="M2327,-187C2327,-187 2028,-187 2028,-187 2022,-187 2016,-181 2016,-175 2016,-175 2016,-163 2016,-163 2016,-157 2022,-151 2028,-151 2028,-151 2327,-151 2327,-151 2333,-151 2339,-157 2339,-163 2339,-163 2339,-175 2339,-175 2339,-181 2333,-187 2327,-187"/>
<text text-anchor="middle" x="2177.5" y="-165.3" font-family="Helvetica,sans-Serif" font-size="14.00">launch required for /world/run and /events/*</text>
</g>
<!-- run_world&#45;&gt;run_guard -->
<g id="edge17" class="edge">
<title>run_world&#45;&gt;run_guard</title>
<path fill="none" stroke="#555555" d="M949.4,-242.02C1244.61,-224.45 1744.22,-194.72 2005.57,-179.17"/>
<polygon fill="#555555" stroke="#555555" points="2006.14,-182.64 2015.92,-178.56 2005.73,-175.66 2006.14,-182.64"/>
</g>
<!-- tweedle_vm -->
<g id="node20" class="node">
<title>tweedle_vm</title>
<path fill="#ecfdf5" stroke="black" d="M1357,-522.5C1357,-522.5 1175,-522.5 1175,-522.5 1169,-522.5 1163,-516.5 1163,-510.5 1163,-510.5 1163,-481.5 1163,-481.5 1163,-475.5 1169,-469.5 1175,-469.5 1175,-469.5 1357,-469.5 1357,-469.5 1363,-469.5 1369,-475.5 1369,-481.5 1369,-481.5 1369,-510.5 1369,-510.5 1369,-516.5 1363,-522.5 1357,-522.5"/>
<text text-anchor="middle" x="1266" y="-507.3" font-family="Helvetica,sans-Serif" font-size="14.00">tweedle&#45;vm</text>
<text text-anchor="middle" x="1266" y="-492.3" font-family="Helvetica,sans-Serif" font-size="14.00">execute(program) &#45;&gt; result</text>
<text text-anchor="middle" x="1266" y="-477.3" font-family="Helvetica,sans-Serif" font-size="14.00">actual: executeProject</text>
</g>
<!-- run_world&#45;&gt;tweedle_vm -->
<g id="edge33" class="edge">
<title>run_world&#45;&gt;tweedle_vm</title>
<path fill="none" stroke="#555555" d="M949.23,-269.08C970.71,-274.82 991.64,-282.31 1011,-292 1088.02,-330.55 1099.74,-358.72 1145,-432 1151.94,-443.24 1145.53,-450.78 1155,-460 1156.1,-461.07 1157.24,-462.11 1158.4,-463.12"/>
<polygon fill="#555555" stroke="#555555" points="1156.43,-466.02 1166.48,-469.35 1160.7,-460.48 1156.43,-466.02"/>
</g>
<!-- screenshot&#45;&gt;state -->
<g id="edge19" class="edge">
<title>screenshot&#45;&gt;state</title>
<path fill="none" stroke="#555555" d="M904.47,-167.27C1121.08,-151.22 1485.05,-136.98 1793,-187 1883.59,-201.72 1898.4,-237.37 1989,-252 2150.9,-278.15 2194.45,-264.07 2358,-252 2383.01,-250.15 2409.36,-247.25 2435.1,-243.87"/>
<polygon fill="#555555" stroke="#555555" points="2435.87,-247.3 2445.31,-242.5 2434.94,-240.36 2435.87,-247.3"/>
</g>
<!-- renderer -->
<g id="node21" class="node">
<title>renderer</title>
<path fill="#ecfdf5" stroke="black" d="M1781,-451C1781,-451 1484,-451 1484,-451 1478,-451 1472,-445 1472,-439 1472,-439 1472,-425 1472,-425 1472,-419 1478,-413 1484,-413 1484,-413 1781,-413 1781,-413 1787,-413 1793,-419 1793,-425 1793,-425 1793,-439 1793,-439 1793,-445 1787,-451 1781,-451"/>
<text text-anchor="middle" x="1632.5" y="-435.8" font-family="Helvetica,sans-Serif" font-size="14.00">scene&#45;renderer</text>
<text text-anchor="middle" x="1632.5" y="-420.8" font-family="Helvetica,sans-Serif" font-size="14.00">renderSceneToPng(project) &#45;&gt; RenderResult</text>
</g>
<!-- screenshot&#45;&gt;renderer -->
<g id="edge35" class="edge">
<title>screenshot&#45;&gt;renderer</title>
<path fill="none" stroke="#555555" d="M904.13,-202.09C939.86,-206.99 976.75,-213.19 1011,-221 1225.56,-269.95 1470.1,-365.38 1576.84,-409.11"/>
<polygon fill="#555555" stroke="#555555" points="1575.55,-412.36 1586.13,-412.92 1578.21,-405.89 1575.55,-412.36"/>
</g>
<!-- register&#45;&gt;run_guard -->
<g id="edge20" class="edge">
<title>register&#45;&gt;run_guard</title>
<path fill="none" stroke="#555555" d="M1003.05,-116.97C1130.68,-118.05 1282.57,-119 1419.5,-119 1419.5,-119 1419.5,-119 1896,-119 1938.58,-119 1947.21,-133.84 1989,-142 2002.25,-144.59 2016.07,-147.04 2029.93,-149.33"/>
<polygon fill="#555555" stroke="#555555" points="2029.6,-152.82 2040.03,-150.97 2030.72,-145.91 2029.6,-152.82"/>
</g>
<!-- event_validation -->
<g id="node16" class="node">
<title>event_validation</title>
<path fill="#fef3c7" stroke="black" d="M2346,-133C2346,-133 2009,-133 2009,-133 2003,-133 1997,-127 1997,-121 1997,-121 1997,-107 1997,-107 1997,-101 2003,-95 2009,-95 2009,-95 2346,-95 2346,-95 2352,-95 2358,-101 2358,-107 2358,-107 2358,-121 2358,-121 2358,-127 2352,-133 2346,-133"/>
<text text-anchor="middle" x="2177.5" y="-117.8" font-family="Helvetica,sans-Serif" font-size="14.00">EventSystem validation</text>
<text text-anchor="middle" x="2177.5" y="-102.8" font-family="Helvetica,sans-Serif" font-size="14.00">unknown eventType / missing key / bad proximity</text>
</g>
<!-- register&#45;&gt;event_validation -->
<g id="edge21" class="edge">
<title>register&#45;&gt;event_validation</title>
<path fill="none" stroke="#555555" d="M1003.22,-90.17C1087.55,-84.98 1179.91,-81 1265,-81 1265,-81 1265,-81 1812,-81 1881.36,-81 1957.84,-87 2022.76,-93.88"/>
<polygon fill="#555555" stroke="#555555" points="2022.76,-97.4 2033.08,-94.99 2023.51,-90.44 2022.76,-97.4"/>
</g>
<!-- events -->
<g id="node22" class="node">
<title>events</title>
<path fill="#ecfdf5" stroke="black" d="M1350.5,-451C1350.5,-451 1181.5,-451 1181.5,-451 1175.5,-451 1169.5,-445 1169.5,-439 1169.5,-439 1169.5,-425 1169.5,-425 1169.5,-419 1175.5,-413 1181.5,-413 1181.5,-413 1350.5,-413 1350.5,-413 1356.5,-413 1362.5,-419 1362.5,-425 1362.5,-425 1362.5,-439 1362.5,-439 1362.5,-445 1356.5,-451 1350.5,-451"/>
<text text-anchor="middle" x="1266" y="-435.8" font-family="Helvetica,sans-Serif" font-size="14.00">events</text>
<text text-anchor="middle" x="1266" y="-420.8" font-family="Helvetica,sans-Serif" font-size="14.00">EventSystem.register/fire</text>
</g>
<!-- register&#45;&gt;events -->
<g id="edge37" class="edge">
<title>register&#45;&gt;events</title>
<path fill="none" stroke="#555555" d="M990.37,-140.56C997.41,-143.45 1004.3,-146.59 1011,-150 1127.2,-209.18 1215.54,-345.4 1249.65,-404.17"/>
<polygon fill="#555555" stroke="#555555" points="1246.65,-405.98 1254.65,-412.92 1252.72,-402.5 1246.65,-405.98"/>
</g>
<!-- fire&#45;&gt;run_guard -->
<g id="edge22" class="edge">
<title>fire&#45;&gt;run_guard</title>
<path fill="none" stroke="#555555" d="M835.05,-43C946.58,-43 1116.98,-43 1265,-43 1265,-43 1265,-43 1812,-43 1883.32,-43 1903.29,-61.76 1960,-105 1976.62,-117.67 1970.92,-131.54 1989,-142 1994.51,-145.19 2000.26,-148.05 2006.18,-150.61"/>
<polygon fill="#555555" stroke="#555555" points="2005.03,-153.92 2015.62,-154.4 2007.64,-147.43 2005.03,-153.92"/>
</g>
<!-- fire&#45;&gt;event_validation -->
<g id="edge23" class="edge">
<title>fire&#45;&gt;event_validation</title>
<path fill="none" stroke="#555555" d="M835.15,-29.87C946.57,-18.89 1116.75,-5 1265,-5 1265,-5 1265,-5 1896,-5 1988.6,-5 2087.44,-57.25 2139.49,-89.4"/>
<polygon fill="#555555" stroke="#555555" points="2137.71,-92.42 2148.04,-94.76 2141.43,-86.49 2137.71,-92.42"/>
</g>
<!-- fire&#45;&gt;events -->
<g id="edge38" class="edge">
<title>fire&#45;&gt;events</title>
<path fill="none" stroke="#555555" d="M835.48,-40.4C933.54,-45.26 1067.72,-68.96 1145,-155 1212.31,-229.93 1246.19,-348.47 1258.9,-402.91"/>
<polygon fill="#555555" stroke="#555555" points="1255.54,-403.94 1261.16,-412.92 1262.36,-402.39 1255.54,-403.94"/>
</g>
<!-- launch_guard&#45;&gt;state -->
<g id="edge13" class="edge">
<title>launch_guard&#45;&gt;state</title>
<path fill="none" stroke="#555555" d="M2271.11,-222.24C2304.88,-221.6 2344.64,-220.85 2384.63,-220.09"/>
<polygon fill="#555555" stroke="#555555" points="2384.87,-223.59 2394.8,-219.9 2384.74,-216.59 2384.87,-223.59"/>
</g>
<!-- run_guard&#45;&gt;state -->
<g id="edge18" class="edge">
<title>run_guard&#45;&gt;state</title>
<path fill="none" stroke="#555555" d="M2339.24,-186.9C2354.15,-188.56 2369.41,-190.26 2384.7,-191.97"/>
<polygon fill="#555555" stroke="#555555" points="2384.42,-195.46 2394.75,-193.08 2385.2,-188.5 2384.42,-195.46"/>
</g>
<!-- parser -->
<g id="node17" class="node">
<title>parser</title>
<path fill="#ecfdf5" stroke="black" d="M2284,-467C2284,-467 2071,-467 2071,-467 2065,-467 2059,-461 2059,-455 2059,-455 2059,-441 2059,-441 2059,-435 2065,-429 2071,-429 2071,-429 2284,-429 2284,-429 2290,-429 2296,-435 2296,-441 2296,-441 2296,-455 2296,-455 2296,-461 2290,-467 2284,-467"/>
<text text-anchor="middle" x="2177.5" y="-451.8" font-family="Helvetica,sans-Serif" font-size="14.00">a3p&#45;parser</text>
<text text-anchor="middle" x="2177.5" y="-436.8" font-family="Helvetica,sans-Serif" font-size="14.00">parseA3P(bytes) &#45;&gt; AliceProject</text>
</g>
<!-- parser&#45;&gt;state -->
<g id="edge26" class="edge">
<title>parser&#45;&gt;state</title>
<path fill="none" stroke="#555555" d="M2213.39,-428.82C2286.13,-388.83 2454.57,-296.23 2543.36,-247.41"/>
<polygon fill="#555555" stroke="#555555" points="2545.14,-250.43 2552.22,-242.54 2541.77,-244.29 2545.14,-250.43"/>
</g>
<!-- writer -->
<g id="node18" class="node">
<title>writer</title>
<path fill="#ecfdf5" stroke="black" d="M1720.5,-567C1720.5,-567 1544.5,-567 1544.5,-567 1538.5,-567 1532.5,-561 1532.5,-555 1532.5,-555 1532.5,-541 1532.5,-541 1532.5,-535 1538.5,-529 1544.5,-529 1544.5,-529 1720.5,-529 1720.5,-529 1726.5,-529 1732.5,-535 1732.5,-541 1732.5,-541 1732.5,-555 1732.5,-555 1732.5,-561 1726.5,-567 1720.5,-567"/>
<text text-anchor="middle" x="1632.5" y="-551.8" font-family="Helvetica,sans-Serif" font-size="14.00">a3p&#45;writer</text>
<text text-anchor="middle" x="1632.5" y="-536.8" font-family="Helvetica,sans-Serif" font-size="14.00">writeA3P(project) &#45;&gt; bytes</text>
</g>
<!-- writer&#45;&gt;fs -->
<g id="edge31" class="edge">
<title>writer&#45;&gt;fs</title>
<path fill="none" stroke="#555555" d="M1732.88,-532.37C1753.05,-528.01 1773.91,-522.6 1793,-516 1808.91,-510.5 1825.49,-502.97 1840.51,-495.38"/>
<polygon fill="#555555" stroke="#555555" points="1842.36,-498.36 1849.63,-490.66 1839.14,-492.14 1842.36,-498.36"/>
</g>
<!-- tweedle_vm&#45;&gt;evidence -->
<g id="edge34" class="edge">
<title>tweedle_vm&#45;&gt;evidence</title>
<path fill="none" stroke="#555555" d="M1369.02,-493.76C1429.66,-492.43 1505.11,-490.77 1559.54,-489.58"/>
<polygon fill="#555555" stroke="#555555" points="1559.87,-493.07 1569.79,-489.35 1559.71,-486.07 1559.87,-493.07"/>
</g>
<!-- renderer&#45;&gt;fs -->
<g id="edge36" class="edge">
<title>renderer&#45;&gt;fs</title>
<path fill="none" stroke="#555555" d="M1783.52,-451.01C1796.03,-452.59 1808.29,-454.14 1819.83,-455.6"/>
<polygon fill="#555555" stroke="#555555" points="1819.41,-459.08 1829.77,-456.86 1820.29,-452.13 1819.41,-459.08"/>
</g>
<!-- events&#45;&gt;evidence -->
<g id="edge39" class="edge">
<title>events&#45;&gt;evidence</title>
<path fill="none" stroke="#555555" d="M1362.77,-446.71C1424.55,-456.21 1503.6,-468.35 1559.93,-477"/>
<polygon fill="#555555" stroke="#555555" points="1559.41,-480.47 1569.83,-478.52 1560.47,-473.55 1559.41,-480.47"/>
</g>
<!-- project_io&#45;&gt;writer -->
<g id="edge30" class="edge">
<title>project_io&#45;&gt;writer</title>
<path fill="none" stroke="#555555" d="M1364.68,-556.78C1413.21,-555.19 1472.02,-553.25 1522.07,-551.6"/>
<polygon fill="#555555" stroke="#555555" points="1522.4,-555.09 1532.28,-551.27 1522.17,-548.1 1522.4,-555.09"/>
</g>
<!-- fs&#45;&gt;parser -->
<g id="edge25" class="edge">
<title>fs&#45;&gt;parser</title>
<path fill="none" stroke="#555555" d="M1960,-461.12C1986.29,-459.53 2017.73,-457.62 2048.38,-455.76"/>
<polygon fill="#555555" stroke="#555555" points="2048.97,-459.24 2058.74,-455.14 2048.54,-452.25 2048.97,-459.24"/>
</g>
</g>
</svg>
