<?xml version="1.0" encoding="UTF-8" standalone="no"?>
<!DOCTYPE svg PUBLIC "-//W3C//DTD SVG 1.1//EN"
 "http://www.w3.org/Graphics/SVG/1.1/DTD/svg11.dtd">
<!-- Generated by graphviz version 2.42.4 (0)
 -->
<!-- Title: api_contracts Pages: 1 -->
<svg width="2505pt" height="995pt"
 viewBox="0.00 0.00 2505.00 994.85" xmlns="http://www.w3.org/2000/svg" xmlns:xlink="http://www.w3.org/1999/xlink">
<g id="graph0" class="graph" transform="scale(1 1) rotate(0) translate(4 990.85)">
<title>api_contracts</title>
<polygon fill="white" stroke="transparent" points="-4,4 -4,-990.85 2501,-990.85 2501,4 -4,4"/>
<g id="clust1" class="cluster">
<title>cluster_routes</title>
<polygon fill="white" stroke="#cbd5e1" points="416,-30.95 416,-975.95 1011,-975.95 1011,-30.95 416,-30.95"/>
<text text-anchor="middle" x="713.5" y="-960.75" font-family="Helvetica,sans-Serif" font-size="14.00">REST endpoints</text>
</g>
<g id="clust2" class="cluster">
<title>cluster_guards</title>
<polygon fill="white" stroke="#fcd34d" points="1155,-203.95 1155,-502.95 2048,-502.95 2048,-203.95 1155,-203.95"/>
<text text-anchor="middle" x="1601.5" y="-487.75" font-family="Helvetica,sans-Serif" font-size="14.00">Middleware / guards</text>
</g>
<g id="clust3" class="cluster">
<title>cluster_internal</title>
<polygon fill="white" stroke="#a7f3d0" points="1197,-540.95 1197,-929.95 2489,-929.95 2489,-540.95 1197,-540.95"/>
<text text-anchor="middle" x="1843" y="-914.75" font-family="Helvetica,sans-Serif" font-size="14.00">Internal module contracts</text>
</g>
<!-- client -->
<g id="node1" class="node">
<title>client</title>
<path fill="#f8f9fa" stroke="black" d="M143,-509.95C143,-509.95 12,-509.95 12,-509.95 6,-509.95 0,-503.95 0,-497.95 0,-497.95 0,-485.95 0,-485.95 0,-479.95 6,-473.95 12,-473.95 12,-473.95 143,-473.95 143,-473.95 149,-473.95 155,-479.95 155,-485.95 155,-485.95 155,-497.95 155,-497.95 155,-503.95 149,-509.95 143,-509.95"/>
<text text-anchor="middle" x="77.5" y="-488.25" font-family="Helvetica,sans-Serif" font-size="14.00">Browser / tests / CLI</text>
</g>
<!-- json -->
<g id="node2" class="node">
<title>json</title>
<path fill="#e8f0fe" stroke="black" d="M284,-510.95C284,-510.95 204,-510.95 204,-510.95 198,-510.95 192,-504.95 192,-498.95 192,-498.95 192,-484.95 192,-484.95 192,-478.95 198,-472.95 204,-472.95 204,-472.95 284,-472.95 284,-472.95 290,-472.95 296,-478.95 296,-484.95 296,-484.95 296,-498.95 296,-498.95 296,-504.95 290,-510.95 284,-510.95"/>
<text text-anchor="middle" x="244" y="-495.75" font-family="Helvetica,sans-Serif" font-size="14.00">express.json</text>
<text text-anchor="middle" x="244" y="-480.75" font-family="Helvetica,sans-Serif" font-size="14.00">limit=1mb</text>
</g>
<!-- client&#45;&gt;json -->
<g id="edge1" class="edge">
<title>client&#45;&gt;json</title>
<path fill="none" stroke="#555555" d="M155.45,-491.95C164.25,-491.95 173.13,-491.95 181.69,-491.95"/>
<polygon fill="#555555" stroke="#555555" points="181.93,-495.45 191.93,-491.95 181.93,-488.45 181.93,-495.45"/>
</g>
<!-- auth -->
<g id="node3" class="node">
<title>auth</title>
<path fill="#e8f0fe" stroke="black" d="M375,-510.95C375,-510.95 345,-510.95 345,-510.95 339,-510.95 333,-504.95 333,-498.95 333,-498.95 333,-484.95 333,-484.95 333,-478.95 339,-472.95 345,-472.95 345,-472.95 375,-472.95 375,-472.95 381,-472.95 387,-478.95 387,-484.95 387,-484.95 387,-498.95 387,-498.95 387,-504.95 381,-510.95 375,-510.95"/>
<text text-anchor="middle" x="360" y="-495.75" font-family="Helvetica,sans-Serif" font-size="14.00">Auth</text>
<text text-anchor="middle" x="360" y="-480.75" font-family="Helvetica,sans-Serif" font-size="14.00">none</text>
</g>
<!-- json&#45;&gt;auth -->
<g id="edge2" class="edge">
<title>json&#45;&gt;auth</title>
<path fill="none" stroke="#555555" d="M296.33,-491.95C305.22,-491.95 314.3,-491.95 322.69,-491.95"/>
<polygon fill="#555555" stroke="#555555" points="322.88,-495.45 332.88,-491.95 322.88,-488.45 322.88,-495.45"/>
</g>
<!-- health -->
<g id="node4" class="node">
<title>health</title>
<path fill="#f8f9fa" stroke="black" d="M864.5,-944.45C864.5,-944.45 562.5,-944.45 562.5,-944.45 556.5,-944.45 550.5,-938.45 550.5,-932.45 550.5,-932.45 550.5,-903.45 550.5,-903.45 550.5,-897.45 556.5,-891.45 562.5,-891.45 562.5,-891.45 864.5,-891.45 864.5,-891.45 870.5,-891.45 876.5,-897.45 876.5,-903.45 876.5,-903.45 876.5,-932.45 876.5,-932.45 876.5,-938.45 870.5,-944.45 864.5,-944.45"/>
<text text-anchor="middle" x="713.5" y="-929.25" font-family="Helvetica,sans-Serif" font-size="14.00">GET /api/health</text>
<text text-anchor="middle" x="713.5" y="-914.25" font-family="Helvetica,sans-Serif" font-size="14.00">req: none</text>
<text text-anchor="middle" x="713.5" y="-899.25" font-family="Helvetica,sans-Serif" font-size="14.00">res: running, launched, pid, uptime, runtime</text>
</g>
<!-- auth&#45;&gt;health -->
<g id="edge3" class="edge">
<title>auth&#45;&gt;health</title>
<path fill="none" stroke="#555555" d="M360.72,-511.32C360.14,-582.88 362.09,-830.96 416,-882.95 449.02,-914.8 494.65,-928.81 540.22,-933.51"/>
<polygon fill="#555555" stroke="#555555" points="539.98,-937 550.25,-934.4 540.59,-930.03 539.98,-937"/>
</g>
<!-- launch -->
<g id="node5" class="node">
<title>launch</title>
<path fill="#f8f9fa" stroke="black" d="M901,-376.45C901,-376.45 526,-376.45 526,-376.45 520,-376.45 514,-370.45 514,-364.45 514,-364.45 514,-335.45 514,-335.45 514,-329.45 520,-323.45 526,-323.45 526,-323.45 901,-323.45 901,-323.45 907,-323.45 913,-329.45 913,-335.45 913,-335.45 913,-364.45 913,-364.45 913,-370.45 907,-376.45 901,-376.45"/>
<text text-anchor="middle" x="713.5" y="-361.25" font-family="Helvetica,sans-Serif" font-size="14.00">POST /api/launch</text>
<text text-anchor="middle" x="713.5" y="-346.25" font-family="Helvetica,sans-Serif" font-size="14.00">req: project?</text>
<text text-anchor="middle" x="713.5" y="-331.25" font-family="Helvetica,sans-Serif" font-size="14.00">res: launched, project, projectName, sceneObjectCount</text>
</g>
<!-- auth&#45;&gt;launch -->
<g id="edge4" class="edge">
<title>auth&#45;&gt;launch</title>
<path fill="none" stroke="#555555" d="M365.19,-472.62C371.6,-448.09 386.36,-406.51 416,-385.95 441.95,-367.95 472.34,-356.48 503.58,-349.44"/>
<polygon fill="#555555" stroke="#555555" points="504.68,-352.79 513.75,-347.31 503.24,-345.94 504.68,-352.79"/>
</g>
<!-- template_list -->
<g id="node6" class="node">
<title>template_list</title>
<path fill="#f8f9fa" stroke="black" d="M801.5,-163.45C801.5,-163.45 625.5,-163.45 625.5,-163.45 619.5,-163.45 613.5,-157.45 613.5,-151.45 613.5,-151.45 613.5,-122.45 613.5,-122.45 613.5,-116.45 619.5,-110.45 625.5,-110.45 625.5,-110.45 801.5,-110.45 801.5,-110.45 807.5,-110.45 813.5,-116.45 813.5,-122.45 813.5,-122.45 813.5,-151.45 813.5,-151.45 813.5,-157.45 807.5,-163.45 801.5,-163.45"/>
<text text-anchor="middle" x="713.5" y="-148.25" font-family="Helvetica,sans-Serif" font-size="14.00">GET /api/project/templates</text>
<text text-anchor="middle" x="713.5" y="-133.25" font-family="Helvetica,sans-Serif" font-size="14.00">req: none</text>
<text text-anchor="middle" x="713.5" y="-118.25" font-family="Helvetica,sans-Serif" font-size="14.00">res: templates[]</text>
</g>
<!-- auth&#45;&gt;template_list -->
<g id="edge5" class="edge">
<title>auth&#45;&gt;template_list</title>
<path fill="none" stroke="#555555" d="M361.42,-472.8C363.23,-410.38 372.33,-214.5 416,-172.95 464.76,-126.57 540.28,-117.96 602.89,-120.75"/>
<polygon fill="#555555" stroke="#555555" points="603.05,-124.26 613.23,-121.32 603.43,-117.27 603.05,-124.26"/>
</g>
<!-- project_new -->
<g id="node7" class="node">
<title>project_new</title>
<path fill="#f8f9fa" stroke="black" d="M913,-447.45C913,-447.45 514,-447.45 514,-447.45 508,-447.45 502,-441.45 502,-435.45 502,-435.45 502,-406.45 502,-406.45 502,-400.45 508,-394.45 514,-394.45 514,-394.45 913,-394.45 913,-394.45 919,-394.45 925,-400.45 925,-406.45 925,-406.45 925,-435.45 925,-435.45 925,-441.45 919,-447.45 913,-447.45"/>
<text text-anchor="middle" x="713.5" y="-432.25" font-family="Helvetica,sans-Serif" font-size="14.00">POST /api/project/new</text>
<text text-anchor="middle" x="713.5" y="-417.25" font-family="Helvetica,sans-Serif" font-size="14.00">req: templateId?, projectName?</text>
<text text-anchor="middle" x="713.5" y="-402.25" font-family="Helvetica,sans-Serif" font-size="14.00">res: created, projectPath, sceneObjectCount, a3pSizeBytes</text>
</g>
<!-- auth&#45;&gt;project_new -->
<g id="edge6" class="edge">
<title>auth&#45;&gt;project_new</title>
<path fill="none" stroke="#555555" d="M385.78,-472.87C394.84,-466.82 405.45,-460.73 416,-456.95 440.03,-448.35 465.77,-441.73 491.69,-436.64"/>
<polygon fill="#555555" stroke="#555555" points="492.45,-440.05 501.63,-434.76 491.15,-433.18 492.45,-440.05"/>
</g>
<!-- add_object -->
<g id="node8" class="node">
<title>add_object</title>
<path fill="#f8f9fa" stroke="black" d="M919.5,-92.45C919.5,-92.45 507.5,-92.45 507.5,-92.45 501.5,-92.45 495.5,-86.45 495.5,-80.45 495.5,-80.45 495.5,-51.45 495.5,-51.45 495.5,-45.45 501.5,-39.45 507.5,-39.45 507.5,-39.45 919.5,-39.45 919.5,-39.45 925.5,-39.45 931.5,-45.45 931.5,-51.45 931.5,-51.45 931.5,-80.45 931.5,-80.45 931.5,-86.45 925.5,-92.45 919.5,-92.45"/>
<text text-anchor="middle" x="713.5" y="-77.25" font-family="Helvetica,sans-Serif" font-size="14.00">POST /api/scene/add&#45;object</text>
<text text-anchor="middle" x="713.5" y="-62.25" font-family="Helvetica,sans-Serif" font-size="14.00">req: className, name?</text>
<text text-anchor="middle" x="713.5" y="-47.25" font-family="Helvetica,sans-Serif" font-size="14.00">res: added, objectName, className, count, evidenceArtifact</text>
</g>
<!-- auth&#45;&gt;add_object -->
<g id="edge7" class="edge">
<title>auth&#45;&gt;add_object</title>
<path fill="none" stroke="#555555" d="M360.76,-472.67C360.31,-401.39 362.67,-154.26 416,-101.95 435.53,-82.79 459.61,-70 485.53,-61.77"/>
<polygon fill="#555555" stroke="#555555" points="486.56,-65.11 495.16,-58.94 484.58,-58.4 486.56,-65.11"/>
</g>
<!-- edit_proc -->
<g id="node9" class="node">
<title>edit_proc</title>
<path fill="#f8f9fa" stroke="black" d="M938,-873.45C938,-873.45 489,-873.45 489,-873.45 483,-873.45 477,-867.45 477,-861.45 477,-861.45 477,-832.45 477,-832.45 477,-826.45 483,-820.45 489,-820.45 489,-820.45 938,-820.45 938,-820.45 944,-820.45 950,-826.45 950,-832.45 950,-832.45 950,-861.45 950,-861.45 950,-867.45 944,-873.45 938,-873.45"/>
<text text-anchor="middle" x="713.5" y="-858.25" font-family="Helvetica,sans-Serif" font-size="14.00">POST /api/code/edit&#45;procedure</text>
<text text-anchor="middle" x="713.5" y="-843.25" font-family="Helvetica,sans-Serif" font-size="14.00">req: procedureSelector?, editSpec?</text>
<text text-anchor="middle" x="713.5" y="-828.25" font-family="Helvetica,sans-Serif" font-size="14.00">res: proved, edited_project_artifact, action_proof, evidenceArtifact</text>
</g>
<!-- auth&#45;&gt;edit_proc -->
<g id="edge8" class="edge">
<title>auth&#45;&gt;edit_proc</title>
<path fill="none" stroke="#555555" d="M361.41,-511.17C363.17,-573.8 372.14,-770.34 416,-811.95 431.03,-826.21 448.59,-836.87 467.52,-844.7"/>
<polygon fill="#555555" stroke="#555555" points="466.34,-847.99 476.93,-848.32 468.85,-841.46 466.34,-847.99"/>
</g>
<!-- create_proc -->
<g id="node10" class="node">
<title>create_proc</title>
<path fill="#f8f9fa" stroke="black" d="M890.5,-660.45C890.5,-660.45 536.5,-660.45 536.5,-660.45 530.5,-660.45 524.5,-654.45 524.5,-648.45 524.5,-648.45 524.5,-619.45 524.5,-619.45 524.5,-613.45 530.5,-607.45 536.5,-607.45 536.5,-607.45 890.5,-607.45 890.5,-607.45 896.5,-607.45 902.5,-613.45 902.5,-619.45 902.5,-619.45 902.5,-648.45 902.5,-648.45 902.5,-654.45 896.5,-660.45 890.5,-660.45"/>
<text text-anchor="middle" x="713.5" y="-645.25" font-family="Helvetica,sans-Serif" font-size="14.00">POST /api/code/create&#45;procedure</text>
<text text-anchor="middle" x="713.5" y="-630.25" font-family="Helvetica,sans-Serif" font-size="14.00">req: name, parameters?</text>
<text text-anchor="middle" x="713.5" y="-615.25" font-family="Helvetica,sans-Serif" font-size="14.00">res: created procedure, parameters, totalProcedures</text>
</g>
<!-- auth&#45;&gt;create_proc -->
<g id="edge9" class="edge">
<title>auth&#45;&gt;create_proc</title>
<path fill="none" stroke="#555555" d="M365.02,-511.05C371.3,-535.76 385.97,-578.11 416,-598.95 444.9,-619.01 479.32,-630.89 514.29,-637.53"/>
<polygon fill="#555555" stroke="#555555" points="513.71,-640.98 524.17,-639.26 514.92,-634.08 513.71,-640.98"/>
</g>
<!-- create_func -->
<g id="node11" class="node">
<title>create_func</title>
<path fill="#f8f9fa" stroke="black" d="M925.5,-731.45C925.5,-731.45 501.5,-731.45 501.5,-731.45 495.5,-731.45 489.5,-725.45 489.5,-719.45 489.5,-719.45 489.5,-690.45 489.5,-690.45 489.5,-684.45 495.5,-678.45 501.5,-678.45 501.5,-678.45 925.5,-678.45 925.5,-678.45 931.5,-678.45 937.5,-684.45 937.5,-690.45 937.5,-690.45 937.5,-719.45 937.5,-719.45 937.5,-725.45 931.5,-731.45 925.5,-731.45"/>
<text text-anchor="middle" x="713.5" y="-716.25" font-family="Helvetica,sans-Serif" font-size="14.00">POST /api/code/create&#45;function</text>
<text text-anchor="middle" x="713.5" y="-701.25" font-family="Helvetica,sans-Serif" font-size="14.00">req: name, returnType, parameters?</text>
<text text-anchor="middle" x="713.5" y="-686.25" font-family="Helvetica,sans-Serif" font-size="14.00">res: created function, returnType, parameters, totalProcedures</text>
</g>
<!-- auth&#45;&gt;create_func -->
<g id="edge10" class="edge">
<title>auth&#45;&gt;create_func</title>
<path fill="none" stroke="#555555" d="M360.63,-511.15C361.06,-548.28 367.78,-629.8 416,-669.95 434.73,-685.55 456.58,-696.59 479.78,-704.24"/>
<polygon fill="#555555" stroke="#555555" points="478.85,-707.61 489.44,-707.21 480.91,-700.92 478.85,-707.61"/>
</g>
<!-- save_route -->
<g id="node12" class="node">
<title>save_route</title>
<path fill="#f8f9fa" stroke="black" d="M935.5,-802.45C935.5,-802.45 491.5,-802.45 491.5,-802.45 485.5,-802.45 479.5,-796.45 479.5,-790.45 479.5,-790.45 479.5,-761.45 479.5,-761.45 479.5,-755.45 485.5,-749.45 491.5,-749.45 491.5,-749.45 935.5,-749.45 935.5,-749.45 941.5,-749.45 947.5,-755.45 947.5,-761.45 947.5,-761.45 947.5,-790.45 947.5,-790.45 947.5,-796.45 941.5,-802.45 935.5,-802.45"/>
<text text-anchor="middle" x="713.5" y="-787.25" font-family="Helvetica,sans-Serif" font-size="14.00">POST /api/project/save</text>
<text text-anchor="middle" x="713.5" y="-772.25" font-family="Helvetica,sans-Serif" font-size="14.00">req: saveSelector?, targetPath?</text>
<text text-anchor="middle" x="713.5" y="-757.25" font-family="Helvetica,sans-Serif" font-size="14.00">res: saved, saved_project_artifact, save_artifact, evidenceArtifact</text>
</g>
<!-- auth&#45;&gt;save_route -->
<g id="edge11" class="edge">
<title>auth&#45;&gt;save_route</title>
<path fill="none" stroke="#555555" d="M362.44,-511.29C366.82,-564.29 381.78,-709.99 416,-740.95 431.76,-755.21 450.08,-765.8 469.73,-773.53"/>
<polygon fill="#555555" stroke="#555555" points="468.57,-776.83 479.17,-776.99 470.98,-770.26 468.57,-776.83"/>
</g>
<!-- run_world -->
<g id="node13" class="node">
<title>run_world</title>
<path fill="#f8f9fa" stroke="black" d="M937,-589.45C937,-589.45 490,-589.45 490,-589.45 484,-589.45 478,-583.45 478,-577.45 478,-577.45 478,-548.45 478,-548.45 478,-542.45 484,-536.45 490,-536.45 490,-536.45 937,-536.45 937,-536.45 943,-536.45 949,-542.45 949,-548.45 949,-548.45 949,-577.45 949,-577.45 949,-583.45 943,-589.45 937,-589.45"/>
<text text-anchor="middle" x="713.5" y="-574.25" font-family="Helvetica,sans-Serif" font-size="14.00">POST /api/world/run</text>
<text text-anchor="middle" x="713.5" y="-559.25" font-family="Helvetica,sans-Serif" font-size="14.00">req: {}</text>
<text text-anchor="middle" x="713.5" y="-544.25" font-family="Helvetica,sans-Serif" font-size="14.00">res: completed, execution_log, run_duration_ms, evidenceArtifact</text>
</g>
<!-- auth&#45;&gt;run_world -->
<g id="edge12" class="edge">
<title>auth&#45;&gt;run_world</title>
<path fill="none" stroke="#555555" d="M384.89,-511.05C394.11,-517.45 405.06,-523.98 416,-527.95 432.65,-534 450.13,-539.06 467.94,-543.28"/>
<polygon fill="#555555" stroke="#555555" points="467.33,-546.73 477.86,-545.54 468.89,-539.91 467.33,-546.73"/>
</g>
<!-- screenshot -->
<g id="node14" class="node">
<title>screenshot</title>
<path fill="#f8f9fa" stroke="black" d="M892,-518.45C892,-518.45 535,-518.45 535,-518.45 529,-518.45 523,-512.45 523,-506.45 523,-506.45 523,-477.45 523,-477.45 523,-471.45 529,-465.45 535,-465.45 535,-465.45 892,-465.45 892,-465.45 898,-465.45 904,-471.45 904,-477.45 904,-477.45 904,-506.45 904,-506.45 904,-512.45 898,-518.45 892,-518.45"/>
<text text-anchor="middle" x="713.5" y="-503.25" font-family="Helvetica,sans-Serif" font-size="14.00">GET /api/screenshot</text>
<text text-anchor="middle" x="713.5" y="-488.25" font-family="Helvetica,sans-Serif" font-size="14.00">req: none</text>
<text text-anchor="middle" x="713.5" y="-473.25" font-family="Helvetica,sans-Serif" font-size="14.00">res: captured path/objectCount or placeholder+error</text>
</g>
<!-- auth&#45;&gt;screenshot -->
<g id="edge13" class="edge">
<title>auth&#45;&gt;screenshot</title>
<path fill="none" stroke="#555555" d="M387.13,-491.95C415.25,-491.95 462.72,-491.95 512.83,-491.95"/>
<polygon fill="#555555" stroke="#555555" points="512.88,-495.45 522.88,-491.95 512.88,-488.45 512.88,-495.45"/>
</g>
<!-- register -->
<g id="node15" class="node">
<title>register</title>
<path fill="#f8f9fa" stroke="black" d="M991,-305.45C991,-305.45 436,-305.45 436,-305.45 430,-305.45 424,-299.45 424,-293.45 424,-293.45 424,-264.45 424,-264.45 424,-258.45 430,-252.45 436,-252.45 436,-252.45 991,-252.45 991,-252.45 997,-252.45 1003,-258.45 1003,-264.45 1003,-264.45 1003,-293.45 1003,-293.45 1003,-299.45 997,-305.45 991,-305.45"/>
<text text-anchor="middle" x="713.5" y="-290.25" font-family="Helvetica,sans-Serif" font-size="14.00">POST /api/events/register</text>
<text text-anchor="middle" x="713.5" y="-275.25" font-family="Helvetica,sans-Serif" font-size="14.00">req: eventType + optional handler/key/target/useCapture/targetObjects/threshold</text>
<text text-anchor="middle" x="713.5" y="-260.25" font-family="Helvetica,sans-Serif" font-size="14.00">res: registrationId, eventType, handlerName, evidenceArtifact</text>
</g>
<!-- auth&#45;&gt;register -->
<g id="edge14" class="edge">
<title>auth&#45;&gt;register</title>
<path fill="none" stroke="#555555" d="M360.68,-472.87C361.19,-435.97 368.06,-354.94 416,-314.95 417.37,-313.81 418.75,-312.69 420.16,-311.6"/>
<polygon fill="#555555" stroke="#555555" points="422.36,-314.33 428.35,-305.59 418.22,-308.68 422.36,-314.33"/>
</g>
<!-- fire -->
<g id="node16" class="node">
<title>fire</title>
<path fill="#f8f9fa" stroke="black" d="M823,-234.45C823,-234.45 604,-234.45 604,-234.45 598,-234.45 592,-228.45 592,-222.45 592,-222.45 592,-193.45 592,-193.45 592,-187.45 598,-181.45 604,-181.45 604,-181.45 823,-181.45 823,-181.45 829,-181.45 835,-187.45 835,-193.45 835,-193.45 835,-222.45 835,-222.45 835,-228.45 829,-234.45 823,-234.45"/>
<text text-anchor="middle" x="713.5" y="-219.25" font-family="Helvetica,sans-Serif" font-size="14.00">POST /api/events/fire</text>
<text text-anchor="middle" x="713.5" y="-204.25" font-family="Helvetica,sans-Serif" font-size="14.00">req: eventType + payload?</text>
<text text-anchor="middle" x="713.5" y="-189.25" font-family="Helvetica,sans-Serif" font-size="14.00">res: triggered[], evidenceArtifact</text>
</g>
<!-- auth&#45;&gt;fire -->
<g id="edge15" class="edge">
<title>auth&#45;&gt;fire</title>
<path fill="none" stroke="#555555" d="M362.46,-472.7C366.88,-419.92 381.95,-274.84 416,-243.95 460.11,-203.94 524.32,-192.58 581.72,-192.23"/>
<polygon fill="#555555" stroke="#555555" points="581.96,-195.73 591.98,-192.28 582,-188.73 581.96,-195.73"/>
</g>
<!-- launch_guard -->
<g id="node18" class="node">
<title>launch_guard</title>
<path fill="#fef3c7" stroke="black" d="M1425,-359.95C1425,-359.95 1262,-359.95 1262,-359.95 1256,-359.95 1250,-353.95 1250,-347.95 1250,-347.95 1250,-333.95 1250,-333.95 1250,-327.95 1256,-321.95 1262,-321.95 1262,-321.95 1425,-321.95 1425,-321.95 1431,-321.95 1437,-327.95 1437,-333.95 1437,-333.95 1437,-347.95 1437,-347.95 1437,-353.95 1431,-359.95 1425,-359.95"/>
<text text-anchor="middle" x="1343.5" y="-344.75" font-family="Helvetica,sans-Serif" font-size="14.00">launch path suffix check</text>
<text text-anchor="middle" x="1343.5" y="-329.75" font-family="Helvetica,sans-Serif" font-size="14.00">400 if not .a3p</text>
</g>
<!-- launch&#45;&gt;launch_guard -->
<g id="edge16" class="edge">
<title>launch&#45;&gt;launch_guard</title>
<path fill="none" stroke="#555555" d="M913.2,-347.1C1021.68,-345.55 1151.47,-343.69 1239.74,-342.42"/>
<polygon fill="#555555" stroke="#555555" points="1239.8,-345.92 1249.75,-342.28 1239.7,-338.93 1239.8,-345.92"/>
</g>
<!-- fs -->
<g id="node33" class="node">
<title>fs</title>
<path fill="#fde68a" stroke="black" d="M2207,-596.43C2207,-599.06 2177.87,-601.2 2142,-601.2 2106.13,-601.2 2077,-599.06 2077,-596.43 2077,-596.43 2077,-553.47 2077,-553.47 2077,-550.84 2106.13,-548.7 2142,-548.7 2177.87,-548.7 2207,-550.84 2207,-553.47 2207,-553.47 2207,-596.43 2207,-596.43"/>
<path fill="none" stroke="black" d="M2207,-596.43C2207,-593.8 2177.87,-591.66 2142,-591.66 2106.13,-591.66 2077,-593.8 2077,-596.43"/>
<text text-anchor="middle" x="2142" y="-578.75" font-family="Helvetica,sans-Serif" font-size="14.00">filesystem</text>
<text text-anchor="middle" x="2142" y="-563.75" font-family="Helvetica,sans-Serif" font-size="14.00">.a3p / json / png</text>
</g>
<!-- launch&#45;&gt;fs -->
<g id="edge34" class="edge">
<title>launch&#45;&gt;fs</title>
<path fill="none" stroke="#555555" d="M913.22,-363.87C946.31,-369.08 979.95,-376.21 1011,-385.95 1075.31,-406.13 1104.72,-402.91 1145,-456.95 1158.54,-475.12 1137.81,-492.19 1155,-506.95 1192.67,-539.31 1999,-539.83 2048,-547.95 2054.2,-548.98 2060.58,-550.28 2066.95,-551.76"/>
<polygon fill="#555555" stroke="#555555" points="2066.37,-555.22 2076.92,-554.21 2068.04,-548.43 2066.37,-555.22"/>
<text text-anchor="middle" x="1575.5" y="-539.75" font-family="Helvetica,sans-Serif" font-size="14.00">read .a3p</text>
</g>
<!-- state -->
<g id="node17" class="node">
<title>state</title>
<path fill="#fef3c7" stroke="black" d="M2028,-277.45C2028,-277.45 1639,-277.45 1639,-277.45 1633,-277.45 1627,-271.45 1627,-265.45 1627,-265.45 1627,-236.45 1627,-236.45 1627,-230.45 1633,-224.45 1639,-224.45 1639,-224.45 2028,-224.45 2028,-224.45 2034,-224.45 2040,-230.45 2040,-236.45 2040,-236.45 2040,-265.45 2040,-265.45 2040,-271.45 2034,-277.45 2028,-277.45"/>
<text text-anchor="middle" x="1833.5" y="-262.25" font-family="Helvetica,sans-Serif" font-size="14.00">ServerState</text>
<text text-anchor="middle" x="1833.5" y="-247.25" font-family="Helvetica,sans-Serif" font-size="14.00">launched | projectPath | projectName</text>
<text text-anchor="middle" x="1833.5" y="-232.25" font-family="Helvetica,sans-Serif" font-size="14.00">sceneObjects | procedures | parsedProject | eventSystem</text>
</g>
<!-- template_list&#45;&gt;state -->
<g id="edge18" class="edge">
<title>template_list&#45;&gt;state</title>
<path fill="none" stroke="#555555" d="M813.58,-124.5C902.73,-113.96 1037.38,-99.68 1155,-93.95 1356.54,-84.14 1416.61,-33.13 1609,-93.95 1685.24,-118.06 1758.02,-178.53 1798.81,-217"/>
<polygon fill="#555555" stroke="#555555" points="1796.65,-219.77 1806.3,-224.15 1801.48,-214.71 1796.65,-219.77"/>
</g>
<!-- templates -->
<g id="node30" class="node">
<title>templates</title>
<path fill="#ecfdf5" stroke="black" d="M1431.5,-586.95C1431.5,-586.95 1255.5,-586.95 1255.5,-586.95 1249.5,-586.95 1243.5,-580.95 1243.5,-574.95 1243.5,-574.95 1243.5,-560.95 1243.5,-560.95 1243.5,-554.95 1249.5,-548.95 1255.5,-548.95 1255.5,-548.95 1431.5,-548.95 1431.5,-548.95 1437.5,-548.95 1443.5,-554.95 1443.5,-560.95 1443.5,-560.95 1443.5,-574.95 1443.5,-574.95 1443.5,-580.95 1437.5,-586.95 1431.5,-586.95"/>
<text text-anchor="middle" x="1343.5" y="-571.75" font-family="Helvetica,sans-Serif" font-size="14.00">project&#45;templates</text>
<text text-anchor="middle" x="1343.5" y="-556.75" font-family="Helvetica,sans-Serif" font-size="14.00">TemplateLibrary list/create</text>
</g>
<!-- template_list&#45;&gt;templates -->
<g id="edge37" class="edge">
<title>template_list&#45;&gt;templates</title>
<path fill="none" stroke="#555555" d="M813.68,-125.88C875.88,-124.15 954.67,-132.05 1011,-172.95 1125.24,-255.91 1099.95,-327.16 1145,-460.95 1151.68,-480.78 1140.97,-491.43 1155,-506.95 1175.42,-529.54 1204.29,-543.79 1233.26,-552.78"/>
<polygon fill="#555555" stroke="#555555" points="1232.5,-556.2 1243.08,-555.63 1234.45,-549.48 1232.5,-556.2"/>
</g>
<!-- template_guard -->
<g id="node19" class="node">
<title>template_guard</title>
<path fill="#fef3c7" stroke="black" d="M1493,-415.95C1493,-415.95 1194,-415.95 1194,-415.95 1188,-415.95 1182,-409.95 1182,-403.95 1182,-403.95 1182,-389.95 1182,-389.95 1182,-383.95 1188,-377.95 1194,-377.95 1194,-377.95 1493,-377.95 1493,-377.95 1499,-377.95 1505,-383.95 1505,-389.95 1505,-389.95 1505,-403.95 1505,-403.95 1505,-409.95 1499,-415.95 1493,-415.95"/>
<text text-anchor="middle" x="1343.5" y="-400.75" font-family="Helvetica,sans-Serif" font-size="14.00">template lookup</text>
<text text-anchor="middle" x="1343.5" y="-385.75" font-family="Helvetica,sans-Serif" font-size="14.00">400 with availableTemplates when unknown</text>
</g>
<!-- project_new&#45;&gt;template_guard -->
<g id="edge19" class="edge">
<title>project_new&#45;&gt;template_guard</title>
<path fill="none" stroke="#555555" d="M925.36,-412.89C1005.5,-409.83 1095.72,-406.38 1171.71,-403.48"/>
<polygon fill="#555555" stroke="#555555" points="1172,-406.97 1181.85,-403.09 1171.73,-399.98 1172,-406.97"/>
</g>
<!-- project_new&#45;&gt;templates -->
<g id="edge38" class="edge">
<title>project_new&#45;&gt;templates</title>
<path fill="none" stroke="#555555" d="M925.17,-436.59C954.38,-441.63 983.7,-448.25 1011,-456.95 1080.35,-479.06 1086.27,-511 1155,-534.95 1179.77,-543.58 1207.2,-550.04 1233.26,-554.83"/>
<polygon fill="#555555" stroke="#555555" points="1232.72,-558.29 1243.18,-556.59 1233.94,-551.39 1232.72,-558.29"/>
</g>
<!-- add_object&#45;&gt;state -->
<g id="edge21" class="edge">
<title>add_object&#45;&gt;state</title>
<path fill="none" stroke="#555555" d="M828.66,-39.43C1004.53,-4.43 1348.64,40.52 1609,-71.95 1687.62,-105.92 1761.64,-175.23 1801.65,-216.94"/>
<polygon fill="#555555" stroke="#555555" points="1799.3,-219.54 1808.72,-224.39 1804.37,-214.72 1799.3,-219.54"/>
</g>
<!-- edit_proc&#45;&gt;state -->
<g id="edge22" class="edge">
<title>edit_proc&#45;&gt;state</title>
<path fill="none" stroke="#555555" d="M950.1,-843.94C972.07,-836.56 992.86,-826.2 1011,-811.95 1015.2,-808.66 1143.95,-457.18 1145,-451.95 1147.73,-438.38 1145.02,-212.54 1155,-202.95 1214.13,-146.14 1442.24,-196.63 1524,-202.95 1575.8,-206.96 1632.07,-214.69 1682.19,-222.81"/>
<polygon fill="#555555" stroke="#555555" points="1681.69,-226.27 1692.13,-224.43 1682.82,-219.36 1681.69,-226.27"/>
</g>
<!-- tweedle_parser -->
<g id="node25" class="node">
<title>tweedle_parser</title>
<path fill="#ecfdf5" stroke="black" d="M1414,-898.45C1414,-898.45 1273,-898.45 1273,-898.45 1267,-898.45 1261,-892.45 1261,-886.45 1261,-886.45 1261,-857.45 1261,-857.45 1261,-851.45 1267,-845.45 1273,-845.45 1273,-845.45 1414,-845.45 1414,-845.45 1420,-845.45 1426,-851.45 1426,-857.45 1426,-857.45 1426,-886.45 1426,-886.45 1426,-892.45 1420,-898.45 1414,-898.45"/>
<text text-anchor="middle" x="1343.5" y="-883.25" font-family="Helvetica,sans-Serif" font-size="14.00">tweedle&#45;parser</text>
<text text-anchor="middle" x="1343.5" y="-868.25" font-family="Helvetica,sans-Serif" font-size="14.00">parse(source) &#45;&gt; AST</text>
<text text-anchor="middle" x="1343.5" y="-853.25" font-family="Helvetica,sans-Serif" font-size="14.00">actual: parseTweedle</text>
</g>
<!-- edit_proc&#45;&gt;tweedle_parser -->
<g id="edge42" class="edge">
<title>edit_proc&#45;&gt;tweedle_parser</title>
<path fill="none" stroke="#555555" stroke-dasharray="5,2" d="M950.13,-856.33C1054.72,-860.5 1171.7,-865.15 1250.5,-868.29"/>
<polygon fill="#555555" stroke="#555555" points="1250.75,-871.8 1260.88,-868.7 1251.03,-864.81 1250.75,-871.8"/>
<text text-anchor="middle" x="1083" y="-866.75" font-family="Helvetica,sans-Serif" font-size="14.00">adjacent IDE path</text>
</g>
<!-- evidence -->
<g id="node29" class="node">
<title>evidence</title>
<path fill="#ecfdf5" stroke="black" d="M1884,-754.95C1884,-754.95 1783,-754.95 1783,-754.95 1777,-754.95 1771,-748.95 1771,-742.95 1771,-742.95 1771,-728.95 1771,-728.95 1771,-722.95 1777,-716.95 1783,-716.95 1783,-716.95 1884,-716.95 1884,-716.95 1890,-716.95 1896,-722.95 1896,-728.95 1896,-728.95 1896,-742.95 1896,-742.95 1896,-748.95 1890,-754.95 1884,-754.95"/>
<text text-anchor="middle" x="1833.5" y="-739.75" font-family="Helvetica,sans-Serif" font-size="14.00">evidence&#45;writer</text>
<text text-anchor="middle" x="1833.5" y="-724.75" font-family="Helvetica,sans-Serif" font-size="14.00">proof JSON files</text>
</g>
<!-- edit_proc&#45;&gt;evidence -->
<g id="edge41" class="edge">
<title>edit_proc&#45;&gt;evidence</title>
<path fill="none" stroke="#555555" d="M950.26,-848.38C972.47,-856.22 993.27,-867.39 1011,-882.95 1024.45,-894.76 1007.63,-910.06 1021,-921.95 1094.09,-986.93 1344.35,-992.19 1524,-939.95 1566.98,-927.46 1581.44,-921.22 1609,-885.95 1624.58,-866.02 1610.17,-850.84 1627,-831.95 1662.07,-792.59 1716.66,-768.14 1760.76,-753.78"/>
<polygon fill="#555555" stroke="#555555" points="1762.09,-757.03 1770.57,-750.69 1759.99,-750.35 1762.09,-757.03"/>
</g>
<!-- method_validation -->
<g id="node20" class="node">
<title>method_validation</title>
<path fill="#fef3c7" stroke="black" d="M1488.5,-471.95C1488.5,-471.95 1198.5,-471.95 1198.5,-471.95 1192.5,-471.95 1186.5,-465.95 1186.5,-459.95 1186.5,-459.95 1186.5,-445.95 1186.5,-445.95 1186.5,-439.95 1192.5,-433.95 1198.5,-433.95 1198.5,-433.95 1488.5,-433.95 1488.5,-433.95 1494.5,-433.95 1500.5,-439.95 1500.5,-445.95 1500.5,-445.95 1500.5,-459.95 1500.5,-459.95 1500.5,-465.95 1494.5,-471.95 1488.5,-471.95"/>
<text text-anchor="middle" x="1343.5" y="-456.75" font-family="Helvetica,sans-Serif" font-size="14.00">method validation</text>
<text text-anchor="middle" x="1343.5" y="-441.75" font-family="Helvetica,sans-Serif" font-size="14.00">name | returnType | duplicate | parameters</text>
</g>
<!-- create_proc&#45;&gt;method_validation -->
<g id="edge23" class="edge">
<title>create_proc&#45;&gt;method_validation</title>
<path fill="none" stroke="#555555" d="M902.75,-634.38C940.37,-628.35 978.32,-617.5 1011,-598.95 1017.34,-595.35 1015.21,-590.38 1021,-585.95 1091.96,-531.6 1188.3,-495.64 1256.97,-474.98"/>
<polygon fill="#555555" stroke="#555555" points="1258.3,-478.23 1266.9,-472.04 1256.32,-471.52 1258.3,-478.23"/>
</g>
<!-- method_registry -->
<g id="node31" class="node">
<title>method_registry</title>
<path fill="#ecfdf5" stroke="black" d="M1470,-770.95C1470,-770.95 1217,-770.95 1217,-770.95 1211,-770.95 1205,-764.95 1205,-758.95 1205,-758.95 1205,-744.95 1205,-744.95 1205,-738.95 1211,-732.95 1217,-732.95 1217,-732.95 1470,-732.95 1470,-732.95 1476,-732.95 1482,-738.95 1482,-744.95 1482,-744.95 1482,-758.95 1482,-758.95 1482,-764.95 1476,-770.95 1470,-770.95"/>
<text text-anchor="middle" x="1343.5" y="-755.75" font-family="Helvetica,sans-Serif" font-size="14.00">server state</text>
<text text-anchor="middle" x="1343.5" y="-740.75" font-family="Helvetica,sans-Serif" font-size="14.00">parseMethodParams / registerMethod</text>
</g>
<!-- create_proc&#45;&gt;method_registry -->
<g id="edge43" class="edge">
<title>create_proc&#45;&gt;method_registry</title>
<path fill="none" stroke="#555555" d="M902.75,-649.97C938.96,-654.97 976.37,-661.49 1011,-669.95 1077.4,-686.19 1088.83,-706.81 1155,-723.95 1167.88,-727.29 1181.37,-730.27 1194.96,-732.93"/>
<polygon fill="#555555" stroke="#555555" points="1194.39,-736.38 1204.86,-734.8 1195.69,-729.5 1194.39,-736.38"/>
</g>
<!-- create_func&#45;&gt;method_validation -->
<g id="edge25" class="edge">
<title>create_func&#45;&gt;method_validation</title>
<path fill="none" stroke="#555555" d="M937.73,-692.15C962.98,-686.75 987.9,-679.54 1011,-669.95 1081.14,-640.85 1100.38,-625.39 1145,-563.95 1152.52,-553.6 1146.26,-546.3 1155,-536.95 1181.95,-508.14 1220.62,-488.55 1255.84,-475.58"/>
<polygon fill="#555555" stroke="#555555" points="1257.41,-478.74 1265.67,-472.1 1255.07,-472.14 1257.41,-478.74"/>
</g>
<!-- create_func&#45;&gt;method_registry -->
<g id="edge44" class="edge">
<title>create_func&#45;&gt;method_registry</title>
<path fill="none" stroke="#555555" d="M937.68,-721.66C1022.87,-728.03 1117.82,-735.14 1194.35,-740.86"/>
<polygon fill="#555555" stroke="#555555" points="1194.31,-744.37 1204.54,-741.63 1194.83,-737.39 1194.31,-744.37"/>
</g>
<!-- save_route&#45;&gt;state -->
<g id="edge26" class="edge">
<title>save_route&#45;&gt;state</title>
<path fill="none" stroke="#555555" d="M947.74,-779.93C971.42,-771.6 993.24,-759.11 1011,-740.95 1027.39,-724.19 1016.35,-658.93 1021,-635.95 1057.48,-455.6 1104.48,-420.44 1145,-240.95 1148.51,-225.41 1142.97,-180.4 1155,-169.95 1231.15,-103.77 1509.63,-152.5 1609,-169.95 1663.91,-179.6 1723.11,-201.62 1766.77,-220.27"/>
<polygon fill="#555555" stroke="#555555" points="1765.56,-223.55 1776.13,-224.31 1768.34,-217.13 1765.56,-223.55"/>
</g>
<!-- save_route&#45;&gt;evidence -->
<g id="edge47" class="edge">
<title>save_route&#45;&gt;evidence</title>
<path fill="none" stroke="#555555" d="M947.69,-773.89C971.23,-782.14 993.03,-794.36 1011,-811.95 1033.46,-833.94 999.34,-859.18 1021,-881.95 1100.99,-966.03 1374.69,-957.07 1524,-907.95 1578.04,-890.17 1578.1,-861.02 1627,-831.95 1675.15,-803.33 1733.23,-776.88 1775.35,-759.02"/>
<polygon fill="#555555" stroke="#555555" points="1776.76,-762.22 1784.62,-755.12 1774.05,-755.77 1776.76,-762.22"/>
</g>
<!-- project_io -->
<g id="node32" class="node">
<title>project_io</title>
<path fill="#ecfdf5" stroke="black" d="M1430,-826.95C1430,-826.95 1257,-826.95 1257,-826.95 1251,-826.95 1245,-820.95 1245,-814.95 1245,-814.95 1245,-800.95 1245,-800.95 1245,-794.95 1251,-788.95 1257,-788.95 1257,-788.95 1430,-788.95 1430,-788.95 1436,-788.95 1442,-794.95 1442,-800.95 1442,-800.95 1442,-814.95 1442,-814.95 1442,-820.95 1436,-826.95 1430,-826.95"/>
<text text-anchor="middle" x="1343.5" y="-811.75" font-family="Helvetica,sans-Serif" font-size="14.00">project&#45;io / project&#45;system</text>
<text text-anchor="middle" x="1343.5" y="-796.75" font-family="Helvetica,sans-Serif" font-size="14.00">readProject / writeProject</text>
</g>
<!-- save_route&#45;&gt;project_io -->
<g id="edge45" class="edge">
<title>save_route&#45;&gt;project_io</title>
<path fill="none" stroke="#555555" stroke-dasharray="5,2" d="M947.9,-787.85C1046.23,-792.86 1155.88,-798.44 1234.59,-802.45"/>
<polygon fill="#555555" stroke="#555555" points="1234.83,-805.97 1245,-802.98 1235.19,-798.98 1234.83,-805.97"/>
<text text-anchor="middle" x="1083" y="-800.75" font-family="Helvetica,sans-Serif" font-size="14.00">full archive path</text>
</g>
<!-- run_guard -->
<g id="node21" class="node">
<title>run_guard</title>
<path fill="#fef3c7" stroke="black" d="M1493,-303.95C1493,-303.95 1194,-303.95 1194,-303.95 1188,-303.95 1182,-297.95 1182,-291.95 1182,-291.95 1182,-279.95 1182,-279.95 1182,-273.95 1188,-267.95 1194,-267.95 1194,-267.95 1493,-267.95 1493,-267.95 1499,-267.95 1505,-273.95 1505,-279.95 1505,-279.95 1505,-291.95 1505,-291.95 1505,-297.95 1499,-303.95 1493,-303.95"/>
<text text-anchor="middle" x="1343.5" y="-282.25" font-family="Helvetica,sans-Serif" font-size="14.00">launch required for /world/run and /events/*</text>
</g>
<!-- run_world&#45;&gt;run_guard -->
<g id="edge27" class="edge">
<title>run_world&#45;&gt;run_guard</title>
<path fill="none" stroke="#555555" d="M949.23,-554.74C971,-548.3 991.99,-539.58 1011,-527.95 1109.1,-467.93 1057.67,-374.22 1155,-312.95 1160.48,-309.5 1166.23,-306.42 1172.16,-303.68"/>
<polygon fill="#555555" stroke="#555555" points="1173.82,-306.78 1181.64,-299.64 1171.07,-300.34 1173.82,-306.78"/>
</g>
<!-- tweedle_vm -->
<g id="node26" class="node">
<title>tweedle_vm</title>
<path fill="#ecfdf5" stroke="black" d="M1434.5,-714.45C1434.5,-714.45 1252.5,-714.45 1252.5,-714.45 1246.5,-714.45 1240.5,-708.45 1240.5,-702.45 1240.5,-702.45 1240.5,-673.45 1240.5,-673.45 1240.5,-667.45 1246.5,-661.45 1252.5,-661.45 1252.5,-661.45 1434.5,-661.45 1434.5,-661.45 1440.5,-661.45 1446.5,-667.45 1446.5,-673.45 1446.5,-673.45 1446.5,-702.45 1446.5,-702.45 1446.5,-708.45 1440.5,-714.45 1434.5,-714.45"/>
<text text-anchor="middle" x="1343.5" y="-699.25" font-family="Helvetica,sans-Serif" font-size="14.00">tweedle&#45;vm</text>
<text text-anchor="middle" x="1343.5" y="-684.25" font-family="Helvetica,sans-Serif" font-size="14.00">execute(program) &#45;&gt; result</text>
<text text-anchor="middle" x="1343.5" y="-669.25" font-family="Helvetica,sans-Serif" font-size="14.00">actual: executeProject</text>
</g>
<!-- run_world&#45;&gt;tweedle_vm -->
<g id="edge48" class="edge">
<title>run_world&#45;&gt;tweedle_vm</title>
<path fill="none" stroke="#555555" d="M949.28,-586.34C970.26,-589.97 991.09,-594.15 1011,-598.95 1077.29,-614.95 1089.29,-633.68 1155,-651.95 1179.1,-658.65 1205.3,-664.53 1230.25,-669.49"/>
<polygon fill="#555555" stroke="#555555" points="1229.62,-672.94 1240.11,-671.42 1230.97,-666.07 1229.62,-672.94"/>
</g>
<!-- screenshot&#45;&gt;state -->
<g id="edge29" class="edge">
<title>screenshot&#45;&gt;state</title>
<path fill="none" stroke="#555555" d="M904.33,-507.2C944.41,-500.97 983,-486.29 1011,-456.95 1032.69,-434.23 1010.23,-345.46 1021,-315.95 1055.7,-220.92 1064.84,-177.83 1155,-131.95 1244.92,-86.2 1511.11,-107.52 1609,-131.95 1675.77,-148.62 1744.47,-189.41 1787.76,-218.58"/>
<polygon fill="#555555" stroke="#555555" points="1785.84,-221.51 1796.07,-224.25 1789.78,-215.72 1785.84,-221.51"/>
</g>
<!-- renderer -->
<g id="node27" class="node">
<title>renderer</title>
<path fill="#ecfdf5" stroke="black" d="M1982,-878.95C1982,-878.95 1685,-878.95 1685,-878.95 1679,-878.95 1673,-872.95 1673,-866.95 1673,-866.95 1673,-852.95 1673,-852.95 1673,-846.95 1679,-840.95 1685,-840.95 1685,-840.95 1982,-840.95 1982,-840.95 1988,-840.95 1994,-846.95 1994,-852.95 1994,-852.95 1994,-866.95 1994,-866.95 1994,-872.95 1988,-878.95 1982,-878.95"/>
<text text-anchor="middle" x="1833.5" y="-863.75" font-family="Helvetica,sans-Serif" font-size="14.00">scene&#45;renderer</text>
<text text-anchor="middle" x="1833.5" y="-848.75" font-family="Helvetica,sans-Serif" font-size="14.00">renderSceneToPng(project) &#45;&gt; RenderResult</text>
</g>
<!-- screenshot&#45;&gt;renderer -->
<g id="edge50" class="edge">
<title>screenshot&#45;&gt;renderer</title>
<path fill="none" stroke="#555555" d="M904.05,-482.43C942.97,-488.89 981.13,-502.45 1011,-527.95 1023.3,-538.46 1015.18,-547.86 1021,-562.95 1065.88,-679.43 1110.24,-695.06 1145,-814.95 1150.79,-834.92 1139.54,-894.06 1155,-907.95 1335.61,-1070.18 1663.92,-940.42 1785.54,-883.4"/>
<polygon fill="#555555" stroke="#555555" points="1787.08,-886.54 1794.62,-879.1 1784.08,-880.22 1787.08,-886.54"/>
</g>
<!-- register&#45;&gt;run_guard -->
<g id="edge30" class="edge">
<title>register&#45;&gt;run_guard</title>
<path fill="none" stroke="#555555" d="M1003.23,-282.17C1060.77,-282.81 1119.44,-283.47 1171.47,-284.05"/>
<polygon fill="#555555" stroke="#555555" points="1171.74,-287.55 1181.78,-284.16 1171.82,-280.55 1171.74,-287.55"/>
</g>
<!-- event_validation -->
<g id="node22" class="node">
<title>event_validation</title>
<path fill="#fef3c7" stroke="black" d="M1512,-249.95C1512,-249.95 1175,-249.95 1175,-249.95 1169,-249.95 1163,-243.95 1163,-237.95 1163,-237.95 1163,-223.95 1163,-223.95 1163,-217.95 1169,-211.95 1175,-211.95 1175,-211.95 1512,-211.95 1512,-211.95 1518,-211.95 1524,-217.95 1524,-223.95 1524,-223.95 1524,-237.95 1524,-237.95 1524,-243.95 1518,-249.95 1512,-249.95"/>
<text text-anchor="middle" x="1343.5" y="-234.75" font-family="Helvetica,sans-Serif" font-size="14.00">EventSystem validation</text>
<text text-anchor="middle" x="1343.5" y="-219.75" font-family="Helvetica,sans-Serif" font-size="14.00">unknown eventType / missing key / bad proximity</text>
</g>
<!-- register&#45;&gt;event_validation -->
<g id="edge31" class="edge">
<title>register&#45;&gt;event_validation</title>
<path fill="none" stroke="#555555" d="M1003.23,-256.88C1053.91,-253.01 1105.47,-249.07 1152.6,-245.47"/>
<polygon fill="#555555" stroke="#555555" points="1152.88,-248.96 1162.58,-244.7 1152.35,-241.98 1152.88,-248.96"/>
</g>
<!-- events -->
<g id="node28" class="node">
<title>events</title>
<path fill="#ecfdf5" stroke="black" d="M1428,-642.95C1428,-642.95 1259,-642.95 1259,-642.95 1253,-642.95 1247,-636.95 1247,-630.95 1247,-630.95 1247,-616.95 1247,-616.95 1247,-610.95 1253,-604.95 1259,-604.95 1259,-604.95 1428,-604.95 1428,-604.95 1434,-604.95 1440,-610.95 1440,-616.95 1440,-616.95 1440,-630.95 1440,-630.95 1440,-636.95 1434,-642.95 1428,-642.95"/>
<text text-anchor="middle" x="1343.5" y="-627.75" font-family="Helvetica,sans-Serif" font-size="14.00">events</text>
<text text-anchor="middle" x="1343.5" y="-612.75" font-family="Helvetica,sans-Serif" font-size="14.00">EventSystem.register/fire</text>
</g>
<!-- register&#45;&gt;events -->
<g id="edge52" class="edge">
<title>register&#45;&gt;events</title>
<path fill="none" stroke="#555555" d="M1001.32,-305.55C1004.67,-308.5 1007.9,-311.64 1011,-314.95 1025.65,-330.65 1010.32,-489.33 1021,-507.95 1056.45,-569.76 1088.44,-570.54 1155,-595.95 1180.74,-605.78 1209.7,-612.17 1237.02,-616.33"/>
<polygon fill="#555555" stroke="#555555" points="1236.6,-619.8 1247,-617.76 1237.6,-612.88 1236.6,-619.8"/>
</g>
<!-- fire&#45;&gt;run_guard -->
<g id="edge32" class="edge">
<title>fire&#45;&gt;run_guard</title>
<path fill="none" stroke="#555555" d="M835.33,-222.48C889.12,-228.98 953.24,-236.79 1011,-243.95 1069.93,-251.26 1134.73,-259.44 1191.28,-266.63"/>
<polygon fill="#555555" stroke="#555555" points="1191.01,-270.12 1201.38,-267.91 1191.9,-263.18 1191.01,-270.12"/>
</g>
<!-- fire&#45;&gt;event_validation -->
<g id="edge33" class="edge">
<title>fire&#45;&gt;event_validation</title>
<path fill="none" stroke="#555555" d="M835.33,-197.73C921.74,-192.17 1040.71,-188.04 1145,-196.95 1176.59,-199.65 1210.72,-204.74 1241.58,-210.17"/>
<polygon fill="#555555" stroke="#555555" points="1241.01,-213.62 1251.47,-211.94 1242.25,-206.73 1241.01,-213.62"/>
</g>
<!-- fire&#45;&gt;events -->
<g id="edge53" class="edge">
<title>fire&#45;&gt;events</title>
<path fill="none" stroke="#555555" d="M835.19,-189.19C896.62,-186.94 967.35,-196.91 1011,-243.95 1027.42,-261.65 1007.04,-441.26 1021,-460.95 1055.37,-509.43 1108.93,-463.73 1145,-510.95 1168.09,-541.18 1128.52,-568.64 1155,-595.95 1176.2,-617.82 1206.57,-627.54 1236.72,-631.03"/>
<polygon fill="#555555" stroke="#555555" points="1236.63,-634.54 1246.92,-631.99 1237.29,-627.57 1236.63,-634.54"/>
</g>
<!-- launch_guard&#45;&gt;state -->
<g id="edge17" class="edge">
<title>launch_guard&#45;&gt;state</title>
<path fill="none" stroke="#555555" d="M1437.33,-327.26C1465.23,-322.93 1495.9,-317.97 1524,-312.95 1580.83,-302.81 1643.31,-290.48 1697.09,-279.49"/>
<polygon fill="#555555" stroke="#555555" points="1697.93,-282.89 1707.03,-277.46 1696.53,-276.04 1697.93,-282.89"/>
</g>
<!-- template_guard&#45;&gt;state -->
<g id="edge20" class="edge">
<title>template_guard&#45;&gt;state</title>
<path fill="none" stroke="#555555" d="M1485.22,-377.91C1498.41,-375.26 1511.5,-372.28 1524,-368.95 1609.26,-346.27 1703.46,-308.23 1765.07,-281.49"/>
<polygon fill="#555555" stroke="#555555" points="1766.53,-284.67 1774.29,-277.46 1763.73,-278.25 1766.53,-284.67"/>
</g>
<!-- method_validation&#45;&gt;state -->
<g id="edge24" class="edge">
<title>method_validation&#45;&gt;state</title>
<path fill="none" stroke="#555555" d="M1493.91,-433.88C1504.2,-431.27 1514.32,-428.31 1524,-424.95 1624.01,-390.23 1729.03,-323.52 1787.09,-283.54"/>
<polygon fill="#555555" stroke="#555555" points="1789.43,-286.18 1795.65,-277.61 1785.44,-280.43 1789.43,-286.18"/>
</g>
<!-- run_guard&#45;&gt;state -->
<g id="edge28" class="edge">
<title>run_guard&#45;&gt;state</title>
<path fill="none" stroke="#555555" d="M1505.3,-274.42C1540.99,-271.86 1579.38,-269.11 1616.87,-266.42"/>
<polygon fill="#555555" stroke="#555555" points="1617.17,-269.91 1626.89,-265.7 1616.66,-262.92 1617.17,-269.91"/>
</g>
<!-- parser -->
<g id="node23" class="node">
<title>parser</title>
<path fill="#ecfdf5" stroke="black" d="M2469,-589.95C2469,-589.95 2256,-589.95 2256,-589.95 2250,-589.95 2244,-583.95 2244,-577.95 2244,-577.95 2244,-563.95 2244,-563.95 2244,-557.95 2250,-551.95 2256,-551.95 2256,-551.95 2469,-551.95 2469,-551.95 2475,-551.95 2481,-557.95 2481,-563.95 2481,-563.95 2481,-577.95 2481,-577.95 2481,-583.95 2475,-589.95 2469,-589.95"/>
<text text-anchor="middle" x="2362.5" y="-574.75" font-family="Helvetica,sans-Serif" font-size="14.00">a3p&#45;parser</text>
<text text-anchor="middle" x="2362.5" y="-559.75" font-family="Helvetica,sans-Serif" font-size="14.00">parseA3P(bytes) &#45;&gt; AliceProject</text>
</g>
<!-- parser&#45;&gt;state -->
<g id="edge36" class="edge">
<title>parser&#45;&gt;state</title>
<path fill="none" stroke="#555555" d="M2330.07,-551.86C2242.7,-498.82 1996.28,-349.19 1887.38,-283.06"/>
<polygon fill="#555555" stroke="#555555" points="1888.89,-279.88 1878.53,-277.68 1885.26,-285.87 1888.89,-279.88"/>
</g>
<!-- writer -->
<g id="node24" class="node">
<title>writer</title>
<path fill="#ecfdf5" stroke="black" d="M1921.5,-594.95C1921.5,-594.95 1745.5,-594.95 1745.5,-594.95 1739.5,-594.95 1733.5,-588.95 1733.5,-582.95 1733.5,-582.95 1733.5,-568.95 1733.5,-568.95 1733.5,-562.95 1739.5,-556.95 1745.5,-556.95 1745.5,-556.95 1921.5,-556.95 1921.5,-556.95 1927.5,-556.95 1933.5,-562.95 1933.5,-568.95 1933.5,-568.95 1933.5,-582.95 1933.5,-582.95 1933.5,-588.95 1927.5,-594.95 1921.5,-594.95"/>
<text text-anchor="middle" x="1833.5" y="-579.75" font-family="Helvetica,sans-Serif" font-size="14.00">a3p&#45;writer</text>
<text text-anchor="middle" x="1833.5" y="-564.75" font-family="Helvetica,sans-Serif" font-size="14.00">writeA3P(project) &#45;&gt; bytes</text>
</g>
<!-- writer&#45;&gt;fs -->
<g id="edge40" class="edge">
<title>writer&#45;&gt;fs</title>
<path fill="none" stroke="#555555" d="M1933.59,-575.63C1976.87,-575.49 2026.76,-575.32 2066.77,-575.19"/>
<polygon fill="#555555" stroke="#555555" points="2066.99,-578.69 2076.98,-575.16 2066.97,-571.69 2066.99,-578.69"/>
</g>
<!-- tweedle_vm&#45;&gt;evidence -->
<g id="edge49" class="edge">
<title>tweedle_vm&#45;&gt;evidence</title>
<path fill="none" stroke="#555555" d="M1446.5,-697.99C1540.52,-707.23 1677.66,-720.72 1760.65,-728.89"/>
<polygon fill="#555555" stroke="#555555" points="1760.45,-732.38 1770.74,-729.88 1761.14,-725.42 1760.45,-732.38"/>
</g>
<!-- renderer&#45;&gt;fs -->
<g id="edge51" class="edge">
<title>renderer&#45;&gt;fs</title>
<path fill="none" stroke="#555555" d="M1907.57,-840.94C1952.59,-826.13 2008.98,-801.64 2048,-763.95 2092.35,-721.12 2118.62,-652.73 2131.39,-611.02"/>
<polygon fill="#555555" stroke="#555555" points="2134.79,-611.86 2134.27,-601.28 2128.08,-609.87 2134.79,-611.86"/>
</g>
<!-- events&#45;&gt;evidence -->
<g id="edge54" class="edge">
<title>events&#45;&gt;evidence</title>
<path fill="none" stroke="#555555" d="M1440.33,-637.57C1467.48,-641.93 1496.99,-647.15 1524,-652.95 1606.1,-670.58 1698.99,-696.39 1761.2,-714.53"/>
<polygon fill="#555555" stroke="#555555" points="1760.33,-717.93 1770.91,-717.38 1762.3,-711.21 1760.33,-717.93"/>
</g>
<!-- templates&#45;&gt;writer -->
<g id="edge39" class="edge">
<title>templates&#45;&gt;writer</title>
<path fill="none" stroke="#555555" d="M1443.55,-569.58C1524.66,-570.91 1639.31,-572.79 1723.11,-574.16"/>
<polygon fill="#555555" stroke="#555555" points="1723.12,-577.66 1733.18,-574.32 1723.24,-570.66 1723.12,-577.66"/>
</g>
<!-- project_io&#45;&gt;writer -->
<g id="edge46" class="edge">
<title>project_io&#45;&gt;writer</title>
<path fill="none" stroke="#555555" d="M1442.15,-800.91C1469.32,-796.78 1498.4,-790.25 1524,-779.95 1575.82,-759.11 1580.61,-739.05 1627,-707.95 1684.26,-669.57 1751.67,-626.7 1793.25,-600.53"/>
<polygon fill="#555555" stroke="#555555" points="1795.36,-603.33 1801.97,-595.04 1791.64,-597.4 1795.36,-603.33"/>
</g>
<!-- fs&#45;&gt;parser -->
<g id="edge35" class="edge">
<title>fs&#45;&gt;parser</title>
<path fill="none" stroke="#555555" d="M2207.08,-573.78C2215.5,-573.63 2224.35,-573.46 2233.38,-573.3"/>
<polygon fill="#555555" stroke="#555555" points="2233.7,-576.79 2243.63,-573.11 2233.57,-569.79 2233.7,-576.79"/>
</g>
</g>
</svg>
