<?xml version="1.0" encoding="UTF-8" standalone="no"?>
<!DOCTYPE svg PUBLIC "-//W3C//DTD SVG 1.1//EN"
 "http://www.w3.org/Graphics/SVG/1.1/DTD/svg11.dtd">
<!-- Generated by graphviz version 2.42.4 (0)
 -->
<!-- Title: journey_student_rest Pages: 1 -->
<svg width="1320pt" height="328pt"
 viewBox="0.00 0.00 1320.29 327.86" xmlns="http://www.w3.org/2000/svg" xmlns:xlink="http://www.w3.org/1999/xlink">
<g id="graph0" class="graph" transform="scale(1 1) rotate(0) translate(4 323.86)">
<title>journey_student_rest</title>
<polygon fill="white" stroke="transparent" points="-4,4 -4,-323.86 1316.29,-323.86 1316.29,4 -4,4"/>
<!-- student -->
<g id="node1" class="node">
<title>student</title>
<ellipse fill="#dbeafe" stroke="black" cx="46.15" cy="-161.86" rx="46.29" ry="18"/>
<text text-anchor="middle" x="46.15" y="-158.16" font-family="Helvetica,sans-Serif" font-size="14.00">Student</text>
</g>
<!-- client -->
<g id="node2" class="node">
<title>client</title>
<path fill="#f8f9fa" stroke="black" d="M395.29,-179.86C395.29,-179.86 255.29,-179.86 255.29,-179.86 249.29,-179.86 243.29,-173.86 243.29,-167.86 243.29,-167.86 243.29,-155.86 243.29,-155.86 243.29,-149.86 249.29,-143.86 255.29,-143.86 255.29,-143.86 395.29,-143.86 395.29,-143.86 401.29,-143.86 407.29,-149.86 407.29,-155.86 407.29,-155.86 407.29,-167.86 407.29,-167.86 407.29,-173.86 401.29,-179.86 395.29,-179.86"/>
<text text-anchor="middle" x="325.29" y="-158.16" font-family="Helvetica,sans-Serif" font-size="14.00">Browser / REST client</text>
</g>
<!-- student&#45;&gt;client -->
<g id="edge1" class="edge">
<title>student&#45;&gt;client</title>
<path fill="none" stroke="#555555" d="M69.06,-177.63C80.7,-185.04 95.61,-193.07 110.29,-196.86 159.78,-209.66 174.92,-205.51 225.29,-196.86 241.36,-194.11 258.28,-189.01 273.5,-183.54"/>
<polygon fill="#555555" stroke="#555555" points="275.08,-186.68 283.22,-179.91 272.63,-180.12 275.08,-186.68"/>
<text text-anchor="middle" x="167.79" y="-208.66" font-family="Helvetica,sans-Serif" font-size="14.00">1 choose project</text>
</g>
<!-- student&#45;&gt;client -->
<g id="edge7" class="edge">
<title>student&#45;&gt;client</title>
<path fill="none" stroke="#555555" d="M92.6,-161.86C130.59,-161.86 185.94,-161.86 233.02,-161.86"/>
<polygon fill="#555555" stroke="#555555" points="233.24,-165.36 243.24,-161.86 233.24,-158.36 233.24,-165.36"/>
<text text-anchor="middle" x="167.79" y="-165.66" font-family="Helvetica,sans-Serif" font-size="14.00">7 edit procedure</text>
</g>
<!-- student&#45;&gt;client -->
<g id="edge11" class="edge">
<title>student&#45;&gt;client</title>
<path fill="none" stroke="#555555" d="M80.81,-149.75C90.23,-146.91 100.55,-144.3 110.29,-142.86 160.86,-135.42 174.41,-138.03 225.29,-142.86 227.85,-143.11 230.43,-143.38 233.04,-143.69"/>
<polygon fill="#555555" stroke="#555555" points="232.79,-147.19 243.16,-145.01 233.7,-140.25 232.79,-147.19"/>
<text text-anchor="middle" x="167.79" y="-146.66" font-family="Helvetica,sans-Serif" font-size="14.00">11 run world</text>
</g>
<!-- student&#45;&gt;client -->
<g id="edge17" class="edge">
<title>student&#45;&gt;client</title>
<path fill="none" stroke="#555555" d="M65.19,-145.22C77.05,-135.46 93.43,-124.06 110.29,-118.86 159.14,-103.81 175.25,-108.47 225.29,-118.86 244.95,-122.95 265.5,-131.15 282.75,-139.3"/>
<polygon fill="#555555" stroke="#555555" points="281.44,-142.56 291.96,-143.8 284.51,-136.27 281.44,-142.56"/>
<text text-anchor="middle" x="167.79" y="-122.66" font-family="Helvetica,sans-Serif" font-size="14.00">17 save</text>
</g>
<!-- api -->
<g id="node3" class="node">
<title>api</title>
<path fill="#f8f9fa" stroke="black" d="M775.29,-179.86C775.29,-179.86 679.29,-179.86 679.29,-179.86 673.29,-179.86 667.29,-173.86 667.29,-167.86 667.29,-167.86 667.29,-155.86 667.29,-155.86 667.29,-149.86 673.29,-143.86 679.29,-143.86 679.29,-143.86 775.29,-143.86 775.29,-143.86 781.29,-143.86 787.29,-149.86 787.29,-155.86 787.29,-155.86 787.29,-167.86 787.29,-167.86 787.29,-173.86 781.29,-179.86 775.29,-179.86"/>
<text text-anchor="middle" x="727.29" y="-158.16" font-family="Helvetica,sans-Serif" font-size="14.00">Express server</text>
</g>
<!-- client&#45;&gt;api -->
<g id="edge2" class="edge">
<title>client&#45;&gt;api</title>
<path fill="none" stroke="#555555" d="M335.82,-179.94C350.81,-206.18 382.64,-253.75 425.29,-272.86 516.14,-313.57 561.09,-319.03 649.29,-272.86 682.6,-255.43 704.39,-216.3 716.02,-189.49"/>
<polygon fill="#555555" stroke="#555555" points="719.26,-190.81 719.85,-180.23 712.8,-188.13 719.26,-190.81"/>
<text text-anchor="middle" x="537.29" y="-308.66" font-family="Helvetica,sans-Serif" font-size="14.00">2 POST /api/launch</text>
</g>
<!-- client&#45;&gt;api -->
<g id="edge8" class="edge">
<title>client&#45;&gt;api</title>
<path fill="none" stroke="#555555" d="M343.58,-180.13C361.89,-198.02 392.63,-224.12 425.29,-234.86 472.58,-250.41 603.05,-253.3 649.29,-234.86 672.97,-225.43 693.54,-204.87 707.45,-187.96"/>
<polygon fill="#555555" stroke="#555555" points="710.27,-190.04 713.73,-180.02 704.78,-185.7 710.27,-190.04"/>
<text text-anchor="middle" x="537.29" y="-250.66" font-family="Helvetica,sans-Serif" font-size="14.00">8 POST /api/code/edit&#45;procedure</text>
</g>
<!-- client&#45;&gt;api -->
<g id="edge12" class="edge">
<title>client&#45;&gt;api</title>
<path fill="none" stroke="#555555" d="M367.36,-179.91C384.85,-186.66 405.71,-193.5 425.29,-196.86 523.41,-213.7 551.99,-217.94 649.29,-196.86 661.51,-194.22 674.12,-189.46 685.51,-184.29"/>
<polygon fill="#555555" stroke="#555555" points="687.23,-187.34 694.76,-179.88 684.22,-181.02 687.23,-187.34"/>
<text text-anchor="middle" x="537.29" y="-214.66" font-family="Helvetica,sans-Serif" font-size="14.00">12 POST /api/world/run</text>
</g>
<!-- client&#45;&gt;api -->
<g id="edge18" class="edge">
<title>client&#45;&gt;api</title>
<path fill="none" stroke="#555555" d="M407.72,-161.86C480.94,-161.86 587.35,-161.86 656.69,-161.86"/>
<polygon fill="#555555" stroke="#555555" points="657.06,-165.36 667.06,-161.86 657.06,-158.36 657.06,-165.36"/>
<text text-anchor="middle" x="537.29" y="-165.66" font-family="Helvetica,sans-Serif" font-size="14.00">18 POST /api/project/save</text>
</g>
<!-- api&#45;&gt;client -->
<g id="edge6" class="edge">
<title>api&#45;&gt;client</title>
<path fill="none" stroke="#555555" d="M667.26,-146.62C661.22,-145.5 655.16,-144.54 649.29,-143.86 550.39,-132.46 524.45,-134.92 425.29,-143.86 422.74,-144.09 420.16,-144.36 417.56,-144.65"/>
<polygon fill="#555555" stroke="#555555" points="416.94,-141.2 407.44,-145.9 417.8,-148.14 416.94,-141.2"/>
<text text-anchor="middle" x="537.29" y="-147.66" font-family="Helvetica,sans-Serif" font-size="14.00">6 launched</text>
</g>
<!-- api&#45;&gt;client -->
<g id="edge10" class="edge">
<title>api&#45;&gt;client</title>
<path fill="none" stroke="#555555" d="M702.81,-143.72C688.27,-133.65 668.72,-122.13 649.29,-116.86 553.2,-90.84 522.59,-95.79 425.29,-116.86 405.05,-121.25 383.98,-130.14 366.51,-138.87"/>
<polygon fill="#555555" stroke="#555555" points="364.48,-135.97 357.2,-143.67 367.69,-142.19 364.48,-135.97"/>
<text text-anchor="middle" x="537.29" y="-120.66" font-family="Helvetica,sans-Serif" font-size="14.00">10 proved</text>
</g>
<!-- api&#45;&gt;client -->
<g id="edge16" class="edge">
<title>api&#45;&gt;client</title>
<path fill="none" stroke="#555555" d="M715.41,-143.58C702.48,-123.85 678.89,-93.57 649.29,-80.86 557.8,-41.61 519.05,-47.4 425.29,-80.86 394.46,-91.87 366.3,-117.06 347.97,-136.45"/>
<polygon fill="#555555" stroke="#555555" points="345.39,-134.09 341.2,-143.82 350.55,-138.82 345.39,-134.09"/>
<text text-anchor="middle" x="537.29" y="-84.66" font-family="Helvetica,sans-Serif" font-size="14.00">16 completed</text>
</g>
<!-- api&#45;&gt;client -->
<g id="edge21" class="edge">
<title>api&#45;&gt;client</title>
<path fill="none" stroke="#555555" d="M721.54,-143.85C712.79,-114.78 691.08,-58.4 649.29,-34.86 562.55,13.99 514.75,8.83 425.29,-34.86 383.13,-55.46 353.7,-103.64 338.43,-134.38"/>
<polygon fill="#555555" stroke="#555555" points="335.13,-133.16 333.97,-143.69 341.45,-136.18 335.13,-133.16"/>
<text text-anchor="middle" x="537.29" y="-38.66" font-family="Helvetica,sans-Serif" font-size="14.00">21 saved</text>
</g>
<!-- fs -->
<g id="node4" class="node">
<title>fs</title>
<path fill="#fde68a" stroke="black" d="M1119.29,-271.59C1119.29,-273.4 1099.57,-274.86 1075.29,-274.86 1051.01,-274.86 1031.29,-273.4 1031.29,-271.59 1031.29,-271.59 1031.29,-242.14 1031.29,-242.14 1031.29,-240.33 1051.01,-238.86 1075.29,-238.86 1099.57,-238.86 1119.29,-240.33 1119.29,-242.14 1119.29,-242.14 1119.29,-271.59 1119.29,-271.59"/>
<path fill="none" stroke="black" d="M1119.29,-271.59C1119.29,-269.79 1099.57,-268.32 1075.29,-268.32 1051.01,-268.32 1031.29,-269.79 1031.29,-271.59"/>
<text text-anchor="middle" x="1075.29" y="-253.16" font-family="Helvetica,sans-Serif" font-size="14.00">filesystem</text>
</g>
<!-- api&#45;&gt;fs -->
<g id="edge3" class="edge">
<title>api&#45;&gt;fs</title>
<path fill="none" stroke="#555555" d="M734.73,-180.23C745.02,-206.36 767.89,-253.29 805.29,-272.86 873.13,-308.37 964.19,-291.93 1021.04,-275.46"/>
<polygon fill="#555555" stroke="#555555" points="1022.32,-278.73 1030.89,-272.51 1020.31,-272.03 1022.32,-278.73"/>
<text text-anchor="middle" x="903.29" y="-297.66" font-family="Helvetica,sans-Serif" font-size="14.00">3 read .a3p</text>
</g>
<!-- api&#45;&gt;fs -->
<g id="edge19" class="edge">
<title>api&#45;&gt;fs</title>
<path fill="none" stroke="#555555" d="M744.35,-180.12C758.7,-195.13 781.16,-215.54 805.29,-225.86 842.88,-241.94 953.58,-250.48 1020.68,-254.31"/>
<polygon fill="#555555" stroke="#555555" points="1020.88,-257.82 1031.06,-254.88 1021.27,-250.83 1020.88,-257.82"/>
<text text-anchor="middle" x="903.29" y="-255.66" font-family="Helvetica,sans-Serif" font-size="14.00">19 copy or placeholder .a3p</text>
</g>
<!-- vm -->
<g id="node6" class="node">
<title>vm</title>
<path fill="#f8f9fa" stroke="black" d="M1111.79,-209.86C1111.79,-209.86 1038.79,-209.86 1038.79,-209.86 1032.79,-209.86 1026.79,-203.86 1026.79,-197.86 1026.79,-197.86 1026.79,-185.86 1026.79,-185.86 1026.79,-179.86 1032.79,-173.86 1038.79,-173.86 1038.79,-173.86 1111.79,-173.86 1111.79,-173.86 1117.79,-173.86 1123.79,-179.86 1123.79,-185.86 1123.79,-185.86 1123.79,-197.86 1123.79,-197.86 1123.79,-203.86 1117.79,-209.86 1111.79,-209.86"/>
<text text-anchor="middle" x="1075.29" y="-188.16" font-family="Helvetica,sans-Serif" font-size="14.00">tweedle&#45;vm</text>
</g>
<!-- api&#45;&gt;vm -->
<g id="edge13" class="edge">
<title>api&#45;&gt;vm</title>
<path fill="none" stroke="#555555" d="M759.83,-179.88C773.37,-186.63 789.65,-193.48 805.29,-196.86 876.7,-212.33 961.27,-207.03 1016.26,-200.57"/>
<polygon fill="#555555" stroke="#555555" points="1017.02,-204 1026.52,-199.31 1016.16,-197.05 1017.02,-204"/>
<text text-anchor="middle" x="903.29" y="-210.66" font-family="Helvetica,sans-Serif" font-size="14.00">13 executeProject</text>
</g>
<!-- evidence -->
<g id="node7" class="node">
<title>evidence</title>
<path fill="#d1fae5" stroke="black" d="M1119.29,-122.86C1119.29,-122.86 1031.29,-122.86 1031.29,-122.86 1025.29,-122.86 1019.29,-116.86 1019.29,-110.86 1019.29,-110.86 1019.29,-98.86 1019.29,-98.86 1019.29,-92.86 1025.29,-86.86 1031.29,-86.86 1031.29,-86.86 1119.29,-86.86 1119.29,-86.86 1125.29,-86.86 1131.29,-92.86 1131.29,-98.86 1131.29,-98.86 1131.29,-110.86 1131.29,-110.86 1131.29,-116.86 1125.29,-122.86 1119.29,-122.86"/>
<text text-anchor="middle" x="1075.29" y="-101.16" font-family="Helvetica,sans-Serif" font-size="14.00">evidence files</text>
</g>
<!-- api&#45;&gt;evidence -->
<g id="edge9" class="edge">
<title>api&#45;&gt;evidence</title>
<path fill="none" stroke="#555555" d="M787.43,-147.33C793.44,-146.07 799.48,-144.88 805.29,-143.86 891.69,-128.75 914.79,-135.38 1001.29,-120.86 1003.81,-120.44 1006.37,-119.99 1008.96,-119.51"/>
<polygon fill="#555555" stroke="#555555" points="1009.84,-122.91 1019,-117.59 1008.52,-116.03 1009.84,-122.91"/>
<text text-anchor="middle" x="903.29" y="-147.66" font-family="Helvetica,sans-Serif" font-size="14.00">9 proof + edited&#45;project</text>
</g>
<!-- api&#45;&gt;evidence -->
<g id="edge15" class="edge">
<title>api&#45;&gt;evidence</title>
<path fill="none" stroke="#555555" d="M744.6,-143.77C758.95,-129.3 781.25,-110.13 805.29,-101.86 871.93,-78.97 953.44,-84.1 1009.16,-92.18"/>
<polygon fill="#555555" stroke="#555555" points="1008.84,-95.67 1019.25,-93.71 1009.89,-88.75 1008.84,-95.67"/>
<text text-anchor="middle" x="903.29" y="-105.66" font-family="Helvetica,sans-Serif" font-size="14.00">15 run&#45;world&#45;result.json</text>
</g>
<!-- api&#45;&gt;evidence -->
<g id="edge20" class="edge">
<title>api&#45;&gt;evidence</title>
<path fill="none" stroke="#555555" d="M736.67,-143.76C748.36,-120.94 771.95,-82.76 805.29,-66.86 844.61,-48.12 958.98,-56.51 1001.29,-66.86 1013.99,-69.97 1026.95,-75.72 1038.34,-81.81"/>
<polygon fill="#555555" stroke="#555555" points="1036.68,-84.89 1047.12,-86.73 1040.11,-78.79 1036.68,-84.89"/>
<text text-anchor="middle" x="903.29" y="-70.66" font-family="Helvetica,sans-Serif" font-size="14.00">20 save proof</text>
</g>
<!-- parser -->
<g id="node5" class="node">
<title>parser</title>
<path fill="#f8f9fa" stroke="black" d="M1300.29,-67.86C1300.29,-67.86 1231.29,-67.86 1231.29,-67.86 1225.29,-67.86 1219.29,-61.86 1219.29,-55.86 1219.29,-55.86 1219.29,-43.86 1219.29,-43.86 1219.29,-37.86 1225.29,-31.86 1231.29,-31.86 1231.29,-31.86 1300.29,-31.86 1300.29,-31.86 1306.29,-31.86 1312.29,-37.86 1312.29,-43.86 1312.29,-43.86 1312.29,-55.86 1312.29,-55.86 1312.29,-61.86 1306.29,-67.86 1300.29,-67.86"/>
<text text-anchor="middle" x="1265.79" y="-46.16" font-family="Helvetica,sans-Serif" font-size="14.00">a3p&#45;parser</text>
</g>
<!-- fs&#45;&gt;parser -->
<g id="edge4" class="edge">
<title>fs&#45;&gt;parser</title>
<path fill="none" stroke="#555555" d="M1105.22,-239.25C1114.01,-233.28 1123.42,-226.25 1131.29,-218.86 1178.86,-174.25 1223.58,-111.98 1247.25,-76.82"/>
<polygon fill="#555555" stroke="#555555" points="1250.44,-78.34 1253.08,-68.08 1244.62,-74.46 1250.44,-78.34"/>
<text text-anchor="middle" x="1175.29" y="-201.66" font-family="Helvetica,sans-Serif" font-size="14.00">4 bytes</text>
</g>
<!-- parser&#45;&gt;api -->
<g id="edge5" class="edge">
<title>parser&#45;&gt;api</title>
<path fill="none" stroke="#555555" d="M1219.12,-37.03C1132.61,-15.4 941.35,19.35 805.29,-51.86 772.33,-69.12 750.54,-107.62 738.8,-134.16"/>
<polygon fill="#555555" stroke="#555555" points="735.45,-133.11 734.79,-143.68 741.9,-135.82 735.45,-133.11"/>
<text text-anchor="middle" x="1075.29" y="-22.66" font-family="Helvetica,sans-Serif" font-size="14.00">5 AliceProject</text>
</g>
<!-- vm&#45;&gt;api -->
<g id="edge14" class="edge">
<title>vm&#45;&gt;api</title>
<path fill="none" stroke="#555555" d="M1026.53,-181.78C1018.15,-180.27 1009.49,-178.89 1001.29,-177.86 932.21,-169.25 852.71,-165.26 797.38,-163.42"/>
<polygon fill="#555555" stroke="#555555" points="797.45,-159.92 787.34,-163.1 797.22,-166.91 797.45,-159.92"/>
<text text-anchor="middle" x="903.29" y="-181.66" font-family="Helvetica,sans-Serif" font-size="14.00">14 execution_log</text>
</g>
</g>
</svg>
