<?xml version="1.0" encoding="UTF-8" standalone="no"?>
<!DOCTYPE svg PUBLIC "-//W3C//DTD SVG 1.1//EN"
 "http://www.w3.org/Graphics/SVG/1.1/DTD/svg11.dtd">
<!-- Generated by graphviz version 2.42.4 (0)
 -->
<!-- Title: journey_eatme Pages: 1 -->
<svg width="1206pt" height="463pt"
 viewBox="0.00 0.00 1205.99 462.74" xmlns="http://www.w3.org/2000/svg" xmlns:xlink="http://www.w3.org/1999/xlink">
<g id="graph0" class="graph" transform="scale(1 1) rotate(0) translate(4 458.74)">
<title>journey_eatme</title>
<polygon fill="white" stroke="transparent" points="-4,4 -4,-458.74 1201.99,-458.74 1201.99,4 -4,4"/>
<!-- eatme -->
<g id="node1" class="node">
<title>eatme</title>
<ellipse fill="#dbeafe" stroke="black" cx="84.49" cy="-228.74" rx="84.49" ry="18"/>
<text text-anchor="middle" x="84.49" y="-225.04" font-family="Helvetica,sans-Serif" font-size="14.00">Eatme test suite</text>
</g>
<!-- harness -->
<g id="node2" class="node">
<title>harness</title>
<path fill="#f8f9fa" stroke="black" d="M470.99,-246.74C470.99,-246.74 317.99,-246.74 317.99,-246.74 311.99,-246.74 305.99,-240.74 305.99,-234.74 305.99,-234.74 305.99,-222.74 305.99,-222.74 305.99,-216.74 311.99,-210.74 317.99,-210.74 317.99,-210.74 470.99,-210.74 470.99,-210.74 476.99,-210.74 482.99,-216.74 482.99,-222.74 482.99,-222.74 482.99,-234.74 482.99,-234.74 482.99,-240.74 476.99,-246.74 470.99,-246.74"/>
<text text-anchor="middle" x="394.49" y="-225.04" font-family="Helvetica,sans-Serif" font-size="14.00">supertest / CLI harness</text>
</g>
<!-- eatme&#45;&gt;harness -->
<g id="edge1" class="edge">
<title>eatme&#45;&gt;harness</title>
<path fill="none" stroke="#555555" d="M169.25,-228.74C208.33,-228.74 255.09,-228.74 295.78,-228.74"/>
<polygon fill="#555555" stroke="#555555" points="295.98,-232.24 305.98,-228.74 295.98,-225.24 295.98,-232.24"/>
<text text-anchor="middle" x="237.49" y="-232.54" font-family="Helvetica,sans-Serif" font-size="14.00">1 run scenario</text>
</g>
<!-- api -->
<g id="node3" class="node">
<title>api</title>
<path fill="#f8f9fa" stroke="black" d="M855.99,-265.74C855.99,-265.74 759.99,-265.74 759.99,-265.74 753.99,-265.74 747.99,-259.74 747.99,-253.74 747.99,-253.74 747.99,-241.74 747.99,-241.74 747.99,-235.74 753.99,-229.74 759.99,-229.74 759.99,-229.74 855.99,-229.74 855.99,-229.74 861.99,-229.74 867.99,-235.74 867.99,-241.74 867.99,-241.74 867.99,-253.74 867.99,-253.74 867.99,-259.74 861.99,-265.74 855.99,-265.74"/>
<text text-anchor="middle" x="807.99" y="-244.04" font-family="Helvetica,sans-Serif" font-size="14.00">Express server</text>
</g>
<!-- harness&#45;&gt;api -->
<g id="edge2" class="edge">
<title>harness&#45;&gt;api</title>
<path fill="none" stroke="#555555" d="M401.83,-246.78C414.61,-279.95 446.93,-349.78 500.99,-377.74 590.6,-424.09 640.05,-427.2 727.99,-377.74 766.45,-356.1 788.36,-307.32 798.94,-276.05"/>
<polygon fill="#555555" stroke="#555555" points="802.38,-276.77 802.1,-266.18 795.72,-274.64 802.38,-276.77"/>
<text text-anchor="middle" x="614.49" y="-416.54" font-family="Helvetica,sans-Serif" font-size="14.00">2 GET /api/health</text>
</g>
<!-- harness&#45;&gt;api -->
<g id="edge4" class="edge">
<title>harness&#45;&gt;api</title>
<path fill="none" stroke="#555555" d="M405.96,-246.85C422.34,-273.13 456.76,-320.76 500.99,-339.74 547.34,-359.63 682.15,-360.8 727.99,-339.74 756.78,-326.51 779.02,-297.04 792.46,-275"/>
<polygon fill="#555555" stroke="#555555" points="795.65,-276.47 797.68,-266.07 789.61,-272.94 795.65,-276.47"/>
<text text-anchor="middle" x="614.49" y="-358.54" font-family="Helvetica,sans-Serif" font-size="14.00">4 POST /api/launch</text>
</g>
<!-- harness&#45;&gt;api -->
<g id="edge6" class="edge">
<title>harness&#45;&gt;api</title>
<path fill="none" stroke="#555555" d="M414.15,-247.02C433.85,-264.93 466.75,-291.05 500.99,-301.74 549.14,-316.77 679.79,-316.64 727.99,-301.74 746.96,-295.87 765.44,-283.71 779.75,-272.41"/>
<polygon fill="#555555" stroke="#555555" points="782.16,-274.97 787.66,-265.91 777.71,-269.55 782.16,-274.97"/>
<text text-anchor="middle" x="614.49" y="-316.54" font-family="Helvetica,sans-Serif" font-size="14.00">6 POST /api/scene/add&#45;object xN</text>
</g>
<!-- harness&#45;&gt;api -->
<g id="edge9" class="edge">
<title>harness&#45;&gt;api</title>
<path fill="none" stroke="#555555" d="M439.35,-246.79C458.01,-253.54 480.22,-260.39 500.99,-263.74 600.58,-279.83 627.6,-273.8 727.99,-263.74 731.19,-263.42 734.45,-263.03 737.74,-262.58"/>
<polygon fill="#555555" stroke="#555555" points="738.29,-266.04 747.65,-261.08 737.24,-259.11 738.29,-266.04"/>
<text text-anchor="middle" x="614.49" y="-276.54" font-family="Helvetica,sans-Serif" font-size="14.00">9 POST /api/events/register xN</text>
</g>
<!-- harness&#45;&gt;api -->
<g id="edge13" class="edge">
<title>harness&#45;&gt;api</title>
<path fill="none" stroke="#555555" d="M483.01,-232.78C559.03,-236.29 667.65,-241.31 737.75,-244.54"/>
<polygon fill="#555555" stroke="#555555" points="737.65,-248.04 747.8,-245.01 737.97,-241.05 737.65,-248.04"/>
<text text-anchor="middle" x="614.49" y="-246.54" font-family="Helvetica,sans-Serif" font-size="14.00">13 POST /api/events/fire</text>
</g>
<!-- harness&#45;&gt;api -->
<g id="edge17" class="edge">
<title>harness&#45;&gt;api</title>
<path fill="none" stroke="#555555" d="M483.18,-213.75C550.74,-204.91 646.13,-198.33 727.99,-214.74 739.6,-217.07 751.63,-221.14 762.7,-225.65"/>
<polygon fill="#555555" stroke="#555555" points="761.57,-228.98 772.15,-229.69 764.33,-222.54 761.57,-228.98"/>
<text text-anchor="middle" x="614.49" y="-218.54" font-family="Helvetica,sans-Serif" font-size="14.00">17 POST /api/world/run</text>
</g>
<!-- api&#45;&gt;harness -->
<g id="edge3" class="edge">
<title>api&#45;&gt;harness</title>
<path fill="none" stroke="#555555" d="M794.36,-229.42C780.52,-211.11 756.44,-184.1 727.99,-172.74 681.13,-154.04 549.94,-160.55 500.99,-172.74 475.51,-179.08 449.43,-192.85 429.57,-205.14"/>
<polygon fill="#555555" stroke="#555555" points="427.46,-202.34 420.91,-210.66 431.22,-208.24 427.46,-202.34"/>
<text text-anchor="middle" x="614.49" y="-176.54" font-family="Helvetica,sans-Serif" font-size="14.00">3 running</text>
</g>
<!-- api&#45;&gt;harness -->
<g id="edge5" class="edge">
<title>api&#45;&gt;harness</title>
<path fill="none" stroke="#555555" d="M799.62,-229.32C788.43,-204.15 764.5,-160.07 727.99,-141.74 637.82,-96.48 595.94,-107.64 500.99,-141.74 467.3,-153.84 436.71,-181.85 417.24,-202.85"/>
<polygon fill="#555555" stroke="#555555" points="414.44,-200.73 410.34,-210.5 419.64,-205.42 414.44,-200.73"/>
<text text-anchor="middle" x="614.49" y="-145.54" font-family="Helvetica,sans-Serif" font-size="14.00">5 launched</text>
</g>
<!-- api&#45;&gt;harness -->
<g id="edge8" class="edge">
<title>api&#45;&gt;harness</title>
<path fill="none" stroke="#555555" d="M804.02,-229.73C797.35,-195.83 777.69,-123.19 727.99,-92.74 684.97,-66.39 546.29,-70.55 500.99,-92.74 455.07,-115.23 423.4,-168.42 407.45,-201.21"/>
<polygon fill="#555555" stroke="#555555" points="404.27,-199.74 403.18,-210.28 410.61,-202.72 404.27,-199.74"/>
<text text-anchor="middle" x="614.49" y="-96.54" font-family="Helvetica,sans-Serif" font-size="14.00">8 added</text>
</g>
<!-- events -->
<g id="node4" class="node">
<title>events</title>
<path fill="#f8f9fa" stroke="black" d="M1185.99,-398.74C1185.99,-398.74 1101.99,-398.74 1101.99,-398.74 1095.99,-398.74 1089.99,-392.74 1089.99,-386.74 1089.99,-386.74 1089.99,-374.74 1089.99,-374.74 1089.99,-368.74 1095.99,-362.74 1101.99,-362.74 1101.99,-362.74 1185.99,-362.74 1185.99,-362.74 1191.99,-362.74 1197.99,-368.74 1197.99,-374.74 1197.99,-374.74 1197.99,-386.74 1197.99,-386.74 1197.99,-392.74 1191.99,-398.74 1185.99,-398.74"/>
<text text-anchor="middle" x="1143.99" y="-377.04" font-family="Helvetica,sans-Serif" font-size="14.00">EventSystem</text>
</g>
<!-- api&#45;&gt;events -->
<g id="edge10" class="edge">
<title>api&#45;&gt;events</title>
<path fill="none" stroke="#555555" d="M811.22,-265.8C816.77,-301.8 834.79,-381.97 887.99,-415.74 957.03,-459.57 992.34,-434.3 1071.99,-415.74 1083.15,-413.14 1094.59,-408.51 1104.92,-403.46"/>
<polygon fill="#555555" stroke="#555555" points="1106.78,-406.44 1114.07,-398.74 1103.58,-400.21 1106.78,-406.44"/>
<text text-anchor="middle" x="979.99" y="-443.54" font-family="Helvetica,sans-Serif" font-size="14.00">10 register</text>
</g>
<!-- api&#45;&gt;events -->
<g id="edge14" class="edge">
<title>api&#45;&gt;events</title>
<path fill="none" stroke="#555555" d="M813.9,-266.13C822.95,-295.81 845.31,-353.41 887.99,-377.74 919.47,-395.7 1015,-391.91 1079.77,-386.85"/>
<polygon fill="#555555" stroke="#555555" points="1080.2,-390.32 1089.88,-386.03 1079.63,-383.35 1080.2,-390.32"/>
<text text-anchor="middle" x="979.99" y="-394.54" font-family="Helvetica,sans-Serif" font-size="14.00">14 fire</text>
</g>
<!-- vm -->
<g id="node5" class="node">
<title>vm</title>
<path fill="#f8f9fa" stroke="black" d="M1180.49,-284.74C1180.49,-284.74 1107.49,-284.74 1107.49,-284.74 1101.49,-284.74 1095.49,-278.74 1095.49,-272.74 1095.49,-272.74 1095.49,-260.74 1095.49,-260.74 1095.49,-254.74 1101.49,-248.74 1107.49,-248.74 1107.49,-248.74 1180.49,-248.74 1180.49,-248.74 1186.49,-248.74 1192.49,-254.74 1192.49,-260.74 1192.49,-260.74 1192.49,-272.74 1192.49,-272.74 1192.49,-278.74 1186.49,-284.74 1180.49,-284.74"/>
<text text-anchor="middle" x="1143.99" y="-263.04" font-family="Helvetica,sans-Serif" font-size="14.00">tweedle&#45;vm</text>
</g>
<!-- api&#45;&gt;vm -->
<g id="edge18" class="edge">
<title>api&#45;&gt;vm</title>
<path fill="none" stroke="#555555" d="M868.33,-261C874.93,-262.11 881.58,-263.06 887.99,-263.74 955.47,-270.91 1033.56,-270.57 1085.36,-269.14"/>
<polygon fill="#555555" stroke="#555555" points="1085.47,-272.64 1095.36,-268.84 1085.26,-265.64 1085.47,-272.64"/>
<text text-anchor="middle" x="979.99" y="-273.54" font-family="Helvetica,sans-Serif" font-size="14.00">18 executeProject</text>
</g>
<!-- evidence -->
<g id="node6" class="node">
<title>evidence</title>
<path fill="#d1fae5" stroke="black" d="M1182.99,-151.74C1182.99,-151.74 1104.99,-151.74 1104.99,-151.74 1098.99,-151.74 1092.99,-145.74 1092.99,-139.74 1092.99,-139.74 1092.99,-127.74 1092.99,-127.74 1092.99,-121.74 1098.99,-115.74 1104.99,-115.74 1104.99,-115.74 1182.99,-115.74 1182.99,-115.74 1188.99,-115.74 1194.99,-121.74 1194.99,-127.74 1194.99,-127.74 1194.99,-139.74 1194.99,-139.74 1194.99,-145.74 1188.99,-151.74 1182.99,-151.74"/>
<text text-anchor="middle" x="1143.99" y="-130.04" font-family="Helvetica,sans-Serif" font-size="14.00">evidence dir</text>
</g>
<!-- api&#45;&gt;evidence -->
<g id="edge7" class="edge">
<title>api&#45;&gt;evidence</title>
<path fill="none" stroke="#555555" d="M851.93,-229.64C863.49,-225.26 876.08,-220.94 887.99,-217.74 968.01,-196.26 995.86,-220.46 1071.99,-187.74 1088.21,-180.77 1104.07,-169.29 1116.66,-158.71"/>
<polygon fill="#555555" stroke="#555555" points="1119.2,-161.15 1124.44,-151.94 1114.6,-155.87 1119.2,-161.15"/>
<text text-anchor="middle" x="979.99" y="-221.54" font-family="Helvetica,sans-Serif" font-size="14.00">7 scene&#45;object&#45;added.json</text>
</g>
<!-- api&#45;&gt;evidence -->
<g id="edge12" class="edge">
<title>api&#45;&gt;evidence</title>
<path fill="none" stroke="#555555" d="M821.38,-229.42C835.22,-210.64 859.44,-182.32 887.99,-168.74 962.22,-133.41 990.85,-163.02 1071.99,-149.74 1075.46,-149.17 1079.01,-148.54 1082.6,-147.86"/>
<polygon fill="#555555" stroke="#555555" points="1083.58,-151.23 1092.71,-145.85 1082.22,-144.37 1083.58,-151.23"/>
<text text-anchor="middle" x="979.99" y="-172.54" font-family="Helvetica,sans-Serif" font-size="14.00">12 event&#45;register.json</text>
</g>
<!-- api&#45;&gt;evidence -->
<g id="edge16" class="edge">
<title>api&#45;&gt;evidence</title>
<path fill="none" stroke="#555555" d="M815.1,-229.31C825.28,-201.98 848.59,-151.67 887.99,-130.74 920.46,-113.48 1018.15,-119.89 1082.76,-126.51"/>
<polygon fill="#555555" stroke="#555555" points="1082.52,-130 1092.83,-127.57 1083.25,-123.04 1082.52,-130"/>
<text text-anchor="middle" x="979.99" y="-134.54" font-family="Helvetica,sans-Serif" font-size="14.00">16 event&#45;fire.json</text>
</g>
<!-- api&#45;&gt;evidence -->
<g id="edge20" class="edge">
<title>api&#45;&gt;evidence</title>
<path fill="none" stroke="#555555" d="M812.45,-229.49C819.78,-196.66 840.28,-128.35 887.99,-99.74 958.12,-57.68 992.24,-81.63 1071.99,-99.74 1082.8,-102.2 1093.89,-106.51 1104,-111.26"/>
<polygon fill="#555555" stroke="#555555" points="1102.46,-114.4 1112.97,-115.7 1105.57,-108.13 1102.46,-114.4"/>
<text text-anchor="middle" x="979.99" y="-103.54" font-family="Helvetica,sans-Serif" font-size="14.00">20 run&#45;world&#45;result.json</text>
</g>
<!-- events&#45;&gt;api -->
<g id="edge11" class="edge">
<title>events&#45;&gt;api</title>
<path fill="none" stroke="#555555" d="M1089.64,-366.46C1083.71,-365.1 1077.73,-363.82 1071.99,-362.74 991,-347.47 960.59,-378.73 887.99,-339.74 860.23,-324.84 837.93,-295.93 824.2,-274.47"/>
<polygon fill="#555555" stroke="#555555" points="827.07,-272.47 818.84,-265.8 821.11,-276.15 827.07,-272.47"/>
<text text-anchor="middle" x="979.99" y="-366.54" font-family="Helvetica,sans-Serif" font-size="14.00">11 registration</text>
</g>
<!-- events&#45;&gt;api -->
<g id="edge15" class="edge">
<title>events&#45;&gt;api</title>
<path fill="none" stroke="#555555" d="M1126.75,-362.55C1113.42,-348.82 1093.33,-330.71 1071.99,-320.74 996.78,-285.62 966.63,-315.28 887.99,-288.74 874.2,-284.09 859.87,-277.31 847.26,-270.6"/>
<polygon fill="#555555" stroke="#555555" points="848.87,-267.49 838.41,-265.76 845.51,-273.63 848.87,-267.49"/>
<text text-anchor="middle" x="979.99" y="-324.54" font-family="Helvetica,sans-Serif" font-size="14.00">15 triggered handlers</text>
</g>
<!-- vm&#45;&gt;api -->
<g id="edge19" class="edge">
<title>vm&#45;&gt;api</title>
<path fill="none" stroke="#555555" d="M1095.32,-249.84C1087.61,-247.72 1079.64,-245.9 1071.99,-244.74 1006.77,-234.87 931.42,-237.09 878.14,-240.9"/>
<polygon fill="#555555" stroke="#555555" points="877.83,-237.42 868.12,-241.66 878.35,-244.4 877.83,-237.42"/>
<text text-anchor="middle" x="979.99" y="-248.54" font-family="Helvetica,sans-Serif" font-size="14.00">19 execution_log</text>
</g>
<!-- evidence&#45;&gt;harness -->
<g id="edge21" class="edge">
<title>evidence&#45;&gt;harness</title>
<path fill="none" stroke="#555555" d="M1127.25,-115.73C1114.06,-102.1 1093.91,-84.45 1071.99,-76.74 832.59,7.47 725.85,40.91 500.99,-76.74 450.9,-102.94 419.83,-164.93 405.29,-201.14"/>
<polygon fill="#555555" stroke="#555555" points="401.97,-200.02 401.62,-210.61 408.5,-202.55 401.97,-200.02"/>
<text text-anchor="middle" x="807.99" y="-17.54" font-family="Helvetica,sans-Serif" font-size="14.00">21 verify artifacts</text>
</g>
</g>
</svg>
