<?xml version="1.0" encoding="UTF-8" standalone="no"?>
<!DOCTYPE svg PUBLIC "-//W3C//DTD SVG 1.1//EN"
 "http://www.w3.org/Graphics/SVG/1.1/DTD/svg11.dtd">
<!-- Generated by graphviz version 2.42.4 (0)
 -->
<!-- Title: journey_student_new_project Pages: 1 -->
<svg width="1972pt" height="229pt"
 viewBox="0.00 0.00 1972.29 229.17" xmlns="http://www.w3.org/2000/svg" xmlns:xlink="http://www.w3.org/1999/xlink">
<g id="graph0" class="graph" transform="scale(1 1) rotate(0) translate(4 225.17)">
<title>journey_student_new_project</title>
<polygon fill="white" stroke="transparent" points="-4,4 -4,-225.17 1968.29,-225.17 1968.29,4 -4,4"/>
<!-- student -->
<g id="node1" class="node">
<title>student</title>
<ellipse fill="#dbeafe" stroke="black" cx="46.15" cy="-127" rx="46.29" ry="18"/>
<text text-anchor="middle" x="46.15" y="-123.3" font-family="Helvetica,sans-Serif" font-size="14.00">Student</text>
</g>
<!-- ide -->
<g id="node2" class="node">
<title>ide</title>
<path fill="#f8f9fa" stroke="black" d="M1142.29,-140C1142.29,-140 1065.29,-140 1065.29,-140 1059.29,-140 1053.29,-134 1053.29,-128 1053.29,-128 1053.29,-116 1053.29,-116 1053.29,-110 1059.29,-104 1065.29,-104 1065.29,-104 1142.29,-104 1142.29,-104 1148.29,-104 1154.29,-110 1154.29,-116 1154.29,-116 1154.29,-128 1154.29,-128 1154.29,-134 1148.29,-140 1142.29,-140"/>
<text text-anchor="middle" x="1103.79" y="-118.3" font-family="Helvetica,sans-Serif" font-size="14.00">Browser IDE</text>
</g>
<!-- student&#45;&gt;ide -->
<g id="edge1" class="edge">
<title>student&#45;&gt;ide</title>
<path fill="none" stroke="#555555" d="M61.79,-144.16C73.48,-156.46 91.06,-172.05 110.29,-179 365.68,-271.3 449.74,-181.86 721.29,-181 860.85,-180.56 904.38,-227.35 1035.29,-179 1052.69,-172.57 1068.71,-159.5 1080.77,-147.5"/>
<polygon fill="#555555" stroke="#555555" points="1083.35,-149.87 1087.75,-140.23 1078.3,-145.02 1083.35,-149.87"/>
<text text-anchor="middle" x="628.79" y="-198.8" font-family="Helvetica,sans-Serif" font-size="14.00">1 create new project</text>
</g>
<!-- student&#45;&gt;ide -->
<g id="edge10" class="edge">
<title>student&#45;&gt;ide</title>
<path fill="none" stroke="#555555" d="M81.51,-138.66C90.75,-141.28 100.81,-143.67 110.29,-145 180.28,-154.78 198.63,-145.16 269.29,-145 548.41,-144.38 618.25,-147.64 897.29,-141 958.65,-139.54 974.36,-143.37 1035.29,-136 1037.84,-135.69 1040.43,-135.34 1043.05,-134.95"/>
<polygon fill="#555555" stroke="#555555" points="1043.89,-138.36 1053.18,-133.28 1042.75,-131.45 1043.89,-138.36"/>
<text text-anchor="middle" x="628.79" y="-148.8" font-family="Helvetica,sans-Serif" font-size="14.00">10 run world</text>
</g>
<!-- gallery -->
<g id="node4" class="node">
<title>gallery</title>
<path fill="#f8f9fa" stroke="black" d="M698.29,-141C698.29,-141 559.29,-141 559.29,-141 553.29,-141 547.29,-135 547.29,-129 547.29,-129 547.29,-117 547.29,-117 547.29,-111 553.29,-105 559.29,-105 559.29,-105 698.29,-105 698.29,-105 704.29,-105 710.29,-111 710.29,-117 710.29,-117 710.29,-129 710.29,-129 710.29,-135 704.29,-141 698.29,-141"/>
<text text-anchor="middle" x="628.79" y="-119.3" font-family="Helvetica,sans-Serif" font-size="14.00">gallery / scene editor</text>
</g>
<!-- student&#45;&gt;gallery -->
<g id="edge4" class="edge">
<title>student&#45;&gt;gallery</title>
<path fill="none" stroke="#555555" d="M92.71,-126.69C188.3,-126.03 411.35,-124.49 537.21,-123.62"/>
<polygon fill="#555555" stroke="#555555" points="537.24,-127.12 547.21,-123.56 537.19,-120.12 537.24,-127.12"/>
<text text-anchor="middle" x="189.79" y="-129.8" font-family="Helvetica,sans-Serif" font-size="14.00">4 add biped</text>
</g>
<!-- ast -->
<g id="node5" class="node">
<title>ast</title>
<path fill="#f8f9fa" stroke="black" d="M506.29,-66C506.29,-66 299.29,-66 299.29,-66 293.29,-66 287.29,-60 287.29,-54 287.29,-54 287.29,-42 287.29,-42 287.29,-36 293.29,-30 299.29,-30 299.29,-30 506.29,-30 506.29,-30 512.29,-30 518.29,-36 518.29,-42 518.29,-42 518.29,-54 518.29,-54 518.29,-60 512.29,-66 506.29,-66"/>
<text text-anchor="middle" x="402.79" y="-44.3" font-family="Helvetica,sans-Serif" font-size="14.00">ProcedureEditor / AST modules</text>
</g>
<!-- student&#45;&gt;ast -->
<g id="edge6" class="edge">
<title>student&#45;&gt;ast</title>
<path fill="none" stroke="#555555" d="M69.2,-111.22C80.88,-103.62 95.78,-95.08 110.29,-90 163.34,-71.44 224.57,-61.08 277.18,-55.29"/>
<polygon fill="#555555" stroke="#555555" points="277.66,-58.76 287.24,-54.23 276.93,-51.8 277.66,-58.76"/>
<text text-anchor="middle" x="189.79" y="-93.8" font-family="Helvetica,sans-Serif" font-size="14.00">6 write walk procedure</text>
</g>
<!-- templates -->
<g id="node3" class="node">
<title>templates</title>
<path fill="#f8f9fa" stroke="black" d="M1703.29,-146C1703.29,-146 1485.29,-146 1485.29,-146 1479.29,-146 1473.29,-140 1473.29,-134 1473.29,-134 1473.29,-122 1473.29,-122 1473.29,-116 1479.29,-110 1485.29,-110 1485.29,-110 1703.29,-110 1703.29,-110 1709.29,-110 1715.29,-116 1715.29,-122 1715.29,-122 1715.29,-134 1715.29,-134 1715.29,-140 1709.29,-146 1703.29,-146"/>
<text text-anchor="middle" x="1594.29" y="-124.3" font-family="Helvetica,sans-Serif" font-size="14.00">ProjectCreator / project&#45;template</text>
</g>
<!-- ide&#45;&gt;templates -->
<g id="edge2" class="edge">
<title>ide&#45;&gt;templates</title>
<path fill="none" stroke="#555555" d="M1154.4,-132.66C1160.4,-133.63 1166.47,-134.44 1172.29,-135 1297.5,-146.95 1329.55,-138.19 1455.29,-135 1457.86,-134.93 1460.46,-134.86 1463.08,-134.78"/>
<polygon fill="#555555" stroke="#555555" points="1463.37,-138.28 1473.26,-134.45 1463.15,-131.28 1463.37,-138.28"/>
<text text-anchor="middle" x="1313.79" y="-144.8" font-family="Helvetica,sans-Serif" font-size="14.00">2 createBlank / createEmptyWorldProject</text>
</g>
<!-- runner -->
<g id="node7" class="node">
<title>runner</title>
<path fill="#f8f9fa" stroke="black" d="M1686.29,-81C1686.29,-81 1502.29,-81 1502.29,-81 1496.29,-81 1490.29,-75 1490.29,-69 1490.29,-69 1490.29,-57 1490.29,-57 1490.29,-51 1496.29,-45 1502.29,-45 1502.29,-45 1686.29,-45 1686.29,-45 1692.29,-45 1698.29,-51 1698.29,-57 1698.29,-57 1698.29,-69 1698.29,-69 1698.29,-75 1692.29,-81 1686.29,-81"/>
<text text-anchor="middle" x="1594.29" y="-59.3" font-family="Helvetica,sans-Serif" font-size="14.00">ProjectRunner / Tweedle VM</text>
</g>
<!-- ide&#45;&gt;runner -->
<g id="edge11" class="edge">
<title>ide&#45;&gt;runner</title>
<path fill="none" stroke="#555555" d="M1139.35,-103.87C1149.68,-99.22 1161.22,-94.75 1172.29,-92 1274.37,-66.64 1394.36,-60.6 1480.07,-60.19"/>
<polygon fill="#555555" stroke="#555555" points="1480.1,-63.69 1490.09,-60.17 1480.08,-56.69 1480.1,-63.69"/>
<text text-anchor="middle" x="1313.79" y="-95.8" font-family="Helvetica,sans-Serif" font-size="14.00">11 loadProject / run</text>
</g>
<!-- templates&#45;&gt;ide -->
<g id="edge3" class="edge">
<title>templates&#45;&gt;ide</title>
<path fill="none" stroke="#555555" d="M1473.28,-116.94C1467.2,-116.57 1461.18,-116.26 1455.29,-116 1329.63,-110.55 1297.95,-110.43 1172.29,-116 1169.77,-116.11 1167.2,-116.25 1164.61,-116.4"/>
<polygon fill="#555555" stroke="#555555" points="1164.27,-112.92 1154.52,-117.08 1164.73,-119.9 1164.27,-112.92"/>
<text text-anchor="middle" x="1313.79" y="-119.8" font-family="Helvetica,sans-Serif" font-size="14.00">3 AliceProjectArchive</text>
</g>
<!-- gallery&#45;&gt;ide -->
<g id="edge5" class="edge">
<title>gallery&#45;&gt;ide</title>
<path fill="none" stroke="#555555" d="M710.3,-122.83C804.6,-122.63 958.63,-122.3 1042.96,-122.13"/>
<polygon fill="#555555" stroke="#555555" points="1043.14,-125.63 1053.14,-122.1 1043.13,-118.63 1043.14,-125.63"/>
<text text-anchor="middle" x="818.29" y="-125.8" font-family="Helvetica,sans-Serif" font-size="14.00">5 append scene object</text>
</g>
<!-- ast&#45;&gt;ast -->
<g id="edge7" class="edge">
<title>ast&#45;&gt;ast</title>
<path fill="none" stroke="#555555" d="M364.44,-66.15C358.54,-75.54 371.32,-84 402.79,-84 421.97,-84 434.21,-80.86 439.51,-76.28"/>
<polygon fill="#555555" stroke="#555555" points="443,-76.58 441.14,-66.15 436.09,-75.47 443,-76.58"/>
<text text-anchor="middle" x="402.79" y="-87.8" font-family="Helvetica,sans-Serif" font-size="14.00">7 mutate AST</text>
</g>
<!-- codegen -->
<g id="node6" class="node">
<title>codegen</title>
<path fill="#f8f9fa" stroke="black" d="M873.79,-81C873.79,-81 762.79,-81 762.79,-81 756.79,-81 750.79,-75 750.79,-69 750.79,-69 750.79,-57 750.79,-57 750.79,-51 756.79,-45 762.79,-45 762.79,-45 873.79,-45 873.79,-45 879.79,-45 885.79,-51 885.79,-57 885.79,-57 885.79,-69 885.79,-69 885.79,-75 879.79,-81 873.79,-81"/>
<text text-anchor="middle" x="818.29" y="-59.3" font-family="Helvetica,sans-Serif" font-size="14.00">tweedle&#45;codegen</text>
</g>
<!-- ast&#45;&gt;codegen -->
<g id="edge8" class="edge">
<title>ast&#45;&gt;codegen</title>
<path fill="none" stroke="#555555" d="M518.43,-52.16C589.18,-54.72 678.02,-57.95 740.38,-60.21"/>
<polygon fill="#555555" stroke="#555555" points="740.43,-63.71 750.55,-60.58 740.68,-56.72 740.43,-63.71"/>
<text text-anchor="middle" x="628.79" y="-62.8" font-family="Helvetica,sans-Serif" font-size="14.00">8 generate source preview</text>
</g>
<!-- codegen&#45;&gt;ide -->
<g id="edge9" class="edge">
<title>codegen&#45;&gt;ide</title>
<path fill="none" stroke="#555555" d="M885.93,-67.62C929.11,-71.74 986.24,-79.32 1035.29,-93 1042.22,-94.93 1049.37,-97.42 1056.31,-100.12"/>
<polygon fill="#555555" stroke="#555555" points="1055.01,-103.38 1065.59,-103.91 1057.66,-96.89 1055.01,-103.38"/>
<text text-anchor="middle" x="975.29" y="-96.8" font-family="Helvetica,sans-Serif" font-size="14.00">9 preview</text>
</g>
<!-- render -->
<g id="node8" class="node">
<title>render</title>
<path fill="#f8f9fa" stroke="black" d="M1952.29,-36C1952.29,-36 1900.29,-36 1900.29,-36 1894.29,-36 1888.29,-30 1888.29,-24 1888.29,-24 1888.29,-12 1888.29,-12 1888.29,-6 1894.29,0 1900.29,0 1900.29,0 1952.29,0 1952.29,0 1958.29,0 1964.29,-6 1964.29,-12 1964.29,-12 1964.29,-24 1964.29,-24 1964.29,-30 1958.29,-36 1952.29,-36"/>
<text text-anchor="middle" x="1926.29" y="-14.3" font-family="Helvetica,sans-Serif" font-size="14.00">renderer</text>
</g>
<!-- runner&#45;&gt;render -->
<g id="edge12" class="edge">
<title>runner&#45;&gt;render</title>
<path fill="none" stroke="#555555" d="M1698.35,-48.95C1758.48,-40.75 1831.45,-30.8 1878.12,-24.43"/>
<polygon fill="#555555" stroke="#555555" points="1878.8,-27.87 1888.24,-23.05 1877.86,-20.94 1878.8,-27.87"/>
<text text-anchor="middle" x="1801.79" y="-46.8" font-family="Helvetica,sans-Serif" font-size="14.00">12 renderable state</text>
</g>
<!-- render&#45;&gt;student -->
<g id="edge13" class="edge">
<title>render&#45;&gt;student</title>
<path fill="none" stroke="#555555" d="M1888.2,-15.03C1827.16,-10.4 1701.69,-2 1595.29,-2 401.79,-2 401.79,-2 401.79,-2 270.34,-2 224.22,13.56 110.29,-52 90.25,-63.53 73.7,-83.94 62.58,-100.56"/>
<polygon fill="#555555" stroke="#555555" points="59.41,-99.02 56.97,-109.33 65.31,-102.79 59.41,-99.02"/>
<text text-anchor="middle" x="975.29" y="-5.8" font-family="Helvetica,sans-Serif" font-size="14.00">13 world preview</text>
</g>
</g>
</svg>
