<?xml version="1.0" encoding="UTF-8" standalone="no"?>
<!DOCTYPE svg PUBLIC "-//W3C//DTD SVG 1.1//EN"
 "http://www.w3.org/Graphics/SVG/1.1/DTD/svg11.dtd">
<!-- Generated by graphviz version 2.42.4 (0)
 -->
<!-- Title: journey_collaborative_edit Pages: 1 -->
<svg width="1327pt" height="502pt"
 viewBox="0.00 0.00 1326.58 502.03" xmlns="http://www.w3.org/2000/svg" xmlns:xlink="http://www.w3.org/1999/xlink">
<g id="graph0" class="graph" transform="scale(1 1) rotate(0) translate(4 498.03)">
<title>journey_collaborative_edit</title>
<polygon fill="white" stroke="transparent" points="-4,4 -4,-498.03 1322.58,-498.03 1322.58,4 -4,4"/>
<!-- a -->
<g id="node1" class="node">
<title>a</title>
<ellipse fill="#dbeafe" stroke="black" cx="55.9" cy="-178.03" rx="55.79" ry="18"/>
<text text-anchor="middle" x="55.9" y="-174.33" font-family="Helvetica,sans-Serif" font-size="14.00">Student A</text>
</g>
<!-- session -->
<g id="node3" class="node">
<title>session</title>
<path fill="#f8f9fa" stroke="black" d="M498.79,-234.03C498.79,-234.03 361.79,-234.03 361.79,-234.03 355.79,-234.03 349.79,-228.03 349.79,-222.03 349.79,-222.03 349.79,-210.03 349.79,-210.03 349.79,-204.03 355.79,-198.03 361.79,-198.03 361.79,-198.03 498.79,-198.03 498.79,-198.03 504.79,-198.03 510.79,-204.03 510.79,-210.03 510.79,-210.03 510.79,-222.03 510.79,-222.03 510.79,-228.03 504.79,-234.03 498.79,-234.03"/>
<text text-anchor="middle" x="430.29" y="-212.33" font-family="Helvetica,sans-Serif" font-size="14.00">CollaborationSession</text>
</g>
<!-- a&#45;&gt;session -->
<g id="edge1" class="edge">
<title>a&#45;&gt;session</title>
<path fill="none" stroke="#555555" d="M82.86,-193.93C96.34,-201.28 113.38,-209.21 129.79,-213.03 198.85,-229.12 279.31,-228.92 339.44,-225.22"/>
<polygon fill="#555555" stroke="#555555" points="339.92,-228.69 349.67,-224.54 339.46,-221.71 339.92,-228.69"/>
<text text-anchor="middle" x="227.79" y="-230.83" font-family="Helvetica,sans-Serif" font-size="14.00">1 join</text>
</g>
<!-- a&#45;&gt;session -->
<g id="edge3" class="edge">
<title>a&#45;&gt;session</title>
<path fill="none" stroke="#555555" d="M111.98,-178.9C166.49,-180.32 252.22,-184.08 325.79,-194.03 330.55,-194.67 335.41,-195.42 340.31,-196.23"/>
<polygon fill="#555555" stroke="#555555" points="339.94,-199.72 350.39,-197.99 341.14,-192.82 339.94,-199.72"/>
<text text-anchor="middle" x="227.79" y="-197.83" font-family="Helvetica,sans-Serif" font-size="14.00">3 applyChange alpha</text>
</g>
<!-- b -->
<g id="node2" class="node">
<title>b</title>
<ellipse fill="#dbeafe" stroke="black" cx="1262.69" cy="-360.03" rx="55.79" ry="18"/>
<text text-anchor="middle" x="1262.69" y="-356.33" font-family="Helvetica,sans-Serif" font-size="14.00">Student B</text>
</g>
<!-- b&#45;&gt;session -->
<g id="edge2" class="edge">
<title>b&#45;&gt;session</title>
<path fill="none" stroke="#555555" d="M1215.97,-369.99C1207,-371.61 1197.63,-373.07 1188.79,-374.03 1104.37,-383.18 1082.7,-377.92 997.79,-379.03 792.02,-381.72 714.74,-473.86 534.79,-374.03 484.07,-345.89 454.03,-281.22 440.31,-243.92"/>
<polygon fill="#555555" stroke="#555555" points="443.5,-242.44 436.86,-234.18 436.9,-244.78 443.5,-242.44"/>
<text text-anchor="middle" x="879.29" y="-417.83" font-family="Helvetica,sans-Serif" font-size="14.00">2 join</text>
</g>
<!-- b&#45;&gt;session -->
<g id="edge7" class="edge">
<title>b&#45;&gt;session</title>
<path fill="none" stroke="#555555" d="M1206.74,-359.42C1042.54,-357.44 564.94,-350.45 534.79,-336.03 493.8,-316.43 462.63,-272.19 445.66,-243.25"/>
<polygon fill="#555555" stroke="#555555" points="448.64,-241.41 440.66,-234.44 442.56,-244.86 448.64,-241.41"/>
<text text-anchor="middle" x="879.29" y="-359.83" font-family="Helvetica,sans-Serif" font-size="14.00">7 applyChange beta @ same time</text>
</g>
<!-- b&#45;&gt;session -->
<g id="edge10" class="edge">
<title>b&#45;&gt;session</title>
<path fill="none" stroke="#555555" d="M1210.19,-353.55C1157.05,-347.05 1071.74,-337.17 997.79,-331.03 895.09,-322.51 630.37,-343.56 534.79,-305.03 501.66,-291.68 471.66,-263.19 452.59,-242.02"/>
<polygon fill="#555555" stroke="#555555" points="455.06,-239.53 445.83,-234.32 449.79,-244.14 455.06,-239.53"/>
<text text-anchor="middle" x="879.29" y="-334.83" font-family="Helvetica,sans-Serif" font-size="14.00">10 applyChange change&#45;c</text>
</g>
<!-- session&#45;&gt;a -->
<g id="edge16" class="edge">
<title>session&#45;&gt;a</title>
<path fill="none" stroke="#555555" d="M404.4,-197.95C384.3,-184.54 354.71,-167.35 325.79,-160.03 241.34,-138.65 216.26,-149.51 129.79,-160.03 122.58,-160.91 115.06,-162.25 107.71,-163.83"/>
<polygon fill="#555555" stroke="#555555" points="106.79,-160.44 97.82,-166.08 108.35,-167.27 106.79,-160.44"/>
<text text-anchor="middle" x="227.79" y="-163.83" font-family="Helvetica,sans-Serif" font-size="14.00">16 synced state + presence</text>
</g>
<!-- session&#45;&gt;b -->
<g id="edge17" class="edge">
<title>session&#45;&gt;b</title>
<path fill="none" stroke="#555555" d="M434.9,-234.12C443.89,-273.83 471.25,-368.49 534.79,-411.03 755.14,-558.55 1101.96,-430.31 1220.43,-378.98"/>
<polygon fill="#555555" stroke="#555555" points="1222.12,-382.06 1229.87,-374.84 1219.31,-375.65 1222.12,-382.06"/>
<text text-anchor="middle" x="879.29" y="-482.83" font-family="Helvetica,sans-Serif" font-size="14.00">17 synced state + presence</text>
</g>
<!-- sync -->
<g id="node4" class="node">
<title>sync</title>
<path fill="#f8f9fa" stroke="black" d="M955.29,-215.03C955.29,-215.03 803.29,-215.03 803.29,-215.03 797.29,-215.03 791.29,-209.03 791.29,-203.03 791.29,-203.03 791.29,-191.03 791.29,-191.03 791.29,-185.03 797.29,-179.03 803.29,-179.03 803.29,-179.03 955.29,-179.03 955.29,-179.03 961.29,-179.03 967.29,-185.03 967.29,-191.03 967.29,-191.03 967.29,-203.03 967.29,-203.03 967.29,-209.03 961.29,-215.03 955.29,-215.03"/>
<text text-anchor="middle" x="879.29" y="-193.33" font-family="Helvetica,sans-Serif" font-size="14.00">StateStore / StatePatch</text>
</g>
<!-- session&#45;&gt;sync -->
<g id="edge4" class="edge">
<title>session&#45;&gt;sync</title>
<path fill="none" stroke="#555555" d="M457.53,-234.27C477.65,-247.09 506.64,-263.13 534.79,-270.03 624.58,-292.05 653.15,-292.64 742.79,-270.03 780.5,-260.52 819.13,-238.23 845.44,-220.76"/>
<polygon fill="#555555" stroke="#555555" points="847.56,-223.55 853.88,-215.05 843.63,-217.76 847.56,-223.55"/>
<text text-anchor="middle" x="638.79" y="-289.83" font-family="Helvetica,sans-Serif" font-size="14.00">4 compare timestamp/version</text>
</g>
<!-- session&#45;&gt;sync -->
<g id="edge8" class="edge">
<title>session&#45;&gt;sync</title>
<path fill="none" stroke="#555555" d="M510.82,-229.58C518.9,-230.58 526.99,-231.43 534.79,-232.03 626.96,-239.11 651.08,-243.68 742.79,-232.03 765.57,-229.14 790,-223.61 811.76,-217.78"/>
<polygon fill="#555555" stroke="#555555" points="812.84,-221.12 821.55,-215.1 810.98,-214.37 812.84,-221.12"/>
<text text-anchor="middle" x="638.79" y="-242.83" font-family="Helvetica,sans-Serif" font-size="14.00">8 conflict check</text>
</g>
<!-- session&#45;&gt;sync -->
<g id="edge11" class="edge">
<title>session&#45;&gt;sync</title>
<path fill="none" stroke="#555555" d="M510.95,-212.65C586.41,-209.44 699.91,-204.61 780.75,-201.18"/>
<polygon fill="#555555" stroke="#555555" points="781.1,-204.67 790.94,-200.74 780.8,-197.67 781.1,-204.67"/>
<text text-anchor="middle" x="638.79" y="-214.83" font-family="Helvetica,sans-Serif" font-size="14.00">11 last&#45;write&#45;wins tie&#45;break</text>
</g>
<!-- mail -->
<g id="node5" class="node">
<title>mail</title>
<path fill="#d1fae5" stroke="black" d="M928.29,-63.03C928.29,-63.03 830.29,-63.03 830.29,-63.03 824.29,-63.03 818.29,-57.03 818.29,-51.03 818.29,-51.03 818.29,-39.03 818.29,-39.03 818.29,-33.03 824.29,-27.03 830.29,-27.03 830.29,-27.03 928.29,-27.03 928.29,-27.03 934.29,-27.03 940.29,-33.03 940.29,-39.03 940.29,-39.03 940.29,-51.03 940.29,-51.03 940.29,-57.03 934.29,-63.03 928.29,-63.03"/>
<text text-anchor="middle" x="879.29" y="-41.33" font-family="Helvetica,sans-Serif" font-size="14.00">peer mailboxes</text>
</g>
<!-- session&#45;&gt;mail -->
<g id="edge6" class="edge">
<title>session&#45;&gt;mail</title>
<path fill="none" stroke="#555555" d="M438.57,-197.89C452.19,-166.61 484.77,-103.17 534.79,-75.03 580.02,-49.59 721.55,-44.85 808.19,-44.44"/>
<polygon fill="#555555" stroke="#555555" points="808.22,-47.94 818.21,-44.41 808.2,-40.94 808.22,-47.94"/>
<text text-anchor="middle" x="638.79" y="-78.83" font-family="Helvetica,sans-Serif" font-size="14.00">6 queue for B</text>
</g>
<!-- session&#45;&gt;mail -->
<g id="edge13" class="edge">
<title>session&#45;&gt;mail</title>
<path fill="none" stroke="#555555" d="M434.87,-197.74C443.73,-158.14 470.74,-64.98 534.79,-27.03 579.33,-0.64 721.11,-18.26 807.97,-32.37"/>
<polygon fill="#555555" stroke="#555555" points="807.59,-35.86 818.02,-34.03 808.73,-28.95 807.59,-35.86"/>
<text text-anchor="middle" x="638.79" y="-30.83" font-family="Helvetica,sans-Serif" font-size="14.00">13 queue for A</text>
</g>
<!-- sync&#45;&gt;session -->
<g id="edge5" class="edge">
<title>sync&#45;&gt;session</title>
<path fill="none" stroke="#555555" d="M791.19,-181.82C721.36,-172.17 621.14,-164.06 534.79,-179.03 516.87,-182.14 497.95,-188.06 481.26,-194.27"/>
<polygon fill="#555555" stroke="#555555" points="479.79,-191.08 471.71,-197.94 482.3,-197.62 479.79,-191.08"/>
<text text-anchor="middle" x="638.79" y="-182.83" font-family="Helvetica,sans-Serif" font-size="14.00">5 accepted</text>
</g>
<!-- sync&#45;&gt;session -->
<g id="edge9" class="edge">
<title>sync&#45;&gt;session</title>
<path fill="none" stroke="#555555" d="M836.79,-178.99C810.42,-168.53 775.27,-156.39 742.79,-151.03 651.58,-135.97 623.62,-125.45 534.79,-151.03 507.14,-158.99 479.73,-176.76 460.08,-191.71"/>
<polygon fill="#555555" stroke="#555555" points="457.87,-189 452.15,-197.91 462.18,-194.51 457.87,-189"/>
<text text-anchor="middle" x="638.79" y="-154.83" font-family="Helvetica,sans-Serif" font-size="14.00">9 reject / supersede</text>
</g>
<!-- sync&#45;&gt;session -->
<g id="edge12" class="edge">
<title>sync&#45;&gt;session</title>
<path fill="none" stroke="#555555" d="M856.54,-178.89C831.13,-158.97 786.91,-128.21 742.79,-116.03 653.68,-91.43 620.5,-81.39 534.79,-116.03 498.32,-130.77 467.56,-165.2 449.28,-189.53"/>
<polygon fill="#555555" stroke="#555555" points="446.42,-187.52 443.35,-197.67 452.07,-191.65 446.42,-187.52"/>
<text text-anchor="middle" x="638.79" y="-119.83" font-family="Helvetica,sans-Serif" font-size="14.00">12 document version++</text>
</g>
<!-- mail&#45;&gt;a -->
<g id="edge14" class="edge">
<title>mail&#45;&gt;a</title>
<path fill="none" stroke="#555555" d="M821.55,-26.97C797.53,-20.21 769.06,-13.37 742.79,-10.03 651.08,1.62 626.07,4.57 534.79,-10.03 347.71,-39.96 305.56,-72.32 129.79,-143.03 118.51,-147.57 106.51,-153.04 95.58,-158.3"/>
<polygon fill="#555555" stroke="#555555" points="93.74,-155.3 86.29,-162.84 96.82,-161.59 93.74,-155.3"/>
<text text-anchor="middle" x="430.29" y="-58.83" font-family="Helvetica,sans-Serif" font-size="14.00">14 pull pending changes</text>
</g>
<!-- mail&#45;&gt;b -->
<g id="edge15" class="edge">
<title>mail&#45;&gt;b</title>
<path fill="none" stroke="#555555" d="M907.57,-63.31C962.99,-100.97 1091.71,-191.14 1188.79,-280.03 1207.44,-297.1 1226.62,-318.33 1240.62,-334.63"/>
<polygon fill="#555555" stroke="#555555" points="1238.3,-337.3 1247.44,-342.65 1243.63,-332.76 1238.3,-337.3"/>
<text text-anchor="middle" x="1102.29" y="-283.83" font-family="Helvetica,sans-Serif" font-size="14.00">15 pull pending changes</text>
</g>
</g>
</svg>
