<?xml version="1.0" encoding="UTF-8" standalone="no"?>
<!DOCTYPE svg PUBLIC "-//W3C//DTD SVG 1.1//EN"
 "http://www.w3.org/Graphics/SVG/1.1/DTD/svg11.dtd">
<!-- Generated by graphviz version 2.42.4 (0)
 -->
<!-- Title: data_flow Pages: 1 -->
<svg width="3618pt" height="462pt"
 viewBox="0.00 0.00 3618.00 462.00" xmlns="http://www.w3.org/2000/svg" xmlns:xlink="http://www.w3.org/1999/xlink">
<g id="graph0" class="graph" transform="scale(1 1) rotate(0) translate(4 458)">
<title>data_flow</title>
<polygon fill="white" stroke="transparent" points="-4,4 -4,-458 3614,-458 3614,4 -4,4"/>
<g id="clust1" class="cluster">
<title>cluster_upload</title>
<polygon fill="white" stroke="#bfdbfe" points="69.5,-230 69.5,-361 2617,-361 2617,-230 69.5,-230"/>
<text text-anchor="middle" x="1343.25" y="-345.8" font-family="Helvetica,sans-Serif" font-size="14.00">.a3p load path</text>
</g>
<g id="clust2" class="cluster">
<title>cluster_edit</title>
<polygon fill="white" stroke="#c7d2fe" points="8,-369 8,-446 1458,-446 1458,-369 8,-369"/>
<text text-anchor="middle" x="733" y="-430.8" font-family="Helvetica,sans-Serif" font-size="14.00">Code edit path</text>
</g>
<g id="clust3" class="cluster">
<title>cluster_rest</title>
<polygon fill="white" stroke="#fde68a" points="969.5,-8 969.5,-137 2648,-137 2648,-8 969.5,-8"/>
<text text-anchor="middle" x="1808.75" y="-121.8" font-family="Helvetica,sans-Serif" font-size="14.00">REST mutation path</text>
</g>
<g id="clust4" class="cluster">
<title>cluster_save</title>
<polygon fill="white" stroke="#a7f3d0" points="2441,-145 2441,-222 3602,-222 3602,-145 2441,-145"/>
<text text-anchor="middle" x="3021.5" y="-206.8" font-family="Helvetica,sans-Serif" font-size="14.00">Project save path</text>
</g>
<!-- upload -->
<g id="node1" class="node">
<title>upload</title>
<path fill="#eff6ff" stroke="black" d="M200.5,-302C200.5,-302 89.5,-302 89.5,-302 83.5,-302 77.5,-296 77.5,-290 77.5,-290 77.5,-278 77.5,-278 77.5,-272 83.5,-266 89.5,-266 89.5,-266 200.5,-266 200.5,-266 206.5,-266 212.5,-272 212.5,-278 212.5,-278 212.5,-290 212.5,-290 212.5,-296 206.5,-302 200.5,-302"/>
<text text-anchor="middle" x="145" y="-280.3" font-family="Helvetica,sans-Serif" font-size="14.00">.a3p path / bytes</text>
</g>
<!-- launch -->
<g id="node2" class="node">
<title>launch</title>
<path fill="#eff6ff" stroke="black" d="M470.5,-302C470.5,-302 360.5,-302 360.5,-302 354.5,-302 348.5,-296 348.5,-290 348.5,-290 348.5,-278 348.5,-278 348.5,-272 354.5,-266 360.5,-266 360.5,-266 470.5,-266 470.5,-266 476.5,-266 482.5,-272 482.5,-278 482.5,-278 482.5,-290 482.5,-290 482.5,-296 476.5,-302 470.5,-302"/>
<text text-anchor="middle" x="415.5" y="-280.3" font-family="Helvetica,sans-Serif" font-size="14.00">POST /api/launch</text>
</g>
<!-- upload&#45;&gt;launch -->
<g id="edge1" class="edge">
<title>upload&#45;&gt;launch</title>
<path fill="none" stroke="#555555" d="M212.72,-284C250.72,-284 298.49,-284 338.01,-284"/>
<polygon fill="#555555" stroke="#555555" points="338.13,-287.5 348.13,-284 338.13,-280.5 338.13,-287.5"/>
</g>
<!-- read_bytes -->
<g id="node3" class="node">
<title>read_bytes</title>
<path fill="#eff6ff" stroke="black" d="M781,-302C781,-302 617,-302 617,-302 611,-302 605,-296 605,-290 605,-290 605,-278 605,-278 605,-272 611,-266 617,-266 617,-266 781,-266 781,-266 787,-266 793,-272 793,-278 793,-278 793,-290 793,-290 793,-296 787,-302 781,-302"/>
<text text-anchor="middle" x="699" y="-280.3" font-family="Helvetica,sans-Serif" font-size="14.00">fs.readFileSync / readFile</text>
</g>
<!-- launch&#45;&gt;read_bytes -->
<g id="edge2" class="edge">
<title>launch&#45;&gt;read_bytes</title>
<path fill="none" stroke="#555555" d="M482.86,-284C516.14,-284 557.21,-284 594.51,-284"/>
<polygon fill="#555555" stroke="#555555" points="594.92,-287.5 604.92,-284 594.92,-280.5 594.92,-287.5"/>
</g>
<!-- parse -->
<g id="node4" class="node">
<title>parse</title>
<path fill="#eff6ff" stroke="black" d="M1078,-302C1078,-302 971,-302 971,-302 965,-302 959,-296 959,-290 959,-290 959,-278 959,-278 959,-272 965,-266 971,-266 971,-266 1078,-266 1078,-266 1084,-266 1090,-272 1090,-278 1090,-278 1090,-290 1090,-290 1090,-296 1084,-302 1078,-302"/>
<text text-anchor="middle" x="1024.5" y="-280.3" font-family="Helvetica,sans-Serif" font-size="14.00">parseA3P(bytes)</text>
</g>
<!-- read_bytes&#45;&gt;parse -->
<g id="edge3" class="edge">
<title>read_bytes&#45;&gt;parse</title>
<path fill="none" stroke="#555555" d="M793.14,-284C842.42,-284 902.13,-284 948.42,-284"/>
<polygon fill="#555555" stroke="#555555" points="948.68,-287.5 958.68,-284 948.68,-280.5 948.68,-287.5"/>
</g>
<!-- project -->
<g id="node5" class="node">
<title>project</title>
<path fill="#dbeafe" stroke="black" d="M1365,-302C1365,-302 1293,-302 1293,-302 1287,-302 1281,-296 1281,-290 1281,-290 1281,-278 1281,-278 1281,-272 1287,-266 1293,-266 1293,-266 1365,-266 1365,-266 1371,-266 1377,-272 1377,-278 1377,-278 1377,-290 1377,-290 1377,-296 1371,-302 1365,-302"/>
<text text-anchor="middle" x="1329" y="-280.3" font-family="Helvetica,sans-Serif" font-size="14.00">AliceProject</text>
</g>
<!-- parse&#45;&gt;project -->
<g id="edge4" class="edge">
<title>parse&#45;&gt;project</title>
<path fill="none" stroke="#555555" d="M1090.02,-284C1143.59,-284 1219.09,-284 1270.59,-284"/>
<polygon fill="#555555" stroke="#555555" points="1270.87,-287.5 1280.87,-284 1270.87,-280.5 1270.87,-287.5"/>
</g>
<!-- cached -->
<g id="node6" class="node">
<title>cached</title>
<path fill="#dbeafe" stroke="black" d="M1745.5,-274C1745.5,-274 1518.5,-274 1518.5,-274 1512.5,-274 1506.5,-268 1506.5,-262 1506.5,-262 1506.5,-250 1506.5,-250 1506.5,-244 1512.5,-238 1518.5,-238 1518.5,-238 1745.5,-238 1745.5,-238 1751.5,-238 1757.5,-244 1757.5,-250 1757.5,-250 1757.5,-262 1757.5,-262 1757.5,-268 1751.5,-274 1745.5,-274"/>
<text text-anchor="middle" x="1632" y="-252.3" font-family="Helvetica,sans-Serif" font-size="14.00">state.parsedProject / projectName</text>
</g>
<!-- project&#45;&gt;cached -->
<g id="edge5" class="edge">
<title>project&#45;&gt;cached</title>
<path fill="none" stroke="#555555" d="M1377.03,-279.62C1409.18,-276.63 1453.53,-272.51 1496.18,-268.54"/>
<polygon fill="#555555" stroke="#555555" points="1496.77,-272 1506.4,-267.59 1496.12,-265.03 1496.77,-272"/>
</g>
<!-- scene_graph -->
<g id="node7" class="node">
<title>scene_graph</title>
<path fill="#eff6ff" stroke="black" d="M1744,-330C1744,-330 1520,-330 1520,-330 1514,-330 1508,-324 1508,-318 1508,-318 1508,-304 1508,-304 1508,-298 1514,-292 1520,-292 1520,-292 1744,-292 1744,-292 1750,-292 1756,-298 1756,-304 1756,-304 1756,-318 1756,-318 1756,-324 1750,-330 1744,-330"/>
<text text-anchor="middle" x="1632" y="-314.8" font-family="Helvetica,sans-Serif" font-size="14.00">scene&#45;builder.buildScene(project)</text>
<text text-anchor="middle" x="1632" y="-299.8" font-family="Helvetica,sans-Serif" font-size="14.00">or screenshot currentProject</text>
</g>
<!-- project&#45;&gt;scene_graph -->
<g id="edge6" class="edge">
<title>project&#45;&gt;scene_graph</title>
<path fill="none" stroke="#555555" d="M1377.03,-288.22C1409.55,-291.14 1454.56,-295.17 1497.67,-299.04"/>
<polygon fill="#555555" stroke="#555555" points="1497.43,-302.53 1507.7,-299.94 1498.06,-295.56 1497.43,-302.53"/>
</g>
<!-- mutate_state -->
<g id="node18" class="node">
<title>mutate_state</title>
<path fill="#fef3c7" stroke="black" d="M2279,-106C2279,-106 1890,-106 1890,-106 1884,-106 1878,-100 1878,-94 1878,-94 1878,-82 1878,-82 1878,-76 1884,-70 1890,-70 1890,-70 2279,-70 2279,-70 2285,-70 2291,-76 2291,-82 2291,-82 2291,-94 2291,-94 2291,-100 2285,-106 2279,-106"/>
<text text-anchor="middle" x="2084.5" y="-84.3" font-family="Helvetica,sans-Serif" font-size="14.00">sceneObjects / procedures / parsedProject / eventSystem</text>
</g>
<!-- cached&#45;&gt;mutate_state -->
<g id="edge24" class="edge">
<title>cached&#45;&gt;mutate_state</title>
<path fill="none" stroke="#555555" stroke-dasharray="5,2" d="M1671.55,-237.95C1704.12,-222.98 1752.18,-201.55 1795,-185 1869.47,-156.23 1956.53,-127.63 2015.38,-109.02"/>
<polygon fill="#555555" stroke="#555555" points="2016.45,-112.35 2024.94,-106.01 2014.35,-105.68 2016.45,-112.35"/>
<text text-anchor="middle" x="1827.5" y="-188.8" font-family="Helvetica,sans-Serif" font-size="14.00">run input</text>
</g>
<!-- save_input -->
<g id="node21" class="node">
<title>save_input</title>
<path fill="#ecfdf5" stroke="black" d="M2604,-190C2604,-190 2461,-190 2461,-190 2455,-190 2449,-184 2449,-178 2449,-178 2449,-166 2449,-166 2449,-160 2455,-154 2461,-154 2461,-154 2604,-154 2604,-154 2610,-154 2616,-160 2616,-166 2616,-166 2616,-178 2616,-178 2616,-184 2610,-190 2604,-190"/>
<text text-anchor="middle" x="2532.5" y="-168.3" font-family="Helvetica,sans-Serif" font-size="14.00">project state / archive</text>
</g>
<!-- cached&#45;&gt;save_input -->
<g id="edge22" class="edge">
<title>cached&#45;&gt;save_input</title>
<path fill="none" stroke="#555555" stroke-dasharray="5,2" d="M1757.93,-244.32C1940.6,-227.24 2276.43,-195.85 2438.78,-180.67"/>
<polygon fill="#555555" stroke="#555555" points="2439.12,-184.15 2448.75,-179.74 2438.47,-177.18 2439.12,-184.15"/>
<text text-anchor="middle" x="2084.5" y="-235.8" font-family="Helvetica,sans-Serif" font-size="14.00">working project</text>
</g>
<!-- renderer -->
<g id="node8" class="node">
<title>renderer</title>
<path fill="#eff6ff" stroke="black" d="M2199.5,-329C2199.5,-329 1969.5,-329 1969.5,-329 1963.5,-329 1957.5,-323 1957.5,-317 1957.5,-317 1957.5,-305 1957.5,-305 1957.5,-299 1963.5,-293 1969.5,-293 1969.5,-293 2199.5,-293 2199.5,-293 2205.5,-293 2211.5,-299 2211.5,-305 2211.5,-305 2211.5,-317 2211.5,-317 2211.5,-323 2205.5,-329 2199.5,-329"/>
<text text-anchor="middle" x="2084.5" y="-307.3" font-family="Helvetica,sans-Serif" font-size="14.00">scene&#45;renderer / browser renderer</text>
</g>
<!-- scene_graph&#45;&gt;renderer -->
<g id="edge7" class="edge">
<title>scene_graph&#45;&gt;renderer</title>
<path fill="none" stroke="#555555" d="M1756.1,-311C1815.33,-311 1886.51,-311 1947.35,-311"/>
<polygon fill="#555555" stroke="#555555" points="1947.41,-314.5 1957.41,-311 1947.41,-307.5 1947.41,-314.5"/>
</g>
<!-- view -->
<g id="node9" class="node">
<title>view</title>
<path fill="#dbeafe" stroke="black" d="M2597,-329C2597,-329 2468,-329 2468,-329 2462,-329 2456,-323 2456,-317 2456,-317 2456,-305 2456,-305 2456,-299 2462,-293 2468,-293 2468,-293 2597,-293 2597,-293 2603,-293 2609,-299 2609,-305 2609,-305 2609,-317 2609,-317 2609,-323 2603,-329 2597,-329"/>
<text text-anchor="middle" x="2532.5" y="-307.3" font-family="Helvetica,sans-Serif" font-size="14.00">PNG / canvas scene</text>
</g>
<!-- renderer&#45;&gt;view -->
<g id="edge8" class="edge">
<title>renderer&#45;&gt;view</title>
<path fill="none" stroke="#555555" d="M2211.52,-311C2286.37,-311 2379.33,-311 2445.73,-311"/>
<polygon fill="#555555" stroke="#555555" points="2445.74,-314.5 2455.74,-311 2445.74,-307.5 2445.74,-314.5"/>
</g>
<!-- edit_input -->
<g id="node10" class="node">
<title>edit_input</title>
<path fill="#eef2ff" stroke="black" d="M262,-414C262,-414 28,-414 28,-414 22,-414 16,-408 16,-402 16,-402 16,-390 16,-390 16,-384 22,-378 28,-378 28,-378 262,-378 262,-378 268,-378 274,-384 274,-390 274,-390 274,-402 274,-402 274,-408 268,-414 262,-414"/>
<text text-anchor="middle" x="145" y="-392.3" font-family="Helvetica,sans-Serif" font-size="14.00">procedure edit request / IDE action</text>
</g>
<!-- editor_state -->
<g id="node11" class="node">
<title>editor_state</title>
<path fill="#eef2ff" stroke="black" d="M508,-415C508,-415 323,-415 323,-415 317,-415 311,-409 311,-403 311,-403 311,-389 311,-389 311,-383 317,-377 323,-377 323,-377 508,-377 508,-377 514,-377 520,-383 520,-389 520,-389 520,-403 520,-403 520,-409 514,-415 508,-415"/>
<text text-anchor="middle" x="415.5" y="-399.8" font-family="Helvetica,sans-Serif" font-size="14.00">ProcedureEditor / ASTEditor</text>
<text text-anchor="middle" x="415.5" y="-384.8" font-family="Helvetica,sans-Serif" font-size="14.00">or state.procedures map</text>
</g>
<!-- edit_input&#45;&gt;editor_state -->
<g id="edge9" class="edge">
<title>edit_input&#45;&gt;editor_state</title>
<path fill="none" stroke="#555555" d="M274.35,-396C283.17,-396 292.02,-396 300.76,-396"/>
<polygon fill="#555555" stroke="#555555" points="300.95,-399.5 310.95,-396 300.95,-392.5 300.95,-399.5"/>
</g>
<!-- mutate -->
<g id="node12" class="node">
<title>mutate</title>
<path fill="#eef2ff" stroke="black" d="M829,-414C829,-414 569,-414 569,-414 563,-414 557,-408 557,-402 557,-402 557,-390 557,-390 557,-384 563,-378 569,-378 569,-378 829,-378 829,-378 835,-378 841,-384 841,-390 841,-390 841,-402 841,-402 841,-408 835,-414 829,-414"/>
<text text-anchor="middle" x="699" y="-392.3" font-family="Helvetica,sans-Serif" font-size="14.00">ASTManipulation / StatementListModel</text>
</g>
<!-- editor_state&#45;&gt;mutate -->
<g id="edge10" class="edge">
<title>editor_state&#45;&gt;mutate</title>
<path fill="none" stroke="#555555" d="M520.12,-396C528.78,-396 537.64,-396 546.55,-396"/>
<polygon fill="#555555" stroke="#555555" points="546.63,-399.5 556.63,-396 546.63,-392.5 546.63,-399.5"/>
</g>
<!-- codegen -->
<g id="node13" class="node">
<title>codegen</title>
<path fill="#eef2ff" stroke="black" d="M1159,-414C1159,-414 890,-414 890,-414 884,-414 878,-408 878,-402 878,-402 878,-390 878,-390 878,-384 884,-378 890,-378 890,-378 1159,-378 1159,-378 1165,-378 1171,-384 1171,-390 1171,-390 1171,-402 1171,-402 1171,-408 1165,-414 1159,-414"/>
<text text-anchor="middle" x="1024.5" y="-392.3" font-family="Helvetica,sans-Serif" font-size="14.00">tweedle&#45;codegen / createTweedleSource</text>
</g>
<!-- mutate&#45;&gt;codegen -->
<g id="edge11" class="edge">
<title>mutate&#45;&gt;codegen</title>
<path fill="none" stroke="#555555" d="M841.42,-396C850.1,-396 858.85,-396 867.59,-396"/>
<polygon fill="#555555" stroke="#555555" points="867.82,-399.5 877.82,-396 867.82,-392.5 867.82,-399.5"/>
</g>
<!-- display -->
<g id="node14" class="node">
<title>display</title>
<path fill="#e0e7ff" stroke="black" d="M1438,-414C1438,-414 1220,-414 1220,-414 1214,-414 1208,-408 1208,-402 1208,-402 1208,-390 1208,-390 1208,-384 1214,-378 1220,-378 1220,-378 1438,-378 1438,-378 1444,-378 1450,-384 1450,-390 1450,-390 1450,-402 1450,-402 1450,-408 1444,-414 1438,-414"/>
<text text-anchor="middle" x="1329" y="-392.3" font-family="Helvetica,sans-Serif" font-size="14.00">code view / preview / proof JSON</text>
</g>
<!-- codegen&#45;&gt;display -->
<g id="edge12" class="edge">
<title>codegen&#45;&gt;display</title>
<path fill="none" stroke="#555555" d="M1171.43,-396C1180.23,-396 1189.05,-396 1197.77,-396"/>
<polygon fill="#555555" stroke="#555555" points="1197.97,-399.5 1207.97,-396 1197.97,-392.5 1197.97,-399.5"/>
</g>
<!-- action -->
<g id="node15" class="node">
<title>action</title>
<path fill="#fffbeb" stroke="black" d="M1059.5,-106C1059.5,-106 989.5,-106 989.5,-106 983.5,-106 977.5,-100 977.5,-94 977.5,-94 977.5,-82 977.5,-82 977.5,-76 983.5,-70 989.5,-70 989.5,-70 1059.5,-70 1059.5,-70 1065.5,-70 1071.5,-76 1071.5,-82 1071.5,-82 1071.5,-94 1071.5,-94 1071.5,-100 1065.5,-106 1059.5,-106"/>
<text text-anchor="middle" x="1024.5" y="-84.3" font-family="Helvetica,sans-Serif" font-size="14.00">user action</text>
</g>
<!-- route -->
<g id="node16" class="node">
<title>route</title>
<path fill="#fffbeb" stroke="black" d="M1376.5,-106C1376.5,-106 1281.5,-106 1281.5,-106 1275.5,-106 1269.5,-100 1269.5,-94 1269.5,-94 1269.5,-82 1269.5,-82 1269.5,-76 1275.5,-70 1281.5,-70 1281.5,-70 1376.5,-70 1376.5,-70 1382.5,-70 1388.5,-76 1388.5,-82 1388.5,-82 1388.5,-94 1388.5,-94 1388.5,-100 1382.5,-106 1376.5,-106"/>
<text text-anchor="middle" x="1329" y="-84.3" font-family="Helvetica,sans-Serif" font-size="14.00">REST endpoint</text>
</g>
<!-- action&#45;&gt;route -->
<g id="edge13" class="edge">
<title>action&#45;&gt;route</title>
<path fill="none" stroke="#555555" d="M1071.77,-88C1121.73,-88 1201.85,-88 1259.2,-88"/>
<polygon fill="#555555" stroke="#555555" points="1259.27,-91.5 1269.27,-88 1259.27,-84.5 1259.27,-91.5"/>
</g>
<!-- validate -->
<g id="node17" class="node">
<title>validate</title>
<path fill="#fef3c7" stroke="black" d="M1765,-106C1765,-106 1499,-106 1499,-106 1493,-106 1487,-100 1487,-94 1487,-94 1487,-82 1487,-82 1487,-76 1493,-70 1499,-70 1499,-70 1765,-70 1765,-70 1771,-70 1777,-76 1777,-82 1777,-82 1777,-94 1777,-94 1777,-100 1771,-106 1765,-106"/>
<text text-anchor="middle" x="1632" y="-84.3" font-family="Helvetica,sans-Serif" font-size="14.00">route guards + EventSystem validation</text>
</g>
<!-- route&#45;&gt;validate -->
<g id="edge14" class="edge">
<title>route&#45;&gt;validate</title>
<path fill="none" stroke="#555555" d="M1388.75,-88C1414.22,-88 1445.37,-88 1476.73,-88"/>
<polygon fill="#555555" stroke="#555555" points="1476.91,-91.5 1486.91,-88 1476.91,-84.5 1476.91,-91.5"/>
</g>
<!-- validate&#45;&gt;mutate_state -->
<g id="edge15" class="edge">
<title>validate&#45;&gt;mutate_state</title>
<path fill="none" stroke="#555555" d="M1777.09,-88C1805.89,-88 1836.72,-88 1867.34,-88"/>
<polygon fill="#555555" stroke="#555555" points="1867.71,-91.5 1877.71,-88 1867.71,-84.5 1867.71,-91.5"/>
</g>
<!-- evidence -->
<g id="node19" class="node">
<title>evidence</title>
<path fill="#fef3c7" stroke="black" d="M2628,-52C2628,-52 2437,-52 2437,-52 2431,-52 2425,-46 2425,-40 2425,-40 2425,-28 2425,-28 2425,-22 2431,-16 2437,-16 2437,-16 2628,-16 2628,-16 2634,-16 2640,-22 2640,-28 2640,-28 2640,-40 2640,-40 2640,-46 2634,-52 2628,-52"/>
<text text-anchor="middle" x="2532.5" y="-30.3" font-family="Helvetica,sans-Serif" font-size="14.00">JSON / PNG evidence artifact</text>
</g>
<!-- mutate_state&#45;&gt;evidence -->
<g id="edge16" class="edge">
<title>mutate_state&#45;&gt;evidence</title>
<path fill="none" stroke="#555555" d="M2234.32,-69.98C2292.99,-62.88 2359.38,-54.84 2414.51,-48.16"/>
<polygon fill="#555555" stroke="#555555" points="2415.16,-51.61 2424.67,-46.93 2414.32,-44.66 2415.16,-51.61"/>
</g>
<!-- response -->
<g id="node20" class="node">
<title>response</title>
<path fill="#fffbeb" stroke="black" d="M2600,-106C2600,-106 2465,-106 2465,-106 2459,-106 2453,-100 2453,-94 2453,-94 2453,-82 2453,-82 2453,-76 2459,-70 2465,-70 2465,-70 2600,-70 2600,-70 2606,-70 2612,-76 2612,-82 2612,-82 2612,-94 2612,-94 2612,-100 2606,-106 2600,-106"/>
<text text-anchor="middle" x="2532.5" y="-84.3" font-family="Helvetica,sans-Serif" font-size="14.00">HTTP JSON response</text>
</g>
<!-- mutate_state&#45;&gt;response -->
<g id="edge17" class="edge">
<title>mutate_state&#45;&gt;response</title>
<path fill="none" stroke="#555555" d="M2291.2,-88C2344.5,-88 2399.13,-88 2442.8,-88"/>
<polygon fill="#555555" stroke="#555555" points="2442.8,-91.5 2452.8,-88 2442.8,-84.5 2442.8,-91.5"/>
</g>
<!-- mutate_state&#45;&gt;save_input -->
<g id="edge23" class="edge">
<title>mutate_state&#45;&gt;save_input</title>
<path fill="none" stroke="#555555" stroke-dasharray="5,2" d="M2181.18,-106.02C2257.36,-120.37 2363.36,-140.33 2438.76,-154.53"/>
<polygon fill="#555555" stroke="#555555" points="2438.25,-158 2448.72,-156.41 2439.54,-151.12 2438.25,-158"/>
<text text-anchor="middle" x="2358" y="-151.8" font-family="Helvetica,sans-Serif" font-size="14.00">mutated state</text>
</g>
<!-- save_route -->
<g id="node22" class="node">
<title>save_route</title>
<path fill="#ecfdf5" stroke="black" d="M2868,-191C2868,-191 2689,-191 2689,-191 2683,-191 2677,-185 2677,-179 2677,-179 2677,-165 2677,-165 2677,-159 2683,-153 2689,-153 2689,-153 2868,-153 2868,-153 2874,-153 2880,-159 2880,-165 2880,-165 2880,-179 2880,-179 2880,-185 2874,-191 2868,-191"/>
<text text-anchor="middle" x="2778.5" y="-175.8" font-family="Helvetica,sans-Serif" font-size="14.00">POST /api/project/save</text>
<text text-anchor="middle" x="2778.5" y="-160.8" font-family="Helvetica,sans-Serif" font-size="14.00">or ProjectSaver.saveProject</text>
</g>
<!-- save_input&#45;&gt;save_route -->
<g id="edge18" class="edge">
<title>save_input&#45;&gt;save_route</title>
<path fill="none" stroke="#555555" d="M2616.11,-172C2632.25,-172 2649.42,-172 2666.32,-172"/>
<polygon fill="#555555" stroke="#555555" points="2666.79,-175.5 2676.79,-172 2666.79,-168.5 2666.79,-175.5"/>
</g>
<!-- write_archive -->
<g id="node23" class="node">
<title>write_archive</title>
<path fill="#ecfdf5" stroke="black" d="M3078,-190C3078,-190 2929,-190 2929,-190 2923,-190 2917,-184 2917,-178 2917,-178 2917,-166 2917,-166 2917,-160 2923,-154 2929,-154 2929,-154 3078,-154 3078,-154 3084,-154 3090,-160 3090,-166 3090,-166 3090,-178 3090,-178 3090,-184 3084,-190 3078,-190"/>
<text text-anchor="middle" x="3003.5" y="-168.3" font-family="Helvetica,sans-Serif" font-size="14.00">writeA3P / writeProject</text>
</g>
<!-- save_route&#45;&gt;write_archive -->
<g id="edge19" class="edge">
<title>save_route&#45;&gt;write_archive</title>
<path fill="none" stroke="#555555" d="M2880.24,-172C2889.03,-172 2897.91,-172 2906.67,-172"/>
<polygon fill="#555555" stroke="#555555" points="2906.87,-175.5 2916.87,-172 2906.87,-168.5 2906.87,-175.5"/>
</g>
<!-- zip -->
<g id="node24" class="node">
<title>zip</title>
<path fill="#d1fae5" stroke="black" d="M3258,-190C3258,-190 3139,-190 3139,-190 3133,-190 3127,-184 3127,-178 3127,-178 3127,-166 3127,-166 3127,-160 3133,-154 3139,-154 3139,-154 3258,-154 3258,-154 3264,-154 3270,-160 3270,-166 3270,-166 3270,-178 3270,-178 3270,-184 3264,-190 3258,-190"/>
<text text-anchor="middle" x="3198.5" y="-168.3" font-family="Helvetica,sans-Serif" font-size="14.00">JSZip .a3p archive</text>
</g>
<!-- write_archive&#45;&gt;zip -->
<g id="edge20" class="edge">
<title>write_archive&#45;&gt;zip</title>
<path fill="none" stroke="#555555" d="M3090.28,-172C3099.03,-172 3107.91,-172 3116.61,-172"/>
<polygon fill="#555555" stroke="#555555" points="3116.72,-175.5 3126.72,-172 3116.72,-168.5 3116.72,-175.5"/>
</g>
<!-- sink -->
<g id="node25" class="node">
<title>sink</title>
<path fill="#d1fae5" stroke="black" d="M3582,-190C3582,-190 3319,-190 3319,-190 3313,-190 3307,-184 3307,-178 3307,-178 3307,-166 3307,-166 3307,-160 3313,-154 3319,-154 3319,-154 3582,-154 3582,-154 3588,-154 3594,-160 3594,-166 3594,-166 3594,-178 3594,-178 3594,-184 3588,-190 3582,-190"/>
<text text-anchor="middle" x="3450.5" y="-168.3" font-family="Helvetica,sans-Serif" font-size="14.00">download / storage / saved&#45;project.a3p</text>
</g>
<!-- zip&#45;&gt;sink -->
<g id="edge21" class="edge">
<title>zip&#45;&gt;sink</title>
<path fill="none" stroke="#555555" d="M3270.14,-172C3278.53,-172 3287.33,-172 3296.33,-172"/>
<polygon fill="#555555" stroke="#555555" points="3296.58,-175.5 3306.58,-172 3296.58,-168.5 3296.58,-175.5"/>
</g>
</g>
</svg>
