<?xml version="1.0" encoding="UTF-8" standalone="no"?>
<!DOCTYPE svg PUBLIC "-//W3C//DTD SVG 1.1//EN"
 "http://www.w3.org/Graphics/SVG/1.1/DTD/svg11.dtd">
<!-- Generated by graphviz version 2.42.4 (0)
 -->
<!-- Title: ast_lsp_bindings Pages: 1 -->
<svg width="1016pt" height="1099pt"
 viewBox="0.00 0.00 1016.00 1098.50" xmlns="http://www.w3.org/2000/svg" xmlns:xlink="http://www.w3.org/1999/xlink">
<g id="graph0" class="graph" transform="scale(1 1) rotate(0) translate(4 1094.5)">
<title>ast_lsp_bindings</title>
<polygon fill="white" stroke="transparent" points="-4,4 -4,-1094.5 1012,-1094.5 1012,4 -4,4"/>
<g id="clust1" class="cluster">
<title>cluster_hot</title>
<path fill="none" stroke="#93c5fd" d="M409.5,-8C409.5,-8 670.5,-8 670.5,-8 676.5,-8 682.5,-14 682.5,-20 682.5,-20 682.5,-674 682.5,-674 682.5,-680 676.5,-686 670.5,-686 670.5,-686 409.5,-686 409.5,-686 403.5,-686 397.5,-680 397.5,-674 397.5,-674 397.5,-20 397.5,-20 397.5,-14 403.5,-8 409.5,-8"/>
<text text-anchor="middle" x="540" y="-674" font-family="Helvetica,sans-Serif" font-size="10.00">Most imported exported modules</text>
</g>
<g id="clust2" class="cluster">
<title>cluster_consumers</title>
<path fill="none" stroke="#86efac" d="M802.5,-232C802.5,-232 987.5,-232 987.5,-232 993.5,-232 999.5,-238 999.5,-244 999.5,-244 999.5,-561 999.5,-561 999.5,-567 993.5,-573 987.5,-573 987.5,-573 802.5,-573 802.5,-573 796.5,-573 790.5,-567 790.5,-561 790.5,-561 790.5,-244 790.5,-244 790.5,-238 796.5,-232 802.5,-232"/>
<text text-anchor="middle" x="895" y="-561" font-family="Helvetica,sans-Serif" font-size="10.00">Representative consumers</text>
</g>
<g id="clust3" class="cluster">
<title>cluster_dead</title>
<path fill="none" stroke="#fca5a5" d="M416,-694C416,-694 988,-694 988,-694 994,-694 1000,-700 1000,-706 1000,-706 1000,-1033 1000,-1033 1000,-1039 994,-1045 988,-1045 988,-1045 416,-1045 416,-1045 410,-1045 404,-1039 404,-1033 404,-1033 404,-706 404,-706 404,-700 410,-694 416,-694"/>
<text text-anchor="middle" x="702" y="-1033" font-family="Helvetica,sans-Serif" font-size="10.00">Local dead&#45;export candidates</text>
</g>
<!-- barrel -->
<g id="node1" class="node">
<title>barrel</title>
<path fill="#dbeafe" stroke="#334155" d="M12,-374C12,-374 270,-374 270,-374 276,-374 282,-380 282,-386 282,-386 282,-398 282,-398 282,-404 276,-410 270,-410 270,-410 12,-410 12,-410 6,-410 0,-404 0,-398 0,-398 0,-386 0,-386 0,-380 6,-374 12,-374"/>
<text text-anchor="middle" x="48.5" y="-388.3" font-family="Helvetica,sans-Serif" font-size="14.00">src/index.ts</text>
<polyline fill="none" stroke="#334155" points="97,-374 97,-410 "/>
<text text-anchor="middle" x="189.5" y="-388.3" font-family="Helvetica,sans-Serif" font-size="14.00">165 namespace exports</text>
</g>
<!-- other_live -->
<g id="node2" class="node">
<title>other_live</title>
<path fill="#f8fafc" stroke="#334155" d="M330,-1054C330,-1054 750,-1054 750,-1054 756,-1054 762,-1060 762,-1066 762,-1066 762,-1078 762,-1078 762,-1084 756,-1090 750,-1090 750,-1090 330,-1090 330,-1090 324,-1090 318,-1084 318,-1078 318,-1078 318,-1066 318,-1066 318,-1060 324,-1054 330,-1054"/>
<text text-anchor="middle" x="387.5" y="-1068.3" font-family="Helvetica,sans-Serif" font-size="14.00">other live exports</text>
<polyline fill="none" stroke="#334155" points="457,-1054 457,-1090 "/>
<text text-anchor="middle" x="609.5" y="-1068.3" font-family="Helvetica,sans-Serif" font-size="14.00">73 namespaces with 1&#45;5 local consumers</text>
</g>
<!-- barrel&#45;&gt;other_live -->
<g id="edge13" class="edge">
<title>barrel&#45;&gt;other_live</title>
<path fill="none" stroke="#475569" d="M144.1,-410.08C155.46,-504.49 212.6,-940.32 316.31,-1046.61"/>
<polygon fill="#475569" stroke="#475569" points="314.17,-1049.4 323.86,-1053.68 318.95,-1044.29 314.17,-1049.4"/>
</g>
<!-- a3p -->
<g id="node3" class="node">
<title>a3p</title>
<path fill="#f8fafc" stroke="#334155" d="M447.5,-457C447.5,-457 632.5,-457 632.5,-457 638.5,-457 644.5,-463 644.5,-469 644.5,-469 644.5,-481 644.5,-481 644.5,-487 638.5,-493 632.5,-493 632.5,-493 447.5,-493 447.5,-493 441.5,-493 435.5,-487 435.5,-481 435.5,-481 435.5,-469 435.5,-469 435.5,-463 441.5,-457 447.5,-457"/>
<text text-anchor="middle" x="482" y="-471.3" font-family="Helvetica,sans-Serif" font-size="14.00">a3p&#45;parser</text>
<polyline fill="none" stroke="#334155" points="528.5,-457 528.5,-493 "/>
<text text-anchor="middle" x="586.5" y="-471.3" font-family="Helvetica,sans-Serif" font-size="14.00">49 consumers</text>
</g>
<!-- barrel&#45;&gt;a3p -->
<g id="edge1" class="edge">
<title>barrel&#45;&gt;a3p</title>
<path fill="none" stroke="#475569" d="M190.27,-410.05C225.27,-422.47 273.98,-438.4 318,-448 352.54,-455.54 390.62,-461.13 425.29,-465.22"/>
<polygon fill="#475569" stroke="#475569" points="425.11,-468.72 435.45,-466.38 425.91,-461.77 425.11,-468.72"/>
</g>
<!-- tweedle_parser -->
<g id="node4" class="node">
<title>tweedle_parser</title>
<path fill="#f8fafc" stroke="#334155" d="M433.5,-402C433.5,-402 646.5,-402 646.5,-402 652.5,-402 658.5,-408 658.5,-414 658.5,-414 658.5,-426 658.5,-426 658.5,-432 652.5,-438 646.5,-438 646.5,-438 433.5,-438 433.5,-438 427.5,-438 421.5,-432 421.5,-426 421.5,-426 421.5,-414 421.5,-414 421.5,-408 427.5,-402 433.5,-402"/>
<text text-anchor="middle" x="482" y="-416.3" font-family="Helvetica,sans-Serif" font-size="14.00">tweedle&#45;parser</text>
<polyline fill="none" stroke="#334155" points="542.5,-402 542.5,-438 "/>
<text text-anchor="middle" x="600.5" y="-416.3" font-family="Helvetica,sans-Serif" font-size="14.00">34 consumers</text>
</g>
<!-- barrel&#45;&gt;tweedle_parser -->
<g id="edge2" class="edge">
<title>barrel&#45;&gt;tweedle_parser</title>
<path fill="none" stroke="#475569" d="M282.25,-401.89C324.3,-404.86 370.18,-408.09 411.38,-411"/>
<polygon fill="#475569" stroke="#475569" points="411.25,-414.5 421.47,-411.71 411.74,-407.52 411.25,-414.5"/>
</g>
<!-- project_io -->
<g id="node5" class="node">
<title>project_io</title>
<path fill="#f8fafc" stroke="#334155" d="M453.5,-512C453.5,-512 626.5,-512 626.5,-512 632.5,-512 638.5,-518 638.5,-524 638.5,-524 638.5,-536 638.5,-536 638.5,-542 632.5,-548 626.5,-548 626.5,-548 453.5,-548 453.5,-548 447.5,-548 441.5,-542 441.5,-536 441.5,-536 441.5,-524 441.5,-524 441.5,-518 447.5,-512 453.5,-512"/>
<text text-anchor="middle" x="482" y="-526.3" font-family="Helvetica,sans-Serif" font-size="14.00">project&#45;io</text>
<polyline fill="none" stroke="#334155" points="522.5,-512 522.5,-548 "/>
<text text-anchor="middle" x="580.5" y="-526.3" font-family="Helvetica,sans-Serif" font-size="14.00">15 consumers</text>
</g>
<!-- barrel&#45;&gt;project_io -->
<g id="edge3" class="edge">
<title>barrel&#45;&gt;project_io</title>
<path fill="none" stroke="#475569" d="M163.66,-410.2C195.31,-435.68 257.08,-481.31 318,-503 353.7,-515.71 394.46,-522.65 431.18,-526.37"/>
<polygon fill="#475569" stroke="#475569" points="431.14,-529.88 441.42,-527.33 431.79,-522.91 431.14,-529.88"/>
</g>
<!-- tweedle_vm -->
<g id="node6" class="node">
<title>tweedle_vm</title>
<path fill="#f8fafc" stroke="#334155" d="M445.5,-347C445.5,-347 634.5,-347 634.5,-347 640.5,-347 646.5,-353 646.5,-359 646.5,-359 646.5,-371 646.5,-371 646.5,-377 640.5,-383 634.5,-383 634.5,-383 445.5,-383 445.5,-383 439.5,-383 433.5,-377 433.5,-371 433.5,-371 433.5,-359 433.5,-359 433.5,-353 439.5,-347 445.5,-347"/>
<text text-anchor="middle" x="482" y="-361.3" font-family="Helvetica,sans-Serif" font-size="14.00">tweedle&#45;vm</text>
<polyline fill="none" stroke="#334155" points="530.5,-347 530.5,-383 "/>
<text text-anchor="middle" x="588.5" y="-361.3" font-family="Helvetica,sans-Serif" font-size="14.00">14 consumers</text>
</g>
<!-- barrel&#45;&gt;tweedle_vm -->
<g id="edge4" class="edge">
<title>barrel&#45;&gt;tweedle_vm</title>
<path fill="none" stroke="#475569" d="M282.25,-382.46C328.31,-379.33 378.96,-375.88 423.02,-372.89"/>
<polygon fill="#475569" stroke="#475569" points="423.45,-376.37 433.19,-372.2 422.98,-369.38 423.45,-376.37"/>
</g>
<!-- story_api -->
<g id="node7" class="node">
<title>story_api</title>
<path fill="#f8fafc" stroke="#334155" d="M455,-292C455,-292 625,-292 625,-292 631,-292 637,-298 637,-304 637,-304 637,-316 637,-316 637,-322 631,-328 625,-328 625,-328 455,-328 455,-328 449,-328 443,-322 443,-316 443,-316 443,-304 443,-304 443,-298 449,-292 455,-292"/>
<text text-anchor="middle" x="482" y="-306.3" font-family="Helvetica,sans-Serif" font-size="14.00">story&#45;api</text>
<polyline fill="none" stroke="#334155" points="521,-292 521,-328 "/>
<text text-anchor="middle" x="579" y="-306.3" font-family="Helvetica,sans-Serif" font-size="14.00">13 consumers</text>
</g>
<!-- barrel&#45;&gt;story_api -->
<g id="edge5" class="edge">
<title>barrel&#45;&gt;story_api</title>
<path fill="none" stroke="#475569" d="M192.6,-373.94C227.45,-362.13 275.04,-347.24 318,-338 355.07,-330.03 396.15,-324.05 432.74,-319.72"/>
<polygon fill="#475569" stroke="#475569" points="433.41,-323.17 442.94,-318.54 432.6,-316.21 433.41,-323.17"/>
</g>
<!-- animation -->
<g id="node8" class="node">
<title>animation</title>
<path fill="#f8fafc" stroke="#334155" d="M451,-237C451,-237 629,-237 629,-237 635,-237 641,-243 641,-249 641,-249 641,-261 641,-261 641,-267 635,-273 629,-273 629,-273 451,-273 451,-273 445,-273 439,-267 439,-261 439,-261 439,-249 439,-249 439,-243 445,-237 451,-237"/>
<text text-anchor="middle" x="482" y="-251.3" font-family="Helvetica,sans-Serif" font-size="14.00">animation</text>
<polyline fill="none" stroke="#334155" points="525,-237 525,-273 "/>
<text text-anchor="middle" x="583" y="-251.3" font-family="Helvetica,sans-Serif" font-size="14.00">11 consumers</text>
</g>
<!-- barrel&#45;&gt;animation -->
<g id="edge6" class="edge">
<title>barrel&#45;&gt;animation</title>
<path fill="none" stroke="#475569" d="M164,-373.97C195.82,-348.96 257.52,-304.41 318,-283 352.99,-270.61 392.81,-263.58 428.91,-259.62"/>
<polygon fill="#475569" stroke="#475569" points="429.4,-263.09 438.99,-258.59 428.69,-256.13 429.4,-263.09"/>
</g>
<!-- ast_nodes -->
<g id="node9" class="node">
<title>ast_nodes</title>
<path fill="#f8fafc" stroke="#334155" d="M456,-182C456,-182 624,-182 624,-182 630,-182 636,-188 636,-194 636,-194 636,-206 636,-206 636,-212 630,-218 624,-218 624,-218 456,-218 456,-218 450,-218 444,-212 444,-206 444,-206 444,-194 444,-194 444,-188 450,-182 456,-182"/>
<text text-anchor="middle" x="486.5" y="-196.3" font-family="Helvetica,sans-Serif" font-size="14.00">ast&#45;nodes</text>
<polyline fill="none" stroke="#334155" points="529,-182 529,-218 "/>
<text text-anchor="middle" x="582.5" y="-196.3" font-family="Helvetica,sans-Serif" font-size="14.00">9 consumers</text>
</g>
<!-- barrel&#45;&gt;ast_nodes -->
<g id="edge7" class="edge">
<title>barrel&#45;&gt;ast_nodes</title>
<path fill="none" stroke="#475569" d="M155.06,-373.85C181.39,-338.83 244.63,-262.37 318,-228 353.61,-211.32 395.79,-203.47 433.7,-200.07"/>
<polygon fill="#475569" stroke="#475569" points="434.07,-203.56 443.76,-199.27 433.51,-196.58 434.07,-203.56"/>
</g>
<!-- type_browser -->
<g id="node10" class="node">
<title>type_browser</title>
<path fill="#f8fafc" stroke="#334155" d="M444.5,-127C444.5,-127 635.5,-127 635.5,-127 641.5,-127 647.5,-133 647.5,-139 647.5,-139 647.5,-151 647.5,-151 647.5,-157 641.5,-163 635.5,-163 635.5,-163 444.5,-163 444.5,-163 438.5,-163 432.5,-157 432.5,-151 432.5,-151 432.5,-139 432.5,-139 432.5,-133 438.5,-127 444.5,-127"/>
<text text-anchor="middle" x="486.5" y="-141.3" font-family="Helvetica,sans-Serif" font-size="14.00">type&#45;browser</text>
<polyline fill="none" stroke="#334155" points="540.5,-127 540.5,-163 "/>
<text text-anchor="middle" x="594" y="-141.3" font-family="Helvetica,sans-Serif" font-size="14.00">9 consumers</text>
</g>
<!-- barrel&#45;&gt;type_browser -->
<g id="edge8" class="edge">
<title>barrel&#45;&gt;type_browser</title>
<path fill="none" stroke="#475569" d="M150.4,-373.94C171.55,-330.72 231.58,-221.33 318,-173 349.26,-155.52 386.82,-147.02 422.04,-143.29"/>
<polygon fill="#475569" stroke="#475569" points="422.76,-146.74 432.39,-142.33 422.11,-139.77 422.76,-146.74"/>
</g>
<!-- server -->
<g id="node11" class="node">
<title>server</title>
<path fill="#f8fafc" stroke="#334155" d="M468,-72C468,-72 612,-72 612,-72 618,-72 624,-78 624,-84 624,-84 624,-96 624,-96 624,-102 618,-108 612,-108 612,-108 468,-108 468,-108 462,-108 456,-102 456,-96 456,-96 456,-84 456,-84 456,-78 462,-72 468,-72"/>
<text text-anchor="middle" x="486.5" y="-86.3" font-family="Helvetica,sans-Serif" font-size="14.00">server</text>
<polyline fill="none" stroke="#334155" points="517,-72 517,-108 "/>
<text text-anchor="middle" x="570.5" y="-86.3" font-family="Helvetica,sans-Serif" font-size="14.00">7 consumers</text>
</g>
<!-- barrel&#45;&gt;server -->
<g id="edge9" class="edge">
<title>barrel&#45;&gt;server</title>
<path fill="none" stroke="#475569" d="M147.63,-373.7C164.26,-323.1 218.31,-180.91 318,-118 355.54,-94.31 403.85,-86.23 445.72,-84.53"/>
<polygon fill="#475569" stroke="#475569" points="446.04,-88.03 455.94,-84.24 445.84,-81.03 446.04,-88.03"/>
</g>
<!-- expr_eval -->
<g id="node12" class="node">
<title>expr_eval</title>
<path fill="#f8fafc" stroke="#334155" d="M417.5,-17C417.5,-17 662.5,-17 662.5,-17 668.5,-17 674.5,-23 674.5,-29 674.5,-29 674.5,-41 674.5,-41 674.5,-47 668.5,-53 662.5,-53 662.5,-53 417.5,-53 417.5,-53 411.5,-53 405.5,-47 405.5,-41 405.5,-41 405.5,-29 405.5,-29 405.5,-23 411.5,-17 417.5,-17"/>
<text text-anchor="middle" x="486.5" y="-31.3" font-family="Helvetica,sans-Serif" font-size="14.00">expression&#45;evaluator</text>
<polyline fill="none" stroke="#334155" points="567.5,-17 567.5,-53 "/>
<text text-anchor="middle" x="621" y="-31.3" font-family="Helvetica,sans-Serif" font-size="14.00">6 consumers</text>
</g>
<!-- barrel&#45;&gt;expr_eval -->
<g id="edge10" class="edge">
<title>barrel&#45;&gt;expr_eval</title>
<path fill="none" stroke="#475569" d="M145.61,-373.89C157.98,-317.04 204.34,-141.23 318,-63 340.7,-47.38 367.88,-38.28 395.29,-33.29"/>
<polygon fill="#475569" stroke="#475569" points="396.1,-36.71 405.4,-31.63 394.96,-29.8 396.1,-36.71"/>
</g>
<!-- stmt_exec -->
<g id="node13" class="node">
<title>stmt_exec</title>
<path fill="#f8fafc" stroke="#334155" d="M422.5,-622C422.5,-622 657.5,-622 657.5,-622 663.5,-622 669.5,-628 669.5,-634 669.5,-634 669.5,-646 669.5,-646 669.5,-652 663.5,-658 657.5,-658 657.5,-658 422.5,-658 422.5,-658 416.5,-658 410.5,-652 410.5,-646 410.5,-646 410.5,-634 410.5,-634 410.5,-628 416.5,-622 422.5,-622"/>
<text text-anchor="middle" x="486.5" y="-636.3" font-family="Helvetica,sans-Serif" font-size="14.00">statement&#45;executor</text>
<polyline fill="none" stroke="#334155" points="562.5,-622 562.5,-658 "/>
<text text-anchor="middle" x="616" y="-636.3" font-family="Helvetica,sans-Serif" font-size="14.00">6 consumers</text>
</g>
<!-- barrel&#45;&gt;stmt_exec -->
<g id="edge11" class="edge">
<title>barrel&#45;&gt;stmt_exec</title>
<path fill="none" stroke="#475569" d="M150.33,-410.25C171.35,-453.91 231.1,-564.4 318,-613 342.9,-626.92 371.81,-635.06 400.34,-639.6"/>
<polygon fill="#475569" stroke="#475569" points="400.02,-643.09 410.41,-641.05 401.02,-636.16 400.02,-643.09"/>
</g>
<!-- tweedle_codegen -->
<g id="node14" class="node">
<title>tweedle_codegen</title>
<path fill="#f8fafc" stroke="#334155" d="M431,-567C431,-567 649,-567 649,-567 655,-567 661,-573 661,-579 661,-579 661,-591 661,-591 661,-597 655,-603 649,-603 649,-603 431,-603 431,-603 425,-603 419,-597 419,-591 419,-591 419,-579 419,-579 419,-573 425,-567 431,-567"/>
<text text-anchor="middle" x="486.5" y="-581.3" font-family="Helvetica,sans-Serif" font-size="14.00">tweedle&#45;codegen</text>
<polyline fill="none" stroke="#334155" points="554,-567 554,-603 "/>
<text text-anchor="middle" x="607.5" y="-581.3" font-family="Helvetica,sans-Serif" font-size="14.00">6 consumers</text>
</g>
<!-- barrel&#45;&gt;tweedle_codegen -->
<g id="edge12" class="edge">
<title>barrel&#45;&gt;tweedle_codegen</title>
<path fill="none" stroke="#475569" d="M154.79,-410.13C180.87,-445.5 244.05,-523.29 318,-558 345.94,-571.12 377.96,-578.68 408.78,-582.87"/>
<polygon fill="#475569" stroke="#475569" points="408.39,-586.35 418.74,-584.12 409.26,-579.4 408.39,-586.35"/>
</g>
<!-- dead_summary -->
<g id="node21" class="node">
<title>dead_summary</title>
<path fill="#fef2f2" stroke="#334155" d="M656,-828C656,-828 424,-828 424,-828 418,-828 412,-822 412,-816 412,-816 412,-802 412,-802 412,-796 418,-790 424,-790 424,-790 656,-790 656,-790 662,-790 668,-796 668,-802 668,-802 668,-816 668,-816 668,-822 662,-828 656,-828"/>
<text text-anchor="middle" x="540" y="-812.8" font-family="Helvetica,sans-Serif" font-size="14.00">80 namespaces have zero imports</text>
<text text-anchor="middle" x="540" y="-797.8" font-family="Helvetica,sans-Serif" font-size="14.00">in src/ or test/</text>
</g>
<!-- barrel&#45;&gt;dead_summary -->
<g id="edge25" class="edge">
<title>barrel&#45;&gt;dead_summary</title>
<path fill="none" stroke="#dc2626" stroke-dasharray="5,2" d="M148.6,-410C167.74,-460.11 227.68,-603.18 318,-690 363.65,-733.88 428.68,-766.29 476.39,-786.11"/>
<polygon fill="#dc2626" stroke="#dc2626" points="475.1,-789.37 485.68,-789.9 477.75,-782.88 475.1,-789.37"/>
</g>
<!-- scene_manager -->
<g id="node15" class="node">
<title>scene_manager</title>
<path fill="#f0fdf4" stroke="#334155" d="M953,-492C953,-492 837,-492 837,-492 831,-492 825,-486 825,-480 825,-480 825,-468 825,-468 825,-462 831,-456 837,-456 837,-456 953,-456 953,-456 959,-456 965,-462 965,-468 965,-468 965,-480 965,-480 965,-486 959,-492 953,-492"/>
<text text-anchor="middle" x="895" y="-470.3" font-family="Helvetica,sans-Serif" font-size="14.00">scene&#45;manager.ts</text>
</g>
<!-- a3p&#45;&gt;scene_manager -->
<g id="edge14" class="edge">
<title>a3p&#45;&gt;scene_manager</title>
<path fill="none" stroke="#475569" d="M644.53,-474.71C698.86,-474.55 764.4,-474.37 814.67,-474.22"/>
<polygon fill="#475569" stroke="#475569" points="814.84,-477.72 824.83,-474.2 814.82,-470.72 814.84,-477.72"/>
</g>
<!-- tests -->
<g id="node20" class="node">
<title>tests</title>
<path fill="#f0fdf4" stroke="#334155" d="M934,-330C934,-330 856,-330 856,-330 850,-330 844,-324 844,-318 844,-318 844,-306 844,-306 844,-300 850,-294 856,-294 856,-294 934,-294 934,-294 940,-294 946,-300 946,-306 946,-306 946,-318 946,-318 946,-324 940,-330 934,-330"/>
<text text-anchor="middle" x="895" y="-308.3" font-family="Helvetica,sans-Serif" font-size="14.00">test/*.test.ts</text>
</g>
<!-- a3p&#45;&gt;tests -->
<g id="edge15" class="edge">
<title>a3p&#45;&gt;tests</title>
<path fill="none" stroke="#475569" d="M644.54,-485.94C685.5,-484.74 730.28,-475.73 762,-448 799.7,-415.05 755.08,-374.4 790.5,-339 802.14,-327.37 818.12,-320.55 834.04,-316.62"/>
<polygon fill="#475569" stroke="#475569" points="834.86,-320.02 843.91,-314.52 833.4,-313.17 834.86,-320.02"/>
</g>
<!-- type_system -->
<g id="node17" class="node">
<title>type_system</title>
<path fill="#f0fdf4" stroke="#334155" d="M943,-438C943,-438 847,-438 847,-438 841,-438 835,-432 835,-426 835,-426 835,-414 835,-414 835,-408 841,-402 847,-402 847,-402 943,-402 943,-402 949,-402 955,-408 955,-414 955,-414 955,-426 955,-426 955,-432 949,-438 943,-438"/>
<text text-anchor="middle" x="895" y="-416.3" font-family="Helvetica,sans-Serif" font-size="14.00">type&#45;system.ts</text>
</g>
<!-- tweedle_parser&#45;&gt;type_system -->
<g id="edge16" class="edge">
<title>tweedle_parser&#45;&gt;type_system</title>
<path fill="none" stroke="#475569" d="M658.54,-420C713.67,-420 777.45,-420 824.72,-420"/>
<polygon fill="#475569" stroke="#475569" points="824.85,-423.5 834.85,-420 824.85,-416.5 824.85,-423.5"/>
</g>
<!-- tweedle_parser&#45;&gt;tests -->
<g id="edge17" class="edge">
<title>tweedle_parser&#45;&gt;tests</title>
<path fill="none" stroke="#475569" d="M658.55,-426.02C694.34,-422.73 732.08,-413.62 762,-393 784.35,-377.6 769.23,-355.86 790.5,-339 802.92,-329.16 818.55,-322.88 833.88,-318.88"/>
<polygon fill="#475569" stroke="#475569" points="834.92,-322.23 843.87,-316.57 833.34,-315.41 834.92,-322.23"/>
</g>
<!-- project_system -->
<g id="node16" class="node">
<title>project_system</title>
<path fill="#f0fdf4" stroke="#334155" d="M951.5,-546C951.5,-546 838.5,-546 838.5,-546 832.5,-546 826.5,-540 826.5,-534 826.5,-534 826.5,-522 826.5,-522 826.5,-516 832.5,-510 838.5,-510 838.5,-510 951.5,-510 951.5,-510 957.5,-510 963.5,-516 963.5,-522 963.5,-522 963.5,-534 963.5,-534 963.5,-540 957.5,-546 951.5,-546"/>
<text text-anchor="middle" x="895" y="-524.3" font-family="Helvetica,sans-Serif" font-size="14.00">project&#45;system.ts</text>
</g>
<!-- project_io&#45;&gt;project_system -->
<g id="edge18" class="edge">
<title>project_io&#45;&gt;project_system</title>
<path fill="none" stroke="#475569" d="M638.86,-529.45C694.81,-529.13 764.02,-528.74 816.23,-528.44"/>
<polygon fill="#475569" stroke="#475569" points="816.46,-531.94 826.44,-528.38 816.42,-524.94 816.46,-531.94"/>
</g>
<!-- vm_setup -->
<g id="node19" class="node">
<title>vm_setup</title>
<path fill="#f0fdf4" stroke="#334155" d="M979.5,-384C979.5,-384 810.5,-384 810.5,-384 804.5,-384 798.5,-378 798.5,-372 798.5,-372 798.5,-360 798.5,-360 798.5,-354 804.5,-348 810.5,-348 810.5,-348 979.5,-348 979.5,-348 985.5,-348 991.5,-354 991.5,-360 991.5,-360 991.5,-372 991.5,-372 991.5,-378 985.5,-384 979.5,-384"/>
<text text-anchor="middle" x="895" y="-362.3" font-family="Helvetica,sans-Serif" font-size="14.00">tweedle&#45;vm&#45;core&#45;setup.ts</text>
</g>
<!-- tweedle_vm&#45;&gt;vm_setup -->
<g id="edge19" class="edge">
<title>tweedle_vm&#45;&gt;vm_setup</title>
<path fill="none" stroke="#475569" d="M646.91,-365.3C691.66,-365.43 743.65,-365.57 788.37,-365.7"/>
<polygon fill="#475569" stroke="#475569" points="788.37,-369.2 798.38,-365.73 788.39,-362.2 788.37,-369.2"/>
</g>
<!-- tweedle_vm&#45;&gt;tests -->
<g id="edge20" class="edge">
<title>tweedle_vm&#45;&gt;tests</title>
<path fill="none" stroke="#475569" d="M646.61,-353.69C683.23,-349.34 724.5,-343.98 762,-338 785.5,-334.25 811.21,-329.37 833.64,-324.85"/>
<polygon fill="#475569" stroke="#475569" points="834.59,-328.23 843.7,-322.8 833.2,-321.37 834.59,-328.23"/>
</g>
<!-- story_api&#45;&gt;tests -->
<g id="edge23" class="edge">
<title>story_api&#45;&gt;tests</title>
<path fill="none" stroke="#475569" d="M637.46,-310.55C700.17,-310.9 779.98,-311.35 833.8,-311.66"/>
<polygon fill="#475569" stroke="#475569" points="833.85,-315.16 843.87,-311.72 833.89,-308.16 833.85,-315.16"/>
</g>
<!-- animation&#45;&gt;tests -->
<g id="edge24" class="edge">
<title>animation&#45;&gt;tests</title>
<path fill="none" stroke="#475569" d="M641.12,-265.75C679.09,-270.33 722.65,-276.2 762,-283 785.56,-287.07 811.28,-292.5 833.7,-297.55"/>
<polygon fill="#475569" stroke="#475569" points="833.22,-301.03 843.75,-299.84 834.78,-294.21 833.22,-301.03"/>
</g>
<!-- cli -->
<g id="node18" class="node">
<title>cli</title>
<path fill="#f0fdf4" stroke="#334155" d="M910,-276C910,-276 880,-276 880,-276 874,-276 868,-270 868,-264 868,-264 868,-252 868,-252 868,-246 874,-240 880,-240 880,-240 910,-240 910,-240 916,-240 922,-246 922,-252 922,-252 922,-264 922,-264 922,-270 916,-276 910,-276"/>
<text text-anchor="middle" x="895" y="-254.3" font-family="Helvetica,sans-Serif" font-size="14.00">cli.ts</text>
</g>
<!-- server&#45;&gt;cli -->
<g id="edge21" class="edge">
<title>server&#45;&gt;cli</title>
<path fill="none" stroke="#475569" d="M624.16,-87.38C667.35,-89.19 719.77,-96.53 762,-118 813.17,-144.02 855.12,-198.19 877.17,-230.99"/>
<polygon fill="#475569" stroke="#475569" points="874.44,-233.21 882.86,-239.64 880.29,-229.36 874.44,-233.21"/>
</g>
<!-- server&#45;&gt;tests -->
<g id="edge22" class="edge">
<title>server&#45;&gt;tests</title>
<path fill="none" stroke="#475569" d="M624.15,-78.34C670.57,-76.7 726.11,-83.62 762,-118 816.37,-170.08 739.6,-229.51 790.5,-285 801.73,-297.24 817.74,-304.22 833.83,-308.13"/>
<polygon fill="#475569" stroke="#475569" points="833.31,-311.59 843.81,-310.18 834.72,-304.74 833.31,-311.59"/>
</g>
<!-- dead_ui -->
<g id="node22" class="node">
<title>dead_ui</title>
<path fill="#fef2f2" stroke="#334155" d="M951,-800C951,-800 839,-800 839,-800 833,-800 827,-794 827,-788 827,-788 827,-714 827,-714 827,-708 833,-702 839,-702 839,-702 951,-702 951,-702 957,-702 963,-708 963,-714 963,-714 963,-788 963,-788 963,-794 957,-800 951,-800"/>
<text text-anchor="middle" x="895" y="-784.8" font-family="Helvetica,sans-Serif" font-size="14.00">IDE/UI examples:</text>
<text text-anchor="middle" x="895" y="-769.8" font-family="Helvetica,sans-Serif" font-size="14.00">accessibility</text>
<text text-anchor="middle" x="895" y="-754.8" font-family="Helvetica,sans-Serif" font-size="14.00">alice&#45;ide&#45;state</text>
<text text-anchor="middle" x="895" y="-739.8" font-family="Helvetica,sans-Serif" font-size="14.00">dialog&#45;system</text>
<text text-anchor="middle" x="895" y="-724.8" font-family="Helvetica,sans-Serif" font-size="14.00">image&#45;editor</text>
<text text-anchor="middle" x="895" y="-709.8" font-family="Helvetica,sans-Serif" font-size="14.00">workspace</text>
</g>
<!-- dead_summary&#45;&gt;dead_ui -->
<g id="edge26" class="edge">
<title>dead_summary&#45;&gt;dead_ui</title>
<path fill="none" stroke="#dc2626" stroke-dasharray="5,2" d="M657.07,-789.93C709.49,-781.32 770,-771.37 816.75,-763.69"/>
<polygon fill="#dc2626" stroke="#dc2626" points="817.5,-767.12 826.81,-762.04 816.37,-760.21 817.5,-767.12"/>
</g>
<!-- dead_scene -->
<g id="node23" class="node">
<title>dead_scene</title>
<path fill="#fef2f2" stroke="#334155" d="M980,-916C980,-916 810,-916 810,-916 804,-916 798,-910 798,-904 798,-904 798,-830 798,-830 798,-824 804,-818 810,-818 810,-818 980,-818 980,-818 986,-818 992,-824 992,-830 992,-830 992,-904 992,-904 992,-910 986,-916 980,-916"/>
<text text-anchor="middle" x="895" y="-900.8" font-family="Helvetica,sans-Serif" font-size="14.00">Scene/runtime examples:</text>
<text text-anchor="middle" x="895" y="-885.8" font-family="Helvetica,sans-Serif" font-size="14.00">scene&#45;graph</text>
<text text-anchor="middle" x="895" y="-870.8" font-family="Helvetica,sans-Serif" font-size="14.00">scene&#45;layout</text>
<text text-anchor="middle" x="895" y="-855.8" font-family="Helvetica,sans-Serif" font-size="14.00">scene&#45;management</text>
<text text-anchor="middle" x="895" y="-840.8" font-family="Helvetica,sans-Serif" font-size="14.00">render&#45;materials</text>
<text text-anchor="middle" x="895" y="-825.8" font-family="Helvetica,sans-Serif" font-size="14.00">render&#45;picking</text>
</g>
<!-- dead_summary&#45;&gt;dead_scene -->
<g id="edge27" class="edge">
<title>dead_summary&#45;&gt;dead_scene</title>
<path fill="none" stroke="#dc2626" stroke-dasharray="5,2" d="M657.07,-828.07C699.22,-835 746.58,-842.78 787.83,-849.55"/>
<polygon fill="#dc2626" stroke="#dc2626" points="787.46,-853.04 797.9,-851.21 788.6,-846.13 787.46,-853.04"/>
</g>
<!-- dead_api -->
<g id="node24" class="node">
<title>dead_api</title>
<path fill="#fef2f2" stroke="#334155" d="M970,-1017.5C970,-1017.5 820,-1017.5 820,-1017.5 814,-1017.5 808,-1011.5 808,-1005.5 808,-1005.5 808,-946.5 808,-946.5 808,-940.5 814,-934.5 820,-934.5 820,-934.5 970,-934.5 970,-934.5 976,-934.5 982,-940.5 982,-946.5 982,-946.5 982,-1005.5 982,-1005.5 982,-1011.5 976,-1017.5 970,-1017.5"/>
<text text-anchor="middle" x="895" y="-1002.3" font-family="Helvetica,sans-Serif" font-size="14.00">API/runtime examples:</text>
<text text-anchor="middle" x="895" y="-987.3" font-family="Helvetica,sans-Serif" font-size="14.00">story&#45;api&#45;events</text>
<text text-anchor="middle" x="895" y="-972.3" font-family="Helvetica,sans-Serif" font-size="14.00">entity&#45;lifecycle</text>
<text text-anchor="middle" x="895" y="-957.3" font-family="Helvetica,sans-Serif" font-size="14.00">tweedle&#45;runtime</text>
<text text-anchor="middle" x="895" y="-942.3" font-family="Helvetica,sans-Serif" font-size="14.00">web&#45;runtime</text>
</g>
<!-- dead_summary&#45;&gt;dead_api -->
<g id="edge28" class="edge">
<title>dead_summary&#45;&gt;dead_api</title>
<path fill="none" stroke="#dc2626" stroke-dasharray="5,2" d="M581.49,-828.16C634.01,-853 727.28,-897.13 798.3,-930.72"/>
<polygon fill="#dc2626" stroke="#dc2626" points="797.19,-934.07 807.72,-935.18 800.18,-927.74 797.19,-934.07"/>
</g>
</g>
</svg>
