<?xml version="1.0" encoding="UTF-8" standalone="no"?>
<!DOCTYPE svg PUBLIC "-//W3C//DTD SVG 1.1//EN"
 "http://www.w3.org/Graphics/SVG/1.1/DTD/svg11.dtd">
<!-- Generated by graphviz version 2.42.4 (0)
 -->
<!-- Title: repo_surface Pages: 1 -->
<svg width="2555pt" height="268pt"
 viewBox="0.00 0.00 2555.00 268.00" xmlns="http://www.w3.org/2000/svg" xmlns:xlink="http://www.w3.org/1999/xlink">
<g id="graph0" class="graph" transform="scale(1 1) rotate(0) translate(4 264)">
<title>repo_surface</title>
<polygon fill="white" stroke="transparent" points="-4,4 -4,-264 2551,-264 2551,4 -4,4"/>
<g id="clust1" class="cluster">
<title>cluster_src</title>
<path fill="none" stroke="#93c5fd" d="M20,-97C20,-97 1274,-97 1274,-97 1280,-97 1286,-103 1286,-109 1286,-109 1286,-203 1286,-203 1286,-209 1280,-215 1274,-215 1274,-215 20,-215 20,-215 14,-215 8,-209 8,-203 8,-203 8,-109 8,-109 8,-103 14,-97 20,-97"/>
<text text-anchor="middle" x="647" y="-203" font-family="Helvetica,sans-Serif" font-size="10.00">src/</text>
</g>
<g id="clust2" class="cluster">
<title>cluster_test</title>
<path fill="none" stroke="#86efac" d="M1306,-119.5C1306,-119.5 1484,-119.5 1484,-119.5 1490,-119.5 1496,-125.5 1496,-131.5 1496,-131.5 1496,-180.5 1496,-180.5 1496,-186.5 1490,-192.5 1484,-192.5 1484,-192.5 1306,-192.5 1306,-192.5 1300,-192.5 1294,-186.5 1294,-180.5 1294,-180.5 1294,-131.5 1294,-131.5 1294,-125.5 1300,-119.5 1306,-119.5"/>
<text text-anchor="middle" x="1395" y="-180.5" font-family="Helvetica,sans-Serif" font-size="10.00">test/</text>
</g>
<g id="clust3" class="cluster">
<title>cluster_docs</title>
<path fill="none" stroke="#fcd34d" d="M1516,-119.5C1516,-119.5 1909,-119.5 1909,-119.5 1915,-119.5 1921,-125.5 1921,-131.5 1921,-131.5 1921,-180.5 1921,-180.5 1921,-186.5 1915,-192.5 1909,-192.5 1909,-192.5 1516,-192.5 1516,-192.5 1510,-192.5 1504,-186.5 1504,-180.5 1504,-180.5 1504,-131.5 1504,-131.5 1504,-125.5 1510,-119.5 1516,-119.5"/>
<text text-anchor="middle" x="1712.5" y="-180.5" font-family="Helvetica,sans-Serif" font-size="10.00">docs/</text>
</g>
<g id="clust4" class="cluster">
<title>cluster_build</title>
<path fill="none" stroke="#c4b5fd" d="M1971,-8C1971,-8 2527,-8 2527,-8 2533,-8 2539,-14 2539,-20 2539,-20 2539,-180.5 2539,-180.5 2539,-186.5 2533,-192.5 2527,-192.5 2527,-192.5 1971,-192.5 1971,-192.5 1965,-192.5 1959,-186.5 1959,-180.5 1959,-180.5 1959,-20 1959,-20 1959,-14 1965,-8 1971,-8"/>
<text text-anchor="middle" x="2249" y="-180.5" font-family="Helvetica,sans-Serif" font-size="10.00">build + config</text>
</g>
<g id="clust5" class="cluster">
<title>cluster_outputs</title>
<path fill="none" stroke="#fca5a5" d="M811,-15.5C811,-15.5 1340,-15.5 1340,-15.5 1346,-15.5 1352,-21.5 1352,-27.5 1352,-27.5 1352,-76.5 1352,-76.5 1352,-82.5 1346,-88.5 1340,-88.5 1340,-88.5 811,-88.5 811,-88.5 805,-88.5 799,-82.5 799,-76.5 799,-76.5 799,-27.5 799,-27.5 799,-21.5 805,-15.5 811,-15.5"/>
<text text-anchor="middle" x="1075.5" y="-76.5" font-family="Helvetica,sans-Serif" font-size="10.00">generated outputs</text>
</g>
<!-- root -->
<g id="node1" class="node">
<title>root</title>
<polygon fill="#dbeafe" stroke="#334155" points="1924,-260 1921,-264 1900,-264 1897,-260 1766,-260 1766,-224 1924,-224 1924,-260"/>
<text text-anchor="middle" x="1845" y="-238.3" font-family="Helvetica,sans-Serif" font-size="14.00">alice&#45;web&#45;prototype/</text>
</g>
<!-- index_ts -->
<g id="node2" class="node">
<title>index_ts</title>
<path fill="#f8fafc" stroke="#334155" d="M1265.5,-165.5C1265.5,-165.5 1186.5,-165.5 1186.5,-165.5 1180.5,-165.5 1174.5,-159.5 1174.5,-153.5 1174.5,-153.5 1174.5,-139.5 1174.5,-139.5 1174.5,-133.5 1180.5,-127.5 1186.5,-127.5 1186.5,-127.5 1265.5,-127.5 1265.5,-127.5 1271.5,-127.5 1277.5,-133.5 1277.5,-139.5 1277.5,-139.5 1277.5,-153.5 1277.5,-153.5 1277.5,-159.5 1271.5,-165.5 1265.5,-165.5"/>
<text text-anchor="middle" x="1226" y="-150.3" font-family="Helvetica,sans-Serif" font-size="14.00">index.ts</text>
<text text-anchor="middle" x="1226" y="-135.3" font-family="Helvetica,sans-Serif" font-size="14.00">public barrel</text>
</g>
<!-- root&#45;&gt;index_ts -->
<g id="edge1" class="edge">
<title>root&#45;&gt;index_ts</title>
<path fill="none" stroke="#475569" d="M1765.9,-240.55C1622.86,-239.26 1332.07,-234.26 1290,-215 1270.85,-206.23 1254.61,-188.88 1243.27,-173.97"/>
<polygon fill="#475569" stroke="#475569" points="1245.88,-171.6 1237.18,-165.55 1240.21,-175.7 1245.88,-171.6"/>
</g>
<!-- tests -->
<g id="node11" class="node">
<title>tests</title>
<path fill="#f0fdf4" stroke="#334155" d="M1476.5,-165.5C1476.5,-165.5 1313.5,-165.5 1313.5,-165.5 1307.5,-165.5 1301.5,-159.5 1301.5,-153.5 1301.5,-153.5 1301.5,-139.5 1301.5,-139.5 1301.5,-133.5 1307.5,-127.5 1313.5,-127.5 1313.5,-127.5 1476.5,-127.5 1476.5,-127.5 1482.5,-127.5 1488.5,-133.5 1488.5,-139.5 1488.5,-139.5 1488.5,-153.5 1488.5,-153.5 1488.5,-159.5 1482.5,-165.5 1476.5,-165.5"/>
<text text-anchor="middle" x="1395" y="-150.3" font-family="Helvetica,sans-Serif" font-size="14.00">226 Vitest files</text>
<text text-anchor="middle" x="1395" y="-135.3" font-family="Helvetica,sans-Serif" font-size="14.00">unit + integration + e2e</text>
</g>
<!-- root&#45;&gt;tests -->
<g id="edge2" class="edge">
<title>root&#45;&gt;tests</title>
<path fill="none" stroke="#475569" d="M1765.75,-239.52C1679.49,-237.12 1547.49,-230.91 1500,-215 1472.13,-205.66 1444.32,-187.27 1424.33,-172.04"/>
<polygon fill="#475569" stroke="#475569" points="1426.3,-169.14 1416.26,-165.75 1421.99,-174.66 1426.3,-169.14"/>
</g>
<!-- docs_index -->
<g id="node12" class="node">
<title>docs_index</title>
<path fill="#fffbeb" stroke="#334155" d="M1900.5,-165.5C1900.5,-165.5 1789.5,-165.5 1789.5,-165.5 1783.5,-165.5 1777.5,-159.5 1777.5,-153.5 1777.5,-153.5 1777.5,-139.5 1777.5,-139.5 1777.5,-133.5 1783.5,-127.5 1789.5,-127.5 1789.5,-127.5 1900.5,-127.5 1900.5,-127.5 1906.5,-127.5 1912.5,-133.5 1912.5,-139.5 1912.5,-139.5 1912.5,-153.5 1912.5,-153.5 1912.5,-159.5 1906.5,-165.5 1900.5,-165.5"/>
<text text-anchor="middle" x="1845" y="-150.3" font-family="Helvetica,sans-Serif" font-size="14.00">topic guides</text>
<text text-anchor="middle" x="1845" y="-135.3" font-family="Helvetica,sans-Serif" font-size="14.00">+ docs/index.md</text>
</g>
<!-- root&#45;&gt;docs_index -->
<g id="edge3" class="edge">
<title>root&#45;&gt;docs_index</title>
<path fill="none" stroke="#475569" d="M1845,-223.85C1845,-210.49 1845,-191.64 1845,-176.01"/>
<polygon fill="#475569" stroke="#475569" points="1848.5,-175.82 1845,-165.82 1841.5,-175.82 1848.5,-175.82"/>
</g>
<!-- package_json -->
<g id="node14" class="node">
<title>package_json</title>
<path fill="#f5f3ff" stroke="#334155" d="M2236,-165.5C2236,-165.5 2106,-165.5 2106,-165.5 2100,-165.5 2094,-159.5 2094,-153.5 2094,-153.5 2094,-139.5 2094,-139.5 2094,-133.5 2100,-127.5 2106,-127.5 2106,-127.5 2236,-127.5 2236,-127.5 2242,-127.5 2248,-133.5 2248,-139.5 2248,-139.5 2248,-153.5 2248,-153.5 2248,-159.5 2242,-165.5 2236,-165.5"/>
<text text-anchor="middle" x="2171" y="-150.3" font-family="Helvetica,sans-Serif" font-size="14.00">package.json</text>
<text text-anchor="middle" x="2171" y="-135.3" font-family="Helvetica,sans-Serif" font-size="14.00">npm scripts + deps</text>
</g>
<!-- root&#45;&gt;package_json -->
<g id="edge4" class="edge">
<title>root&#45;&gt;package_json</title>
<path fill="none" stroke="#475569" d="M1924.06,-236.94C1981.89,-233.12 2054.94,-226.26 2083,-215 2106.8,-205.45 2129.66,-187.56 2146.11,-172.6"/>
<polygon fill="#475569" stroke="#475569" points="2148.74,-174.93 2153.65,-165.54 2143.96,-169.82 2148.74,-174.93"/>
</g>
<!-- dist -->
<g id="node20" class="node">
<title>dist</title>
<path fill="#fef2f2" stroke="#334155" d="M1156.5,-61.5C1156.5,-61.5 1043.5,-61.5 1043.5,-61.5 1037.5,-61.5 1031.5,-55.5 1031.5,-49.5 1031.5,-49.5 1031.5,-35.5 1031.5,-35.5 1031.5,-29.5 1037.5,-23.5 1043.5,-23.5 1043.5,-23.5 1156.5,-23.5 1156.5,-23.5 1162.5,-23.5 1168.5,-29.5 1168.5,-35.5 1168.5,-35.5 1168.5,-49.5 1168.5,-49.5 1168.5,-55.5 1162.5,-61.5 1156.5,-61.5"/>
<text text-anchor="middle" x="1100" y="-46.3" font-family="Helvetica,sans-Serif" font-size="14.00">dist/</text>
<text text-anchor="middle" x="1100" y="-31.3" font-family="Helvetica,sans-Serif" font-size="14.00">Vite client bundle</text>
</g>
<!-- root&#45;&gt;dist -->
<g id="edge5" class="edge">
<title>root&#45;&gt;dist</title>
<path fill="none" stroke="#475569" d="M1916.62,-223.74C1919.76,-221.2 1922.6,-218.31 1925,-215 1955.82,-172.57 1961.87,-134.29 1925,-97 1910.41,-82.24 1198.01,-93.98 1178,-88.5 1161.92,-84.1 1145.7,-75.55 1132.25,-67.08"/>
<polygon fill="#475569" stroke="#475569" points="1134.12,-64.12 1123.84,-61.57 1130.29,-69.98 1134.12,-64.12"/>
</g>
<!-- main_ts -->
<g id="node3" class="node">
<title>main_ts</title>
<path fill="#f8fafc" stroke="#334155" d="M1144.5,-165.5C1144.5,-165.5 1055.5,-165.5 1055.5,-165.5 1049.5,-165.5 1043.5,-159.5 1043.5,-153.5 1043.5,-153.5 1043.5,-139.5 1043.5,-139.5 1043.5,-133.5 1049.5,-127.5 1055.5,-127.5 1055.5,-127.5 1144.5,-127.5 1144.5,-127.5 1150.5,-127.5 1156.5,-133.5 1156.5,-139.5 1156.5,-139.5 1156.5,-153.5 1156.5,-153.5 1156.5,-159.5 1150.5,-165.5 1144.5,-165.5"/>
<text text-anchor="middle" x="1100" y="-150.3" font-family="Helvetica,sans-Serif" font-size="14.00">main.ts</text>
<text text-anchor="middle" x="1100" y="-135.3" font-family="Helvetica,sans-Serif" font-size="14.00">browser entry</text>
</g>
<!-- main_ts&#45;&gt;dist -->
<g id="edge12" class="edge">
<title>main_ts&#45;&gt;dist</title>
<path fill="none" stroke="#475569" d="M1100,-127.26C1100,-111.82 1100,-89.41 1100,-71.66"/>
<polygon fill="#475569" stroke="#475569" points="1103.5,-71.58 1100,-61.58 1096.5,-71.58 1103.5,-71.58"/>
</g>
<!-- server_ts -->
<g id="node4" class="node">
<title>server_ts</title>
<path fill="#f8fafc" stroke="#334155" d="M868,-165.5C868,-165.5 794,-165.5 794,-165.5 788,-165.5 782,-159.5 782,-153.5 782,-153.5 782,-139.5 782,-139.5 782,-133.5 788,-127.5 794,-127.5 794,-127.5 868,-127.5 868,-127.5 874,-127.5 880,-133.5 880,-139.5 880,-139.5 880,-153.5 880,-153.5 880,-159.5 874,-165.5 868,-165.5"/>
<text text-anchor="middle" x="831" y="-150.3" font-family="Helvetica,sans-Serif" font-size="14.00">server.ts</text>
<text text-anchor="middle" x="831" y="-135.3" font-family="Helvetica,sans-Serif" font-size="14.00">Express API</text>
</g>
<!-- dist_server -->
<g id="node21" class="node">
<title>dist_server</title>
<path fill="#fef2f2" stroke="#334155" d="M900.5,-61.5C900.5,-61.5 819.5,-61.5 819.5,-61.5 813.5,-61.5 807.5,-55.5 807.5,-49.5 807.5,-49.5 807.5,-35.5 807.5,-35.5 807.5,-29.5 813.5,-23.5 819.5,-23.5 819.5,-23.5 900.5,-23.5 900.5,-23.5 906.5,-23.5 912.5,-29.5 912.5,-35.5 912.5,-35.5 912.5,-49.5 912.5,-49.5 912.5,-55.5 906.5,-61.5 900.5,-61.5"/>
<text text-anchor="middle" x="860" y="-46.3" font-family="Helvetica,sans-Serif" font-size="14.00">dist&#45;server/</text>
<text text-anchor="middle" x="860" y="-31.3" font-family="Helvetica,sans-Serif" font-size="14.00">CLI/server JS</text>
</g>
<!-- server_ts&#45;&gt;dist_server -->
<g id="edge14" class="edge">
<title>server_ts&#45;&gt;dist_server</title>
<path fill="none" stroke="#475569" d="M836.18,-127.26C840.6,-111.74 847.01,-89.2 852.06,-71.41"/>
<polygon fill="#475569" stroke="#475569" points="855.49,-72.15 854.86,-61.58 848.76,-70.24 855.49,-72.15"/>
</g>
<!-- cli_ts -->
<g id="node5" class="node">
<title>cli_ts</title>
<path fill="#f8fafc" stroke="#334155" d="M752,-165.5C752,-165.5 656,-165.5 656,-165.5 650,-165.5 644,-159.5 644,-153.5 644,-153.5 644,-139.5 644,-139.5 644,-133.5 650,-127.5 656,-127.5 656,-127.5 752,-127.5 752,-127.5 758,-127.5 764,-133.5 764,-139.5 764,-139.5 764,-153.5 764,-153.5 764,-159.5 758,-165.5 752,-165.5"/>
<text text-anchor="middle" x="704" y="-150.3" font-family="Helvetica,sans-Serif" font-size="14.00">cli.ts</text>
<text text-anchor="middle" x="704" y="-135.3" font-family="Helvetica,sans-Serif" font-size="14.00">Node CLI entry</text>
</g>
<!-- cli_ts&#45;&gt;dist_server -->
<g id="edge15" class="edge">
<title>cli_ts&#45;&gt;dist_server</title>
<path fill="none" stroke="#475569" d="M728.98,-127.39C741.98,-118.11 758.2,-106.74 773,-97 788.48,-86.82 805.81,-76.03 820.91,-66.83"/>
<polygon fill="#475569" stroke="#475569" points="822.78,-69.8 829.52,-61.62 819.15,-63.81 822.78,-69.8"/>
</g>
<!-- index_html -->
<g id="node6" class="node">
<title>index_html</title>
<path fill="#f8fafc" stroke="#334155" d="M1013.5,-165.5C1013.5,-165.5 910.5,-165.5 910.5,-165.5 904.5,-165.5 898.5,-159.5 898.5,-153.5 898.5,-153.5 898.5,-139.5 898.5,-139.5 898.5,-133.5 904.5,-127.5 910.5,-127.5 910.5,-127.5 1013.5,-127.5 1013.5,-127.5 1019.5,-127.5 1025.5,-133.5 1025.5,-139.5 1025.5,-139.5 1025.5,-153.5 1025.5,-153.5 1025.5,-159.5 1019.5,-165.5 1013.5,-165.5"/>
<text text-anchor="middle" x="962" y="-150.3" font-family="Helvetica,sans-Serif" font-size="14.00">index.html</text>
<text text-anchor="middle" x="962" y="-135.3" font-family="Helvetica,sans-Serif" font-size="14.00">Vite HTML entry</text>
</g>
<!-- index_html&#45;&gt;dist -->
<g id="edge13" class="edge">
<title>index_html&#45;&gt;dist</title>
<path fill="none" stroke="#475569" d="M986.35,-127.5C1008.88,-110.85 1042.53,-85.98 1067.37,-67.62"/>
<polygon fill="#475569" stroke="#475569" points="1069.46,-70.42 1075.43,-61.66 1065.3,-64.79 1069.46,-70.42"/>
</g>
<!-- src_parse -->
<g id="node7" class="node">
<title>src_parse</title>
<path fill="#f8fafc" stroke="#334155" d="M613.5,-180.5C613.5,-180.5 506.5,-180.5 506.5,-180.5 500.5,-180.5 494.5,-174.5 494.5,-168.5 494.5,-168.5 494.5,-124.5 494.5,-124.5 494.5,-118.5 500.5,-112.5 506.5,-112.5 506.5,-112.5 613.5,-112.5 613.5,-112.5 619.5,-112.5 625.5,-118.5 625.5,-124.5 625.5,-124.5 625.5,-168.5 625.5,-168.5 625.5,-174.5 619.5,-180.5 613.5,-180.5"/>
<text text-anchor="middle" x="560" y="-165.3" font-family="Helvetica,sans-Serif" font-size="14.00">a3p&#45;parser/</text>
<text text-anchor="middle" x="560" y="-150.3" font-family="Helvetica,sans-Serif" font-size="14.00">a3p&#45;writer/</text>
<text text-anchor="middle" x="560" y="-135.3" font-family="Helvetica,sans-Serif" font-size="14.00">ast&#45;serialization/</text>
<text text-anchor="middle" x="560" y="-120.3" font-family="Helvetica,sans-Serif" font-size="14.00">serialization/</text>
</g>
<!-- src_runtime -->
<g id="node8" class="node">
<title>src_runtime</title>
<path fill="#f8fafc" stroke="#334155" d="M464,-188C464,-188 348,-188 348,-188 342,-188 336,-182 336,-176 336,-176 336,-117 336,-117 336,-111 342,-105 348,-105 348,-105 464,-105 464,-105 470,-105 476,-111 476,-117 476,-117 476,-176 476,-176 476,-182 470,-188 464,-188"/>
<text text-anchor="middle" x="406" y="-172.8" font-family="Helvetica,sans-Serif" font-size="14.00">animation/</text>
<text text-anchor="middle" x="406" y="-157.8" font-family="Helvetica,sans-Serif" font-size="14.00">entity&#45;impls/</text>
<text text-anchor="middle" x="406" y="-142.8" font-family="Helvetica,sans-Serif" font-size="14.00">render&#45;animation/</text>
<text text-anchor="middle" x="406" y="-127.8" font-family="Helvetica,sans-Serif" font-size="14.00">story&#45;api/</text>
<text text-anchor="middle" x="406" y="-112.8" font-family="Helvetica,sans-Serif" font-size="14.00">story&#45;api&#45;events/</text>
</g>
<!-- src_tooling -->
<g id="node9" class="node">
<title>src_tooling</title>
<path fill="#f8fafc" stroke="#334155" d="M306,-188C306,-188 186,-188 186,-188 180,-188 174,-182 174,-176 174,-176 174,-117 174,-117 174,-111 180,-105 186,-105 186,-105 306,-105 306,-105 312,-105 318,-111 318,-117 318,-117 318,-176 318,-176 318,-182 312,-188 306,-188"/>
<text text-anchor="middle" x="246" y="-172.8" font-family="Helvetica,sans-Serif" font-size="14.00">code&#45;generation/</text>
<text text-anchor="middle" x="246" y="-157.8" font-family="Helvetica,sans-Serif" font-size="14.00">grading&#45;pipeline/</text>
<text text-anchor="middle" x="246" y="-142.8" font-family="Helvetica,sans-Serif" font-size="14.00">hooks/</text>
<text text-anchor="middle" x="246" y="-127.8" font-family="Helvetica,sans-Serif" font-size="14.00">model&#45;resources/</text>
<text text-anchor="middle" x="246" y="-112.8" font-family="Helvetica,sans-Serif" font-size="14.00">project&#45;properties/</text>
</g>
<!-- src_infra -->
<g id="node10" class="node">
<title>src_infra</title>
<path fill="#f8fafc" stroke="#334155" d="M144,-188C144,-188 28,-188 28,-188 22,-188 16,-182 16,-176 16,-176 16,-117 16,-117 16,-111 22,-105 28,-105 28,-105 144,-105 144,-105 150,-105 156,-111 156,-117 156,-117 156,-176 156,-176 156,-182 150,-188 144,-188"/>
<text text-anchor="middle" x="86" y="-172.8" font-family="Helvetica,sans-Serif" font-size="14.00">project&#45;validation/</text>
<text text-anchor="middle" x="86" y="-157.8" font-family="Helvetica,sans-Serif" font-size="14.00">refactoring/</text>
<text text-anchor="middle" x="86" y="-142.8" font-family="Helvetica,sans-Serif" font-size="14.00">search/</text>
<text text-anchor="middle" x="86" y="-127.8" font-family="Helvetica,sans-Serif" font-size="14.00">tweedle&#45;compiler/</text>
<text text-anchor="middle" x="86" y="-112.8" font-family="Helvetica,sans-Serif" font-size="14.00">type&#45;browser/</text>
</g>
<!-- coverage -->
<g id="node22" class="node">
<title>coverage</title>
<path fill="#fef2f2" stroke="#334155" d="M1259.5,-60.5C1259.5,-60.5 1198.5,-60.5 1198.5,-60.5 1192.5,-60.5 1186.5,-54.5 1186.5,-48.5 1186.5,-48.5 1186.5,-36.5 1186.5,-36.5 1186.5,-30.5 1192.5,-24.5 1198.5,-24.5 1198.5,-24.5 1259.5,-24.5 1259.5,-24.5 1265.5,-24.5 1271.5,-30.5 1271.5,-36.5 1271.5,-36.5 1271.5,-48.5 1271.5,-48.5 1271.5,-54.5 1265.5,-60.5 1259.5,-60.5"/>
<text text-anchor="middle" x="1229" y="-38.8" font-family="Helvetica,sans-Serif" font-size="14.00">coverage/</text>
</g>
<!-- tests&#45;&gt;coverage -->
<g id="edge11" class="edge">
<title>tests&#45;&gt;coverage</title>
<path fill="none" stroke="#475569" d="M1352.72,-127.44C1330.62,-117.25 1303.55,-103.55 1281,-88.5 1271.82,-82.37 1262.49,-74.8 1254.31,-67.63"/>
<polygon fill="#475569" stroke="#475569" points="1256.64,-65.02 1246.87,-60.93 1251.96,-70.22 1256.64,-65.02"/>
</g>
<!-- site -->
<g id="node24" class="node">
<title>site</title>
<path fill="#fef2f2" stroke="#334155" d="M1332,-60.5C1332,-60.5 1302,-60.5 1302,-60.5 1296,-60.5 1290,-54.5 1290,-48.5 1290,-48.5 1290,-36.5 1290,-36.5 1290,-30.5 1296,-24.5 1302,-24.5 1302,-24.5 1332,-24.5 1332,-24.5 1338,-24.5 1344,-30.5 1344,-36.5 1344,-36.5 1344,-48.5 1344,-48.5 1344,-54.5 1338,-60.5 1332,-60.5"/>
<text text-anchor="middle" x="1317" y="-38.8" font-family="Helvetica,sans-Serif" font-size="14.00">site/</text>
</g>
<!-- docs_index&#45;&gt;site -->
<g id="edge10" class="edge">
<title>docs_index&#45;&gt;site</title>
<path fill="none" stroke="#475569" d="M1822.48,-127.28C1808.06,-116.62 1788.46,-103.95 1769,-97 1692.68,-69.75 1448.53,-51.83 1354.46,-45.77"/>
<polygon fill="#475569" stroke="#475569" points="1354.47,-42.27 1344.27,-45.13 1354.02,-49.25 1354.47,-42.27"/>
</g>
<!-- atlas_docs -->
<g id="node13" class="node">
<title>atlas_docs</title>
<path fill="#fffbeb" stroke="#334155" d="M1747.5,-165.5C1747.5,-165.5 1524.5,-165.5 1524.5,-165.5 1518.5,-165.5 1512.5,-159.5 1512.5,-153.5 1512.5,-153.5 1512.5,-139.5 1512.5,-139.5 1512.5,-133.5 1518.5,-127.5 1524.5,-127.5 1524.5,-127.5 1747.5,-127.5 1747.5,-127.5 1753.5,-127.5 1759.5,-133.5 1759.5,-139.5 1759.5,-139.5 1759.5,-153.5 1759.5,-153.5 1759.5,-159.5 1753.5,-165.5 1747.5,-165.5"/>
<text text-anchor="middle" x="1636" y="-150.3" font-family="Helvetica,sans-Serif" font-size="14.00">atlas/</text>
<text text-anchor="middle" x="1636" y="-135.3" font-family="Helvetica,sans-Serif" font-size="14.00">existing index + subsystem&#45;map</text>
</g>
<!-- tsconfig -->
<g id="node15" class="node">
<title>tsconfig</title>
<path fill="#f5f3ff" stroke="#334155" d="M2064.5,-61.5C2064.5,-61.5 1979.5,-61.5 1979.5,-61.5 1973.5,-61.5 1967.5,-55.5 1967.5,-49.5 1967.5,-49.5 1967.5,-35.5 1967.5,-35.5 1967.5,-29.5 1973.5,-23.5 1979.5,-23.5 1979.5,-23.5 2064.5,-23.5 2064.5,-23.5 2070.5,-23.5 2076.5,-29.5 2076.5,-35.5 2076.5,-35.5 2076.5,-49.5 2076.5,-49.5 2076.5,-55.5 2070.5,-61.5 2064.5,-61.5"/>
<text text-anchor="middle" x="2022" y="-46.3" font-family="Helvetica,sans-Serif" font-size="14.00">tsconfig.json</text>
<text text-anchor="middle" x="2022" y="-31.3" font-family="Helvetica,sans-Serif" font-size="14.00">client + tests</text>
</g>
<!-- package_json&#45;&gt;tsconfig -->
<g id="edge7" class="edge">
<title>package_json&#45;&gt;tsconfig</title>
<path fill="none" stroke="#475569" d="M2143.72,-127.43C2127,-116.29 2105.19,-101.68 2086,-88.5 2076.13,-81.72 2065.46,-74.27 2055.72,-67.42"/>
<polygon fill="#475569" stroke="#475569" points="2057.64,-64.49 2047.45,-61.59 2053.6,-70.21 2057.64,-64.49"/>
</g>
<!-- tsconfig_server -->
<g id="node16" class="node">
<title>tsconfig_server</title>
<path fill="#f5f3ff" stroke="#334155" d="M2235,-61.5C2235,-61.5 2107,-61.5 2107,-61.5 2101,-61.5 2095,-55.5 2095,-49.5 2095,-49.5 2095,-35.5 2095,-35.5 2095,-29.5 2101,-23.5 2107,-23.5 2107,-23.5 2235,-23.5 2235,-23.5 2241,-23.5 2247,-29.5 2247,-35.5 2247,-35.5 2247,-49.5 2247,-49.5 2247,-55.5 2241,-61.5 2235,-61.5"/>
<text text-anchor="middle" x="2171" y="-46.3" font-family="Helvetica,sans-Serif" font-size="14.00">tsconfig.server.json</text>
<text text-anchor="middle" x="2171" y="-31.3" font-family="Helvetica,sans-Serif" font-size="14.00">server emit</text>
</g>
<!-- package_json&#45;&gt;tsconfig_server -->
<g id="edge8" class="edge">
<title>package_json&#45;&gt;tsconfig_server</title>
<path fill="none" stroke="#475569" d="M2171,-127.26C2171,-111.82 2171,-89.41 2171,-71.66"/>
<polygon fill="#475569" stroke="#475569" points="2174.5,-71.58 2171,-61.58 2167.5,-71.58 2174.5,-71.58"/>
</g>
<!-- vite_config -->
<g id="node17" class="node">
<title>vite_config</title>
<path fill="#f5f3ff" stroke="#334155" d="M2360.5,-69C2360.5,-69 2277.5,-69 2277.5,-69 2271.5,-69 2265.5,-63 2265.5,-57 2265.5,-57 2265.5,-28 2265.5,-28 2265.5,-22 2271.5,-16 2277.5,-16 2277.5,-16 2360.5,-16 2360.5,-16 2366.5,-16 2372.5,-22 2372.5,-28 2372.5,-28 2372.5,-57 2372.5,-57 2372.5,-63 2366.5,-69 2360.5,-69"/>
<text text-anchor="middle" x="2319" y="-53.8" font-family="Helvetica,sans-Serif" font-size="14.00">vite.config.ts</text>
<text text-anchor="middle" x="2319" y="-38.8" font-family="Helvetica,sans-Serif" font-size="14.00">root=src</text>
<text text-anchor="middle" x="2319" y="-23.8" font-family="Helvetica,sans-Serif" font-size="14.00">outDir=dist</text>
</g>
<!-- package_json&#45;&gt;vite_config -->
<g id="edge6" class="edge">
<title>package_json&#45;&gt;vite_config</title>
<path fill="none" stroke="#475569" d="M2198.32,-127.48C2215.05,-116.36 2236.86,-101.75 2256,-88.5 2262.15,-84.24 2268.61,-79.7 2274.95,-75.21"/>
<polygon fill="#475569" stroke="#475569" points="2277.36,-77.8 2283.48,-69.15 2273.3,-72.09 2277.36,-77.8"/>
</g>
<!-- lockfile -->
<g id="node19" class="node">
<title>lockfile</title>
<path fill="#f5f3ff" stroke="#334155" d="M2519,-60.5C2519,-60.5 2403,-60.5 2403,-60.5 2397,-60.5 2391,-54.5 2391,-48.5 2391,-48.5 2391,-36.5 2391,-36.5 2391,-30.5 2397,-24.5 2403,-24.5 2403,-24.5 2519,-24.5 2519,-24.5 2525,-24.5 2531,-30.5 2531,-36.5 2531,-36.5 2531,-48.5 2531,-48.5 2531,-54.5 2525,-60.5 2519,-60.5"/>
<text text-anchor="middle" x="2461" y="-38.8" font-family="Helvetica,sans-Serif" font-size="14.00">package&#45;lock.json</text>
</g>
<!-- package_json&#45;&gt;lockfile -->
<g id="edge9" class="edge">
<title>package_json&#45;&gt;lockfile</title>
<path fill="none" stroke="#475569" d="M2248.23,-129.61C2288.86,-120.02 2339.02,-106.21 2382,-88.5 2396.94,-82.34 2412.57,-73.92 2425.94,-66.02"/>
<polygon fill="#475569" stroke="#475569" points="2428.05,-68.83 2434.8,-60.67 2424.43,-62.84 2428.05,-68.83"/>
</g>
<!-- mkdocs -->
<g id="node18" class="node">
<title>mkdocs</title>
<path fill="#f5f3ff" stroke="#334155" d="M2061.5,-165.5C2061.5,-165.5 1984.5,-165.5 1984.5,-165.5 1978.5,-165.5 1972.5,-159.5 1972.5,-153.5 1972.5,-153.5 1972.5,-139.5 1972.5,-139.5 1972.5,-133.5 1978.5,-127.5 1984.5,-127.5 1984.5,-127.5 2061.5,-127.5 2061.5,-127.5 2067.5,-127.5 2073.5,-133.5 2073.5,-139.5 2073.5,-139.5 2073.5,-153.5 2073.5,-153.5 2073.5,-159.5 2067.5,-165.5 2061.5,-165.5"/>
<text text-anchor="middle" x="2023" y="-150.3" font-family="Helvetica,sans-Serif" font-size="14.00">mkdocs.yml</text>
<text text-anchor="middle" x="2023" y="-135.3" font-family="Helvetica,sans-Serif" font-size="14.00">docs site</text>
</g>
<!-- evidence -->
<g id="node23" class="node">
<title>evidence</title>
<path fill="#fef2f2" stroke="#334155" d="M1001.5,-60.5C1001.5,-60.5 942.5,-60.5 942.5,-60.5 936.5,-60.5 930.5,-54.5 930.5,-48.5 930.5,-48.5 930.5,-36.5 930.5,-36.5 930.5,-30.5 936.5,-24.5 942.5,-24.5 942.5,-24.5 1001.5,-24.5 1001.5,-24.5 1007.5,-24.5 1013.5,-30.5 1013.5,-36.5 1013.5,-36.5 1013.5,-48.5 1013.5,-48.5 1013.5,-54.5 1007.5,-60.5 1001.5,-60.5"/>
<text text-anchor="middle" x="972" y="-38.8" font-family="Helvetica,sans-Serif" font-size="14.00">evidence/</text>
</g>
</g>
</svg>
