<?xml version="1.0" encoding="UTF-8" standalone="no"?>
<!DOCTYPE svg PUBLIC "-//W3C//DTD SVG 1.1//EN"
 "http://www.w3.org/Graphics/SVG/1.1/DTD/svg11.dtd">
<!-- Generated by graphviz version 2.42.4 (0)
 -->
<!-- Title: service_components Pages: 1 -->
<svg width="3110pt" height="756pt"
 viewBox="0.00 0.00 3110.00 756.00" xmlns="http://www.w3.org/2000/svg" xmlns:xlink="http://www.w3.org/1999/xlink">
<g id="graph0" class="graph" transform="scale(1 1) rotate(0) translate(4 752)">
<title>service_components</title>
<polygon fill="white" stroke="transparent" points="-4,4 -4,-752 3106,-752 3106,4 -4,4"/>
<g id="clust1" class="cluster">
<title>cluster_tweedle</title>
<polygon fill="white" stroke="#bfdbfe" points="1470,-205 1470,-338 2496.5,-338 2496.5,-205 1470,-205"/>
<text text-anchor="middle" x="1983.25" y="-322.8" font-family="Helvetica,sans-Serif" font-size="14.00">Tweedle subsystem</text>
</g>
<g id="clust2" class="cluster">
<title>cluster_ast</title>
<polygon fill="white" stroke="#c7d2fe" points="264,-261 264,-378 1283,-378 1283,-261 264,-261"/>
<text text-anchor="middle" x="773.5" y="-362.8" font-family="Helvetica,sans-Serif" font-size="14.00">AST subsystem</text>
</g>
<g id="clust3" class="cluster">
<title>cluster_story</title>
<polygon fill="white" stroke="#fbcfe8" points="2040,-8 2040,-197 2894,-197 2894,-8 2040,-8"/>
<text text-anchor="middle" x="2467" y="-181.8" font-family="Helvetica,sans-Serif" font-size="14.00">Story API</text>
</g>
<g id="clust4" class="cluster">
<title>cluster_renderer</title>
<polygon fill="white" stroke="#fde68a" points="2040.5,-551 2040.5,-740 3094,-740 3094,-551 2040.5,-551"/>
<text text-anchor="middle" x="2567.25" y="-724.8" font-family="Helvetica,sans-Serif" font-size="14.00">Renderer</text>
</g>
<g id="clust5" class="cluster">
<title>cluster_ide</title>
<polygon fill="white" stroke="#a7f3d0" points="8,-62 8,-253 1223,-253 1223,-62 8,-62"/>
<text text-anchor="middle" x="615.5" y="-237.8" font-family="Helvetica,sans-Serif" font-size="14.00">IDE</text>
</g>
<g id="clust6" class="cluster">
<title>cluster_infra</title>
<polygon fill="white" stroke="#e9d5ff" points="393,-386 393,-543 2185,-543 2185,-386 393,-386"/>
<text text-anchor="middle" x="1289" y="-527.8" font-family="Helvetica,sans-Serif" font-size="14.00">Infrastructure</text>
</g>
<!-- tw_parser -->
<g id="node1" class="node">
<title>tw_parser</title>
<path fill="#eff6ff" stroke="black" d="M1576,-307C1576,-307 1490,-307 1490,-307 1484,-307 1478,-301 1478,-295 1478,-295 1478,-281 1478,-281 1478,-275 1484,-269 1490,-269 1490,-269 1576,-269 1576,-269 1582,-269 1588,-275 1588,-281 1588,-281 1588,-295 1588,-295 1588,-301 1582,-307 1576,-307"/>
<text text-anchor="middle" x="1533" y="-291.8" font-family="Helvetica,sans-Serif" font-size="14.00">parser</text>
<text text-anchor="middle" x="1533" y="-276.8" font-family="Helvetica,sans-Serif" font-size="14.00">parseTweedle</text>
</g>
<!-- tw_compiler -->
<g id="node2" class="node">
<title>tw_compiler</title>
<path fill="#eff6ff" stroke="black" d="M2187.5,-307C2187.5,-307 2077.5,-307 2077.5,-307 2071.5,-307 2065.5,-301 2065.5,-295 2065.5,-295 2065.5,-281 2065.5,-281 2065.5,-275 2071.5,-269 2077.5,-269 2077.5,-269 2187.5,-269 2187.5,-269 2193.5,-269 2199.5,-275 2199.5,-281 2199.5,-281 2199.5,-295 2199.5,-295 2199.5,-301 2193.5,-307 2187.5,-307"/>
<text text-anchor="middle" x="2132.5" y="-291.8" font-family="Helvetica,sans-Serif" font-size="14.00">compiler</text>
<text text-anchor="middle" x="2132.5" y="-276.8" font-family="Helvetica,sans-Serif" font-size="14.00">TweedleCompiler</text>
</g>
<!-- tw_parser&#45;&gt;tw_compiler -->
<g id="edge1" class="edge">
<title>tw_parser&#45;&gt;tw_compiler</title>
<path fill="none" stroke="#555555" d="M1588.18,-278.76C1676.83,-264.99 1858.33,-242.5 2011,-260 2025.48,-261.66 2040.74,-264.41 2055.36,-267.55"/>
<polygon fill="#555555" stroke="#555555" points="2054.84,-271.02 2065.37,-269.78 2056.37,-264.18 2054.84,-271.02"/>
</g>
<!-- tw_types -->
<g id="node4" class="node">
<title>tw_types</title>
<path fill="#eff6ff" stroke="black" d="M1999,-307C1999,-307 1865,-307 1865,-307 1859,-307 1853,-301 1853,-295 1853,-295 1853,-281 1853,-281 1853,-275 1859,-269 1865,-269 1865,-269 1999,-269 1999,-269 2005,-269 2011,-275 2011,-281 2011,-281 2011,-295 2011,-295 2011,-301 2005,-307 1999,-307"/>
<text text-anchor="middle" x="1932" y="-291.8" font-family="Helvetica,sans-Serif" font-size="14.00">type&#45;system</text>
<text text-anchor="middle" x="1932" y="-276.8" font-family="Helvetica,sans-Serif" font-size="14.00">createTypeHierarchy</text>
</g>
<!-- tw_parser&#45;&gt;tw_types -->
<g id="edge2" class="edge">
<title>tw_parser&#45;&gt;tw_types</title>
<path fill="none" stroke="#555555" d="M1588.37,-288C1653.81,-288 1764.6,-288 1842.44,-288"/>
<polygon fill="#555555" stroke="#555555" points="1842.72,-291.5 1852.72,-288 1842.72,-284.5 1842.72,-291.5"/>
</g>
<!-- tw_vm -->
<g id="node3" class="node">
<title>tw_vm</title>
<path fill="#eff6ff" stroke="black" d="M2476.5,-279C2476.5,-279 2383.5,-279 2383.5,-279 2377.5,-279 2371.5,-273 2371.5,-267 2371.5,-267 2371.5,-253 2371.5,-253 2371.5,-247 2377.5,-241 2383.5,-241 2383.5,-241 2476.5,-241 2476.5,-241 2482.5,-241 2488.5,-247 2488.5,-253 2488.5,-253 2488.5,-267 2488.5,-267 2488.5,-273 2482.5,-279 2476.5,-279"/>
<text text-anchor="middle" x="2430" y="-263.8" font-family="Helvetica,sans-Serif" font-size="14.00">vm</text>
<text text-anchor="middle" x="2430" y="-248.8" font-family="Helvetica,sans-Serif" font-size="14.00">executeProject</text>
</g>
<!-- tw_compiler&#45;&gt;tw_vm -->
<g id="edge4" class="edge">
<title>tw_compiler&#45;&gt;tw_vm</title>
<path fill="none" stroke="#555555" d="M2199.82,-281.72C2247.95,-277.16 2312.86,-271.01 2361.31,-266.41"/>
<polygon fill="#555555" stroke="#555555" points="2361.76,-269.89 2371.38,-265.46 2361.1,-262.92 2361.76,-269.89"/>
</g>
<!-- story_beh -->
<g id="node15" class="node">
<title>story_beh</title>
<path fill="#fdf2f8" stroke="black" d="M2874,-138C2874,-138 2768,-138 2768,-138 2762,-138 2756,-132 2756,-126 2756,-126 2756,-112 2756,-112 2756,-106 2762,-100 2768,-100 2768,-100 2874,-100 2874,-100 2880,-100 2886,-106 2886,-112 2886,-112 2886,-126 2886,-126 2886,-132 2880,-138 2874,-138"/>
<text text-anchor="middle" x="2821" y="-122.8" font-family="Helvetica,sans-Serif" font-size="14.00">behaviors</text>
<text text-anchor="middle" x="2821" y="-107.8" font-family="Helvetica,sans-Serif" font-size="14.00">entity&#45;behaviors</text>
</g>
<!-- tw_vm&#45;&gt;story_beh -->
<g id="edge40" class="edge">
<title>tw_vm&#45;&gt;story_beh</title>
<path fill="none" stroke="#555555" d="M2488.59,-245.97C2541.3,-232.43 2621.05,-210.17 2688,-184 2718.3,-172.16 2751.12,-156.01 2776.46,-142.77"/>
<polygon fill="#555555" stroke="#555555" points="2778.22,-145.8 2785.44,-138.04 2774.96,-139.61 2778.22,-145.8"/>
<text text-anchor="middle" x="2608" y="-238.8" font-family="Helvetica,sans-Serif" font-size="14.00">runtime calls story ops</text>
</g>
<!-- tw_types&#45;&gt;tw_compiler -->
<g id="edge3" class="edge">
<title>tw_types&#45;&gt;tw_compiler</title>
<path fill="none" stroke="#555555" d="M2011.17,-288C2025.57,-288 2040.6,-288 2054.95,-288"/>
<polygon fill="#555555" stroke="#555555" points="2055.27,-291.5 2065.27,-288 2055.27,-284.5 2055.27,-291.5"/>
</g>
<!-- tw_stdlib -->
<g id="node5" class="node">
<title>tw_stdlib</title>
<path fill="#eff6ff" stroke="black" d="M2177.5,-251C2177.5,-251 2087.5,-251 2087.5,-251 2081.5,-251 2075.5,-245 2075.5,-239 2075.5,-239 2075.5,-225 2075.5,-225 2075.5,-219 2081.5,-213 2087.5,-213 2087.5,-213 2177.5,-213 2177.5,-213 2183.5,-213 2189.5,-219 2189.5,-225 2189.5,-225 2189.5,-239 2189.5,-239 2189.5,-245 2183.5,-251 2177.5,-251"/>
<text text-anchor="middle" x="2132.5" y="-235.8" font-family="Helvetica,sans-Serif" font-size="14.00">stdlib</text>
<text text-anchor="middle" x="2132.5" y="-220.8" font-family="Helvetica,sans-Serif" font-size="14.00">tweedle&#45;stdlib</text>
</g>
<!-- tw_stdlib&#45;&gt;tw_vm -->
<g id="edge5" class="edge">
<title>tw_stdlib&#45;&gt;tw_vm</title>
<path fill="none" stroke="#555555" d="M2189.78,-237.33C2238.6,-241.96 2309.39,-248.67 2361.3,-253.59"/>
<polygon fill="#555555" stroke="#555555" points="2361.13,-257.09 2371.42,-254.54 2361.8,-250.12 2361.13,-257.09"/>
</g>
<!-- ast_nodes -->
<g id="node6" class="node">
<title>ast_nodes</title>
<path fill="#eef2ff" stroke="black" d="M352,-345C352,-345 284,-345 284,-345 278,-345 272,-339 272,-333 272,-333 272,-319 272,-319 272,-313 278,-307 284,-307 284,-307 352,-307 352,-307 358,-307 364,-313 364,-319 364,-319 364,-333 364,-333 364,-339 358,-345 352,-345"/>
<text text-anchor="middle" x="318" y="-329.8" font-family="Helvetica,sans-Serif" font-size="14.00">nodes</text>
<text text-anchor="middle" x="318" y="-314.8" font-family="Helvetica,sans-Serif" font-size="14.00">ast&#45;nodes*</text>
</g>
<!-- ast_ser -->
<g id="node7" class="node">
<title>ast_ser</title>
<path fill="#eef2ff" stroke="black" d="M541.5,-307C541.5,-307 439.5,-307 439.5,-307 433.5,-307 427.5,-301 427.5,-295 427.5,-295 427.5,-281 427.5,-281 427.5,-275 433.5,-269 439.5,-269 439.5,-269 541.5,-269 541.5,-269 547.5,-269 553.5,-275 553.5,-281 553.5,-281 553.5,-295 553.5,-295 553.5,-301 547.5,-307 541.5,-307"/>
<text text-anchor="middle" x="490.5" y="-291.8" font-family="Helvetica,sans-Serif" font-size="14.00">serialization</text>
<text text-anchor="middle" x="490.5" y="-276.8" font-family="Helvetica,sans-Serif" font-size="14.00">ast&#45;serialization</text>
</g>
<!-- ast_nodes&#45;&gt;ast_ser -->
<g id="edge6" class="edge">
<title>ast_nodes&#45;&gt;ast_ser</title>
<path fill="none" stroke="#555555" d="M364.24,-315.92C380.56,-312.28 399.4,-308.08 417.44,-304.06"/>
<polygon fill="#555555" stroke="#555555" points="418.35,-307.44 427.35,-301.85 416.83,-300.61 418.35,-307.44"/>
</g>
<!-- ast_man -->
<g id="node8" class="node">
<title>ast_man</title>
<path fill="#eef2ff" stroke="black" d="M889,-308C889,-308 779,-308 779,-308 773,-308 767,-302 767,-296 767,-296 767,-282 767,-282 767,-276 773,-270 779,-270 779,-270 889,-270 889,-270 895,-270 901,-276 901,-282 901,-282 901,-296 901,-296 901,-302 895,-308 889,-308"/>
<text text-anchor="middle" x="834" y="-292.8" font-family="Helvetica,sans-Serif" font-size="14.00">manipulation</text>
<text text-anchor="middle" x="834" y="-277.8" font-family="Helvetica,sans-Serif" font-size="14.00">ast&#45;manipulation</text>
</g>
<!-- ast_nodes&#45;&gt;ast_man -->
<g id="edge7" class="edge">
<title>ast_nodes&#45;&gt;ast_man</title>
<path fill="none" stroke="#555555" d="M364.01,-329.38C416.58,-332.16 505.8,-333.24 580,-316 588.53,-314.02 589.52,-310.16 598,-308 650.01,-294.75 710.4,-290.09 756.93,-288.69"/>
<polygon fill="#555555" stroke="#555555" points="757.04,-292.19 766.94,-288.44 756.86,-285.19 757.04,-292.19"/>
</g>
<!-- ast_query -->
<g id="node9" class="node">
<title>ast_query</title>
<path fill="#eef2ff" stroke="black" d="M669,-347C669,-347 610,-347 610,-347 604,-347 598,-341 598,-335 598,-335 598,-321 598,-321 598,-315 604,-309 610,-309 610,-309 669,-309 669,-309 675,-309 681,-315 681,-321 681,-321 681,-335 681,-335 681,-341 675,-347 669,-347"/>
<text text-anchor="middle" x="639.5" y="-331.8" font-family="Helvetica,sans-Serif" font-size="14.00">query</text>
<text text-anchor="middle" x="639.5" y="-316.8" font-family="Helvetica,sans-Serif" font-size="14.00">ast&#45;query</text>
</g>
<!-- ast_nodes&#45;&gt;ast_query -->
<g id="edge8" class="edge">
<title>ast_nodes&#45;&gt;ast_query</title>
<path fill="none" stroke="#555555" d="M364.06,-330.01C370.08,-330.42 376.19,-330.77 382,-331 469.93,-334.48 492.03,-333.25 580,-331 582.54,-330.94 585.13,-330.85 587.75,-330.76"/>
<polygon fill="#555555" stroke="#555555" points="588.06,-334.25 597.91,-330.35 587.78,-327.26 588.06,-334.25"/>
</g>
<!-- ast_ser&#45;&gt;ast_man -->
<g id="edge9" class="edge">
<title>ast_ser&#45;&gt;ast_man</title>
<path fill="none" stroke="#555555" d="M553.74,-288.18C610.75,-288.35 695.33,-288.6 756.45,-288.78"/>
<polygon fill="#555555" stroke="#555555" points="756.81,-292.28 766.82,-288.81 756.83,-285.28 756.81,-292.28"/>
</g>
<!-- ast_editor -->
<g id="node10" class="node">
<title>ast_editor</title>
<path fill="#eef2ff" stroke="black" d="M1263,-308C1263,-308 1075,-308 1075,-308 1069,-308 1063,-302 1063,-296 1063,-296 1063,-282 1063,-282 1063,-276 1069,-270 1075,-270 1075,-270 1263,-270 1263,-270 1269,-270 1275,-276 1275,-282 1275,-282 1275,-296 1275,-296 1275,-302 1269,-308 1263,-308"/>
<text text-anchor="middle" x="1169" y="-292.8" font-family="Helvetica,sans-Serif" font-size="14.00">editor</text>
<text text-anchor="middle" x="1169" y="-277.8" font-family="Helvetica,sans-Serif" font-size="14.00">ast&#45;editor / procedure&#45;editor</text>
</g>
<!-- ast_man&#45;&gt;ast_editor -->
<g id="edge10" class="edge">
<title>ast_man&#45;&gt;ast_editor</title>
<path fill="none" stroke="#555555" d="M901.19,-289C944.49,-289 1002.22,-289 1052.9,-289"/>
<polygon fill="#555555" stroke="#555555" points="1052.94,-292.5 1062.94,-289 1052.94,-285.5 1052.94,-292.5"/>
</g>
<!-- ast_query&#45;&gt;ast_editor -->
<g id="edge11" class="edge">
<title>ast_query&#45;&gt;ast_editor</title>
<path fill="none" stroke="#555555" d="M681.04,-328.03C743.15,-327.75 865.53,-325.99 969,-317 996.24,-314.63 1025.46,-311.09 1052.88,-307.32"/>
<polygon fill="#555555" stroke="#555555" points="1053.48,-310.77 1062.9,-305.92 1052.51,-303.83 1053.48,-310.77"/>
</g>
<!-- ast_editor&#45;&gt;tw_parser -->
<g id="edge38" class="edge">
<title>ast_editor&#45;&gt;tw_parser</title>
<path fill="none" stroke="#555555" d="M1275.19,-288.71C1337.56,-288.54 1414.58,-288.32 1467.91,-288.18"/>
<polygon fill="#555555" stroke="#555555" points="1467.93,-291.68 1477.92,-288.15 1467.91,-284.68 1467.93,-291.68"/>
<text text-anchor="middle" x="1362.5" y="-291.8" font-family="Helvetica,sans-Serif" font-size="14.00">AST &#45;&gt; source</text>
</g>
<!-- ast_editor&#45;&gt;tw_compiler -->
<g id="edge39" class="edge">
<title>ast_editor&#45;&gt;tw_compiler</title>
<path fill="none" stroke="#555555" d="M1275.27,-305.03C1281.26,-305.75 1287.2,-306.41 1293,-307 1362.53,-314.07 1380.14,-314 1450,-316 1699.23,-323.14 1763.29,-344.4 2011,-316 2025.48,-314.34 2040.74,-311.59 2055.36,-308.45"/>
<polygon fill="#555555" stroke="#555555" points="2056.37,-311.82 2065.37,-306.22 2054.84,-304.98 2056.37,-311.82"/>
<text text-anchor="middle" x="1734.5" y="-333.8" font-family="Helvetica,sans-Serif" font-size="14.00">authoring &#45;&gt; executable AST</text>
</g>
<!-- story_entities -->
<g id="node11" class="node">
<title>story_entities</title>
<path fill="#fdf2f8" stroke="black" d="M2205,-106C2205,-106 2060,-106 2060,-106 2054,-106 2048,-100 2048,-94 2048,-94 2048,-80 2048,-80 2048,-74 2054,-68 2060,-68 2060,-68 2205,-68 2205,-68 2211,-68 2217,-74 2217,-80 2217,-80 2217,-94 2217,-94 2217,-100 2211,-106 2205,-106"/>
<text text-anchor="middle" x="2132.5" y="-90.8" font-family="Helvetica,sans-Serif" font-size="14.00">entities</text>
<text text-anchor="middle" x="2132.5" y="-75.8" font-family="Helvetica,sans-Serif" font-size="14.00">entity&#45;impls / lifecycle</text>
</g>
<!-- story_anim -->
<g id="node12" class="node">
<title>story_anim</title>
<path fill="#fdf2f8" stroke="black" d="M2498,-54C2498,-54 2362,-54 2362,-54 2356,-54 2350,-48 2350,-42 2350,-42 2350,-28 2350,-28 2350,-22 2356,-16 2362,-16 2362,-16 2498,-16 2498,-16 2504,-16 2510,-22 2510,-28 2510,-28 2510,-42 2510,-42 2510,-48 2504,-54 2498,-54"/>
<text text-anchor="middle" x="2430" y="-38.8" font-family="Helvetica,sans-Serif" font-size="14.00">animations</text>
<text text-anchor="middle" x="2430" y="-23.8" font-family="Helvetica,sans-Serif" font-size="14.00">story&#45;api&#45;animations</text>
</g>
<!-- story_entities&#45;&gt;story_anim -->
<g id="edge12" class="edge">
<title>story_entities&#45;&gt;story_anim</title>
<path fill="none" stroke="#555555" d="M2217.39,-72.24C2255.61,-65.51 2300.88,-57.54 2339.73,-50.71"/>
<polygon fill="#555555" stroke="#555555" points="2340.74,-54.09 2349.98,-48.91 2339.53,-47.19 2340.74,-54.09"/>
</g>
<!-- story_events -->
<g id="node13" class="node">
<title>story_events</title>
<path fill="#fdf2f8" stroke="black" d="M2483,-110C2483,-110 2377,-110 2377,-110 2371,-110 2365,-104 2365,-98 2365,-98 2365,-84 2365,-84 2365,-78 2371,-72 2377,-72 2377,-72 2483,-72 2483,-72 2489,-72 2495,-78 2495,-84 2495,-84 2495,-98 2495,-98 2495,-104 2489,-110 2483,-110"/>
<text text-anchor="middle" x="2430" y="-94.8" font-family="Helvetica,sans-Serif" font-size="14.00">events</text>
<text text-anchor="middle" x="2430" y="-79.8" font-family="Helvetica,sans-Serif" font-size="14.00">story&#45;api&#45;events</text>
</g>
<!-- story_entities&#45;&gt;story_events -->
<g id="edge13" class="edge">
<title>story_entities&#45;&gt;story_events</title>
<path fill="none" stroke="#555555" d="M2217.39,-88.14C2260.58,-88.72 2312.79,-89.43 2354.54,-89.99"/>
<polygon fill="#555555" stroke="#555555" points="2354.6,-93.49 2364.64,-90.13 2354.69,-86.49 2354.6,-93.49"/>
</g>
<!-- story_props -->
<g id="node14" class="node">
<title>story_props</title>
<path fill="#fdf2f8" stroke="black" d="M2495,-166C2495,-166 2365,-166 2365,-166 2359,-166 2353,-160 2353,-154 2353,-154 2353,-140 2353,-140 2353,-134 2359,-128 2365,-128 2365,-128 2495,-128 2495,-128 2501,-128 2507,-134 2507,-140 2507,-140 2507,-154 2507,-154 2507,-160 2501,-166 2495,-166"/>
<text text-anchor="middle" x="2430" y="-150.8" font-family="Helvetica,sans-Serif" font-size="14.00">properties</text>
<text text-anchor="middle" x="2430" y="-135.8" font-family="Helvetica,sans-Serif" font-size="14.00">story&#45;api&#45;properties</text>
</g>
<!-- story_entities&#45;&gt;story_props -->
<g id="edge14" class="edge">
<title>story_entities&#45;&gt;story_props</title>
<path fill="none" stroke="#555555" d="M2217.39,-104.03C2256.71,-112.02 2303.51,-121.52 2343.09,-129.56"/>
<polygon fill="#555555" stroke="#555555" points="2342.49,-133.01 2352.99,-131.57 2343.88,-126.15 2342.49,-133.01"/>
</g>
<!-- story_anim&#45;&gt;story_beh -->
<g id="edge15" class="edge">
<title>story_anim&#45;&gt;story_beh</title>
<path fill="none" stroke="#555555" d="M2510.19,-52.1C2579.07,-66.97 2678.15,-88.37 2745.59,-102.93"/>
<polygon fill="#555555" stroke="#555555" points="2745.21,-106.43 2755.72,-105.12 2746.68,-99.59 2745.21,-106.43"/>
</g>
<!-- story_events&#45;&gt;story_beh -->
<g id="edge16" class="edge">
<title>story_events&#45;&gt;story_beh</title>
<path fill="none" stroke="#555555" d="M2495.24,-95.62C2564.18,-100.59 2673.53,-108.46 2746.02,-113.67"/>
<polygon fill="#555555" stroke="#555555" points="2745.77,-117.17 2755.99,-114.39 2746.27,-110.18 2745.77,-117.17"/>
</g>
<!-- story_props&#45;&gt;story_beh -->
<g id="edge17" class="edge">
<title>story_props&#45;&gt;story_beh</title>
<path fill="none" stroke="#555555" d="M2507.39,-141.5C2576.32,-136.54 2677.09,-129.29 2745.44,-124.37"/>
<polygon fill="#555555" stroke="#555555" points="2745.98,-127.84 2755.7,-123.63 2745.48,-120.86 2745.98,-127.84"/>
</g>
<!-- ren_scene -->
<g id="node17" class="node">
<title>ren_scene</title>
<path fill="#fffbeb" stroke="black" d="M2924,-597C2924,-597 2718,-597 2718,-597 2712,-597 2706,-591 2706,-585 2706,-585 2706,-571 2706,-571 2706,-565 2712,-559 2718,-559 2718,-559 2924,-559 2924,-559 2930,-559 2936,-565 2936,-571 2936,-571 2936,-585 2936,-585 2936,-591 2930,-597 2924,-597"/>
<text text-anchor="middle" x="2821" y="-581.8" font-family="Helvetica,sans-Serif" font-size="14.00">scene</text>
<text text-anchor="middle" x="2821" y="-566.8" font-family="Helvetica,sans-Serif" font-size="14.00">scene&#45;builder / scene&#45;renderer</text>
</g>
<!-- story_props&#45;&gt;ren_scene -->
<g id="edge41" class="edge">
<title>story_props&#45;&gt;ren_scene</title>
<path fill="none" stroke="#555555" d="M2507.03,-143.19C2572.56,-141.52 2660.78,-143.63 2688,-165 2703.82,-177.42 2785.26,-457.06 2811.7,-549"/>
<polygon fill="#555555" stroke="#555555" points="2808.38,-550.12 2814.5,-558.76 2815.11,-548.19 2808.38,-550.12"/>
<text text-anchor="middle" x="2608" y="-168.8" font-family="Helvetica,sans-Serif" font-size="14.00">scene/style data</text>
</g>
<!-- ren_mesh -->
<g id="node16" class="node">
<title>ren_mesh</title>
<path fill="#fffbeb" stroke="black" d="M2470,-709C2470,-709 2390,-709 2390,-709 2384,-709 2378,-703 2378,-697 2378,-697 2378,-683 2378,-683 2378,-677 2384,-671 2390,-671 2390,-671 2470,-671 2470,-671 2476,-671 2482,-677 2482,-683 2482,-683 2482,-697 2482,-697 2482,-703 2476,-709 2470,-709"/>
<text text-anchor="middle" x="2430" y="-693.8" font-family="Helvetica,sans-Serif" font-size="14.00">mesh</text>
<text text-anchor="middle" x="2430" y="-678.8" font-family="Helvetica,sans-Serif" font-size="14.00">render&#45;mesh</text>
</g>
<!-- ren_mesh&#45;&gt;ren_scene -->
<g id="edge18" class="edge">
<title>ren_mesh&#45;&gt;ren_scene</title>
<path fill="none" stroke="#555555" d="M2482.25,-675.24C2549.23,-655.96 2667.04,-622.04 2744.31,-599.79"/>
<polygon fill="#555555" stroke="#555555" points="2745.35,-603.14 2753.99,-597 2743.41,-596.41 2745.35,-603.14"/>
</g>
<!-- ren_fx -->
<g id="node20" class="node">
<title>ren_fx</title>
<path fill="#fffbeb" stroke="black" d="M3074,-597C3074,-597 2985,-597 2985,-597 2979,-597 2973,-591 2973,-585 2973,-585 2973,-571 2973,-571 2973,-565 2979,-559 2985,-559 2985,-559 3074,-559 3074,-559 3080,-559 3086,-565 3086,-571 3086,-571 3086,-585 3086,-585 3086,-591 3080,-597 3074,-597"/>
<text text-anchor="middle" x="3029.5" y="-581.8" font-family="Helvetica,sans-Serif" font-size="14.00">effects</text>
<text text-anchor="middle" x="3029.5" y="-566.8" font-family="Helvetica,sans-Serif" font-size="14.00">render&#45;effects</text>
</g>
<!-- ren_scene&#45;&gt;ren_fx -->
<g id="edge22" class="edge">
<title>ren_scene&#45;&gt;ren_fx</title>
<path fill="none" stroke="#555555" d="M2936.12,-578C2945.21,-578 2954.18,-578 2962.75,-578"/>
<polygon fill="#555555" stroke="#555555" points="2962.99,-581.5 2972.99,-578 2962.99,-574.5 2962.99,-581.5"/>
</g>
<!-- ren_mat -->
<g id="node18" class="node">
<title>ren_mat</title>
<path fill="#fffbeb" stroke="black" d="M2483.5,-653C2483.5,-653 2376.5,-653 2376.5,-653 2370.5,-653 2364.5,-647 2364.5,-641 2364.5,-641 2364.5,-627 2364.5,-627 2364.5,-621 2370.5,-615 2376.5,-615 2376.5,-615 2483.5,-615 2483.5,-615 2489.5,-615 2495.5,-621 2495.5,-627 2495.5,-627 2495.5,-641 2495.5,-641 2495.5,-647 2489.5,-653 2483.5,-653"/>
<text text-anchor="middle" x="2430" y="-637.8" font-family="Helvetica,sans-Serif" font-size="14.00">materials</text>
<text text-anchor="middle" x="2430" y="-622.8" font-family="Helvetica,sans-Serif" font-size="14.00">render&#45;materials</text>
</g>
<!-- ren_mat&#45;&gt;ren_scene -->
<g id="edge20" class="edge">
<title>ren_mat&#45;&gt;ren_scene</title>
<path fill="none" stroke="#555555" d="M2495.67,-624.69C2550.03,-616.87 2629.27,-605.46 2695.82,-595.88"/>
<polygon fill="#555555" stroke="#555555" points="2696.57,-599.31 2705.97,-594.42 2695.57,-592.38 2696.57,-599.31"/>
</g>
<!-- ren_shader -->
<g id="node19" class="node">
<title>ren_shader</title>
<path fill="#fffbeb" stroke="black" d="M2204.5,-653C2204.5,-653 2060.5,-653 2060.5,-653 2054.5,-653 2048.5,-647 2048.5,-641 2048.5,-641 2048.5,-627 2048.5,-627 2048.5,-621 2054.5,-615 2060.5,-615 2060.5,-615 2204.5,-615 2204.5,-615 2210.5,-615 2216.5,-621 2216.5,-627 2216.5,-627 2216.5,-641 2216.5,-641 2216.5,-647 2210.5,-653 2204.5,-653"/>
<text text-anchor="middle" x="2132.5" y="-637.8" font-family="Helvetica,sans-Serif" font-size="14.00">shaders</text>
<text text-anchor="middle" x="2132.5" y="-622.8" font-family="Helvetica,sans-Serif" font-size="14.00">render&#45;shader&#45;system</text>
</g>
<!-- ren_shader&#45;&gt;ren_mat -->
<g id="edge21" class="edge">
<title>ren_shader&#45;&gt;ren_mat</title>
<path fill="none" stroke="#555555" d="M2216.6,-634C2259.81,-634 2312.21,-634 2354.15,-634"/>
<polygon fill="#555555" stroke="#555555" points="2354.3,-637.5 2364.3,-634 2354.3,-630.5 2354.3,-637.5"/>
</g>
<!-- ren_text -->
<g id="node21" class="node">
<title>ren_text</title>
<path fill="#fffbeb" stroke="black" d="M2464.5,-597C2464.5,-597 2395.5,-597 2395.5,-597 2389.5,-597 2383.5,-591 2383.5,-585 2383.5,-585 2383.5,-571 2383.5,-571 2383.5,-565 2389.5,-559 2395.5,-559 2395.5,-559 2464.5,-559 2464.5,-559 2470.5,-559 2476.5,-565 2476.5,-571 2476.5,-571 2476.5,-585 2476.5,-585 2476.5,-591 2470.5,-597 2464.5,-597"/>
<text text-anchor="middle" x="2430" y="-581.8" font-family="Helvetica,sans-Serif" font-size="14.00">text</text>
<text text-anchor="middle" x="2430" y="-566.8" font-family="Helvetica,sans-Serif" font-size="14.00">render&#45;text</text>
</g>
<!-- ren_text&#45;&gt;ren_scene -->
<g id="edge19" class="edge">
<title>ren_text&#45;&gt;ren_scene</title>
<path fill="none" stroke="#555555" d="M2476.77,-578C2530.19,-578 2620.74,-578 2695.42,-578"/>
<polygon fill="#555555" stroke="#555555" points="2695.85,-581.5 2705.85,-578 2695.85,-574.5 2695.85,-581.5"/>
</g>
<!-- ide_persp -->
<g id="node22" class="node">
<title>ide_persp</title>
<path fill="#ecfdf5" stroke="black" d="M223,-166C223,-166 28,-166 28,-166 22,-166 16,-160 16,-154 16,-154 16,-140 16,-140 16,-134 22,-128 28,-128 28,-128 223,-128 223,-128 229,-128 235,-134 235,-140 235,-140 235,-154 235,-154 235,-160 229,-166 223,-166"/>
<text text-anchor="middle" x="125.5" y="-150.8" font-family="Helvetica,sans-Serif" font-size="14.00">perspectives</text>
<text text-anchor="middle" x="125.5" y="-135.8" font-family="Helvetica,sans-Serif" font-size="14.00">ide&#45;perspectives / workspace</text>
</g>
<!-- ide_gallery -->
<g id="node23" class="node">
<title>ide_gallery</title>
<path fill="#ecfdf5" stroke="black" d="M338,-128C338,-128 298,-128 298,-128 292,-128 286,-122 286,-116 286,-116 286,-102 286,-102 286,-96 292,-90 298,-90 298,-90 338,-90 338,-90 344,-90 350,-96 350,-102 350,-102 350,-116 350,-116 350,-122 344,-128 338,-128"/>
<text text-anchor="middle" x="318" y="-112.8" font-family="Helvetica,sans-Serif" font-size="14.00">gallery</text>
<text text-anchor="middle" x="318" y="-97.8" font-family="Helvetica,sans-Serif" font-size="14.00">gallery</text>
</g>
<!-- ide_persp&#45;&gt;ide_gallery -->
<g id="edge23" class="edge">
<title>ide_persp&#45;&gt;ide_gallery</title>
<path fill="none" stroke="#555555" d="M222.03,-127.94C240.92,-124.18 259.79,-120.41 275.67,-117.24"/>
<polygon fill="#555555" stroke="#555555" points="276.53,-120.64 285.65,-115.25 275.16,-113.78 276.53,-120.64"/>
</g>
<!-- ide_scene -->
<g id="node24" class="node">
<title>ide_scene</title>
<path fill="#ecfdf5" stroke="black" d="M530,-112C530,-112 451,-112 451,-112 445,-112 439,-106 439,-100 439,-100 439,-88 439,-88 439,-82 445,-76 451,-76 451,-76 530,-76 530,-76 536,-76 542,-82 542,-88 542,-88 542,-100 542,-100 542,-106 536,-112 530,-112"/>
<text text-anchor="middle" x="490.5" y="-90.3" font-family="Helvetica,sans-Serif" font-size="14.00">scene&#45;editor</text>
</g>
<!-- ide_persp&#45;&gt;ide_scene -->
<g id="edge24" class="edge">
<title>ide_persp&#45;&gt;ide_scene</title>
<path fill="none" stroke="#555555" d="M156.18,-127.91C183.1,-111.81 224.5,-89.99 264,-81 318.74,-68.54 382.79,-74.08 428.6,-81.39"/>
<polygon fill="#555555" stroke="#555555" points="428.24,-84.88 438.68,-83.07 429.39,-77.97 428.24,-84.88"/>
</g>
<!-- ide_code -->
<g id="node25" class="node">
<title>ide_code</title>
<path fill="#ecfdf5" stroke="black" d="M934,-150C934,-150 734,-150 734,-150 728,-150 722,-144 722,-138 722,-138 722,-126 722,-126 722,-120 728,-114 734,-114 734,-114 934,-114 934,-114 940,-114 946,-120 946,-126 946,-126 946,-138 946,-138 946,-144 940,-150 934,-150"/>
<text text-anchor="middle" x="834" y="-128.3" font-family="Helvetica,sans-Serif" font-size="14.00">code&#45;editor / procedure&#45;editor</text>
</g>
<!-- ide_persp&#45;&gt;ide_code -->
<g id="edge25" class="edge">
<title>ide_persp&#45;&gt;ide_code</title>
<path fill="none" stroke="#555555" d="M235.34,-144.69C364.08,-141.96 577.75,-137.42 711.69,-134.58"/>
<polygon fill="#555555" stroke="#555555" points="712.07,-138.07 721.99,-134.36 711.92,-131.07 712.07,-138.07"/>
</g>
<!-- ide_debug -->
<g id="node26" class="node">
<title>ide_debug</title>
<path fill="#ecfdf5" stroke="black" d="M1203,-196C1203,-196 1135,-196 1135,-196 1129,-196 1123,-190 1123,-184 1123,-184 1123,-172 1123,-172 1123,-166 1129,-160 1135,-160 1135,-160 1203,-160 1203,-160 1209,-160 1215,-166 1215,-172 1215,-172 1215,-184 1215,-184 1215,-190 1209,-196 1203,-196"/>
<text text-anchor="middle" x="1169" y="-174.3" font-family="Helvetica,sans-Serif" font-size="14.00">debugging</text>
</g>
<!-- ide_persp&#45;&gt;ide_debug -->
<g id="edge26" class="edge">
<title>ide_persp&#45;&gt;ide_debug</title>
<path fill="none" stroke="#555555" d="M235.01,-150.23C454.99,-156.78 946.65,-171.41 1112.3,-176.34"/>
<polygon fill="#555555" stroke="#555555" points="1112.63,-179.85 1122.73,-176.65 1112.84,-172.86 1112.63,-179.85"/>
</g>
<!-- ide_dialog -->
<g id="node27" class="node">
<title>ide_dialog</title>
<path fill="#ecfdf5" stroke="black" d="M339,-222C339,-222 297,-222 297,-222 291,-222 285,-216 285,-210 285,-210 285,-198 285,-198 285,-192 291,-186 297,-186 297,-186 339,-186 339,-186 345,-186 351,-192 351,-198 351,-198 351,-210 351,-210 351,-216 345,-222 339,-222"/>
<text text-anchor="middle" x="318" y="-200.3" font-family="Helvetica,sans-Serif" font-size="14.00">dialogs</text>
</g>
<!-- ide_persp&#45;&gt;ide_dialog -->
<g id="edge27" class="edge">
<title>ide_persp&#45;&gt;ide_dialog</title>
<path fill="none" stroke="#555555" d="M190.2,-166.06C218.15,-174.42 250.18,-184.01 275.06,-191.45"/>
<polygon fill="#555555" stroke="#555555" points="274.32,-194.88 284.91,-194.4 276.33,-188.18 274.32,-194.88"/>
</g>
<!-- ide_gallery&#45;&gt;ide_scene -->
<g id="edge28" class="edge">
<title>ide_gallery&#45;&gt;ide_scene</title>
<path fill="none" stroke="#555555" d="M350.27,-106.25C372.18,-104.32 402.17,-101.68 428.7,-99.35"/>
<polygon fill="#555555" stroke="#555555" points="429.03,-102.83 438.68,-98.47 428.41,-95.86 429.03,-102.83"/>
</g>
<!-- ide_scene&#45;&gt;story_entities -->
<g id="edge43" class="edge">
<title>ide_scene&#45;&gt;story_entities</title>
<path fill="none" stroke="#555555" d="M542.12,-92.07C608.78,-89.71 729.66,-86 833,-86 833,-86 833,-86 1933,-86 1967.2,-86 2004.71,-86.15 2037.83,-86.33"/>
<polygon fill="#555555" stroke="#555555" points="2037.94,-89.83 2047.96,-86.39 2037.98,-82.83 2037.94,-89.83"/>
<text text-anchor="middle" x="1362.5" y="-89.8" font-family="Helvetica,sans-Serif" font-size="14.00">place entities</text>
</g>
<!-- ide_scene&#45;&gt;ide_code -->
<g id="edge29" class="edge">
<title>ide_scene&#45;&gt;ide_code</title>
<path fill="none" stroke="#555555" d="M542.26,-99.65C586.87,-104.61 653.58,-112.04 711.85,-118.52"/>
<polygon fill="#555555" stroke="#555555" points="711.55,-122.01 721.88,-119.63 712.32,-115.05 711.55,-122.01"/>
</g>
<!-- ide_code&#45;&gt;tw_compiler -->
<g id="edge44" class="edge">
<title>ide_code&#45;&gt;tw_compiler</title>
<path fill="none" stroke="#555555" d="M946,-132C1010.75,-132 1094,-132 1168,-132 1168,-132 1168,-132 1933,-132 2007.15,-132 1978.21,-219.01 2040,-260 2044.97,-263.29 2050.34,-266.22 2055.9,-268.8"/>
<polygon fill="#555555" stroke="#555555" points="2054.84,-272.16 2065.41,-272.85 2057.58,-265.71 2054.84,-272.16"/>
<text text-anchor="middle" x="1533" y="-135.8" font-family="Helvetica,sans-Serif" font-size="14.00">run / debug</text>
</g>
<!-- ide_code&#45;&gt;ast_editor -->
<g id="edge42" class="edge">
<title>ide_code&#45;&gt;ast_editor</title>
<path fill="none" stroke="#555555" d="M863.55,-150.17C905.82,-176.47 988.12,-225.46 1063,-257 1071.25,-260.48 1080.02,-263.76 1088.82,-266.79"/>
<polygon fill="#555555" stroke="#555555" points="1087.78,-270.13 1098.37,-269.99 1090,-263.5 1087.78,-270.13"/>
<text text-anchor="middle" x="1016" y="-252.8" font-family="Helvetica,sans-Serif" font-size="14.00">edit AST</text>
</g>
<!-- ide_code&#45;&gt;ide_debug -->
<g id="edge30" class="edge">
<title>ide_code&#45;&gt;ide_debug</title>
<path fill="none" stroke="#555555" d="M946.35,-147.38C1002.3,-155.11 1067.63,-164.13 1112.8,-170.37"/>
<polygon fill="#555555" stroke="#555555" points="1112.58,-173.88 1122.97,-171.78 1113.54,-166.94 1112.58,-173.88"/>
</g>
<!-- infra_a3p -->
<g id="node28" class="node">
<title>infra_a3p</title>
<path fill="#f5f3ff" stroke="black" d="M568,-510C568,-510 413,-510 413,-510 407,-510 401,-504 401,-498 401,-498 401,-484 401,-484 401,-478 407,-472 413,-472 413,-472 568,-472 568,-472 574,-472 580,-478 580,-484 580,-484 580,-498 580,-498 580,-504 574,-510 568,-510"/>
<text text-anchor="middle" x="490.5" y="-494.8" font-family="Helvetica,sans-Serif" font-size="14.00">a3p</text>
<text text-anchor="middle" x="490.5" y="-479.8" font-family="Helvetica,sans-Serif" font-size="14.00">a3p&#45;parser / a3p&#45;writer</text>
</g>
<!-- infra_project -->
<g id="node29" class="node">
<title>infra_project</title>
<path fill="#f5f3ff" stroke="black" d="M957,-471C957,-471 711,-471 711,-471 705,-471 699,-465 699,-459 699,-459 699,-445 699,-445 699,-439 705,-433 711,-433 711,-433 957,-433 957,-433 963,-433 969,-439 969,-445 969,-445 969,-459 969,-459 969,-465 963,-471 957,-471"/>
<text text-anchor="middle" x="834" y="-455.8" font-family="Helvetica,sans-Serif" font-size="14.00">project&#45;system</text>
<text text-anchor="middle" x="834" y="-440.8" font-family="Helvetica,sans-Serif" font-size="14.00">project&#45;system / manager / template</text>
</g>
<!-- infra_a3p&#45;&gt;infra_project -->
<g id="edge31" class="edge">
<title>infra_a3p&#45;&gt;infra_project</title>
<path fill="none" stroke="#555555" d="M580.33,-480.86C613.39,-477.08 651.82,-472.69 688.58,-468.49"/>
<polygon fill="#555555" stroke="#555555" points="689.36,-471.93 698.89,-467.32 688.56,-464.97 689.36,-471.93"/>
</g>
<!-- infra_server -->
<g id="node33" class="node">
<title>infra_server</title>
<path fill="#f5f3ff" stroke="black" d="M2165,-500C2165,-500 2100,-500 2100,-500 2094,-500 2088,-494 2088,-488 2088,-488 2088,-474 2088,-474 2088,-468 2094,-462 2100,-462 2100,-462 2165,-462 2165,-462 2171,-462 2177,-468 2177,-474 2177,-474 2177,-488 2177,-488 2177,-494 2171,-500 2165,-500"/>
<text text-anchor="middle" x="2132.5" y="-484.8" font-family="Helvetica,sans-Serif" font-size="14.00">server</text>
<text text-anchor="middle" x="2132.5" y="-469.8" font-family="Helvetica,sans-Serif" font-size="14.00">server / cli</text>
</g>
<!-- infra_a3p&#45;&gt;infra_server -->
<g id="edge36" class="edge">
<title>infra_a3p&#45;&gt;infra_server</title>
<path fill="none" stroke="#555555" d="M580.15,-489.09C727.93,-486.02 1033.98,-480.1 1293,-478 1620.11,-475.35 1701.88,-481.63 2029,-483 2044.84,-483.07 2062.06,-482.84 2077.78,-482.53"/>
<polygon fill="#555555" stroke="#555555" points="2077.94,-486.02 2087.86,-482.31 2077.79,-479.03 2077.94,-486.02"/>
</g>
<!-- infra_persist -->
<g id="node30" class="node">
<title>infra_persist</title>
<path fill="#f5f3ff" stroke="black" d="M1244.5,-432C1244.5,-432 1093.5,-432 1093.5,-432 1087.5,-432 1081.5,-426 1081.5,-420 1081.5,-420 1081.5,-406 1081.5,-406 1081.5,-400 1087.5,-394 1093.5,-394 1093.5,-394 1244.5,-394 1244.5,-394 1250.5,-394 1256.5,-400 1256.5,-406 1256.5,-406 1256.5,-420 1256.5,-420 1256.5,-426 1250.5,-432 1244.5,-432"/>
<text text-anchor="middle" x="1169" y="-416.8" font-family="Helvetica,sans-Serif" font-size="14.00">persistence</text>
<text text-anchor="middle" x="1169" y="-401.8" font-family="Helvetica,sans-Serif" font-size="14.00">project&#45;io / persistence</text>
</g>
<!-- infra_project&#45;&gt;infra_persist -->
<g id="edge32" class="edge">
<title>infra_project&#45;&gt;infra_persist</title>
<path fill="none" stroke="#555555" d="M969,-436.31C1003.09,-432.31 1039.06,-428.1 1070.91,-424.37"/>
<polygon fill="#555555" stroke="#555555" points="1071.57,-427.82 1081.1,-423.18 1070.76,-420.87 1071.57,-427.82"/>
</g>
<!-- infra_collab -->
<g id="node32" class="node">
<title>infra_collab</title>
<path fill="#f5f3ff" stroke="black" d="M1973,-452C1973,-452 1891,-452 1891,-452 1885,-452 1879,-446 1879,-440 1879,-440 1879,-426 1879,-426 1879,-420 1885,-414 1891,-414 1891,-414 1973,-414 1973,-414 1979,-414 1985,-420 1985,-426 1985,-426 1985,-440 1985,-440 1985,-446 1979,-452 1973,-452"/>
<text text-anchor="middle" x="1932" y="-436.8" font-family="Helvetica,sans-Serif" font-size="14.00">collaboration</text>
<text text-anchor="middle" x="1932" y="-421.8" font-family="Helvetica,sans-Serif" font-size="14.00">collaboration</text>
</g>
<!-- infra_project&#45;&gt;infra_collab -->
<g id="edge48" class="edge">
<title>infra_project&#45;&gt;infra_collab</title>
<path fill="none" stroke="#555555" d="M969.16,-450.29C1158.37,-447.86 1494.15,-443.41 1616,-441 1703.69,-439.27 1805.09,-436.57 1868.64,-434.79"/>
<polygon fill="#555555" stroke="#555555" points="1868.99,-438.28 1878.89,-434.5 1868.8,-431.29 1868.99,-438.28"/>
<text text-anchor="middle" x="1362.5" y="-448.8" font-family="Helvetica,sans-Serif" font-size="14.00">shared project state</text>
</g>
<!-- infra_project&#45;&gt;infra_server -->
<g id="edge35" class="edge">
<title>infra_project&#45;&gt;infra_server</title>
<path fill="none" stroke="#555555" d="M969.17,-455C1249.68,-461.28 1887.89,-475.55 2077.45,-479.79"/>
<polygon fill="#555555" stroke="#555555" points="2077.64,-483.3 2087.71,-480.02 2077.79,-476.3 2077.64,-483.3"/>
</g>
<!-- infra_sync -->
<g id="node31" class="node">
<title>infra_sync</title>
<path fill="#f5f3ff" stroke="black" d="M1604,-432C1604,-432 1462,-432 1462,-432 1456,-432 1450,-426 1450,-420 1450,-420 1450,-406 1450,-406 1450,-400 1456,-394 1462,-394 1462,-394 1604,-394 1604,-394 1610,-394 1616,-400 1616,-406 1616,-406 1616,-420 1616,-420 1616,-426 1610,-432 1604,-432"/>
<text text-anchor="middle" x="1533" y="-416.8" font-family="Helvetica,sans-Serif" font-size="14.00">state sync</text>
<text text-anchor="middle" x="1533" y="-401.8" font-family="Helvetica,sans-Serif" font-size="14.00">state&#45;synchronization</text>
</g>
<!-- infra_persist&#45;&gt;infra_sync -->
<g id="edge33" class="edge">
<title>infra_persist&#45;&gt;infra_sync</title>
<path fill="none" stroke="#555555" d="M1256.71,-413C1311.84,-413 1383.17,-413 1439.41,-413"/>
<polygon fill="#555555" stroke="#555555" points="1439.73,-416.5 1449.73,-413 1439.73,-409.5 1439.73,-416.5"/>
</g>
<!-- infra_sync&#45;&gt;infra_collab -->
<g id="edge34" class="edge">
<title>infra_sync&#45;&gt;infra_collab</title>
<path fill="none" stroke="#555555" d="M1616.26,-417.14C1691.33,-420.93 1800.64,-426.43 1868.7,-429.86"/>
<polygon fill="#555555" stroke="#555555" points="1868.69,-433.37 1878.85,-430.37 1869.04,-426.37 1868.69,-433.37"/>
</g>
<!-- infra_collab&#45;&gt;infra_server -->
<g id="edge37" class="edge">
<title>infra_collab&#45;&gt;infra_server</title>
<path fill="none" stroke="#555555" d="M1985.15,-445.61C2013.72,-452.52 2049.06,-461.06 2077.86,-468.03"/>
<polygon fill="#555555" stroke="#555555" points="2077.2,-471.47 2087.75,-470.42 2078.85,-464.67 2077.2,-471.47"/>
</g>
<!-- infra_server&#45;&gt;tw_vm -->
<g id="edge45" class="edge">
<title>infra_server&#45;&gt;tw_vm</title>
<path fill="none" stroke="#555555" d="M2158.95,-461.97C2212.19,-422.15 2335.33,-330.06 2395.15,-285.31"/>
<polygon fill="#555555" stroke="#555555" points="2397.59,-287.86 2403.51,-279.07 2393.4,-282.25 2397.59,-287.86"/>
<text text-anchor="middle" x="2283.5" y="-406.8" font-family="Helvetica,sans-Serif" font-size="14.00">/api/world/run</text>
</g>
<!-- infra_server&#45;&gt;ren_scene -->
<g id="edge46" class="edge">
<title>infra_server&#45;&gt;ren_scene</title>
<path fill="none" stroke="#555555" d="M2177.23,-487.18C2279.96,-501.69 2539.81,-538.41 2695.85,-560.46"/>
<polygon fill="#555555" stroke="#555555" points="2695.59,-563.96 2705.98,-561.89 2696.57,-557.02 2695.59,-563.96"/>
<text text-anchor="middle" x="2430" y="-535.8" font-family="Helvetica,sans-Serif" font-size="14.00">/api/screenshot</text>
</g>
<!-- infra_server&#45;&gt;infra_a3p -->
<g id="edge47" class="edge">
<title>infra_server&#45;&gt;infra_a3p</title>
<path fill="none" stroke="#555555" d="M2087.82,-484.65C2069.91,-485.97 2048.98,-487.32 2030,-488 1430.83,-509.53 1280.56,-491.11 681,-492 644.11,-492.05 634.89,-492.17 598,-492 595.45,-491.99 592.87,-491.97 590.26,-491.96"/>
<polygon fill="#555555" stroke="#555555" points="590.14,-488.46 580.12,-491.9 590.1,-495.46 590.14,-488.46"/>
<text text-anchor="middle" x="1362.5" y="-501.8" font-family="Helvetica,sans-Serif" font-size="14.00">/api/launch</text>
</g>
</g>
</svg>
