<?xml version="1.0" encoding="UTF-8" standalone="no"?>
<!DOCTYPE svg PUBLIC "-//W3C//DTD SVG 1.1//EN"
 "http://www.w3.org/Graphics/SVG/1.1/DTD/svg11.dtd">
<!-- Generated by graphviz version 2.42.4 (0)
 -->
<!-- Title: service_components Pages: 1 -->
<svg width="3537pt" height="697pt"
 viewBox="0.00 0.00 3537.00 697.00" xmlns="http://www.w3.org/2000/svg" xmlns:xlink="http://www.w3.org/1999/xlink">
<g id="graph0" class="graph" transform="scale(1 1) rotate(0) translate(4 693)">
<title>service_components</title>
<polygon fill="white" stroke="transparent" points="-4,4 -4,-693 3533,-693 3533,4 -4,4"/>
<g id="clust1" class="cluster">
<title>cluster_tweedle</title>
<polygon fill="white" stroke="#bfdbfe" points="2021,-112 2021,-245 2923.5,-245 2923.5,-112 2021,-112"/>
<text text-anchor="middle" x="2472.25" y="-229.8" font-family="Helvetica,sans-Serif" font-size="14.00">Tweedle subsystem</text>
</g>
<g id="clust2" class="cluster">
<title>cluster_ast</title>
<polygon fill="white" stroke="#c7d2fe" points="724.5,-23 724.5,-140 1901,-140 1901,-23 724.5,-23"/>
<text text-anchor="middle" x="1312.75" y="-124.8" font-family="Helvetica,sans-Serif" font-size="14.00">AST subsystem</text>
</g>
<g id="clust3" class="cluster">
<title>cluster_story</title>
<polygon fill="white" stroke="#fbcfe8" points="2563,-291 2563,-480 3321,-480 3321,-291 2563,-291"/>
<text text-anchor="middle" x="2942" y="-464.8" font-family="Helvetica,sans-Serif" font-size="14.00">Story API</text>
</g>
<g id="clust4" class="cluster">
<title>cluster_renderer</title>
<polygon fill="white" stroke="#fde68a" points="2563.5,-488 2563.5,-677 3521,-677 3521,-488 2563.5,-488"/>
<text text-anchor="middle" x="3042.25" y="-661.8" font-family="Helvetica,sans-Serif" font-size="14.00">Renderer</text>
</g>
<g id="clust5" class="cluster">
<title>cluster_ide</title>
<polygon fill="white" stroke="#a7f3d0" points="401.5,-324 401.5,-515 1841,-515 1841,-324 401.5,-324"/>
<text text-anchor="middle" x="1121.25" y="-499.8" font-family="Helvetica,sans-Serif" font-size="14.00">IDE</text>
</g>
<g id="clust6" class="cluster">
<title>cluster_infra</title>
<polygon fill="white" stroke="#e9d5ff" points="8,-148 8,-316 1544.5,-316 1544.5,-148 8,-148"/>
<text text-anchor="middle" x="776.25" y="-300.8" font-family="Helvetica,sans-Serif" font-size="14.00">Infrastructure</text>
</g>
<!-- tw_parser -->
<g id="node1" class="node">
<title>tw_parser</title>
<path fill="#eff6ff" stroke="black" d="M2127,-194C2127,-194 2041,-194 2041,-194 2035,-194 2029,-188 2029,-182 2029,-182 2029,-168 2029,-168 2029,-162 2035,-156 2041,-156 2041,-156 2127,-156 2127,-156 2133,-156 2139,-162 2139,-168 2139,-168 2139,-182 2139,-182 2139,-188 2133,-194 2127,-194"/>
<text text-anchor="middle" x="2084" y="-178.8" font-family="Helvetica,sans-Serif" font-size="14.00">parser</text>
<text text-anchor="middle" x="2084" y="-163.8" font-family="Helvetica,sans-Serif" font-size="14.00">parseTweedle</text>
</g>
<!-- tw_compiler -->
<g id="node2" class="node">
<title>tw_compiler</title>
<path fill="#eff6ff" stroke="black" d="M2710.5,-214C2710.5,-214 2600.5,-214 2600.5,-214 2594.5,-214 2588.5,-208 2588.5,-202 2588.5,-202 2588.5,-188 2588.5,-188 2588.5,-182 2594.5,-176 2600.5,-176 2600.5,-176 2710.5,-176 2710.5,-176 2716.5,-176 2722.5,-182 2722.5,-188 2722.5,-188 2722.5,-202 2722.5,-202 2722.5,-208 2716.5,-214 2710.5,-214"/>
<text text-anchor="middle" x="2655.5" y="-198.8" font-family="Helvetica,sans-Serif" font-size="14.00">compiler</text>
<text text-anchor="middle" x="2655.5" y="-183.8" font-family="Helvetica,sans-Serif" font-size="14.00">TweedleCompiler</text>
</g>
<!-- tw_parser&#45;&gt;tw_compiler -->
<g id="edge1" class="edge">
<title>tw_parser&#45;&gt;tw_compiler</title>
<path fill="none" stroke="#555555" d="M2139.13,-169.45C2223.72,-161.82 2392.25,-150.75 2534,-167 2548.48,-168.66 2563.74,-171.41 2578.36,-174.55"/>
<polygon fill="#555555" stroke="#555555" points="2577.84,-178.02 2588.37,-176.78 2579.37,-171.18 2577.84,-178.02"/>
</g>
<!-- tw_types -->
<g id="node4" class="node">
<title>tw_types</title>
<path fill="#eff6ff" stroke="black" d="M2522,-214C2522,-214 2388,-214 2388,-214 2382,-214 2376,-208 2376,-202 2376,-202 2376,-188 2376,-188 2376,-182 2382,-176 2388,-176 2388,-176 2522,-176 2522,-176 2528,-176 2534,-182 2534,-188 2534,-188 2534,-202 2534,-202 2534,-208 2528,-214 2522,-214"/>
<text text-anchor="middle" x="2455" y="-198.8" font-family="Helvetica,sans-Serif" font-size="14.00">type&#45;system</text>
<text text-anchor="middle" x="2455" y="-183.8" font-family="Helvetica,sans-Serif" font-size="14.00">createTypeHierarchy</text>
</g>
<!-- tw_parser&#45;&gt;tw_types -->
<g id="edge2" class="edge">
<title>tw_parser&#45;&gt;tw_types</title>
<path fill="none" stroke="#555555" d="M2139.05,-177.93C2198.58,-181.16 2295.2,-186.39 2365.75,-190.22"/>
<polygon fill="#555555" stroke="#555555" points="2365.79,-193.72 2375.96,-190.77 2366.17,-186.73 2365.79,-193.72"/>
</g>
<!-- tw_vm -->
<g id="node3" class="node">
<title>tw_vm</title>
<path fill="#eff6ff" stroke="black" d="M2903.5,-158C2903.5,-158 2810.5,-158 2810.5,-158 2804.5,-158 2798.5,-152 2798.5,-146 2798.5,-146 2798.5,-132 2798.5,-132 2798.5,-126 2804.5,-120 2810.5,-120 2810.5,-120 2903.5,-120 2903.5,-120 2909.5,-120 2915.5,-126 2915.5,-132 2915.5,-132 2915.5,-146 2915.5,-146 2915.5,-152 2909.5,-158 2903.5,-158"/>
<text text-anchor="middle" x="2857" y="-142.8" font-family="Helvetica,sans-Serif" font-size="14.00">vm</text>
<text text-anchor="middle" x="2857" y="-127.8" font-family="Helvetica,sans-Serif" font-size="14.00">executeProject</text>
</g>
<!-- tw_compiler&#45;&gt;tw_vm -->
<g id="edge4" class="edge">
<title>tw_compiler&#45;&gt;tw_vm</title>
<path fill="none" stroke="#555555" d="M2722.65,-176.43C2743.8,-170.49 2767.23,-163.92 2788.48,-157.95"/>
<polygon fill="#555555" stroke="#555555" points="2789.71,-161.24 2798.39,-155.17 2787.82,-154.5 2789.71,-161.24"/>
</g>
<!-- story_beh -->
<g id="node15" class="node">
<title>story_beh</title>
<path fill="#fdf2f8" stroke="black" d="M3301,-365C3301,-365 3195,-365 3195,-365 3189,-365 3183,-359 3183,-353 3183,-353 3183,-339 3183,-339 3183,-333 3189,-327 3195,-327 3195,-327 3301,-327 3301,-327 3307,-327 3313,-333 3313,-339 3313,-339 3313,-353 3313,-353 3313,-359 3307,-365 3301,-365"/>
<text text-anchor="middle" x="3248" y="-349.8" font-family="Helvetica,sans-Serif" font-size="14.00">behaviors</text>
<text text-anchor="middle" x="3248" y="-334.8" font-family="Helvetica,sans-Serif" font-size="14.00">entity&#45;behaviors</text>
</g>
<!-- tw_vm&#45;&gt;story_beh -->
<g id="edge40" class="edge">
<title>tw_vm&#45;&gt;story_beh</title>
<path fill="none" stroke="#555555" d="M2893.9,-158.1C2965.11,-196 3124.09,-280.59 3202.09,-322.1"/>
<polygon fill="#555555" stroke="#555555" points="3200.72,-325.34 3211.19,-326.94 3204,-319.16 3200.72,-325.34"/>
<text text-anchor="middle" x="3035" y="-276.8" font-family="Helvetica,sans-Serif" font-size="14.00">runtime calls story ops</text>
</g>
<!-- tw_types&#45;&gt;tw_compiler -->
<g id="edge3" class="edge">
<title>tw_types&#45;&gt;tw_compiler</title>
<path fill="none" stroke="#555555" d="M2534.17,-195C2548.57,-195 2563.6,-195 2577.95,-195"/>
<polygon fill="#555555" stroke="#555555" points="2578.27,-198.5 2588.27,-195 2578.27,-191.5 2578.27,-198.5"/>
</g>
<!-- tw_stdlib -->
<g id="node5" class="node">
<title>tw_stdlib</title>
<path fill="#eff6ff" stroke="black" d="M2700.5,-158C2700.5,-158 2610.5,-158 2610.5,-158 2604.5,-158 2598.5,-152 2598.5,-146 2598.5,-146 2598.5,-132 2598.5,-132 2598.5,-126 2604.5,-120 2610.5,-120 2610.5,-120 2700.5,-120 2700.5,-120 2706.5,-120 2712.5,-126 2712.5,-132 2712.5,-132 2712.5,-146 2712.5,-146 2712.5,-152 2706.5,-158 2700.5,-158"/>
<text text-anchor="middle" x="2655.5" y="-142.8" font-family="Helvetica,sans-Serif" font-size="14.00">stdlib</text>
<text text-anchor="middle" x="2655.5" y="-127.8" font-family="Helvetica,sans-Serif" font-size="14.00">tweedle&#45;stdlib</text>
</g>
<!-- tw_stdlib&#45;&gt;tw_vm -->
<g id="edge5" class="edge">
<title>tw_stdlib&#45;&gt;tw_vm</title>
<path fill="none" stroke="#555555" d="M2712.6,-139C2736,-139 2763.38,-139 2787.92,-139"/>
<polygon fill="#555555" stroke="#555555" points="2788.24,-142.5 2798.24,-139 2788.24,-135.5 2788.24,-142.5"/>
</g>
<!-- ast_nodes -->
<g id="node6" class="node">
<title>ast_nodes</title>
<path fill="#eef2ff" stroke="black" d="M812.5,-107C812.5,-107 744.5,-107 744.5,-107 738.5,-107 732.5,-101 732.5,-95 732.5,-95 732.5,-81 732.5,-81 732.5,-75 738.5,-69 744.5,-69 744.5,-69 812.5,-69 812.5,-69 818.5,-69 824.5,-75 824.5,-81 824.5,-81 824.5,-95 824.5,-95 824.5,-101 818.5,-107 812.5,-107"/>
<text text-anchor="middle" x="778.5" y="-91.8" font-family="Helvetica,sans-Serif" font-size="14.00">nodes</text>
<text text-anchor="middle" x="778.5" y="-76.8" font-family="Helvetica,sans-Serif" font-size="14.00">ast&#45;nodes*</text>
</g>
<!-- ast_ser -->
<g id="node7" class="node">
<title>ast_ser</title>
<path fill="#eef2ff" stroke="black" d="M1175,-69C1175,-69 1073,-69 1073,-69 1067,-69 1061,-63 1061,-57 1061,-57 1061,-43 1061,-43 1061,-37 1067,-31 1073,-31 1073,-31 1175,-31 1175,-31 1181,-31 1187,-37 1187,-43 1187,-43 1187,-57 1187,-57 1187,-63 1181,-69 1175,-69"/>
<text text-anchor="middle" x="1124" y="-53.8" font-family="Helvetica,sans-Serif" font-size="14.00">serialization</text>
<text text-anchor="middle" x="1124" y="-38.8" font-family="Helvetica,sans-Serif" font-size="14.00">ast&#45;serialization</text>
</g>
<!-- ast_nodes&#45;&gt;ast_ser -->
<g id="edge6" class="edge">
<title>ast_nodes&#45;&gt;ast_ser</title>
<path fill="none" stroke="#555555" d="M824.76,-82.99C882.29,-76.63 982.31,-65.56 1050.52,-58.02"/>
<polygon fill="#555555" stroke="#555555" points="1051.21,-61.46 1060.76,-56.89 1050.44,-54.51 1051.21,-61.46"/>
</g>
<!-- ast_man -->
<g id="node8" class="node">
<title>ast_man</title>
<path fill="#eef2ff" stroke="black" d="M1493,-71C1493,-71 1383,-71 1383,-71 1377,-71 1371,-65 1371,-59 1371,-59 1371,-45 1371,-45 1371,-39 1377,-33 1383,-33 1383,-33 1493,-33 1493,-33 1499,-33 1505,-39 1505,-45 1505,-45 1505,-59 1505,-59 1505,-65 1499,-71 1493,-71"/>
<text text-anchor="middle" x="1438" y="-55.8" font-family="Helvetica,sans-Serif" font-size="14.00">manipulation</text>
<text text-anchor="middle" x="1438" y="-40.8" font-family="Helvetica,sans-Serif" font-size="14.00">ast&#45;manipulation</text>
</g>
<!-- ast_nodes&#45;&gt;ast_man -->
<g id="edge7" class="edge">
<title>ast_nodes&#45;&gt;ast_man</title>
<path fill="none" stroke="#555555" d="M824.7,-89.18C919.32,-91.28 1135.38,-94.08 1207,-78 1215.54,-76.08 1216.52,-72.18 1225,-70 1269.03,-58.69 1319.72,-54.09 1360.49,-52.37"/>
<polygon fill="#555555" stroke="#555555" points="1360.77,-55.86 1370.64,-51.99 1360.51,-48.87 1360.77,-55.86"/>
</g>
<!-- ast_query -->
<g id="node9" class="node">
<title>ast_query</title>
<path fill="#eef2ff" stroke="black" d="M1296,-109C1296,-109 1237,-109 1237,-109 1231,-109 1225,-103 1225,-97 1225,-97 1225,-83 1225,-83 1225,-77 1231,-71 1237,-71 1237,-71 1296,-71 1296,-71 1302,-71 1308,-77 1308,-83 1308,-83 1308,-97 1308,-97 1308,-103 1302,-109 1296,-109"/>
<text text-anchor="middle" x="1266.5" y="-93.8" font-family="Helvetica,sans-Serif" font-size="14.00">query</text>
<text text-anchor="middle" x="1266.5" y="-78.8" font-family="Helvetica,sans-Serif" font-size="14.00">ast&#45;query</text>
</g>
<!-- ast_nodes&#45;&gt;ast_query -->
<g id="edge8" class="edge">
<title>ast_nodes&#45;&gt;ast_query</title>
<path fill="none" stroke="#555555" d="M824.75,-90.64C843.13,-91.59 864.57,-92.54 884,-93 1027.51,-96.43 1063.49,-96.68 1207,-93 1209.54,-92.94 1212.13,-92.85 1214.75,-92.76"/>
<polygon fill="#555555" stroke="#555555" points="1215.06,-96.25 1224.91,-92.35 1214.78,-89.26 1215.06,-96.25"/>
</g>
<!-- ast_ser&#45;&gt;ast_man -->
<g id="edge9" class="edge">
<title>ast_ser&#45;&gt;ast_man</title>
<path fill="none" stroke="#555555" d="M1187.01,-50.4C1236.93,-50.72 1307.32,-51.17 1360.69,-51.51"/>
<polygon fill="#555555" stroke="#555555" points="1360.77,-55.01 1370.79,-51.58 1360.81,-48.01 1360.77,-55.01"/>
</g>
<!-- ast_editor -->
<g id="node10" class="node">
<title>ast_editor</title>
<path fill="#eef2ff" stroke="black" d="M1881,-109C1881,-109 1693,-109 1693,-109 1687,-109 1681,-103 1681,-97 1681,-97 1681,-83 1681,-83 1681,-77 1687,-71 1693,-71 1693,-71 1881,-71 1881,-71 1887,-71 1893,-77 1893,-83 1893,-83 1893,-97 1893,-97 1893,-103 1887,-109 1881,-109"/>
<text text-anchor="middle" x="1787" y="-93.8" font-family="Helvetica,sans-Serif" font-size="14.00">editor</text>
<text text-anchor="middle" x="1787" y="-78.8" font-family="Helvetica,sans-Serif" font-size="14.00">ast&#45;editor / procedure&#45;editor</text>
</g>
<!-- ast_man&#45;&gt;ast_editor -->
<g id="edge10" class="edge">
<title>ast_man&#45;&gt;ast_editor</title>
<path fill="none" stroke="#555555" d="M1505.08,-59.24C1551.83,-64.36 1615.72,-71.35 1670.76,-77.38"/>
<polygon fill="#555555" stroke="#555555" points="1670.6,-80.88 1680.93,-78.49 1671.37,-73.93 1670.6,-80.88"/>
</g>
<!-- ast_query&#45;&gt;ast_editor -->
<g id="edge11" class="edge">
<title>ast_query&#45;&gt;ast_editor</title>
<path fill="none" stroke="#555555" d="M1308.19,-90C1385.36,-90 1555.53,-90 1670.52,-90"/>
<polygon fill="#555555" stroke="#555555" points="1670.78,-93.5 1680.78,-90 1670.78,-86.5 1670.78,-93.5"/>
</g>
<!-- ast_editor&#45;&gt;tw_parser -->
<g id="edge38" class="edge">
<title>ast_editor&#45;&gt;tw_parser</title>
<path fill="none" stroke="#555555" d="M1820.02,-109.04C1844.2,-122.56 1878.65,-140.02 1911,-150 1945.74,-160.71 1985.87,-166.88 2018.62,-170.4"/>
<polygon fill="#555555" stroke="#555555" points="2018.68,-173.93 2028.98,-171.46 2019.39,-166.96 2018.68,-173.93"/>
<text text-anchor="middle" x="1961" y="-172.8" font-family="Helvetica,sans-Serif" font-size="14.00">AST &#45;&gt; source</text>
</g>
<!-- ast_editor&#45;&gt;tw_compiler -->
<g id="edge39" class="edge">
<title>ast_editor&#45;&gt;tw_compiler</title>
<path fill="none" stroke="#555555" d="M1893.16,-87.55C2039.43,-86.72 2311.41,-94.51 2534,-154 2547.65,-157.65 2549.78,-162.03 2563,-167 2568.15,-168.93 2573.5,-170.84 2578.91,-172.68"/>
<polygon fill="#555555" stroke="#555555" points="2578.1,-176.1 2588.69,-175.94 2580.31,-169.46 2578.1,-176.1"/>
<text text-anchor="middle" x="2257.5" y="-120.8" font-family="Helvetica,sans-Serif" font-size="14.00">authoring &#45;&gt; executable AST</text>
</g>
<!-- story_entities -->
<g id="node11" class="node">
<title>story_entities</title>
<path fill="#fdf2f8" stroke="black" d="M2728,-449C2728,-449 2583,-449 2583,-449 2577,-449 2571,-443 2571,-437 2571,-437 2571,-423 2571,-423 2571,-417 2577,-411 2583,-411 2583,-411 2728,-411 2728,-411 2734,-411 2740,-417 2740,-423 2740,-423 2740,-437 2740,-437 2740,-443 2734,-449 2728,-449"/>
<text text-anchor="middle" x="2655.5" y="-433.8" font-family="Helvetica,sans-Serif" font-size="14.00">entities</text>
<text text-anchor="middle" x="2655.5" y="-418.8" font-family="Helvetica,sans-Serif" font-size="14.00">entity&#45;impls / lifecycle</text>
</g>
<!-- story_anim -->
<g id="node12" class="node">
<title>story_anim</title>
<path fill="#fdf2f8" stroke="black" d="M2925,-337C2925,-337 2789,-337 2789,-337 2783,-337 2777,-331 2777,-325 2777,-325 2777,-311 2777,-311 2777,-305 2783,-299 2789,-299 2789,-299 2925,-299 2925,-299 2931,-299 2937,-305 2937,-311 2937,-311 2937,-325 2937,-325 2937,-331 2931,-337 2925,-337"/>
<text text-anchor="middle" x="2857" y="-321.8" font-family="Helvetica,sans-Serif" font-size="14.00">animations</text>
<text text-anchor="middle" x="2857" y="-306.8" font-family="Helvetica,sans-Serif" font-size="14.00">story&#45;api&#45;animations</text>
</g>
<!-- story_entities&#45;&gt;story_anim -->
<g id="edge12" class="edge">
<title>story_entities&#45;&gt;story_anim</title>
<path fill="none" stroke="#555555" d="M2679.76,-410.94C2703.19,-392.45 2740.94,-364.53 2777,-346 2780.3,-344.3 2783.73,-342.67 2787.22,-341.1"/>
<polygon fill="#555555" stroke="#555555" points="2788.77,-344.24 2796.59,-337.09 2786.02,-337.8 2788.77,-344.24"/>
</g>
<!-- story_events -->
<g id="node13" class="node">
<title>story_events</title>
<path fill="#fdf2f8" stroke="black" d="M2910,-393C2910,-393 2804,-393 2804,-393 2798,-393 2792,-387 2792,-381 2792,-381 2792,-367 2792,-367 2792,-361 2798,-355 2804,-355 2804,-355 2910,-355 2910,-355 2916,-355 2922,-361 2922,-367 2922,-367 2922,-381 2922,-381 2922,-387 2916,-393 2910,-393"/>
<text text-anchor="middle" x="2857" y="-377.8" font-family="Helvetica,sans-Serif" font-size="14.00">events</text>
<text text-anchor="middle" x="2857" y="-362.8" font-family="Helvetica,sans-Serif" font-size="14.00">story&#45;api&#45;events</text>
</g>
<!-- story_entities&#45;&gt;story_events -->
<g id="edge13" class="edge">
<title>story_entities&#45;&gt;story_events</title>
<path fill="none" stroke="#555555" d="M2724.32,-410.96C2742.89,-405.75 2763.1,-400.08 2781.99,-394.77"/>
<polygon fill="#555555" stroke="#555555" points="2783.05,-398.11 2791.74,-392.04 2781.16,-391.37 2783.05,-398.11"/>
</g>
<!-- story_props -->
<g id="node14" class="node">
<title>story_props</title>
<path fill="#fdf2f8" stroke="black" d="M2922,-449C2922,-449 2792,-449 2792,-449 2786,-449 2780,-443 2780,-437 2780,-437 2780,-423 2780,-423 2780,-417 2786,-411 2792,-411 2792,-411 2922,-411 2922,-411 2928,-411 2934,-417 2934,-423 2934,-423 2934,-437 2934,-437 2934,-443 2928,-449 2922,-449"/>
<text text-anchor="middle" x="2857" y="-433.8" font-family="Helvetica,sans-Serif" font-size="14.00">properties</text>
<text text-anchor="middle" x="2857" y="-418.8" font-family="Helvetica,sans-Serif" font-size="14.00">story&#45;api&#45;properties</text>
</g>
<!-- story_entities&#45;&gt;story_props -->
<g id="edge14" class="edge">
<title>story_entities&#45;&gt;story_props</title>
<path fill="none" stroke="#555555" d="M2740.24,-430C2749.97,-430 2759.92,-430 2769.68,-430"/>
<polygon fill="#555555" stroke="#555555" points="2769.78,-433.5 2779.78,-430 2769.78,-426.5 2769.78,-433.5"/>
</g>
<!-- story_anim&#45;&gt;story_beh -->
<g id="edge15" class="edge">
<title>story_anim&#45;&gt;story_beh</title>
<path fill="none" stroke="#555555" d="M2937.19,-323.7C3006.07,-328.66 3105.15,-335.79 3172.59,-340.64"/>
<polygon fill="#555555" stroke="#555555" points="3172.49,-344.15 3182.72,-341.37 3173,-337.16 3172.49,-344.15"/>
</g>
<!-- story_events&#45;&gt;story_beh -->
<g id="edge16" class="edge">
<title>story_events&#45;&gt;story_beh</title>
<path fill="none" stroke="#555555" d="M2922.24,-369.38C2991.18,-364.41 3100.53,-356.54 3173.02,-351.33"/>
<polygon fill="#555555" stroke="#555555" points="3173.27,-354.82 3182.99,-350.61 3172.77,-347.83 3173.27,-354.82"/>
</g>
<!-- story_props&#45;&gt;story_beh -->
<g id="edge17" class="edge">
<title>story_props&#45;&gt;story_beh</title>
<path fill="none" stroke="#555555" d="M2934.39,-413.5C3003.46,-398.59 3104.5,-376.77 3172.86,-362.01"/>
<polygon fill="#555555" stroke="#555555" points="3173.67,-365.42 3182.7,-359.88 3172.19,-358.57 3173.67,-365.42"/>
</g>
<!-- ren_scene -->
<g id="node17" class="node">
<title>ren_scene</title>
<path fill="#fffbeb" stroke="black" d="M3351,-584C3351,-584 3145,-584 3145,-584 3139,-584 3133,-578 3133,-572 3133,-572 3133,-558 3133,-558 3133,-552 3139,-546 3145,-546 3145,-546 3351,-546 3351,-546 3357,-546 3363,-552 3363,-558 3363,-558 3363,-572 3363,-572 3363,-578 3357,-584 3351,-584"/>
<text text-anchor="middle" x="3248" y="-568.8" font-family="Helvetica,sans-Serif" font-size="14.00">scene</text>
<text text-anchor="middle" x="3248" y="-553.8" font-family="Helvetica,sans-Serif" font-size="14.00">scene&#45;builder / scene&#45;renderer</text>
</g>
<!-- story_props&#45;&gt;ren_scene -->
<g id="edge41" class="edge">
<title>story_props&#45;&gt;ren_scene</title>
<path fill="none" stroke="#555555" d="M2892.16,-449.12C2906.99,-458.44 2923.91,-470.54 2937,-484 2947.31,-494.61 2942.6,-503.93 2955,-512 3015.31,-551.28 3044.21,-523.97 3115,-537 3126.52,-539.12 3138.58,-541.48 3150.52,-543.91"/>
<polygon fill="#555555" stroke="#555555" points="3150.01,-547.37 3160.51,-545.95 3151.41,-540.52 3150.01,-547.37"/>
<text text-anchor="middle" x="3035" y="-540.8" font-family="Helvetica,sans-Serif" font-size="14.00">scene/style data</text>
</g>
<!-- ren_mesh -->
<g id="node16" class="node">
<title>ren_mesh</title>
<path fill="#fffbeb" stroke="black" d="M2897,-646C2897,-646 2817,-646 2817,-646 2811,-646 2805,-640 2805,-634 2805,-634 2805,-620 2805,-620 2805,-614 2811,-608 2817,-608 2817,-608 2897,-608 2897,-608 2903,-608 2909,-614 2909,-620 2909,-620 2909,-634 2909,-634 2909,-640 2903,-646 2897,-646"/>
<text text-anchor="middle" x="2857" y="-630.8" font-family="Helvetica,sans-Serif" font-size="14.00">mesh</text>
<text text-anchor="middle" x="2857" y="-615.8" font-family="Helvetica,sans-Serif" font-size="14.00">render&#45;mesh</text>
</g>
<!-- ren_mesh&#45;&gt;ren_scene -->
<g id="edge18" class="edge">
<title>ren_mesh&#45;&gt;ren_scene</title>
<path fill="none" stroke="#555555" d="M2909.25,-618.83C2963.34,-610.21 3050.59,-596.3 3122.86,-584.79"/>
<polygon fill="#555555" stroke="#555555" points="3123.63,-588.21 3132.96,-583.18 3122.53,-581.29 3123.63,-588.21"/>
</g>
<!-- ren_fx -->
<g id="node20" class="node">
<title>ren_fx</title>
<path fill="#fffbeb" stroke="black" d="M3501,-584C3501,-584 3412,-584 3412,-584 3406,-584 3400,-578 3400,-572 3400,-572 3400,-558 3400,-558 3400,-552 3406,-546 3412,-546 3412,-546 3501,-546 3501,-546 3507,-546 3513,-552 3513,-558 3513,-558 3513,-572 3513,-572 3513,-578 3507,-584 3501,-584"/>
<text text-anchor="middle" x="3456.5" y="-568.8" font-family="Helvetica,sans-Serif" font-size="14.00">effects</text>
<text text-anchor="middle" x="3456.5" y="-553.8" font-family="Helvetica,sans-Serif" font-size="14.00">render&#45;effects</text>
</g>
<!-- ren_scene&#45;&gt;ren_fx -->
<g id="edge22" class="edge">
<title>ren_scene&#45;&gt;ren_fx</title>
<path fill="none" stroke="#555555" d="M3363.12,-565C3372.21,-565 3381.18,-565 3389.75,-565"/>
<polygon fill="#555555" stroke="#555555" points="3389.99,-568.5 3399.99,-565 3389.99,-561.5 3389.99,-568.5"/>
</g>
<!-- ren_mat -->
<g id="node18" class="node">
<title>ren_mat</title>
<path fill="#fffbeb" stroke="black" d="M2910.5,-590C2910.5,-590 2803.5,-590 2803.5,-590 2797.5,-590 2791.5,-584 2791.5,-578 2791.5,-578 2791.5,-564 2791.5,-564 2791.5,-558 2797.5,-552 2803.5,-552 2803.5,-552 2910.5,-552 2910.5,-552 2916.5,-552 2922.5,-558 2922.5,-564 2922.5,-564 2922.5,-578 2922.5,-578 2922.5,-584 2916.5,-590 2910.5,-590"/>
<text text-anchor="middle" x="2857" y="-574.8" font-family="Helvetica,sans-Serif" font-size="14.00">materials</text>
<text text-anchor="middle" x="2857" y="-559.8" font-family="Helvetica,sans-Serif" font-size="14.00">render&#45;materials</text>
</g>
<!-- ren_mat&#45;&gt;ren_scene -->
<g id="edge20" class="edge">
<title>ren_mat&#45;&gt;ren_scene</title>
<path fill="none" stroke="#555555" d="M2922.67,-570C2977.03,-569.16 3056.27,-567.94 3122.82,-566.92"/>
<polygon fill="#555555" stroke="#555555" points="3123.02,-570.41 3132.97,-566.76 3122.92,-563.41 3123.02,-570.41"/>
</g>
<!-- ren_shader -->
<g id="node19" class="node">
<title>ren_shader</title>
<path fill="#fffbeb" stroke="black" d="M2727.5,-590C2727.5,-590 2583.5,-590 2583.5,-590 2577.5,-590 2571.5,-584 2571.5,-578 2571.5,-578 2571.5,-564 2571.5,-564 2571.5,-558 2577.5,-552 2583.5,-552 2583.5,-552 2727.5,-552 2727.5,-552 2733.5,-552 2739.5,-558 2739.5,-564 2739.5,-564 2739.5,-578 2739.5,-578 2739.5,-584 2733.5,-590 2727.5,-590"/>
<text text-anchor="middle" x="2655.5" y="-574.8" font-family="Helvetica,sans-Serif" font-size="14.00">shaders</text>
<text text-anchor="middle" x="2655.5" y="-559.8" font-family="Helvetica,sans-Serif" font-size="14.00">render&#45;shader&#45;system</text>
</g>
<!-- ren_shader&#45;&gt;ren_mat -->
<g id="edge21" class="edge">
<title>ren_shader&#45;&gt;ren_mat</title>
<path fill="none" stroke="#555555" d="M2739.66,-571C2753.38,-571 2767.53,-571 2781.03,-571"/>
<polygon fill="#555555" stroke="#555555" points="2781.21,-574.5 2791.21,-571 2781.21,-567.5 2781.21,-574.5"/>
</g>
<!-- ren_text -->
<g id="node21" class="node">
<title>ren_text</title>
<path fill="#fffbeb" stroke="black" d="M2891.5,-534C2891.5,-534 2822.5,-534 2822.5,-534 2816.5,-534 2810.5,-528 2810.5,-522 2810.5,-522 2810.5,-508 2810.5,-508 2810.5,-502 2816.5,-496 2822.5,-496 2822.5,-496 2891.5,-496 2891.5,-496 2897.5,-496 2903.5,-502 2903.5,-508 2903.5,-508 2903.5,-522 2903.5,-522 2903.5,-528 2897.5,-534 2891.5,-534"/>
<text text-anchor="middle" x="2857" y="-518.8" font-family="Helvetica,sans-Serif" font-size="14.00">text</text>
<text text-anchor="middle" x="2857" y="-503.8" font-family="Helvetica,sans-Serif" font-size="14.00">render&#45;text</text>
</g>
<!-- ren_text&#45;&gt;ren_scene -->
<g id="edge19" class="edge">
<title>ren_text&#45;&gt;ren_scene</title>
<path fill="none" stroke="#555555" d="M2903.65,-528.69C2914.82,-532.71 2926.56,-537.53 2937,-543 2945.74,-547.58 2945.66,-552.82 2955,-556 2971.11,-561.48 3050.56,-563.69 3122.52,-564.55"/>
<polygon fill="#555555" stroke="#555555" points="3122.58,-568.05 3132.62,-564.66 3122.66,-561.05 3122.58,-568.05"/>
</g>
<!-- ide_persp -->
<g id="node22" class="node">
<title>ide_persp</title>
<path fill="#ecfdf5" stroke="black" d="M616.5,-384C616.5,-384 421.5,-384 421.5,-384 415.5,-384 409.5,-378 409.5,-372 409.5,-372 409.5,-358 409.5,-358 409.5,-352 415.5,-346 421.5,-346 421.5,-346 616.5,-346 616.5,-346 622.5,-346 628.5,-352 628.5,-358 628.5,-358 628.5,-372 628.5,-372 628.5,-378 622.5,-384 616.5,-384"/>
<text text-anchor="middle" x="519" y="-368.8" font-family="Helvetica,sans-Serif" font-size="14.00">perspectives</text>
<text text-anchor="middle" x="519" y="-353.8" font-family="Helvetica,sans-Serif" font-size="14.00">ide&#45;perspectives / workspace</text>
</g>
<!-- ide_gallery -->
<g id="node23" class="node">
<title>ide_gallery</title>
<path fill="#ecfdf5" stroke="black" d="M798.5,-410C798.5,-410 758.5,-410 758.5,-410 752.5,-410 746.5,-404 746.5,-398 746.5,-398 746.5,-384 746.5,-384 746.5,-378 752.5,-372 758.5,-372 758.5,-372 798.5,-372 798.5,-372 804.5,-372 810.5,-378 810.5,-384 810.5,-384 810.5,-398 810.5,-398 810.5,-404 804.5,-410 798.5,-410"/>
<text text-anchor="middle" x="778.5" y="-394.8" font-family="Helvetica,sans-Serif" font-size="14.00">gallery</text>
<text text-anchor="middle" x="778.5" y="-379.8" font-family="Helvetica,sans-Serif" font-size="14.00">gallery</text>
</g>
<!-- ide_persp&#45;&gt;ide_gallery -->
<g id="edge23" class="edge">
<title>ide_persp&#45;&gt;ide_gallery</title>
<path fill="none" stroke="#555555" d="M628.83,-375.99C666.85,-379.83 707.24,-383.91 736.32,-386.84"/>
<polygon fill="#555555" stroke="#555555" points="736.19,-390.35 746.49,-387.87 736.89,-383.38 736.19,-390.35"/>
</g>
<!-- ide_scene -->
<g id="node24" class="node">
<title>ide_scene</title>
<path fill="#ecfdf5" stroke="black" d="M1163.5,-394C1163.5,-394 1084.5,-394 1084.5,-394 1078.5,-394 1072.5,-388 1072.5,-382 1072.5,-382 1072.5,-370 1072.5,-370 1072.5,-364 1078.5,-358 1084.5,-358 1084.5,-358 1163.5,-358 1163.5,-358 1169.5,-358 1175.5,-364 1175.5,-370 1175.5,-370 1175.5,-382 1175.5,-382 1175.5,-388 1169.5,-394 1163.5,-394"/>
<text text-anchor="middle" x="1124" y="-372.3" font-family="Helvetica,sans-Serif" font-size="14.00">scene&#45;editor</text>
</g>
<!-- ide_persp&#45;&gt;ide_scene -->
<g id="edge24" class="edge">
<title>ide_persp&#45;&gt;ide_scene</title>
<path fill="none" stroke="#555555" d="M628.55,-363.54C649.28,-363.31 670.81,-363.12 691,-363 768.78,-362.55 788.25,-361.03 866,-363 933.2,-364.7 1010.19,-368.89 1062.25,-372.06"/>
<polygon fill="#555555" stroke="#555555" points="1062.12,-375.56 1072.31,-372.68 1062.55,-368.57 1062.12,-375.56"/>
</g>
<!-- ide_code -->
<g id="node25" class="node">
<title>ide_code</title>
<path fill="#ecfdf5" stroke="black" d="M1538,-368C1538,-368 1338,-368 1338,-368 1332,-368 1326,-362 1326,-356 1326,-356 1326,-344 1326,-344 1326,-338 1332,-332 1338,-332 1338,-332 1538,-332 1538,-332 1544,-332 1550,-338 1550,-344 1550,-344 1550,-356 1550,-356 1550,-362 1544,-368 1538,-368"/>
<text text-anchor="middle" x="1438" y="-346.3" font-family="Helvetica,sans-Serif" font-size="14.00">code&#45;editor / procedure&#45;editor</text>
</g>
<!-- ide_persp&#45;&gt;ide_code -->
<g id="edge25" class="edge">
<title>ide_persp&#45;&gt;ide_code</title>
<path fill="none" stroke="#555555" d="M628.54,-360.31C649.28,-359.48 670.81,-358.67 691,-358 846.52,-352.82 885.41,-351 1041,-349 1114.77,-348.05 1133.22,-348.84 1207,-349 1242.25,-349.08 1280.55,-349.22 1315.59,-349.37"/>
<polygon fill="#555555" stroke="#555555" points="1315.85,-352.87 1325.86,-349.42 1315.88,-345.87 1315.85,-352.87"/>
</g>
<!-- ide_debug -->
<g id="node26" class="node">
<title>ide_debug</title>
<path fill="#ecfdf5" stroke="black" d="M1821,-408C1821,-408 1753,-408 1753,-408 1747,-408 1741,-402 1741,-396 1741,-396 1741,-384 1741,-384 1741,-378 1747,-372 1753,-372 1753,-372 1821,-372 1821,-372 1827,-372 1833,-378 1833,-384 1833,-384 1833,-396 1833,-396 1833,-402 1827,-408 1821,-408"/>
<text text-anchor="middle" x="1787" y="-386.3" font-family="Helvetica,sans-Serif" font-size="14.00">debugging</text>
</g>
<!-- ide_persp&#45;&gt;ide_debug -->
<g id="edge26" class="edge">
<title>ide_persp&#45;&gt;ide_debug</title>
<path fill="none" stroke="#555555" d="M567.06,-384.03C618.04,-402.89 702.18,-429 777.5,-429 777.5,-429 777.5,-429 1439,-429 1542.65,-429 1662.63,-411.6 1730.89,-400.05"/>
<polygon fill="#555555" stroke="#555555" points="1731.72,-403.46 1740.99,-398.32 1730.54,-396.56 1731.72,-403.46"/>
</g>
<!-- ide_dialog -->
<g id="node27" class="node">
<title>ide_dialog</title>
<path fill="#ecfdf5" stroke="black" d="M799.5,-484C799.5,-484 757.5,-484 757.5,-484 751.5,-484 745.5,-478 745.5,-472 745.5,-472 745.5,-460 745.5,-460 745.5,-454 751.5,-448 757.5,-448 757.5,-448 799.5,-448 799.5,-448 805.5,-448 811.5,-454 811.5,-460 811.5,-460 811.5,-472 811.5,-472 811.5,-478 805.5,-484 799.5,-484"/>
<text text-anchor="middle" x="778.5" y="-462.3" font-family="Helvetica,sans-Serif" font-size="14.00">dialogs</text>
</g>
<!-- ide_persp&#45;&gt;ide_dialog -->
<g id="edge27" class="edge">
<title>ide_persp&#45;&gt;ide_dialog</title>
<path fill="none" stroke="#555555" d="M558.14,-384.01C588.53,-398.74 632.41,-419.08 672,-434 692.59,-441.76 715.96,-449 735.47,-454.63"/>
<polygon fill="#555555" stroke="#555555" points="734.7,-458.05 745.28,-457.42 736.62,-451.32 734.7,-458.05"/>
</g>
<!-- ide_gallery&#45;&gt;ide_scene -->
<g id="edge28" class="edge">
<title>ide_gallery&#45;&gt;ide_scene</title>
<path fill="none" stroke="#555555" d="M810.59,-389.64C867.37,-387.16 988.78,-381.86 1062.4,-378.65"/>
<polygon fill="#555555" stroke="#555555" points="1062.63,-382.14 1072.47,-378.21 1062.32,-375.15 1062.63,-382.14"/>
</g>
<!-- ide_scene&#45;&gt;story_entities -->
<g id="edge43" class="edge">
<title>ide_scene&#45;&gt;story_entities</title>
<path fill="none" stroke="#555555" d="M1166.48,-394.2C1225.41,-418.36 1337.31,-458 1437,-458 1437,-458 1437,-458 2456,-458 2490.38,-458 2527.78,-453.83 2560.76,-448.71"/>
<polygon fill="#555555" stroke="#555555" points="2561.52,-452.13 2570.84,-447.09 2560.41,-445.22 2561.52,-452.13"/>
<text text-anchor="middle" x="1961" y="-461.8" font-family="Helvetica,sans-Serif" font-size="14.00">place entities</text>
</g>
<!-- ide_scene&#45;&gt;ide_code -->
<g id="edge29" class="edge">
<title>ide_scene&#45;&gt;ide_code</title>
<path fill="none" stroke="#555555" d="M1175.82,-371.76C1213.7,-368.61 1267.08,-364.16 1315.71,-360.11"/>
<polygon fill="#555555" stroke="#555555" points="1316.01,-363.59 1325.68,-359.28 1315.43,-356.62 1316.01,-363.59"/>
</g>
<!-- ide_code&#45;&gt;tw_compiler -->
<g id="edge44" class="edge">
<title>ide_code&#45;&gt;tw_compiler</title>
<path fill="none" stroke="#555555" d="M1550.23,-343.31C1688.57,-334.33 1931.8,-316.41 2139,-290 2315.63,-267.49 2359.42,-258.06 2534,-223 2548.37,-220.11 2563.64,-216.78 2578.32,-213.43"/>
<polygon fill="#555555" stroke="#555555" points="2579.4,-216.78 2588.36,-211.12 2577.83,-209.95 2579.4,-216.78"/>
<text text-anchor="middle" x="2084" y="-306.8" font-family="Helvetica,sans-Serif" font-size="14.00">run / debug</text>
</g>
<!-- ide_code&#45;&gt;ast_editor -->
<g id="edge42" class="edge">
<title>ide_code&#45;&gt;ast_editor</title>
<path fill="none" stroke="#555555" d="M1528.87,-331.92C1536.35,-328.6 1543.52,-324.66 1550,-320 1561.71,-311.58 1558.66,-303.99 1568,-293 1627.59,-222.89 1709.66,-152.18 1754.17,-115.56"/>
<polygon fill="#555555" stroke="#555555" points="1756.5,-118.17 1762.03,-109.13 1752.07,-112.76 1756.5,-118.17"/>
<text text-anchor="middle" x="1615.5" y="-296.8" font-family="Helvetica,sans-Serif" font-size="14.00">edit AST</text>
</g>
<!-- ide_code&#45;&gt;ide_debug -->
<g id="edge30" class="edge">
<title>ide_code&#45;&gt;ide_debug</title>
<path fill="none" stroke="#555555" d="M1550.22,-362.82C1610.56,-369.78 1682.47,-378.07 1730.88,-383.65"/>
<polygon fill="#555555" stroke="#555555" points="1730.51,-387.13 1740.85,-384.79 1731.31,-380.17 1730.51,-387.13"/>
</g>
<!-- infra_a3p -->
<g id="node28" class="node">
<title>infra_a3p</title>
<path fill="#f5f3ff" stroke="#8b5cf6" stroke-width="2" d="M183,-280C183,-280 28,-280 28,-280 22,-280 16,-274 16,-268 16,-268 16,-254 16,-254 16,-248 22,-242 28,-242 28,-242 183,-242 183,-242 189,-242 195,-248 195,-254 195,-254 195,-268 195,-268 195,-274 189,-280 183,-280"/>
<text text-anchor="middle" x="105.5" y="-264.8" font-family="Helvetica,sans-Serif" font-size="14.00">a3p hub</text>
<text text-anchor="middle" x="105.5" y="-249.8" font-family="Helvetica,sans-Serif" font-size="14.00">a3p&#45;parser / a3p&#45;writer</text>
</g>
<!-- infra_a3p&#45;&gt;tw_vm -->
<g id="edge45" class="edge">
<title>infra_a3p&#45;&gt;tw_vm</title>
<path fill="none" stroke="#555555" d="M121.82,-241.81C171.82,-181.53 337.38,0 518,0 518,0 518,0 2656.5,0 2734.1,0 2803.13,-71.68 2835.88,-112.09"/>
<polygon fill="#555555" stroke="#555555" points="2833.17,-114.3 2842.12,-119.96 2838.65,-109.95 2833.17,-114.3"/>
<text text-anchor="middle" x="1615.5" y="-3.8" font-family="Helvetica,sans-Serif" font-size="14.00">project model</text>
</g>
<!-- infra_a3p&#45;&gt;story_entities -->
<g id="edge46" class="edge">
<title>infra_a3p&#45;&gt;story_entities</title>
<path fill="none" stroke="#555555" d="M120.47,-280.21C157.3,-329.27 262.62,-459.49 384,-519 438.19,-545.57 457.65,-541 518,-541 518,-541 518,-541 2456,-541 2464.81,-541 2557.9,-487 2613.42,-454.33"/>
<polygon fill="#555555" stroke="#555555" points="2615.48,-457.17 2622.32,-449.08 2611.92,-451.14 2615.48,-457.17"/>
<text text-anchor="middle" x="1438" y="-544.8" font-family="Helvetica,sans-Serif" font-size="14.00">story/object data</text>
</g>
<!-- infra_a3p&#45;&gt;ren_scene -->
<g id="edge47" class="edge">
<title>infra_a3p&#45;&gt;ren_scene</title>
<path fill="none" stroke="#555555" d="M114.11,-280.09C147.88,-361.32 292.54,-674 518,-674 518,-674 518,-674 2858,-674 2984.02,-674 3124.78,-620.3 3197.5,-588.29"/>
<polygon fill="#555555" stroke="#555555" points="3199.16,-591.38 3206.87,-584.11 3196.32,-584.98 3199.16,-591.38"/>
<text text-anchor="middle" x="1787" y="-677.8" font-family="Helvetica,sans-Serif" font-size="14.00">scene graph input</text>
</g>
<!-- infra_a3p&#45;&gt;ide_persp -->
<g id="edge48" class="edge">
<title>infra_a3p&#45;&gt;ide_persp</title>
<path fill="none" stroke="#555555" d="M178.36,-280.03C189.94,-283.05 201.8,-286.13 213,-289 286.24,-307.75 369.53,-328.46 430.55,-343.53"/>
<polygon fill="#555555" stroke="#555555" points="429.98,-346.99 440.52,-345.99 431.65,-340.19 429.98,-346.99"/>
<text text-anchor="middle" x="289.5" y="-329.8" font-family="Helvetica,sans-Serif" font-size="14.00">load / inspect projects</text>
</g>
<!-- infra_project -->
<g id="node29" class="node">
<title>infra_project</title>
<path fill="#f5f3ff" stroke="black" d="M642,-265C642,-265 396,-265 396,-265 390,-265 384,-259 384,-253 384,-253 384,-239 384,-239 384,-233 390,-227 396,-227 396,-227 642,-227 642,-227 648,-227 654,-233 654,-239 654,-239 654,-253 654,-253 654,-259 648,-265 642,-265"/>
<text text-anchor="middle" x="519" y="-249.8" font-family="Helvetica,sans-Serif" font-size="14.00">project&#45;system</text>
<text text-anchor="middle" x="519" y="-234.8" font-family="Helvetica,sans-Serif" font-size="14.00">project&#45;system / manager / template</text>
</g>
<!-- infra_a3p&#45;&gt;infra_project -->
<g id="edge31" class="edge">
<title>infra_a3p&#45;&gt;infra_project</title>
<path fill="none" stroke="#555555" d="M195.03,-257.77C247.06,-255.88 314.09,-253.43 373.59,-251.26"/>
<polygon fill="#555555" stroke="#555555" points="373.97,-254.75 383.84,-250.89 373.72,-247.76 373.97,-254.75"/>
</g>
<!-- infra_persist -->
<g id="node30" class="node">
<title>infra_persist</title>
<path fill="#f5f3ff" stroke="black" d="M854,-285C854,-285 703,-285 703,-285 697,-285 691,-279 691,-273 691,-273 691,-259 691,-259 691,-253 697,-247 703,-247 703,-247 854,-247 854,-247 860,-247 866,-253 866,-259 866,-259 866,-273 866,-273 866,-279 860,-285 854,-285"/>
<text text-anchor="middle" x="778.5" y="-269.8" font-family="Helvetica,sans-Serif" font-size="14.00">persistence</text>
<text text-anchor="middle" x="778.5" y="-254.8" font-family="Helvetica,sans-Serif" font-size="14.00">project&#45;io / persistence</text>
</g>
<!-- infra_a3p&#45;&gt;infra_persist -->
<g id="edge32" class="edge">
<title>infra_a3p&#45;&gt;infra_persist</title>
<path fill="none" stroke="#555555" d="M195.19,-266.21C249.65,-269.15 320.84,-272.52 384,-274 503.97,-276.81 534.06,-277.88 654,-274 662.66,-273.72 671.66,-273.33 680.67,-272.87"/>
<polygon fill="#555555" stroke="#555555" points="681.03,-276.36 690.83,-272.33 680.66,-269.37 681.03,-276.36"/>
</g>
<!-- infra_server -->
<g id="node33" class="node">
<title>infra_server</title>
<path fill="#f5f3ff" stroke="black" d="M811,-209C811,-209 746,-209 746,-209 740,-209 734,-203 734,-197 734,-197 734,-183 734,-183 734,-177 740,-171 746,-171 746,-171 811,-171 811,-171 817,-171 823,-177 823,-183 823,-183 823,-197 823,-197 823,-203 817,-209 811,-209"/>
<text text-anchor="middle" x="778.5" y="-193.8" font-family="Helvetica,sans-Serif" font-size="14.00">server</text>
<text text-anchor="middle" x="778.5" y="-178.8" font-family="Helvetica,sans-Serif" font-size="14.00">server / cli</text>
</g>
<!-- infra_a3p&#45;&gt;infra_server -->
<g id="edge37" class="edge">
<title>infra_a3p&#45;&gt;infra_server</title>
<path fill="none" stroke="#555555" d="M127.96,-241.71C148.29,-224.67 180.47,-200.76 213,-189 390.73,-124.77 620.99,-157.87 723.81,-178.11"/>
<polygon fill="#555555" stroke="#555555" points="723.16,-181.55 733.65,-180.09 724.54,-174.69 723.16,-181.55"/>
</g>
<!-- infra_project&#45;&gt;infra_persist -->
<g id="edge33" class="edge">
<title>infra_project&#45;&gt;infra_persist</title>
<path fill="none" stroke="#555555" d="M654.03,-256.41C662.99,-257.11 671.91,-257.8 680.63,-258.48"/>
<polygon fill="#555555" stroke="#555555" points="680.52,-261.98 690.76,-259.26 681.06,-255 680.52,-261.98"/>
</g>
<!-- infra_collab -->
<g id="node32" class="node">
<title>infra_collab</title>
<path fill="#f5f3ff" stroke="black" d="M1524.5,-282C1524.5,-282 1351.5,-282 1351.5,-282 1345.5,-282 1339.5,-276 1339.5,-270 1339.5,-270 1339.5,-256 1339.5,-256 1339.5,-250 1345.5,-244 1351.5,-244 1351.5,-244 1524.5,-244 1524.5,-244 1530.5,-244 1536.5,-250 1536.5,-256 1536.5,-256 1536.5,-270 1536.5,-270 1536.5,-276 1530.5,-282 1524.5,-282"/>
<text text-anchor="middle" x="1438" y="-266.8" font-family="Helvetica,sans-Serif" font-size="14.00">collaboration</text>
<text text-anchor="middle" x="1438" y="-251.8" font-family="Helvetica,sans-Serif" font-size="14.00">collaboration (in&#45;memory)</text>
</g>
<!-- infra_project&#45;&gt;infra_collab -->
<g id="edge52" class="edge">
<title>infra_project&#45;&gt;infra_collab</title>
<path fill="none" stroke="#555555" d="M654.4,-239.12C666.77,-238.66 679.12,-238.28 691,-238 920.27,-232.64 978,-225.59 1207,-238 1246.95,-240.16 1290.62,-244.43 1329.08,-248.83"/>
<polygon fill="#555555" stroke="#555555" points="1328.93,-252.34 1339.26,-250.01 1329.73,-245.38 1328.93,-252.34"/>
<text text-anchor="middle" x="953.5" y="-235.8" font-family="Helvetica,sans-Serif" font-size="14.00">shared project state</text>
</g>
<!-- infra_project&#45;&gt;infra_server -->
<g id="edge36" class="edge">
<title>infra_project&#45;&gt;infra_server</title>
<path fill="none" stroke="#555555" d="M607.54,-226.96C646.12,-218.57 690.22,-208.98 723.83,-201.67"/>
<polygon fill="#555555" stroke="#555555" points="724.88,-205.03 733.91,-199.48 723.39,-198.19 724.88,-205.03"/>
</g>
<!-- infra_sync -->
<g id="node31" class="node">
<title>infra_sync</title>
<path fill="#f5f3ff" stroke="black" d="M1195,-285C1195,-285 1053,-285 1053,-285 1047,-285 1041,-279 1041,-273 1041,-273 1041,-259 1041,-259 1041,-253 1047,-247 1053,-247 1053,-247 1195,-247 1195,-247 1201,-247 1207,-253 1207,-259 1207,-259 1207,-273 1207,-273 1207,-279 1201,-285 1195,-285"/>
<text text-anchor="middle" x="1124" y="-269.8" font-family="Helvetica,sans-Serif" font-size="14.00">state sync</text>
<text text-anchor="middle" x="1124" y="-254.8" font-family="Helvetica,sans-Serif" font-size="14.00">state&#45;synchronization</text>
</g>
<!-- infra_persist&#45;&gt;infra_sync -->
<g id="edge34" class="edge">
<title>infra_persist&#45;&gt;infra_sync</title>
<path fill="none" stroke="#555555" d="M866.18,-266C916.39,-266 979.59,-266 1030.73,-266"/>
<polygon fill="#555555" stroke="#555555" points="1030.78,-269.5 1040.78,-266 1030.78,-262.5 1030.78,-269.5"/>
</g>
<!-- infra_sync&#45;&gt;infra_collab -->
<g id="edge35" class="edge">
<title>infra_sync&#45;&gt;infra_collab</title>
<path fill="none" stroke="#555555" d="M1207.38,-265.21C1244.75,-264.85 1289.42,-264.42 1329.39,-264.03"/>
<polygon fill="#555555" stroke="#555555" points="1329.48,-267.53 1339.45,-263.94 1329.41,-260.53 1329.48,-267.53"/>
</g>
<!-- infra_server&#45;&gt;tw_vm -->
<g id="edge49" class="edge">
<title>infra_server&#45;&gt;tw_vm</title>
<path fill="none" stroke="#555555" d="M823.03,-183.33C888.12,-173.95 1014.74,-158 1123,-158 1123,-158 1123,-158 1616.5,-158 1743.1,-158 1788.83,-202.7 1901,-144 1907.46,-140.62 1904.51,-134.32 1911,-131 1927.13,-122.75 2544.88,-111.28 2563,-111 2641.66,-109.79 2661.88,-101.71 2740,-111 2755.78,-112.88 2772.52,-116.14 2788.22,-119.8"/>
<polygon fill="#555555" stroke="#555555" points="2787.83,-123.3 2798.37,-122.24 2789.47,-116.5 2787.83,-123.3"/>
<text text-anchor="middle" x="1961" y="-134.8" font-family="Helvetica,sans-Serif" font-size="14.00">/api/world/run</text>
</g>
<!-- infra_server&#45;&gt;ren_scene -->
<g id="edge50" class="edge">
<title>infra_server&#45;&gt;ren_scene</title>
<path fill="none" stroke="#555555" d="M823.26,-192.54C1060.35,-206.26 2183.03,-271 2256.5,-271 2256.5,-271 2256.5,-271 2759,-271 2838.43,-271 2865.09,-253.25 2937,-287 3048.81,-339.47 3038.76,-404.16 3133,-484 3157.15,-504.46 3186.26,-525.08 3209.02,-540.4"/>
<polygon fill="#555555" stroke="#555555" points="3207.15,-543.36 3217.41,-546 3211.03,-537.54 3207.15,-543.36"/>
<text text-anchor="middle" x="2084" y="-268.8" font-family="Helvetica,sans-Serif" font-size="14.00">/api/screenshot</text>
</g>
<!-- infra_server&#45;&gt;infra_a3p -->
<g id="edge51" class="edge">
<title>infra_server&#45;&gt;infra_a3p</title>
<path fill="none" stroke="#555555" d="M733.93,-188.99C661.16,-187.85 510.4,-187.82 384,-203 318.21,-210.9 244.88,-226.53 190.13,-239.58"/>
<polygon fill="#555555" stroke="#555555" points="189.03,-236.24 180.13,-241.98 190.67,-243.05 189.03,-236.24"/>
<text text-anchor="middle" x="519" y="-206.8" font-family="Helvetica,sans-Serif" font-size="14.00">/api/launch</text>
</g>
</g>
</svg>
