<?xml version="1.0" encoding="UTF-8" standalone="no"?>
<!DOCTYPE svg PUBLIC "-//W3C//DTD SVG 1.1//EN"
 "http://www.w3.org/Graphics/SVG/1.1/DTD/svg11.dtd">
<!-- Generated by graphviz version 2.42.4 (0)
 -->
<!-- Title: runtime_topology Pages: 1 -->
<svg width="1730pt" height="614pt"
 viewBox="0.00 0.00 1730.00 614.28" xmlns="http://www.w3.org/2000/svg" xmlns:xlink="http://www.w3.org/1999/xlink">
<g id="graph0" class="graph" transform="scale(1 1) rotate(0) translate(4 610.28)">
<title>runtime_topology</title>
<polygon fill="white" stroke="transparent" points="-4,4 -4,-610.28 1726,-610.28 1726,4 -4,4"/>
<g id="clust1" class="cluster">
<title>cluster_build</title>
<path fill="none" stroke="#c4b5fd" d="M20,-373.28C20,-373.28 429,-373.28 429,-373.28 435,-373.28 441,-379.28 441,-385.28 441,-385.28 441,-546.28 441,-546.28 441,-552.28 435,-558.28 429,-558.28 429,-558.28 20,-558.28 20,-558.28 14,-558.28 8,-552.28 8,-546.28 8,-546.28 8,-385.28 8,-385.28 8,-379.28 14,-373.28 20,-373.28"/>
<text text-anchor="middle" x="224.5" y="-546.28" font-family="Helvetica,sans-Serif" font-size="10.00">Build system</text>
</g>
<g id="clust2" class="cluster">
<title>cluster_client</title>
<path fill="none" stroke="#93c5fd" d="M525.5,-525.28C525.5,-525.28 1702,-525.28 1702,-525.28 1708,-525.28 1714,-531.28 1714,-537.28 1714,-537.28 1714,-586.28 1714,-586.28 1714,-592.28 1708,-598.28 1702,-598.28 1702,-598.28 525.5,-598.28 525.5,-598.28 519.5,-598.28 513.5,-592.28 513.5,-586.28 513.5,-586.28 513.5,-537.28 513.5,-537.28 513.5,-531.28 519.5,-525.28 525.5,-525.28"/>
<text text-anchor="middle" x="1113.75" y="-586.28" font-family="Helvetica,sans-Serif" font-size="10.00">Browser runtime</text>
</g>
<g id="clust3" class="cluster">
<title>cluster_server</title>
<path fill="none" stroke="#86efac" d="M473,-14.28C473,-14.28 1080,-14.28 1080,-14.28 1086,-14.28 1092,-20.28 1092,-26.28 1092,-26.28 1092,-505.28 1092,-505.28 1092,-511.28 1086,-517.28 1080,-517.28 1080,-517.28 473,-517.28 473,-517.28 467,-517.28 461,-511.28 461,-505.28 461,-505.28 461,-26.28 461,-26.28 461,-20.28 467,-14.28 473,-14.28"/>
<text text-anchor="middle" x="776.5" y="-505.28" font-family="Helvetica,sans-Serif" font-size="10.00">Node runtime</text>
</g>
<g id="clust4" class="cluster">
<title>cluster_collaborators</title>
<path fill="none" stroke="#fca5a5" d="M1124,-13.28C1124,-13.28 1500,-13.28 1500,-13.28 1506,-13.28 1512,-19.28 1512,-25.28 1512,-25.28 1512,-352.28 1512,-352.28 1512,-358.28 1506,-364.28 1500,-364.28 1500,-364.28 1124,-364.28 1124,-364.28 1118,-364.28 1112,-358.28 1112,-352.28 1112,-352.28 1112,-25.28 1112,-25.28 1112,-19.28 1118,-13.28 1124,-13.28"/>
<text text-anchor="middle" x="1312" y="-352.28" font-family="Helvetica,sans-Serif" font-size="10.00">Server collaborators</text>
</g>
<!-- vite -->
<g id="node1" class="node">
<title>vite</title>
<path fill="#f5f3ff" stroke="#334155" d="M181.5,-531.28C181.5,-531.28 46.5,-531.28 46.5,-531.28 40.5,-531.28 34.5,-525.28 34.5,-519.28 34.5,-519.28 34.5,-505.28 34.5,-505.28 34.5,-499.28 40.5,-493.28 46.5,-493.28 46.5,-493.28 181.5,-493.28 181.5,-493.28 187.5,-493.28 193.5,-499.28 193.5,-505.28 193.5,-505.28 193.5,-519.28 193.5,-519.28 193.5,-525.28 187.5,-531.28 181.5,-531.28"/>
<text text-anchor="middle" x="114" y="-516.08" font-family="Helvetica,sans-Serif" font-size="14.00">Vite</text>
<text text-anchor="middle" x="114" y="-501.08" font-family="Helvetica,sans-Serif" font-size="14.00">build client from src/</text>
</g>
<!-- dist -->
<g id="node4" class="node">
<title>dist</title>
<path fill="#f5f3ff" stroke="#334155" d="M421,-531.28C421,-531.28 260,-531.28 260,-531.28 254,-531.28 248,-525.28 248,-519.28 248,-519.28 248,-505.28 248,-505.28 248,-499.28 254,-493.28 260,-493.28 260,-493.28 421,-493.28 421,-493.28 427,-493.28 433,-499.28 433,-505.28 433,-505.28 433,-519.28 433,-519.28 433,-525.28 427,-531.28 421,-531.28"/>
<text text-anchor="middle" x="340.5" y="-516.08" font-family="Helvetica,sans-Serif" font-size="14.00">dist/</text>
<text text-anchor="middle" x="340.5" y="-501.08" font-family="Helvetica,sans-Serif" font-size="14.00">index.html + browser JS</text>
</g>
<!-- vite&#45;&gt;dist -->
<g id="edge1" class="edge">
<title>vite&#45;&gt;dist</title>
<path fill="none" stroke="#475569" d="M193.52,-512.28C207.8,-512.28 222.88,-512.28 237.72,-512.28"/>
<polygon fill="#475569" stroke="#475569" points="237.94,-515.78 247.94,-512.28 237.94,-508.78 237.94,-515.78"/>
</g>
<!-- tsc_client -->
<g id="node2" class="node">
<title>tsc_client</title>
<path fill="#f5f3ff" stroke="#334155" d="M194.5,-475.28C194.5,-475.28 33.5,-475.28 33.5,-475.28 27.5,-475.28 21.5,-469.28 21.5,-463.28 21.5,-463.28 21.5,-449.28 21.5,-449.28 21.5,-443.28 27.5,-437.28 33.5,-437.28 33.5,-437.28 194.5,-437.28 194.5,-437.28 200.5,-437.28 206.5,-443.28 206.5,-449.28 206.5,-449.28 206.5,-463.28 206.5,-463.28 206.5,-469.28 200.5,-475.28 194.5,-475.28"/>
<text text-anchor="middle" x="114" y="-460.08" font-family="Helvetica,sans-Serif" font-size="14.00">tsc (noEmit)</text>
<text text-anchor="middle" x="114" y="-445.08" font-family="Helvetica,sans-Serif" font-size="14.00">typecheck client + tests</text>
</g>
<!-- tsc_client&#45;&gt;dist -->
<g id="edge2" class="edge">
<title>tsc_client&#45;&gt;dist</title>
<path fill="none" stroke="#475569" d="M191.32,-475.32C211.2,-480.28 232.76,-485.66 253.12,-490.74"/>
<polygon fill="#475569" stroke="#475569" points="252.46,-494.18 263.01,-493.2 254.16,-487.39 252.46,-494.18"/>
</g>
<!-- tsc_server -->
<g id="node3" class="node">
<title>tsc_server</title>
<path fill="#f5f3ff" stroke="#334155" d="M200,-419.28C200,-419.28 28,-419.28 28,-419.28 22,-419.28 16,-413.28 16,-407.28 16,-407.28 16,-393.28 16,-393.28 16,-387.28 22,-381.28 28,-381.28 28,-381.28 200,-381.28 200,-381.28 206,-381.28 212,-387.28 212,-393.28 212,-393.28 212,-407.28 212,-407.28 212,-413.28 206,-419.28 200,-419.28"/>
<text text-anchor="middle" x="114" y="-404.08" font-family="Helvetica,sans-Serif" font-size="14.00">tsc &#45;p tsconfig.server.json</text>
<text text-anchor="middle" x="114" y="-389.08" font-family="Helvetica,sans-Serif" font-size="14.00">emit server bundle</text>
</g>
<!-- dist_server -->
<g id="node5" class="node">
<title>dist_server</title>
<path fill="#f5f3ff" stroke="#334155" d="M392.5,-419.28C392.5,-419.28 288.5,-419.28 288.5,-419.28 282.5,-419.28 276.5,-413.28 276.5,-407.28 276.5,-407.28 276.5,-393.28 276.5,-393.28 276.5,-387.28 282.5,-381.28 288.5,-381.28 288.5,-381.28 392.5,-381.28 392.5,-381.28 398.5,-381.28 404.5,-387.28 404.5,-393.28 404.5,-393.28 404.5,-407.28 404.5,-407.28 404.5,-413.28 398.5,-419.28 392.5,-419.28"/>
<text text-anchor="middle" x="340.5" y="-404.08" font-family="Helvetica,sans-Serif" font-size="14.00">dist&#45;server/cli.js</text>
<text text-anchor="middle" x="340.5" y="-389.08" font-family="Helvetica,sans-Serif" font-size="14.00">serve command</text>
</g>
<!-- tsc_server&#45;&gt;dist_server -->
<g id="edge3" class="edge">
<title>tsc_server&#45;&gt;dist_server</title>
<path fill="none" stroke="#475569" d="M212.16,-400.28C230.12,-400.28 248.61,-400.28 265.73,-400.28"/>
<polygon fill="#475569" stroke="#475569" points="266.2,-403.78 276.2,-400.28 266.2,-396.78 266.2,-403.78"/>
</g>
<!-- browser -->
<g id="node6" class="node">
<title>browser</title>
<path fill="#eff6ff" stroke="#334155" d="M582.5,-569.28C582.5,-569.28 533.5,-569.28 533.5,-569.28 527.5,-569.28 521.5,-563.28 521.5,-557.28 521.5,-557.28 521.5,-545.28 521.5,-545.28 521.5,-539.28 527.5,-533.28 533.5,-533.28 533.5,-533.28 582.5,-533.28 582.5,-533.28 588.5,-533.28 594.5,-539.28 594.5,-545.28 594.5,-545.28 594.5,-557.28 594.5,-557.28 594.5,-563.28 588.5,-569.28 582.5,-569.28"/>
<text text-anchor="middle" x="558" y="-547.58" font-family="Helvetica,sans-Serif" font-size="14.00">Browser</text>
</g>
<!-- dist&#45;&gt;browser -->
<g id="edge4" class="edge">
<title>dist&#45;&gt;browser</title>
<path fill="none" stroke="#475569" d="M433.2,-528.88C460.23,-533.77 488.62,-538.91 511.4,-543.03"/>
<polygon fill="#475569" stroke="#475569" points="510.97,-546.51 521.44,-544.85 512.22,-539.62 510.97,-546.51"/>
</g>
<!-- cli -->
<g id="node12" class="node">
<title>cli</title>
<path fill="#f0fdf4" stroke="#334155" d="M635,-380.28C635,-380.28 481,-380.28 481,-380.28 475,-380.28 469,-374.28 469,-368.28 469,-368.28 469,-354.28 469,-354.28 469,-348.28 475,-342.28 481,-342.28 481,-342.28 635,-342.28 635,-342.28 641,-342.28 647,-348.28 647,-354.28 647,-354.28 647,-368.28 647,-368.28 647,-374.28 641,-380.28 635,-380.28"/>
<text text-anchor="middle" x="558" y="-365.08" font-family="Helvetica,sans-Serif" font-size="14.00">src/cli.ts</text>
<text text-anchor="middle" x="558" y="-350.08" font-family="Helvetica,sans-Serif" font-size="14.00">default 127.0.0.1:3000</text>
</g>
<!-- dist_server&#45;&gt;cli -->
<g id="edge10" class="edge">
<title>dist_server&#45;&gt;cli</title>
<path fill="none" stroke="#475569" d="M404.7,-388.85C421.76,-385.76 440.62,-382.35 459.09,-379"/>
<polygon fill="#475569" stroke="#475569" points="459.78,-382.43 469,-377.21 458.54,-375.55 459.78,-382.43"/>
</g>
<!-- index_html -->
<g id="node7" class="node">
<title>index_html</title>
<path fill="#eff6ff" stroke="#334155" d="M798,-569.28C798,-569.28 706,-569.28 706,-569.28 700,-569.28 694,-563.28 694,-557.28 694,-557.28 694,-545.28 694,-545.28 694,-539.28 700,-533.28 706,-533.28 706,-533.28 798,-533.28 798,-533.28 804,-533.28 810,-539.28 810,-545.28 810,-545.28 810,-557.28 810,-557.28 810,-563.28 804,-569.28 798,-569.28"/>
<text text-anchor="middle" x="752" y="-547.58" font-family="Helvetica,sans-Serif" font-size="14.00">src/index.html</text>
</g>
<!-- browser&#45;&gt;index_html -->
<g id="edge5" class="edge">
<title>browser&#45;&gt;index_html</title>
<path fill="none" stroke="#475569" d="M594.66,-551.28C619.5,-551.28 653.39,-551.28 683.27,-551.28"/>
<polygon fill="#475569" stroke="#475569" points="683.65,-554.78 693.65,-551.28 683.65,-547.78 683.65,-554.78"/>
</g>
<!-- main_ts -->
<g id="node8" class="node">
<title>main_ts</title>
<path fill="#eff6ff" stroke="#334155" d="M1005,-569.28C1005,-569.28 936,-569.28 936,-569.28 930,-569.28 924,-563.28 924,-557.28 924,-557.28 924,-545.28 924,-545.28 924,-539.28 930,-533.28 936,-533.28 936,-533.28 1005,-533.28 1005,-533.28 1011,-533.28 1017,-539.28 1017,-545.28 1017,-545.28 1017,-557.28 1017,-557.28 1017,-563.28 1011,-569.28 1005,-569.28"/>
<text text-anchor="middle" x="970.5" y="-547.58" font-family="Helvetica,sans-Serif" font-size="14.00">src/main.ts</text>
</g>
<!-- index_html&#45;&gt;main_ts -->
<g id="edge6" class="edge">
<title>index_html&#45;&gt;main_ts</title>
<path fill="none" stroke="#475569" d="M810.17,-551.28C842.16,-551.28 881.87,-551.28 913.65,-551.28"/>
<polygon fill="#475569" stroke="#475569" points="913.67,-554.78 923.67,-551.28 913.67,-547.78 913.67,-554.78"/>
</g>
<!-- scene_builder -->
<g id="node9" class="node">
<title>scene_builder</title>
<path fill="#eff6ff" stroke="#334155" d="M1248.5,-569.28C1248.5,-569.28 1145.5,-569.28 1145.5,-569.28 1139.5,-569.28 1133.5,-563.28 1133.5,-557.28 1133.5,-557.28 1133.5,-545.28 1133.5,-545.28 1133.5,-539.28 1139.5,-533.28 1145.5,-533.28 1145.5,-533.28 1248.5,-533.28 1248.5,-533.28 1254.5,-533.28 1260.5,-539.28 1260.5,-545.28 1260.5,-545.28 1260.5,-557.28 1260.5,-557.28 1260.5,-563.28 1254.5,-569.28 1248.5,-569.28"/>
<text text-anchor="middle" x="1197" y="-547.58" font-family="Helvetica,sans-Serif" font-size="14.00">scene&#45;builder.ts</text>
</g>
<!-- main_ts&#45;&gt;scene_builder -->
<g id="edge7" class="edge">
<title>main_ts&#45;&gt;scene_builder</title>
<path fill="none" stroke="#475569" d="M1017.2,-551.28C1047.66,-551.28 1088.34,-551.28 1123.21,-551.28"/>
<polygon fill="#475569" stroke="#475569" points="1123.34,-554.78 1133.34,-551.28 1123.34,-547.78 1123.34,-554.78"/>
</g>
<!-- scenegraph -->
<g id="node10" class="node">
<title>scenegraph</title>
<path fill="#eff6ff" stroke="#334155" d="M1490.5,-569.28C1490.5,-569.28 1323.5,-569.28 1323.5,-569.28 1317.5,-569.28 1311.5,-563.28 1311.5,-557.28 1311.5,-557.28 1311.5,-545.28 1311.5,-545.28 1311.5,-539.28 1317.5,-533.28 1323.5,-533.28 1323.5,-533.28 1490.5,-533.28 1490.5,-533.28 1496.5,-533.28 1502.5,-539.28 1502.5,-545.28 1502.5,-545.28 1502.5,-557.28 1502.5,-557.28 1502.5,-563.28 1496.5,-569.28 1490.5,-569.28"/>
<text text-anchor="middle" x="1407" y="-547.58" font-family="Helvetica,sans-Serif" font-size="14.00">scenegraph* + materials</text>
</g>
<!-- scene_builder&#45;&gt;scenegraph -->
<g id="edge8" class="edge">
<title>scene_builder&#45;&gt;scenegraph</title>
<path fill="none" stroke="#475569" d="M1260.69,-551.28C1273.49,-551.28 1287.29,-551.28 1301.11,-551.28"/>
<polygon fill="#475569" stroke="#475569" points="1301.16,-554.78 1311.16,-551.28 1301.16,-547.78 1301.16,-554.78"/>
</g>
<!-- three -->
<g id="node11" class="node">
<title>three</title>
<path fill="#eff6ff" stroke="#334155" d="M1694,-571.28C1694,-571.28 1552,-571.28 1552,-571.28 1546,-571.28 1540,-565.28 1540,-559.28 1540,-559.28 1540,-545.28 1540,-545.28 1540,-539.28 1546,-533.28 1552,-533.28 1552,-533.28 1694,-533.28 1694,-533.28 1700,-533.28 1706,-539.28 1706,-545.28 1706,-545.28 1706,-559.28 1706,-559.28 1706,-565.28 1700,-571.28 1694,-571.28"/>
<text text-anchor="middle" x="1623" y="-556.08" font-family="Helvetica,sans-Serif" font-size="14.00">three + OrbitControls</text>
<text text-anchor="middle" x="1623" y="-541.08" font-family="Helvetica,sans-Serif" font-size="14.00">WebGL renderer</text>
</g>
<!-- scenegraph&#45;&gt;three -->
<g id="edge9" class="edge">
<title>scenegraph&#45;&gt;three</title>
<path fill="none" stroke="#475569" d="M1502.8,-551.73C1511.64,-551.77 1520.59,-551.81 1529.41,-551.85"/>
<polygon fill="#475569" stroke="#475569" points="1529.67,-555.35 1539.68,-551.9 1529.7,-548.35 1529.67,-555.35"/>
</g>
<!-- express -->
<g id="node13" class="node">
<title>express</title>
<path fill="#f0fdf4" stroke="#334155" d="M809,-302.28C809,-302.28 695,-302.28 695,-302.28 689,-302.28 683,-296.28 683,-290.28 683,-290.28 683,-276.28 683,-276.28 683,-270.28 689,-264.28 695,-264.28 695,-264.28 809,-264.28 809,-264.28 815,-264.28 821,-270.28 821,-276.28 821,-276.28 821,-290.28 821,-290.28 821,-296.28 815,-302.28 809,-302.28"/>
<text text-anchor="middle" x="752" y="-287.08" font-family="Helvetica,sans-Serif" font-size="14.00">createServer()</text>
<text text-anchor="middle" x="752" y="-272.08" font-family="Helvetica,sans-Serif" font-size="14.00">Express JSON API</text>
</g>
<!-- cli&#45;&gt;express -->
<g id="edge11" class="edge">
<title>cli&#45;&gt;express</title>
<path fill="none" stroke="#475569" d="M605.97,-342.2C632.8,-331.3 666.62,-317.56 694.84,-306.1"/>
<polygon fill="#475569" stroke="#475569" points="696.24,-309.31 704.18,-302.3 693.6,-302.82 696.24,-309.31"/>
</g>
<!-- launch -->
<g id="node14" class="node">
<title>launch</title>
<path fill="#f0fdf4" stroke="#334155" d="M1025.5,-220.28C1025.5,-220.28 915.5,-220.28 915.5,-220.28 909.5,-220.28 903.5,-214.28 903.5,-208.28 903.5,-208.28 903.5,-196.28 903.5,-196.28 903.5,-190.28 909.5,-184.28 915.5,-184.28 915.5,-184.28 1025.5,-184.28 1025.5,-184.28 1031.5,-184.28 1037.5,-190.28 1037.5,-196.28 1037.5,-196.28 1037.5,-208.28 1037.5,-208.28 1037.5,-214.28 1031.5,-220.28 1025.5,-220.28"/>
<text text-anchor="middle" x="970.5" y="-198.58" font-family="Helvetica,sans-Serif" font-size="14.00">POST /api/launch</text>
</g>
<!-- express&#45;&gt;launch -->
<g id="edge12" class="edge">
<title>express&#45;&gt;launch</title>
<path fill="none" stroke="#475569" d="M784.85,-264.16C804.98,-252.74 831.84,-238.67 857,-229.28 868.58,-224.96 881.1,-221.16 893.43,-217.87"/>
<polygon fill="#475569" stroke="#475569" points="894.44,-221.22 903.26,-215.34 892.7,-214.44 894.44,-221.22"/>
</g>
<!-- health -->
<g id="node15" class="node">
<title>health</title>
<path fill="#f0fdf4" stroke="#334155" d="M1019.5,-490.28C1019.5,-490.28 921.5,-490.28 921.5,-490.28 915.5,-490.28 909.5,-484.28 909.5,-478.28 909.5,-478.28 909.5,-466.28 909.5,-466.28 909.5,-460.28 915.5,-454.28 921.5,-454.28 921.5,-454.28 1019.5,-454.28 1019.5,-454.28 1025.5,-454.28 1031.5,-460.28 1031.5,-466.28 1031.5,-466.28 1031.5,-478.28 1031.5,-478.28 1031.5,-484.28 1025.5,-490.28 1019.5,-490.28"/>
<text text-anchor="middle" x="970.5" y="-468.58" font-family="Helvetica,sans-Serif" font-size="14.00">GET /api/health</text>
</g>
<!-- express&#45;&gt;health -->
<g id="edge13" class="edge">
<title>express&#45;&gt;health</title>
<path fill="none" stroke="#475569" d="M759.75,-302.43C772.85,-336.7 805.1,-408.4 857,-445.28 869.49,-454.16 884.53,-460.14 899.48,-464.17"/>
<polygon fill="#475569" stroke="#475569" points="898.73,-467.59 909.27,-466.54 900.38,-460.79 898.73,-467.59"/>
</g>
<!-- add_object -->
<g id="node16" class="node">
<title>add_object</title>
<path fill="#f0fdf4" stroke="#334155" d="M1061.5,-436.28C1061.5,-436.28 879.5,-436.28 879.5,-436.28 873.5,-436.28 867.5,-430.28 867.5,-424.28 867.5,-424.28 867.5,-412.28 867.5,-412.28 867.5,-406.28 873.5,-400.28 879.5,-400.28 879.5,-400.28 1061.5,-400.28 1061.5,-400.28 1067.5,-400.28 1073.5,-406.28 1073.5,-412.28 1073.5,-412.28 1073.5,-424.28 1073.5,-424.28 1073.5,-430.28 1067.5,-436.28 1061.5,-436.28"/>
<text text-anchor="middle" x="970.5" y="-414.58" font-family="Helvetica,sans-Serif" font-size="14.00">POST /api/scene/add&#45;object</text>
</g>
<!-- express&#45;&gt;add_object -->
<g id="edge14" class="edge">
<title>express&#45;&gt;add_object</title>
<path fill="none" stroke="#475569" d="M766.08,-302.5C783.77,-326.97 817.69,-368.78 857,-391.28 860.06,-393.03 863.22,-394.67 866.47,-396.2"/>
<polygon fill="#475569" stroke="#475569" points="865.23,-399.48 875.8,-400.24 868.01,-393.05 865.23,-399.48"/>
</g>
<!-- edit_procedure -->
<g id="node17" class="node">
<title>edit_procedure</title>
<path fill="#f0fdf4" stroke="#334155" d="M1072,-382.28C1072,-382.28 869,-382.28 869,-382.28 863,-382.28 857,-376.28 857,-370.28 857,-370.28 857,-358.28 857,-358.28 857,-352.28 863,-346.28 869,-346.28 869,-346.28 1072,-346.28 1072,-346.28 1078,-346.28 1084,-352.28 1084,-358.28 1084,-358.28 1084,-370.28 1084,-370.28 1084,-376.28 1078,-382.28 1072,-382.28"/>
<text text-anchor="middle" x="970.5" y="-360.58" font-family="Helvetica,sans-Serif" font-size="14.00">POST /api/code/edit&#45;procedure</text>
</g>
<!-- express&#45;&gt;edit_procedure -->
<g id="edge15" class="edge">
<title>express&#45;&gt;edit_procedure</title>
<path fill="none" stroke="#475569" d="M784.85,-302.41C804.98,-313.83 831.84,-327.89 857,-337.28 862.8,-339.45 868.84,-341.49 874.98,-343.39"/>
<polygon fill="#475569" stroke="#475569" points="874.09,-346.78 884.67,-346.28 876.08,-340.07 874.09,-346.78"/>
</g>
<!-- save_project -->
<g id="node18" class="node">
<title>save_project</title>
<path fill="#f0fdf4" stroke="#334155" d="M1044.5,-58.28C1044.5,-58.28 896.5,-58.28 896.5,-58.28 890.5,-58.28 884.5,-52.28 884.5,-46.28 884.5,-46.28 884.5,-34.28 884.5,-34.28 884.5,-28.28 890.5,-22.28 896.5,-22.28 896.5,-22.28 1044.5,-22.28 1044.5,-22.28 1050.5,-22.28 1056.5,-28.28 1056.5,-34.28 1056.5,-34.28 1056.5,-46.28 1056.5,-46.28 1056.5,-52.28 1050.5,-58.28 1044.5,-58.28"/>
<text text-anchor="middle" x="970.5" y="-36.58" font-family="Helvetica,sans-Serif" font-size="14.00">POST /api/project/save</text>
</g>
<!-- express&#45;&gt;save_project -->
<g id="edge16" class="edge">
<title>express&#45;&gt;save_project</title>
<path fill="none" stroke="#475569" d="M756.52,-263.98C765.31,-221.47 792.37,-119.42 857,-67.28 862.41,-62.92 868.41,-59.24 874.75,-56.15"/>
<polygon fill="#475569" stroke="#475569" points="876.47,-59.21 884.24,-52.01 873.67,-52.8 876.47,-59.21"/>
</g>
<!-- run_world -->
<g id="node19" class="node">
<title>run_world</title>
<path fill="#f0fdf4" stroke="#334155" d="M1036,-166.28C1036,-166.28 905,-166.28 905,-166.28 899,-166.28 893,-160.28 893,-154.28 893,-154.28 893,-142.28 893,-142.28 893,-136.28 899,-130.28 905,-130.28 905,-130.28 1036,-130.28 1036,-130.28 1042,-130.28 1048,-136.28 1048,-142.28 1048,-142.28 1048,-154.28 1048,-154.28 1048,-160.28 1042,-166.28 1036,-166.28"/>
<text text-anchor="middle" x="970.5" y="-144.58" font-family="Helvetica,sans-Serif" font-size="14.00">POST /api/world/run</text>
</g>
<!-- express&#45;&gt;run_world -->
<g id="edge17" class="edge">
<title>express&#45;&gt;run_world</title>
<path fill="none" stroke="#475569" d="M766.08,-264.06C783.77,-239.59 817.69,-197.78 857,-175.28 865.15,-170.62 874.08,-166.75 883.22,-163.56"/>
<polygon fill="#475569" stroke="#475569" points="884.37,-166.87 892.81,-160.46 882.22,-160.2 884.37,-166.87"/>
</g>
<!-- screenshot -->
<g id="node20" class="node">
<title>screenshot</title>
<path fill="#f0fdf4" stroke="#334155" d="M1036,-112.28C1036,-112.28 905,-112.28 905,-112.28 899,-112.28 893,-106.28 893,-100.28 893,-100.28 893,-88.28 893,-88.28 893,-82.28 899,-76.28 905,-76.28 905,-76.28 1036,-76.28 1036,-76.28 1042,-76.28 1048,-82.28 1048,-88.28 1048,-88.28 1048,-100.28 1048,-100.28 1048,-106.28 1042,-112.28 1036,-112.28"/>
<text text-anchor="middle" x="970.5" y="-90.58" font-family="Helvetica,sans-Serif" font-size="14.00">GET /api/screenshot</text>
</g>
<!-- express&#45;&gt;screenshot -->
<g id="edge18" class="edge">
<title>express&#45;&gt;screenshot</title>
<path fill="none" stroke="#475569" d="M759.75,-264.14C772.85,-229.86 805.1,-158.16 857,-121.28 864.98,-115.61 874,-111.12 883.38,-107.57"/>
<polygon fill="#475569" stroke="#475569" points="884.53,-110.87 892.85,-104.32 882.25,-104.25 884.53,-110.87"/>
</g>
<!-- register_event -->
<g id="node21" class="node">
<title>register_event</title>
<path fill="#f0fdf4" stroke="#334155" d="M1054.5,-274.28C1054.5,-274.28 886.5,-274.28 886.5,-274.28 880.5,-274.28 874.5,-268.28 874.5,-262.28 874.5,-262.28 874.5,-250.28 874.5,-250.28 874.5,-244.28 880.5,-238.28 886.5,-238.28 886.5,-238.28 1054.5,-238.28 1054.5,-238.28 1060.5,-238.28 1066.5,-244.28 1066.5,-250.28 1066.5,-250.28 1066.5,-262.28 1066.5,-262.28 1066.5,-268.28 1060.5,-274.28 1054.5,-274.28"/>
<text text-anchor="middle" x="970.5" y="-252.58" font-family="Helvetica,sans-Serif" font-size="14.00">POST /api/events/register</text>
</g>
<!-- express&#45;&gt;register_event -->
<g id="edge19" class="edge">
<title>express&#45;&gt;register_event</title>
<path fill="none" stroke="#475569" d="M821.2,-274.78C834.9,-273.07 849.59,-271.24 864.21,-269.41"/>
<polygon fill="#475569" stroke="#475569" points="864.82,-272.87 874.31,-268.15 863.95,-265.92 864.82,-272.87"/>
</g>
<!-- fire_event -->
<g id="node22" class="node">
<title>fire_event</title>
<path fill="#f0fdf4" stroke="#334155" d="M1039,-328.28C1039,-328.28 902,-328.28 902,-328.28 896,-328.28 890,-322.28 890,-316.28 890,-316.28 890,-304.28 890,-304.28 890,-298.28 896,-292.28 902,-292.28 902,-292.28 1039,-292.28 1039,-292.28 1045,-292.28 1051,-298.28 1051,-304.28 1051,-304.28 1051,-316.28 1051,-316.28 1051,-322.28 1045,-328.28 1039,-328.28"/>
<text text-anchor="middle" x="970.5" y="-306.58" font-family="Helvetica,sans-Serif" font-size="14.00">POST /api/events/fire</text>
</g>
<!-- express&#45;&gt;fire_event -->
<g id="edge20" class="edge">
<title>express&#45;&gt;fire_event</title>
<path fill="none" stroke="#475569" d="M821.2,-291.79C839.78,-294.11 860.19,-296.65 879.76,-299.09"/>
<polygon fill="#475569" stroke="#475569" points="879.55,-302.59 889.91,-300.36 880.42,-295.65 879.55,-302.59"/>
</g>
<!-- parser -->
<g id="node23" class="node">
<title>parser</title>
<path fill="#fef2f2" stroke="#334155" d="M1247,-225.28C1247,-225.28 1147,-225.28 1147,-225.28 1141,-225.28 1135,-219.28 1135,-213.28 1135,-213.28 1135,-199.28 1135,-199.28 1135,-193.28 1141,-187.28 1147,-187.28 1147,-187.28 1247,-187.28 1247,-187.28 1253,-187.28 1259,-193.28 1259,-199.28 1259,-199.28 1259,-213.28 1259,-213.28 1259,-219.28 1253,-225.28 1247,-225.28"/>
<text text-anchor="middle" x="1197" y="-210.08" font-family="Helvetica,sans-Serif" font-size="14.00">a3p&#45;parser.ts</text>
<text text-anchor="middle" x="1197" y="-195.08" font-family="Helvetica,sans-Serif" font-size="14.00">parse .a3p files</text>
</g>
<!-- launch&#45;&gt;parser -->
<g id="edge21" class="edge">
<title>launch&#45;&gt;parser</title>
<path fill="none" stroke="#475569" d="M1037.64,-203.46C1065.06,-203.95 1096.92,-204.52 1124.84,-205.01"/>
<polygon fill="#475569" stroke="#475569" points="1124.87,-208.52 1134.93,-205.19 1125,-201.52 1124.87,-208.52"/>
</g>
<!-- evidence -->
<g id="node27" class="node">
<title>evidence</title>
<path fill="#fef2f2" stroke="#334155" d="M1262,-337.28C1262,-337.28 1132,-337.28 1132,-337.28 1126,-337.28 1120,-331.28 1120,-325.28 1120,-325.28 1120,-311.28 1120,-311.28 1120,-305.28 1126,-299.28 1132,-299.28 1132,-299.28 1262,-299.28 1262,-299.28 1268,-299.28 1274,-305.28 1274,-311.28 1274,-311.28 1274,-325.28 1274,-325.28 1274,-331.28 1268,-337.28 1262,-337.28"/>
<text text-anchor="middle" x="1197" y="-322.08" font-family="Helvetica,sans-Serif" font-size="14.00">evidence&#45;writer.ts</text>
<text text-anchor="middle" x="1197" y="-307.08" font-family="Helvetica,sans-Serif" font-size="14.00">JSON proof artifacts</text>
</g>
<!-- add_object&#45;&gt;evidence -->
<g id="edge23" class="edge">
<title>add_object&#45;&gt;evidence</title>
<path fill="none" stroke="#475569" d="M1067.98,-400.26C1076.24,-397.64 1084.35,-394.66 1092,-391.28 1119.01,-379.34 1146.21,-359.93 1166.02,-344.12"/>
<polygon fill="#475569" stroke="#475569" points="1168.49,-346.63 1174.03,-337.6 1164.07,-341.2 1168.49,-346.63"/>
</g>
<!-- edit_procedure&#45;&gt;evidence -->
<g id="edge24" class="edge">
<title>edit_procedure&#45;&gt;evidence</title>
<path fill="none" stroke="#475569" d="M1059.58,-346.23C1076.06,-342.86 1093.27,-339.33 1109.7,-335.97"/>
<polygon fill="#475569" stroke="#475569" points="1110.72,-339.33 1119.81,-333.89 1109.31,-332.47 1110.72,-339.33"/>
</g>
<!-- save_project&#45;&gt;evidence -->
<g id="edge25" class="edge">
<title>save_project&#45;&gt;evidence</title>
<path fill="none" stroke="#475569" d="M1056.69,-45.24C1070.14,-49.7 1082.67,-56.64 1092,-67.28 1124.8,-104.69 1081.13,-251.26 1112,-290.28 1112.58,-291.02 1113.19,-291.74 1113.81,-292.44"/>
<polygon fill="#475569" stroke="#475569" points="1111.44,-295.01 1121.15,-299.25 1116.2,-289.88 1111.44,-295.01"/>
</g>
<!-- evidence_dir -->
<g id="node29" class="node">
<title>evidence_dir</title>
<polygon fill="#fef2f2" stroke="#334155" points="1504,-114.28 1501,-118.28 1480,-118.28 1477,-114.28 1310,-114.28 1310,-78.28 1504,-78.28 1504,-114.28"/>
<text text-anchor="middle" x="1407" y="-92.58" font-family="Helvetica,sans-Serif" font-size="14.00">evidence/ + project&#45;save/</text>
</g>
<!-- save_project&#45;&gt;evidence_dir -->
<g id="edge26" class="edge">
<title>save_project&#45;&gt;evidence_dir</title>
<path fill="none" stroke="#475569" d="M1030.15,-22.22C1092.01,-6.06 1191.71,11.68 1274,-12.28 1313.6,-23.81 1352.66,-51.22 1377.89,-71.61"/>
<polygon fill="#475569" stroke="#475569" points="1375.96,-74.55 1385.9,-78.22 1380.42,-69.15 1375.96,-74.55"/>
</g>
<!-- run_world&#45;&gt;parser -->
<g id="edge27" class="edge">
<title>run_world&#45;&gt;parser</title>
<path fill="none" stroke="#475569" d="M1048.19,-164.63C1062.78,-167.98 1077.89,-171.6 1092,-175.28 1102.79,-178.1 1114.14,-181.26 1125.23,-184.47"/>
<polygon fill="#475569" stroke="#475569" points="1124.3,-187.85 1134.88,-187.3 1126.27,-181.13 1124.3,-187.85"/>
</g>
<!-- vm -->
<g id="node25" class="node">
<title>vm</title>
<path fill="#fef2f2" stroke="#334155" d="M1242,-169.28C1242,-169.28 1152,-169.28 1152,-169.28 1146,-169.28 1140,-163.28 1140,-157.28 1140,-157.28 1140,-143.28 1140,-143.28 1140,-137.28 1146,-131.28 1152,-131.28 1152,-131.28 1242,-131.28 1242,-131.28 1248,-131.28 1254,-137.28 1254,-143.28 1254,-143.28 1254,-157.28 1254,-157.28 1254,-163.28 1248,-169.28 1242,-169.28"/>
<text text-anchor="middle" x="1197" y="-154.08" font-family="Helvetica,sans-Serif" font-size="14.00">tweedle&#45;vm.ts</text>
<text text-anchor="middle" x="1197" y="-139.08" font-family="Helvetica,sans-Serif" font-size="14.00">execute world</text>
</g>
<!-- run_world&#45;&gt;vm -->
<g id="edge28" class="edge">
<title>run_world&#45;&gt;vm</title>
<path fill="none" stroke="#475569" d="M1048.13,-148.97C1074.59,-149.2 1104,-149.46 1129.57,-149.69"/>
<polygon fill="#475569" stroke="#475569" points="1129.87,-153.19 1139.9,-149.78 1129.94,-146.19 1129.87,-153.19"/>
</g>
<!-- renderer -->
<g id="node24" class="node">
<title>renderer</title>
<path fill="#fef2f2" stroke="#334155" d="M1253.5,-113.28C1253.5,-113.28 1140.5,-113.28 1140.5,-113.28 1134.5,-113.28 1128.5,-107.28 1128.5,-101.28 1128.5,-101.28 1128.5,-87.28 1128.5,-87.28 1128.5,-81.28 1134.5,-75.28 1140.5,-75.28 1140.5,-75.28 1253.5,-75.28 1253.5,-75.28 1259.5,-75.28 1265.5,-81.28 1265.5,-87.28 1265.5,-87.28 1265.5,-101.28 1265.5,-101.28 1265.5,-107.28 1259.5,-113.28 1253.5,-113.28"/>
<text text-anchor="middle" x="1197" y="-98.08" font-family="Helvetica,sans-Serif" font-size="14.00">scene&#45;renderer.ts</text>
<text text-anchor="middle" x="1197" y="-83.08" font-family="Helvetica,sans-Serif" font-size="14.00">PNG capture</text>
</g>
<!-- screenshot&#45;&gt;renderer -->
<g id="edge29" class="edge">
<title>screenshot&#45;&gt;renderer</title>
<path fill="none" stroke="#475569" d="M1048.13,-94.28C1070.71,-94.28 1095.44,-94.28 1118.1,-94.28"/>
<polygon fill="#475569" stroke="#475569" points="1118.35,-97.78 1128.35,-94.28 1118.35,-90.78 1118.35,-97.78"/>
</g>
<!-- screenshot_file -->
<g id="node30" class="node">
<title>screenshot_file</title>
<polygon fill="#fef2f2" stroke="#334155" points="1253,-57.28 1135,-57.28 1135,-21.28 1259,-21.28 1259,-51.28 1253,-57.28"/>
<polyline fill="none" stroke="#334155" points="1253,-57.28 1253,-51.28 "/>
<polyline fill="none" stroke="#334155" points="1259,-51.28 1253,-51.28 "/>
<text text-anchor="middle" x="1197" y="-35.58" font-family="Helvetica,sans-Serif" font-size="14.00">screenshot.png</text>
</g>
<!-- screenshot&#45;&gt;screenshot_file -->
<g id="edge30" class="edge">
<title>screenshot&#45;&gt;screenshot_file</title>
<path fill="none" stroke="#475569" d="M1048.11,-77.63C1062.71,-74.31 1077.85,-70.77 1092,-67.28 1102.63,-64.66 1113.85,-61.77 1124.81,-58.88"/>
<polygon fill="#475569" stroke="#475569" points="1126.03,-62.18 1134.8,-56.23 1124.23,-55.41 1126.03,-62.18"/>
</g>
<!-- events -->
<g id="node26" class="node">
<title>events</title>
<path fill="#fef2f2" stroke="#334155" d="M1255,-281.28C1255,-281.28 1139,-281.28 1139,-281.28 1133,-281.28 1127,-275.28 1127,-269.28 1127,-269.28 1127,-255.28 1127,-255.28 1127,-249.28 1133,-243.28 1139,-243.28 1139,-243.28 1255,-243.28 1255,-243.28 1261,-243.28 1267,-249.28 1267,-255.28 1267,-255.28 1267,-269.28 1267,-269.28 1267,-275.28 1261,-281.28 1255,-281.28"/>
<text text-anchor="middle" x="1197" y="-266.08" font-family="Helvetica,sans-Serif" font-size="14.00">events.ts</text>
<text text-anchor="middle" x="1197" y="-251.08" font-family="Helvetica,sans-Serif" font-size="14.00">event registry/fire</text>
</g>
<!-- register_event&#45;&gt;events -->
<g id="edge31" class="edge">
<title>register_event&#45;&gt;events</title>
<path fill="none" stroke="#475569" d="M1066.71,-258.83C1083.28,-259.27 1100.35,-259.73 1116.44,-260.16"/>
<polygon fill="#475569" stroke="#475569" points="1116.77,-263.67 1126.86,-260.44 1116.96,-256.67 1116.77,-263.67"/>
</g>
<!-- fire_event&#45;&gt;events -->
<g id="edge32" class="edge">
<title>fire_event&#45;&gt;events</title>
<path fill="none" stroke="#475569" d="M1051.28,-293.22C1072.61,-288.67 1095.64,-283.74 1116.93,-279.19"/>
<polygon fill="#475569" stroke="#475569" points="1117.85,-282.57 1126.9,-277.06 1116.39,-275.73 1117.85,-282.57"/>
</g>
<!-- project_file -->
<g id="node28" class="node">
<title>project_file</title>
<polygon fill="#fef2f2" stroke="#334155" points="1463.5,-224.28 1344.5,-224.28 1344.5,-188.28 1469.5,-188.28 1469.5,-218.28 1463.5,-224.28"/>
<polyline fill="none" stroke="#334155" points="1463.5,-224.28 1463.5,-218.28 "/>
<polyline fill="none" stroke="#334155" points="1469.5,-218.28 1463.5,-218.28 "/>
<text text-anchor="middle" x="1407" y="-202.58" font-family="Helvetica,sans-Serif" font-size="14.00">project .a3p file</text>
</g>
<!-- parser&#45;&gt;project_file -->
<g id="edge22" class="edge">
<title>parser&#45;&gt;project_file</title>
<path fill="none" stroke="#475569" d="M1259,-206.28C1282.5,-206.28 1309.55,-206.28 1333.98,-206.28"/>
<polygon fill="#475569" stroke="#475569" points="1334.28,-209.78 1344.28,-206.28 1334.28,-202.78 1334.28,-209.78"/>
</g>
<!-- evidence&#45;&gt;evidence_dir -->
<g id="edge33" class="edge">
<title>evidence&#45;&gt;evidence_dir</title>
<path fill="none" stroke="#475569" d="M1263.22,-299.17C1267.13,-296.58 1270.78,-293.63 1274,-290.28 1309.94,-252.9 1281.33,-222.5 1310,-179.28 1325.45,-155.99 1349.17,-135.4 1369.16,-120.55"/>
<polygon fill="#475569" stroke="#475569" points="1371.41,-123.24 1377.47,-114.55 1367.31,-117.57 1371.41,-123.24"/>
</g>
</g>
</svg>
