<?xml version="1.0" encoding="UTF-8" standalone="no"?>
<!DOCTYPE svg PUBLIC "-//W3C//DTD SVG 1.1//EN"
 "http://www.w3.org/Graphics/SVG/1.1/DTD/svg11.dtd">
<!-- Generated by graphviz version 2.42.4 (0)
 -->
<!-- Title: compile_deps Pages: 1 -->
<svg width="2006pt" height="738pt"
 viewBox="0.00 0.00 2006.00 738.00" xmlns="http://www.w3.org/2000/svg" xmlns:xlink="http://www.w3.org/1999/xlink">
<g id="graph0" class="graph" transform="scale(1 1) rotate(0) translate(4 734)">
<title>compile_deps</title>
<polygon fill="white" stroke="transparent" points="-4,4 -4,-734 2002,-734 2002,4 -4,4"/>
<g id="clust1" class="cluster">
<title>cluster_runtime</title>
<path fill="none" stroke="#93c5fd" d="M1769.5,-425C1769.5,-425 1909.5,-425 1909.5,-425 1915.5,-425 1921.5,-431 1921.5,-437 1921.5,-437 1921.5,-710 1921.5,-710 1921.5,-716 1915.5,-722 1909.5,-722 1909.5,-722 1769.5,-722 1769.5,-722 1763.5,-722 1757.5,-716 1757.5,-710 1757.5,-710 1757.5,-437 1757.5,-437 1757.5,-431 1763.5,-425 1769.5,-425"/>
<text text-anchor="middle" x="1839.5" y="-710" font-family="Helvetica,sans-Serif" font-size="10.00">Runtime dependencies</text>
</g>
<g id="clust2" class="cluster">
<title>cluster_dev</title>
<path fill="none" stroke="#c4b5fd" d="M1701,-8C1701,-8 1978,-8 1978,-8 1984,-8 1990,-14 1990,-20 1990,-20 1990,-405 1990,-405 1990,-411 1984,-417 1978,-417 1978,-417 1701,-417 1701,-417 1695,-417 1689,-411 1689,-405 1689,-405 1689,-20 1689,-20 1689,-14 1695,-8 1701,-8"/>
<text text-anchor="middle" x="1839.5" y="-405" font-family="Helvetica,sans-Serif" font-size="10.00">Dev / build dependencies</text>
</g>
<g id="clust3" class="cluster">
<title>cluster_internal</title>
<path fill="none" stroke="#86efac" d="M20,-435C20,-435 1542,-435 1542,-435 1548,-435 1554,-441 1554,-447 1554,-447 1554,-674 1554,-674 1554,-680 1548,-686 1542,-686 1542,-686 20,-686 20,-686 14,-686 8,-680 8,-674 8,-674 8,-447 8,-447 8,-441 14,-435 20,-435"/>
<text text-anchor="middle" x="781" y="-674" font-family="Helvetica,sans-Serif" font-size="10.00">Internal module dependency clusters</text>
</g>
<!-- package_json -->
<g id="node1" class="node">
<title>package_json</title>
<path fill="#dbeafe" stroke="#334155" d="M1483,-346C1483,-346 1304,-346 1304,-346 1298,-346 1292,-340 1292,-334 1292,-334 1292,-320 1292,-320 1292,-314 1298,-308 1304,-308 1304,-308 1483,-308 1483,-308 1489,-308 1495,-314 1495,-320 1495,-320 1495,-334 1495,-334 1495,-340 1489,-346 1483,-346"/>
<text text-anchor="middle" x="1393.5" y="-330.8" font-family="Helvetica,sans-Serif" font-size="14.00">package.json</text>
<text text-anchor="middle" x="1393.5" y="-315.8" font-family="Helvetica,sans-Serif" font-size="14.00">alice&#45;web&#45;prototype 0.10.0</text>
</g>
<!-- express -->
<g id="node2" class="node">
<title>express</title>
<path fill="#f8fafc" stroke="#334155" d="M1863,-471C1863,-471 1816,-471 1816,-471 1810,-471 1804,-465 1804,-459 1804,-459 1804,-445 1804,-445 1804,-439 1810,-433 1816,-433 1816,-433 1863,-433 1863,-433 1869,-433 1875,-439 1875,-445 1875,-445 1875,-459 1875,-459 1875,-465 1869,-471 1863,-471"/>
<text text-anchor="middle" x="1839.5" y="-455.8" font-family="Helvetica,sans-Serif" font-size="14.00">express</text>
<text text-anchor="middle" x="1839.5" y="-440.8" font-family="Helvetica,sans-Serif" font-size="14.00">^5.2.1</text>
</g>
<!-- package_json&#45;&gt;express -->
<g id="edge1" class="edge">
<title>package_json&#45;&gt;express</title>
<path fill="none" stroke="#475569" d="M1495.35,-342.78C1574.38,-355.56 1672.12,-372.48 1679,-379 1692.92,-392.2 1675.23,-407.63 1689,-421 1716.37,-447.58 1760.22,-454.07 1793.36,-454.66"/>
<polygon fill="#475569" stroke="#475569" points="1793.71,-458.16 1803.72,-454.66 1793.72,-451.16 1793.71,-458.16"/>
</g>
<!-- three -->
<g id="node3" class="node">
<title>three</title>
<path fill="#f8fafc" stroke="#334155" d="M1869,-527C1869,-527 1810,-527 1810,-527 1804,-527 1798,-521 1798,-515 1798,-515 1798,-501 1798,-501 1798,-495 1804,-489 1810,-489 1810,-489 1869,-489 1869,-489 1875,-489 1881,-495 1881,-501 1881,-501 1881,-515 1881,-515 1881,-521 1875,-527 1869,-527"/>
<text text-anchor="middle" x="1839.5" y="-511.8" font-family="Helvetica,sans-Serif" font-size="14.00">three</text>
<text text-anchor="middle" x="1839.5" y="-496.8" font-family="Helvetica,sans-Serif" font-size="14.00">^0.170.0</text>
</g>
<!-- package_json&#45;&gt;three -->
<g id="edge2" class="edge">
<title>package_json&#45;&gt;three</title>
<path fill="none" stroke="#475569" d="M1462.15,-346.07C1536.6,-368.35 1649.65,-406.45 1679,-440 1691.07,-453.79 1675.66,-467.44 1689,-480 1715.1,-504.59 1755.58,-510.97 1787.84,-511.54"/>
<polygon fill="#475569" stroke="#475569" points="1788,-515.04 1798,-511.54 1787.99,-508.04 1788,-515.04"/>
</g>
<!-- canvas -->
<g id="node4" class="node">
<title>canvas</title>
<path fill="#f8fafc" stroke="#334155" d="M1860,-583C1860,-583 1819,-583 1819,-583 1813,-583 1807,-577 1807,-571 1807,-571 1807,-557 1807,-557 1807,-551 1813,-545 1819,-545 1819,-545 1860,-545 1860,-545 1866,-545 1872,-551 1872,-557 1872,-557 1872,-571 1872,-571 1872,-577 1866,-583 1860,-583"/>
<text text-anchor="middle" x="1839.5" y="-567.8" font-family="Helvetica,sans-Serif" font-size="14.00">canvas</text>
<text text-anchor="middle" x="1839.5" y="-552.8" font-family="Helvetica,sans-Serif" font-size="14.00">^3.2.3</text>
</g>
<!-- package_json&#45;&gt;canvas -->
<g id="edge3" class="edge">
<title>package_json&#45;&gt;canvas</title>
<path fill="none" stroke="#475569" d="M1427.9,-346.01C1499.2,-386.85 1661.29,-481.11 1679,-504 1688.12,-515.78 1677.86,-526.1 1689,-536 1718.21,-561.96 1763.61,-567.26 1796.71,-567.12"/>
<polygon fill="#475569" stroke="#475569" points="1797.07,-570.61 1807,-566.9 1796.92,-563.61 1797.07,-570.61"/>
</g>
<!-- jszip -->
<g id="node5" class="node">
<title>jszip</title>
<path fill="#f8fafc" stroke="#334155" d="M1864.5,-695C1864.5,-695 1814.5,-695 1814.5,-695 1808.5,-695 1802.5,-689 1802.5,-683 1802.5,-683 1802.5,-669 1802.5,-669 1802.5,-663 1808.5,-657 1814.5,-657 1814.5,-657 1864.5,-657 1864.5,-657 1870.5,-657 1876.5,-663 1876.5,-669 1876.5,-669 1876.5,-683 1876.5,-683 1876.5,-689 1870.5,-695 1864.5,-695"/>
<text text-anchor="middle" x="1839.5" y="-679.8" font-family="Helvetica,sans-Serif" font-size="14.00">jszip</text>
<text text-anchor="middle" x="1839.5" y="-664.8" font-family="Helvetica,sans-Serif" font-size="14.00">^3.10.1</text>
</g>
<!-- package_json&#45;&gt;jszip -->
<g id="edge4" class="edge">
<title>package_json&#45;&gt;jszip</title>
<path fill="none" stroke="#475569" d="M1446.22,-346.12C1482.97,-362.64 1529.92,-390.32 1554,-431 1568.87,-456.12 1546.37,-538.73 1564,-562 1596.86,-605.37 1643.04,-563.17 1679,-604 1692.25,-619.05 1674.55,-634.09 1689,-648 1716.04,-674.02 1759.13,-679.78 1792.12,-679.76"/>
<polygon fill="#475569" stroke="#475569" points="1792.51,-683.25 1802.44,-679.56 1792.38,-676.25 1792.51,-683.25"/>
</g>
<!-- xmldom -->
<g id="node6" class="node">
<title>xmldom</title>
<path fill="#f8fafc" stroke="#334155" d="M1901.5,-639C1901.5,-639 1777.5,-639 1777.5,-639 1771.5,-639 1765.5,-633 1765.5,-627 1765.5,-627 1765.5,-613 1765.5,-613 1765.5,-607 1771.5,-601 1777.5,-601 1777.5,-601 1901.5,-601 1901.5,-601 1907.5,-601 1913.5,-607 1913.5,-613 1913.5,-613 1913.5,-627 1913.5,-627 1913.5,-633 1907.5,-639 1901.5,-639"/>
<text text-anchor="middle" x="1839.5" y="-623.8" font-family="Helvetica,sans-Serif" font-size="14.00">@xmldom/xmldom</text>
<text text-anchor="middle" x="1839.5" y="-608.8" font-family="Helvetica,sans-Serif" font-size="14.00">^0.9.10</text>
</g>
<!-- package_json&#45;&gt;xmldom -->
<g id="edge5" class="edge">
<title>package_json&#45;&gt;xmldom</title>
<path fill="none" stroke="#475569" d="M1444.92,-346.1C1481.51,-362.74 1528.83,-390.6 1554,-431 1573.41,-462.16 1539.61,-485.56 1564,-513 1598.95,-552.32 1642.65,-502.97 1679,-541 1694.96,-557.7 1672.6,-575.74 1689,-592 1706.47,-609.32 1731.02,-617.74 1755.19,-621.45"/>
<polygon fill="#475569" stroke="#475569" points="1754.78,-624.93 1765.14,-622.73 1755.67,-617.98 1754.78,-624.93"/>
</g>
<!-- typescript -->
<g id="node7" class="node">
<title>typescript</title>
<path fill="#f5f3ff" stroke="#334155" d="M1870.5,-390C1870.5,-390 1808.5,-390 1808.5,-390 1802.5,-390 1796.5,-384 1796.5,-378 1796.5,-378 1796.5,-364 1796.5,-364 1796.5,-358 1802.5,-352 1808.5,-352 1808.5,-352 1870.5,-352 1870.5,-352 1876.5,-352 1882.5,-358 1882.5,-364 1882.5,-364 1882.5,-378 1882.5,-378 1882.5,-384 1876.5,-390 1870.5,-390"/>
<text text-anchor="middle" x="1839.5" y="-374.8" font-family="Helvetica,sans-Serif" font-size="14.00">typescript</text>
<text text-anchor="middle" x="1839.5" y="-359.8" font-family="Helvetica,sans-Serif" font-size="14.00">^5.7.0</text>
</g>
<!-- package_json&#45;&gt;typescript -->
<g id="edge6" class="edge">
<title>package_json&#45;&gt;typescript</title>
<path fill="none" stroke="#475569" d="M1495.25,-336.28C1549.68,-341.36 1618.03,-347.86 1679,-354 1714.72,-357.6 1754.92,-361.88 1786.02,-365.25"/>
<polygon fill="#475569" stroke="#475569" points="1785.88,-368.76 1796.2,-366.36 1786.64,-361.8 1785.88,-368.76"/>
</g>
<!-- vite -->
<g id="node8" class="node">
<title>vite</title>
<path fill="#f5f3ff" stroke="#334155" d="M1860,-334C1860,-334 1819,-334 1819,-334 1813,-334 1807,-328 1807,-322 1807,-322 1807,-308 1807,-308 1807,-302 1813,-296 1819,-296 1819,-296 1860,-296 1860,-296 1866,-296 1872,-302 1872,-308 1872,-308 1872,-322 1872,-322 1872,-328 1866,-334 1860,-334"/>
<text text-anchor="middle" x="1839.5" y="-318.8" font-family="Helvetica,sans-Serif" font-size="14.00">vite</text>
<text text-anchor="middle" x="1839.5" y="-303.8" font-family="Helvetica,sans-Serif" font-size="14.00">^6.0.0</text>
</g>
<!-- package_json&#45;&gt;vite -->
<g id="edge7" class="edge">
<title>package_json&#45;&gt;vite</title>
<path fill="none" stroke="#475569" d="M1495.25,-324.28C1590.21,-321.71 1727.87,-317.99 1796.42,-316.14"/>
<polygon fill="#475569" stroke="#475569" points="1796.91,-319.63 1806.81,-315.86 1796.72,-312.63 1796.91,-319.63"/>
</g>
<!-- vitest -->
<g id="node9" class="node">
<title>vitest</title>
<path fill="#f5f3ff" stroke="#334155" d="M1860,-166C1860,-166 1819,-166 1819,-166 1813,-166 1807,-160 1807,-154 1807,-154 1807,-140 1807,-140 1807,-134 1813,-128 1819,-128 1819,-128 1860,-128 1860,-128 1866,-128 1872,-134 1872,-140 1872,-140 1872,-154 1872,-154 1872,-160 1866,-166 1860,-166"/>
<text text-anchor="middle" x="1839.5" y="-150.8" font-family="Helvetica,sans-Serif" font-size="14.00">vitest</text>
<text text-anchor="middle" x="1839.5" y="-135.8" font-family="Helvetica,sans-Serif" font-size="14.00">^3.0.0</text>
</g>
<!-- package_json&#45;&gt;vitest -->
<g id="edge8" class="edge">
<title>package_json&#45;&gt;vitest</title>
<path fill="none" stroke="#475569" d="M1432.71,-307.87C1466.96,-290.83 1518.64,-265.35 1564,-244 1614.75,-220.11 1637.27,-229.48 1679,-192 1685.52,-186.14 1681.83,-180.04 1689,-175 1720.46,-152.92 1764.47,-146.89 1796.59,-145.81"/>
<polygon fill="#475569" stroke="#475569" points="1797.06,-149.3 1806.99,-145.61 1796.93,-142.3 1797.06,-149.3"/>
</g>
<!-- coverage -->
<g id="node10" class="node">
<title>coverage</title>
<path fill="#f5f3ff" stroke="#334155" d="M1907,-222C1907,-222 1772,-222 1772,-222 1766,-222 1760,-216 1760,-210 1760,-210 1760,-196 1760,-196 1760,-190 1766,-184 1772,-184 1772,-184 1907,-184 1907,-184 1913,-184 1919,-190 1919,-196 1919,-196 1919,-210 1919,-210 1919,-216 1913,-222 1907,-222"/>
<text text-anchor="middle" x="1839.5" y="-206.8" font-family="Helvetica,sans-Serif" font-size="14.00">@vitest/coverage&#45;v8</text>
<text text-anchor="middle" x="1839.5" y="-191.8" font-family="Helvetica,sans-Serif" font-size="14.00">^3.2.4</text>
</g>
<!-- package_json&#45;&gt;coverage -->
<g id="edge9" class="edge">
<title>package_json&#45;&gt;coverage</title>
<path fill="none" stroke="#475569" d="M1463.7,-307.97C1544.94,-285.46 1669.88,-250.23 1679,-244 1685.02,-239.89 1682.79,-234.81 1689,-231 1707.17,-219.86 1728.74,-212.96 1749.77,-208.73"/>
<polygon fill="#475569" stroke="#475569" points="1750.49,-212.16 1759.7,-206.92 1749.24,-205.27 1750.49,-212.16"/>
</g>
<!-- jsdom -->
<g id="node11" class="node">
<title>jsdom</title>
<path fill="#f5f3ff" stroke="#334155" d="M1864.5,-110C1864.5,-110 1814.5,-110 1814.5,-110 1808.5,-110 1802.5,-104 1802.5,-98 1802.5,-98 1802.5,-84 1802.5,-84 1802.5,-78 1808.5,-72 1814.5,-72 1814.5,-72 1864.5,-72 1864.5,-72 1870.5,-72 1876.5,-78 1876.5,-84 1876.5,-84 1876.5,-98 1876.5,-98 1876.5,-104 1870.5,-110 1864.5,-110"/>
<text text-anchor="middle" x="1839.5" y="-94.8" font-family="Helvetica,sans-Serif" font-size="14.00">jsdom</text>
<text text-anchor="middle" x="1839.5" y="-79.8" font-family="Helvetica,sans-Serif" font-size="14.00">^29.1.1</text>
</g>
<!-- package_json&#45;&gt;jsdom -->
<g id="edge10" class="edge">
<title>package_json&#45;&gt;jsdom</title>
<path fill="none" stroke="#475569" d="M1415.24,-307.82C1446.05,-279.96 1506.48,-227.73 1564,-192 1611.97,-162.21 1638.18,-177.01 1679,-138 1685.9,-131.41 1681.32,-124.67 1689,-119 1718.59,-97.17 1760.22,-90.8 1792.05,-89.54"/>
<polygon fill="#475569" stroke="#475569" points="1792.52,-93.03 1802.43,-89.29 1792.35,-86.03 1792.52,-93.03"/>
</g>
<!-- supertest -->
<g id="node12" class="node">
<title>supertest</title>
<path fill="#f5f3ff" stroke="#334155" d="M1869,-54C1869,-54 1810,-54 1810,-54 1804,-54 1798,-48 1798,-42 1798,-42 1798,-28 1798,-28 1798,-22 1804,-16 1810,-16 1810,-16 1869,-16 1869,-16 1875,-16 1881,-22 1881,-28 1881,-28 1881,-42 1881,-42 1881,-48 1875,-54 1869,-54"/>
<text text-anchor="middle" x="1839.5" y="-38.8" font-family="Helvetica,sans-Serif" font-size="14.00">supertest</text>
<text text-anchor="middle" x="1839.5" y="-23.8" font-family="Helvetica,sans-Serif" font-size="14.00">^7.2.2</text>
</g>
<!-- package_json&#45;&gt;supertest -->
<g id="edge11" class="edge">
<title>package_json&#45;&gt;supertest</title>
<path fill="none" stroke="#475569" d="M1408.54,-307.85C1435.7,-271.66 1498.57,-192.01 1564,-138 1613.96,-96.76 1628.43,-85.99 1689,-63 1720.69,-50.97 1758.19,-43.97 1787.7,-39.97"/>
<polygon fill="#475569" stroke="#475569" points="1788.31,-43.42 1797.79,-38.68 1787.42,-36.48 1788.31,-43.42"/>
</g>
<!-- type_pkgs -->
<g id="node13" class="node">
<title>type_pkgs</title>
<path fill="#f5f3ff" stroke="#334155" d="M1970,-278C1970,-278 1709,-278 1709,-278 1703,-278 1697,-272 1697,-266 1697,-266 1697,-252 1697,-252 1697,-246 1703,-240 1709,-240 1709,-240 1970,-240 1970,-240 1976,-240 1982,-246 1982,-252 1982,-252 1982,-266 1982,-266 1982,-272 1976,-278 1970,-278"/>
<text text-anchor="middle" x="1839.5" y="-262.8" font-family="Helvetica,sans-Serif" font-size="14.00">@types/*</text>
<text text-anchor="middle" x="1839.5" y="-247.8" font-family="Helvetica,sans-Serif" font-size="14.00">node, express, jsdom, supertest, three</text>
</g>
<!-- package_json&#45;&gt;type_pkgs -->
<g id="edge12" class="edge">
<title>package_json&#45;&gt;type_pkgs</title>
<path fill="none" stroke="#475569" d="M1495.25,-311.57C1557.06,-302.1 1636.97,-289.86 1704.13,-279.58"/>
<polygon fill="#475569" stroke="#475569" points="1705.01,-282.98 1714.37,-278.01 1703.95,-276.07 1705.01,-282.98"/>
</g>
<!-- entries -->
<g id="node14" class="node">
<title>entries</title>
<path fill="#f0fdf4" stroke="#334155" d="M512,-519C512,-519 293,-519 293,-519 287,-519 281,-513 281,-507 281,-507 281,-493 281,-493 281,-487 287,-481 293,-481 293,-481 512,-481 512,-481 518,-481 524,-487 524,-493 524,-493 524,-507 524,-507 524,-513 518,-519 512,-519"/>
<text text-anchor="middle" x="402.5" y="-503.8" font-family="Helvetica,sans-Serif" font-size="14.00">Entry points</text>
<text text-anchor="middle" x="402.5" y="-488.8" font-family="Helvetica,sans-Serif" font-size="14.00">index.ts, main.ts, cli.ts, server.ts</text>
</g>
<!-- entries&#45;&gt;express -->
<g id="edge25" class="edge">
<title>entries&#45;&gt;express</title>
<path fill="none" stroke="#475569" d="M488.53,-480.94C506.13,-477.52 524.61,-474.31 542,-472 602.93,-463.89 618.58,-465.42 680,-463 1113.7,-445.89 1639.4,-449.81 1793.84,-451.46"/>
<polygon fill="#475569" stroke="#475569" points="1793.85,-454.96 1803.89,-451.57 1793.93,-447.96 1793.85,-454.96"/>
<text text-anchor="middle" x="1170" y="-455.8" font-family="Helvetica,sans-Serif" font-size="14.00">HTTP server</text>
</g>
<!-- parsing -->
<g id="node15" class="node">
<title>parsing</title>
<path fill="#f0fdf4" stroke="#334155" d="M1514.5,-603C1514.5,-603 1272.5,-603 1272.5,-603 1266.5,-603 1260.5,-597 1260.5,-591 1260.5,-591 1260.5,-577 1260.5,-577 1260.5,-571 1266.5,-565 1272.5,-565 1272.5,-565 1514.5,-565 1514.5,-565 1520.5,-565 1526.5,-571 1526.5,-577 1526.5,-577 1526.5,-591 1526.5,-591 1526.5,-597 1520.5,-603 1514.5,-603"/>
<text text-anchor="middle" x="1393.5" y="-587.8" font-family="Helvetica,sans-Serif" font-size="14.00">Parsing + serialization</text>
<text text-anchor="middle" x="1393.5" y="-572.8" font-family="Helvetica,sans-Serif" font-size="14.00">a3p&#45;parser, a3p&#45;writer, serialization</text>
</g>
<!-- entries&#45;&gt;parsing -->
<g id="edge13" class="edge">
<title>entries&#45;&gt;parsing</title>
<path fill="none" stroke="#475569" d="M524.31,-497.56C744.99,-493.55 1193.5,-487.63 1223,-505 1237.06,-513.28 1228.31,-526.74 1241,-537 1253.51,-547.1 1268.19,-555.05 1283.4,-561.28"/>
<polygon fill="#475569" stroke="#475569" points="1282.34,-564.62 1292.93,-564.95 1284.85,-558.09 1282.34,-564.62"/>
<text text-anchor="middle" x="889.5" y="-498.8" font-family="Helvetica,sans-Serif" font-size="14.00">imports</text>
</g>
<!-- project_ide -->
<g id="node17" class="node">
<title>project_ide</title>
<path fill="#f0fdf4" stroke="#334155" d="M1087,-639C1087,-639 692,-639 692,-639 686,-639 680,-633 680,-627 680,-627 680,-613 680,-613 680,-607 686,-601 692,-601 692,-601 1087,-601 1087,-601 1093,-601 1099,-607 1099,-613 1099,-613 1099,-627 1099,-627 1099,-633 1093,-639 1087,-639"/>
<text text-anchor="middle" x="889.5" y="-623.8" font-family="Helvetica,sans-Serif" font-size="14.00">Project + IDE</text>
<text text-anchor="middle" x="889.5" y="-608.8" font-family="Helvetica,sans-Serif" font-size="14.00">project&#45;*, type&#45;browser, code&#45;editor, menubar, workspace</text>
</g>
<!-- entries&#45;&gt;project_ide -->
<g id="edge16" class="edge">
<title>entries&#45;&gt;project_ide</title>
<path fill="none" stroke="#475569" d="M451.57,-519.09C478.07,-529.35 511.65,-541.92 542,-552 572.3,-562.06 648.76,-585.41 680,-592 692.46,-594.63 705.39,-597.06 718.44,-599.3"/>
<polygon fill="#475569" stroke="#475569" points="717.99,-602.77 728.43,-600.97 719.15,-595.87 717.99,-602.77"/>
<text text-anchor="middle" x="602" y="-590.8" font-family="Helvetica,sans-Serif" font-size="14.00">imports</text>
</g>
<!-- runtime_api -->
<g id="node18" class="node">
<title>runtime_api</title>
<path fill="#f0fdf4" stroke="#334155" d="M1017,-583C1017,-583 762,-583 762,-583 756,-583 750,-577 750,-571 750,-571 750,-557 750,-557 750,-551 756,-545 762,-545 762,-545 1017,-545 1017,-545 1023,-545 1029,-551 1029,-557 1029,-557 1029,-571 1029,-571 1029,-577 1023,-583 1017,-583"/>
<text text-anchor="middle" x="889.5" y="-567.8" font-family="Helvetica,sans-Serif" font-size="14.00">Story API + runtime</text>
<text text-anchor="middle" x="889.5" y="-552.8" font-family="Helvetica,sans-Serif" font-size="14.00">story&#45;api*, animation, events, entity&#45;*</text>
</g>
<!-- entries&#45;&gt;runtime_api -->
<g id="edge14" class="edge">
<title>entries&#45;&gt;runtime_api</title>
<path fill="none" stroke="#475569" d="M524.01,-515.9C589.25,-524.51 670.43,-535.22 739.6,-544.35"/>
<polygon fill="#475569" stroke="#475569" points="739.34,-547.85 749.72,-545.69 740.26,-540.91 739.34,-547.85"/>
<text text-anchor="middle" x="602" y="-536.8" font-family="Helvetica,sans-Serif" font-size="14.00">imports</text>
</g>
<!-- rendering -->
<g id="node19" class="node">
<title>rendering</title>
<path fill="#f0fdf4" stroke="#334155" d="M1534,-528C1534,-528 1253,-528 1253,-528 1247,-528 1241,-522 1241,-516 1241,-516 1241,-502 1241,-502 1241,-496 1247,-490 1253,-490 1253,-490 1534,-490 1534,-490 1540,-490 1546,-496 1546,-502 1546,-502 1546,-516 1546,-516 1546,-522 1540,-528 1534,-528"/>
<text text-anchor="middle" x="1393.5" y="-512.8" font-family="Helvetica,sans-Serif" font-size="14.00">Scene + rendering</text>
<text text-anchor="middle" x="1393.5" y="-497.8" font-family="Helvetica,sans-Serif" font-size="14.00">scene&#45;*, render&#45;*, scenegraph*, materials</text>
</g>
<!-- entries&#45;&gt;rendering -->
<g id="edge15" class="edge">
<title>entries&#45;&gt;rendering</title>
<path fill="none" stroke="#475569" d="M524.13,-486.71C572.52,-482.01 628.84,-477.31 680,-475 866.03,-466.61 913.09,-464.27 1099,-475 1147.29,-477.79 1199.82,-483.13 1246.92,-488.78"/>
<polygon fill="#475569" stroke="#475569" points="1246.54,-492.26 1256.89,-489.98 1247.38,-485.31 1246.54,-492.26"/>
<text text-anchor="middle" x="889.5" y="-478.8" font-family="Helvetica,sans-Serif" font-size="14.00">imports</text>
</g>
<!-- parsing&#45;&gt;jszip -->
<g id="edge22" class="edge">
<title>parsing&#45;&gt;jszip</title>
<path fill="none" stroke="#475569" d="M1526.65,-599.03C1536.23,-602.56 1545.46,-606.83 1554,-612 1560.24,-615.78 1557.78,-621.19 1564,-625 1635.02,-668.49 1734.35,-676.57 1792,-677.19"/>
<polygon fill="#475569" stroke="#475569" points="1792.26,-680.69 1802.27,-677.23 1792.28,-673.69 1792.26,-680.69"/>
<text text-anchor="middle" x="1621.5" y="-669.8" font-family="Helvetica,sans-Serif" font-size="14.00">ZIP/A3P</text>
</g>
<!-- parsing&#45;&gt;xmldom -->
<g id="edge21" class="edge">
<title>parsing&#45;&gt;xmldom</title>
<path fill="none" stroke="#475569" d="M1526.51,-594.7C1600.64,-600.71 1690.88,-608.03 1755.2,-613.25"/>
<polygon fill="#475569" stroke="#475569" points="1755.05,-616.74 1765.3,-614.06 1755.61,-609.77 1755.05,-616.74"/>
<text text-anchor="middle" x="1621.5" y="-609.8" font-family="Helvetica,sans-Serif" font-size="14.00">XML DOM</text>
</g>
<!-- ast_tweedle -->
<g id="node16" class="node">
<title>ast_tweedle</title>
<path fill="#f0fdf4" stroke="#334155" d="M1444,-659C1444,-659 1343,-659 1343,-659 1337,-659 1331,-653 1331,-647 1331,-647 1331,-633 1331,-633 1331,-627 1337,-621 1343,-621 1343,-621 1444,-621 1444,-621 1450,-621 1456,-627 1456,-633 1456,-633 1456,-647 1456,-647 1456,-653 1450,-659 1444,-659"/>
<text text-anchor="middle" x="1393.5" y="-643.8" font-family="Helvetica,sans-Serif" font-size="14.00">AST + Tweedle</text>
<text text-anchor="middle" x="1393.5" y="-628.8" font-family="Helvetica,sans-Serif" font-size="14.00">ast&#45;*, tweedle&#45;*</text>
</g>
<!-- project_ide&#45;&gt;parsing -->
<g id="edge17" class="edge">
<title>project_ide&#45;&gt;parsing</title>
<path fill="none" stroke="#475569" d="M1099.03,-605.05C1149.85,-601.4 1203.07,-597.58 1250.01,-594.22"/>
<polygon fill="#475569" stroke="#475569" points="1250.51,-597.69 1260.24,-593.48 1250.01,-590.71 1250.51,-597.69"/>
<text text-anchor="middle" x="1170" y="-606.8" font-family="Helvetica,sans-Serif" font-size="14.00">project I/O</text>
</g>
<!-- project_ide&#45;&gt;ast_tweedle -->
<g id="edge18" class="edge">
<title>project_ide&#45;&gt;ast_tweedle</title>
<path fill="none" stroke="#475569" d="M1099.03,-628.31C1177.94,-631.45 1262.61,-634.83 1320.63,-637.14"/>
<polygon fill="#475569" stroke="#475569" points="1320.65,-640.64 1330.78,-637.54 1320.93,-633.65 1320.65,-640.64"/>
<text text-anchor="middle" x="1170" y="-635.8" font-family="Helvetica,sans-Serif" font-size="14.00">editor/compiler</text>
</g>
<!-- runtime_api&#45;&gt;ast_tweedle -->
<g id="edge20" class="edge">
<title>runtime_api&#45;&gt;ast_tweedle</title>
<path fill="none" stroke="#475569" d="M976.01,-545C1047.65,-533.99 1149.68,-530.27 1223,-577 1237.75,-586.4 1226.96,-601.56 1241,-612 1263.65,-628.84 1293.37,-636.55 1320.48,-639.8"/>
<polygon fill="#475569" stroke="#475569" points="1320.42,-643.32 1330.72,-640.84 1321.12,-636.35 1320.42,-643.32"/>
<text text-anchor="middle" x="1170" y="-580.8" font-family="Helvetica,sans-Serif" font-size="14.00">runtime types</text>
</g>
<!-- runtime_api&#45;&gt;rendering -->
<g id="edge19" class="edge">
<title>runtime_api&#45;&gt;rendering</title>
<path fill="none" stroke="#475569" d="M1029.05,-546.33C1052.58,-542.12 1076.62,-537.05 1099,-531 1107.29,-528.76 1108.61,-525.81 1117,-524 1153.43,-516.14 1193.16,-511.67 1230.82,-509.25"/>
<polygon fill="#475569" stroke="#475569" points="1231.09,-512.74 1240.86,-508.66 1230.67,-505.76 1231.09,-512.74"/>
<text text-anchor="middle" x="1170" y="-527.8" font-family="Helvetica,sans-Serif" font-size="14.00">scene/render</text>
</g>
<!-- rendering&#45;&gt;three -->
<g id="edge23" class="edge">
<title>rendering&#45;&gt;three</title>
<path fill="none" stroke="#475569" d="M1546.06,-508.66C1629.95,-508.47 1728.82,-508.25 1787.44,-508.12"/>
<polygon fill="#475569" stroke="#475569" points="1787.56,-511.61 1797.55,-508.09 1787.54,-504.61 1787.56,-511.61"/>
<text text-anchor="middle" x="1621.5" y="-511.8" font-family="Helvetica,sans-Serif" font-size="14.00">3D engine</text>
</g>
<!-- rendering&#45;&gt;canvas -->
<g id="edge24" class="edge">
<title>rendering&#45;&gt;canvas</title>
<path fill="none" stroke="#475569" d="M1546.06,-527.77C1634.51,-538.73 1739.6,-551.75 1796.62,-558.81"/>
<polygon fill="#475569" stroke="#475569" points="1796.34,-562.3 1806.69,-560.06 1797.2,-555.36 1796.34,-562.3"/>
<text text-anchor="middle" x="1621.5" y="-546.8" font-family="Helvetica,sans-Serif" font-size="14.00">offscreen render</text>
</g>
<!-- test_harness -->
<g id="node20" class="node">
<title>test_harness</title>
<path fill="#f0fdf4" stroke="#334155" d="M107,-481C107,-481 28,-481 28,-481 22,-481 16,-475 16,-469 16,-469 16,-455 16,-455 16,-449 22,-443 28,-443 28,-443 107,-443 107,-443 113,-443 119,-449 119,-455 119,-455 119,-469 119,-469 119,-475 113,-481 107,-481"/>
<text text-anchor="middle" x="67.5" y="-465.8" font-family="Helvetica,sans-Serif" font-size="14.00">Test harness</text>
<text text-anchor="middle" x="67.5" y="-450.8" font-family="Helvetica,sans-Serif" font-size="14.00">test/*.test.ts</text>
</g>
<!-- test_harness&#45;&gt;vitest -->
<g id="edge26" class="edge">
<title>test_harness&#45;&gt;vitest</title>
<path fill="none" stroke="#475569" d="M69.27,-442.71C71.92,-401.59 83.82,-304.56 137,-249 223.69,-158.44 276.13,-151 401.5,-151 401.5,-151 401.5,-151 1394.5,-151 1542.42,-151 1718.04,-148.75 1796.73,-147.63"/>
<polygon fill="#475569" stroke="#475569" points="1796.79,-151.13 1806.74,-147.48 1796.69,-144.13 1796.79,-151.13"/>
<text text-anchor="middle" x="889.5" y="-154.8" font-family="Helvetica,sans-Serif" font-size="14.00">runner</text>
</g>
<!-- test_harness&#45;&gt;coverage -->
<g id="edge27" class="edge">
<title>test_harness&#45;&gt;coverage</title>
<path fill="none" stroke="#475569" d="M80.34,-442.61C118.64,-382.61 245.72,-204 401.5,-204 401.5,-204 401.5,-204 1394.5,-204 1517.71,-204 1660.15,-203.61 1749.78,-203.32"/>
<polygon fill="#475569" stroke="#475569" points="1749.91,-206.82 1759.9,-203.28 1749.89,-199.82 1749.91,-206.82"/>
<text text-anchor="middle" x="889.5" y="-207.8" font-family="Helvetica,sans-Serif" font-size="14.00">coverage</text>
</g>
<!-- test_harness&#45;&gt;jsdom -->
<g id="edge28" class="edge">
<title>test_harness&#45;&gt;jsdom</title>
<path fill="none" stroke="#475569" d="M70.25,-442.75C76.08,-382.77 96.8,-200.78 137,-160 221.91,-73.87 280.55,-96 401.5,-96 401.5,-96 401.5,-96 1394.5,-96 1539.47,-96 1711.05,-93.3 1791.91,-91.87"/>
<polygon fill="#475569" stroke="#475569" points="1792.31,-95.36 1802.24,-91.68 1792.18,-88.36 1792.31,-95.36"/>
<text text-anchor="middle" x="889.5" y="-99.8" font-family="Helvetica,sans-Serif" font-size="14.00">DOM emulation</text>
</g>
<!-- test_harness&#45;&gt;supertest -->
<g id="edge29" class="edge">
<title>test_harness&#45;&gt;supertest</title>
<path fill="none" stroke="#475569" d="M69.27,-442.78C72.44,-373.98 86.74,-141.47 137,-91 221.42,-6.22 281.86,-41 401.5,-41 401.5,-41 401.5,-41 1394.5,-41 1537,-41 1705.2,-37.87 1787.69,-36.13"/>
<polygon fill="#475569" stroke="#475569" points="1787.87,-39.63 1797.79,-35.92 1787.72,-32.63 1787.87,-39.63"/>
<text text-anchor="middle" x="889.5" y="-44.8" font-family="Helvetica,sans-Serif" font-size="14.00">API tests</text>
</g>
<!-- test_harness&#45;&gt;entries -->
<g id="edge30" class="edge">
<title>test_harness&#45;&gt;entries</title>
<path fill="none" stroke="#475569" d="M119.08,-467.77C159.33,-472.36 217.53,-479.01 270.65,-485.07"/>
<polygon fill="#475569" stroke="#475569" points="270.52,-488.58 280.85,-486.23 271.31,-481.62 270.52,-488.58"/>
<text text-anchor="middle" x="200" y="-486.8" font-family="Helvetica,sans-Serif" font-size="14.00">API/public surface</text>
</g>
<!-- test_harness&#45;&gt;ast_tweedle -->
<g id="edge31" class="edge">
<title>test_harness&#45;&gt;ast_tweedle</title>
<path fill="none" stroke="#475569" d="M85.76,-481.04C119.25,-516.38 197.15,-590.97 281,-618 656.46,-739.01 1140.88,-680.82 1320.96,-652.44"/>
<polygon fill="#475569" stroke="#475569" points="1321.52,-655.89 1330.84,-650.86 1320.42,-648.98 1321.52,-655.89"/>
<text text-anchor="middle" x="602" y="-688.8" font-family="Helvetica,sans-Serif" font-size="14.00">compiler/runtime</text>
</g>
<!-- test_harness&#45;&gt;project_ide -->
<g id="edge32" class="edge">
<title>test_harness&#45;&gt;project_ide</title>
<path fill="none" stroke="#475569" d="M96.9,-481.03C108.88,-488.4 123.22,-496.39 137,-502 308.83,-571.92 358.48,-575.88 542,-603 583.09,-609.07 627.2,-613.11 669.7,-615.76"/>
<polygon fill="#475569" stroke="#475569" points="669.7,-619.27 679.89,-616.37 670.12,-612.28 669.7,-619.27"/>
<text text-anchor="middle" x="402.5" y="-602.8" font-family="Helvetica,sans-Serif" font-size="14.00">workflow tests</text>
</g>
</g>
</svg>
